<svg width="1248" height="295" viewBox="0 0 1248 295" fill="none" xmlns="http://www.w3.org/2000/svg">
<rect x="244" y="180" width="178" height="72" rx="20" fill="#EBD39C"/>
<rect x="448" y="180" width="178" height="72" rx="20" fill="#E08283"/>
<rect x="652" y="180" width="178" height="72" rx="20" fill="#86A5C8"/>
<rect x="856" y="180" width="178" height="72" rx="20" fill="#B7B0EE"/>
<rect x="1060" y="180" width="178" height="72" rx="20" fill="#6BB96A"/>
<path d="M306.416 225L299.744 208.344H302.192L307.688 222.432H306.8L312.344 208.344H314.768L308.048 225H306.416ZM319.808 225.24C318.688 225.24 317.68 224.976 316.784 224.448C315.888 223.92 315.176 223.208 314.648 222.312C314.12 221.4 313.856 220.384 313.856 219.264C313.856 218.16 314.12 217.168 314.648 216.288C315.176 215.392 315.888 214.68 316.784 214.152C317.68 213.624 318.688 213.36 319.808 213.36C320.912 213.36 321.912 213.624 322.808 214.152C323.72 214.664 324.44 215.368 324.968 216.264C325.496 217.16 325.76 218.16 325.76 219.264C325.76 220.384 325.496 221.4 324.968 222.312C324.44 223.208 323.72 223.92 322.808 224.448C321.912 224.976 320.912 225.24 319.808 225.24ZM319.808 223.152C320.528 223.152 321.168 222.984 321.728 222.648C322.288 222.312 322.728 221.856 323.048 221.28C323.368 220.688 323.528 220.016 323.528 219.264C323.528 218.528 323.36 217.872 323.024 217.296C322.704 216.72 322.264 216.272 321.704 215.952C321.16 215.616 320.528 215.448 319.808 215.448C319.088 215.448 318.448 215.616 317.888 215.952C317.328 216.272 316.888 216.72 316.568 217.296C316.248 217.872 316.088 218.528 316.088 219.264C316.088 220.016 316.248 220.688 316.568 221.28C316.888 221.856 317.328 222.312 317.888 222.648C318.448 222.984 319.088 223.152 319.808 223.152ZM333.401 225.24C332.281 225.24 331.265 224.976 330.353 224.448C329.457 223.92 328.745 223.208 328.217 222.312C327.705 221.4 327.449 220.392 327.449 219.288C327.449 218.168 327.705 217.16 328.217 216.264C328.745 215.368 329.457 214.664 330.353 214.152C331.265 213.624 332.281 213.36 333.401 213.36C334.281 213.36 335.097 213.528 335.849 213.864C336.601 214.184 337.249 214.656 337.793 215.28L336.353 216.72C336.001 216.304 335.569 215.992 335.057 215.784C334.561 215.56 334.009 215.448 333.401 215.448C332.681 215.448 332.041 215.616 331.481 215.952C330.921 216.272 330.481 216.72 330.161 217.296C329.841 217.872 329.681 218.536 329.681 219.288C329.681 220.04 329.841 220.704 330.161 221.28C330.481 221.856 330.921 222.312 331.481 222.648C332.041 222.984 332.681 223.152 333.401 223.152C334.009 223.152 334.561 223.048 335.057 222.84C335.569 222.616 336.009 222.296 336.377 221.88L337.793 223.32C337.265 223.928 336.617 224.4 335.849 224.736C335.097 225.072 334.281 225.24 333.401 225.24ZM344.549 225.24C343.509 225.24 342.565 224.984 341.717 224.472C340.869 223.944 340.197 223.232 339.701 222.336C339.221 221.44 338.981 220.432 338.981 219.312C338.981 218.192 339.221 217.184 339.701 216.288C340.197 215.392 340.861 214.68 341.693 214.152C342.541 213.624 343.493 213.36 344.549 213.36C345.413 213.36 346.181 213.544 346.853 213.912C347.541 214.264 348.093 214.76 348.509 215.4C348.925 216.024 349.157 216.752 349.205 217.584V221.016C349.157 221.832 348.925 222.56 348.509 223.2C348.109 223.84 347.565 224.344 346.877 224.712C346.205 225.064 345.429 225.24 344.549 225.24ZM344.909 223.2C345.981 223.2 346.845 222.84 347.501 222.12C348.157 221.384 348.485 220.448 348.485 219.312C348.485 218.528 348.333 217.848 348.029 217.272C347.741 216.68 347.325 216.224 346.781 215.904C346.237 215.568 345.605 215.4 344.885 215.4C344.165 215.4 343.525 215.568 342.965 215.904C342.421 216.24 341.989 216.704 341.669 217.296C341.365 217.872 341.213 218.536 341.213 219.288C341.213 220.056 341.365 220.736 341.669 221.328C341.989 221.904 342.429 222.36 342.989 222.696C343.549 223.032 344.189 223.2 344.909 223.2ZM348.341 225V221.928L348.749 219.144L348.341 216.384V213.6H350.525V225H348.341ZM359.67 225.24C358.806 225.24 358.022 225.064 357.318 224.712C356.63 224.344 356.078 223.84 355.662 223.2C355.246 222.56 355.014 221.832 354.966 221.016V217.584C355.014 216.752 355.246 216.024 355.662 215.4C356.094 214.76 356.654 214.264 357.342 213.912C358.046 213.544 358.822 213.36 359.67 213.36C360.71 213.36 361.646 213.624 362.478 214.152C363.326 214.68 363.99 215.392 364.47 216.288C364.95 217.184 365.19 218.192 365.19 219.312C365.19 220.432 364.95 221.44 364.47 222.336C363.99 223.232 363.326 223.944 362.478 224.472C361.646 224.984 360.71 225.24 359.67 225.24ZM353.67 225V207.864H355.83V216.384L355.422 219.144L355.83 221.928V225H353.67ZM359.31 223.2C360.03 223.2 360.662 223.032 361.206 222.696C361.75 222.36 362.182 221.904 362.502 221.328C362.822 220.736 362.982 220.056 362.982 219.288C362.982 218.536 362.822 217.864 362.502 217.272C362.182 216.68 361.75 216.224 361.206 215.904C360.662 215.568 360.038 215.4 359.334 215.4C358.614 215.4 357.982 215.568 357.438 215.904C356.894 216.224 356.47 216.68 356.166 217.272C355.862 217.864 355.71 218.544 355.71 219.312C355.71 220.064 355.854 220.736 356.142 221.328C356.446 221.904 356.87 222.36 357.414 222.696C357.974 223.032 358.606 223.2 359.31 223.2Z" fill="black"/>
<path d="M496.48 214.752V212.856H500.992C501.968 212.856 502.72 212.608 503.248 212.112C503.776 211.616 504.04 210.944 504.04 210.096C504.04 209.296 503.776 208.632 503.248 208.104C502.736 207.576 501.992 207.312 501.016 207.312H496.48V205.344H501.088C502.144 205.344 503.064 205.552 503.848 205.968C504.632 206.368 505.232 206.92 505.648 207.624C506.08 208.328 506.296 209.136 506.296 210.048C506.296 210.992 506.08 211.816 505.648 212.52C505.232 213.224 504.632 213.776 503.848 214.176C503.064 214.56 502.144 214.752 501.088 214.752H496.48ZM494.968 222V205.344H497.224V222H494.968ZM504.568 222L498.52 214.536L500.656 213.792L507.424 222H504.568ZM514.278 222.24C513.142 222.24 512.118 221.984 511.206 221.472C510.294 220.944 509.574 220.232 509.046 219.336C508.518 218.44 508.254 217.424 508.254 216.288C508.254 215.168 508.51 214.16 509.022 213.264C509.55 212.368 510.254 211.664 511.134 211.152C512.03 210.624 513.03 210.36 514.134 210.36C515.19 210.36 516.118 210.6 516.918 211.08C517.734 211.56 518.366 212.224 518.814 213.072C519.278 213.92 519.51 214.88 519.51 215.952C519.51 216.112 519.502 216.288 519.486 216.48C519.47 216.656 519.438 216.864 519.39 217.104H509.766V215.304H518.238L517.446 216C517.446 215.232 517.31 214.584 517.038 214.056C516.766 213.512 516.382 213.096 515.886 212.808C515.39 212.504 514.79 212.352 514.086 212.352C513.35 212.352 512.702 212.512 512.142 212.832C511.582 213.152 511.15 213.6 510.846 214.176C510.542 214.752 510.39 215.432 510.39 216.216C510.39 217.016 510.55 217.72 510.87 218.328C511.19 218.92 511.646 219.384 512.238 219.72C512.83 220.04 513.51 220.2 514.278 220.2C514.918 220.2 515.502 220.088 516.03 219.864C516.574 219.64 517.038 219.304 517.422 218.856L518.814 220.272C518.27 220.912 517.598 221.4 516.798 221.736C516.014 222.072 515.174 222.24 514.278 222.24ZM526.713 222.24C525.673 222.24 524.729 221.984 523.881 221.472C523.033 220.944 522.361 220.232 521.865 219.336C521.385 218.44 521.145 217.432 521.145 216.312C521.145 215.192 521.385 214.184 521.865 213.288C522.361 212.392 523.025 211.68 523.857 211.152C524.705 210.624 525.657 210.36 526.713 210.36C527.577 210.36 528.345 210.544 529.017 210.912C529.705 211.264 530.257 211.76 530.673 212.4C531.089 213.024 531.321 213.752 531.369 214.584V218.016C531.321 218.832 531.089 219.56 530.673 220.2C530.273 220.84 529.729 221.344 529.041 221.712C528.369 222.064 527.593 222.24 526.713 222.24ZM527.073 220.2C528.145 220.2 529.009 219.84 529.665 219.12C530.321 218.384 530.649 217.448 530.649 216.312C530.649 215.528 530.497 214.848 530.193 214.272C529.905 213.68 529.489 213.224 528.945 212.904C528.401 212.568 527.769 212.4 527.049 212.4C526.329 212.4 525.689 212.568 525.129 212.904C524.585 213.24 524.153 213.704 523.833 214.296C523.529 214.872 523.377 215.536 523.377 216.288C523.377 217.056 523.529 217.736 523.833 218.328C524.153 218.904 524.593 219.36 525.153 219.696C525.713 220.032 526.353 220.2 527.073 220.2ZM530.505 222V218.928L530.913 216.144L530.505 213.384V210.6H532.689V222H530.505ZM540.658 222.24C539.602 222.24 538.658 221.984 537.826 221.472C536.994 220.944 536.33 220.232 535.834 219.336C535.354 218.44 535.114 217.432 535.114 216.312C535.114 215.192 535.354 214.184 535.834 213.288C536.33 212.392 536.994 211.68 537.826 211.152C538.658 210.624 539.602 210.36 540.658 210.36C541.506 210.36 542.274 210.544 542.962 210.912C543.65 211.264 544.202 211.76 544.618 212.4C545.05 213.024 545.29 213.752 545.338 214.584V218.016C545.29 218.832 545.058 219.56 544.642 220.2C544.226 220.84 543.674 221.344 542.986 221.712C542.298 222.064 541.522 222.24 540.658 222.24ZM541.018 220.2C541.738 220.2 542.362 220.032 542.89 219.696C543.434 219.36 543.858 218.904 544.162 218.328C544.466 217.736 544.618 217.064 544.618 216.312C544.618 215.528 544.458 214.848 544.138 214.272C543.834 213.696 543.41 213.24 542.866 212.904C542.338 212.568 541.714 212.4 540.994 212.4C540.274 212.4 539.642 212.568 539.098 212.904C538.554 213.24 538.122 213.704 537.802 214.296C537.498 214.872 537.346 215.536 537.346 216.288C537.346 217.056 537.498 217.736 537.802 218.328C538.122 218.904 538.554 219.36 539.098 219.696C539.658 220.032 540.298 220.2 541.018 220.2ZM546.658 222H544.474V218.928L544.882 216.144L544.474 213.384V204.864H546.658V222ZM549.827 222V210.6H551.987V222H549.827ZM550.907 208.32C550.507 208.32 550.179 208.192 549.923 207.936C549.667 207.664 549.539 207.328 549.539 206.928C549.539 206.544 549.667 206.224 549.923 205.968C550.179 205.696 550.507 205.56 550.907 205.56C551.307 205.56 551.635 205.696 551.891 205.968C552.147 206.224 552.275 206.544 552.275 206.928C552.275 207.328 552.147 207.664 551.891 207.936C551.635 208.192 551.307 208.32 550.907 208.32ZM563.234 222V215.352C563.234 214.488 562.962 213.776 562.418 213.216C561.874 212.656 561.17 212.376 560.306 212.376C559.73 212.376 559.218 212.504 558.77 212.76C558.322 213.016 557.97 213.368 557.714 213.816C557.458 214.264 557.33 214.776 557.33 215.352L556.442 214.848C556.442 213.984 556.634 213.216 557.018 212.544C557.402 211.872 557.938 211.344 558.626 210.96C559.314 210.56 560.09 210.36 560.954 210.36C561.818 210.36 562.578 210.576 563.234 211.008C563.906 211.44 564.434 212.008 564.818 212.712C565.202 213.4 565.394 214.136 565.394 214.92V222H563.234ZM555.17 222V210.6H557.33V222H555.17ZM573.046 227.016C571.878 227.016 570.838 226.8 569.926 226.368C569.03 225.936 568.31 225.328 567.766 224.544L569.158 223.128C569.622 223.72 570.174 224.168 570.814 224.472C571.454 224.792 572.214 224.952 573.094 224.952C574.262 224.952 575.182 224.64 575.854 224.016C576.542 223.408 576.886 222.584 576.886 221.544V218.712L577.27 216.144L576.886 213.6V210.6H579.046V221.544C579.046 222.632 578.79 223.584 578.278 224.4C577.782 225.216 577.078 225.856 576.166 226.32C575.27 226.784 574.23 227.016 573.046 227.016ZM573.046 221.808C572.006 221.808 571.07 221.56 570.238 221.064C569.422 220.568 568.774 219.888 568.294 219.024C567.814 218.144 567.574 217.16 567.574 216.072C567.574 214.984 567.814 214.016 568.294 213.168C568.774 212.304 569.422 211.624 570.238 211.128C571.07 210.616 572.006 210.36 573.046 210.36C573.942 210.36 574.734 210.536 575.422 210.888C576.11 211.24 576.654 211.736 577.054 212.376C577.47 213 577.694 213.736 577.726 214.584V217.608C577.678 218.44 577.446 219.176 577.03 219.816C576.63 220.44 576.086 220.928 575.398 221.28C574.71 221.632 573.926 221.808 573.046 221.808ZM573.478 219.768C574.182 219.768 574.798 219.616 575.326 219.312C575.87 219.008 576.286 218.584 576.574 218.04C576.862 217.48 577.006 216.832 577.006 216.096C577.006 215.36 576.854 214.72 576.55 214.176C576.262 213.616 575.854 213.184 575.326 212.88C574.798 212.56 574.174 212.4 573.454 212.4C572.734 212.4 572.102 212.56 571.558 212.88C571.014 213.184 570.582 213.616 570.262 214.176C569.958 214.72 569.806 215.352 569.806 216.072C569.806 216.792 569.958 217.432 570.262 217.992C570.582 218.552 571.014 218.992 571.558 219.312C572.118 219.616 572.758 219.768 573.478 219.768Z" fill="black"/>
<path d="M713.968 222V205.344H715.552L722.608 216.936H721.528L728.584 205.344H730.168V222H727.912V209.304L728.44 209.448L722.872 218.592H721.288L715.72 209.448L716.224 209.304V222H713.968ZM738.565 222.24C737.525 222.24 736.581 221.984 735.733 221.472C734.885 220.944 734.213 220.232 733.717 219.336C733.237 218.44 732.997 217.432 732.997 216.312C732.997 215.192 733.237 214.184 733.717 213.288C734.213 212.392 734.877 211.68 735.709 211.152C736.557 210.624 737.509 210.36 738.565 210.36C739.429 210.36 740.197 210.544 740.869 210.912C741.557 211.264 742.109 211.76 742.525 212.4C742.941 213.024 743.173 213.752 743.221 214.584V218.016C743.173 218.832 742.941 219.56 742.525 220.2C742.125 220.84 741.581 221.344 740.893 221.712C740.221 222.064 739.445 222.24 738.565 222.24ZM738.925 220.2C739.997 220.2 740.861 219.84 741.517 219.12C742.173 218.384 742.501 217.448 742.501 216.312C742.501 215.528 742.349 214.848 742.045 214.272C741.757 213.68 741.341 213.224 740.797 212.904C740.253 212.568 739.621 212.4 738.901 212.4C738.181 212.4 737.541 212.568 736.981 212.904C736.437 213.24 736.005 213.704 735.685 214.296C735.381 214.872 735.229 215.536 735.229 216.288C735.229 217.056 735.381 217.736 735.685 218.328C736.005 218.904 736.445 219.36 737.005 219.696C737.565 220.032 738.205 220.2 738.925 220.2ZM742.357 222V218.928L742.765 216.144L742.357 213.384V210.6H744.541V222H742.357ZM749.391 222V205.824H751.551V222H749.391ZM746.583 212.568V210.6H754.359V212.568H746.583ZM764.539 222V215.352C764.539 214.488 764.267 213.776 763.723 213.216C763.179 212.656 762.475 212.376 761.611 212.376C761.035 212.376 760.523 212.504 760.075 212.76C759.627 213.016 759.275 213.368 759.019 213.816C758.763 214.264 758.635 214.776 758.635 215.352L757.747 214.848C757.747 213.984 757.939 213.216 758.323 212.544C758.707 211.872 759.243 211.344 759.931 210.96C760.619 210.56 761.395 210.36 762.259 210.36C763.123 210.36 763.883 210.552 764.539 210.936C765.211 211.32 765.739 211.856 766.123 212.544C766.507 213.232 766.699 214.024 766.699 214.92V222H764.539ZM756.475 222V204.864H758.635V222H756.475Z" fill="black"/>
<path d="M911.216 222L905.768 205.344H908.024L912.344 218.928H911.696L915.944 205.344H917.576L921.824 218.928H921.2L925.52 205.344H927.752L922.328 222H920.72L916.448 208.44H917.072L912.824 222H911.216ZM928.592 222V210.6H930.752V222H928.592ZM930.752 215.496L929.936 215.136C929.936 213.68 930.272 212.52 930.944 211.656C931.616 210.792 932.584 210.36 933.848 210.36C934.424 210.36 934.944 210.464 935.408 210.672C935.872 210.864 936.304 211.192 936.704 211.656L935.288 213.12C935.048 212.864 934.784 212.68 934.496 212.568C934.208 212.456 933.872 212.4 933.488 212.4C932.688 212.4 932.032 212.656 931.52 213.168C931.008 213.68 930.752 214.456 930.752 215.496ZM938.249 222V210.6H940.409V222H938.249ZM939.329 208.32C938.929 208.32 938.601 208.192 938.345 207.936C938.089 207.664 937.961 207.328 937.961 206.928C937.961 206.544 938.089 206.224 938.345 205.968C938.601 205.696 938.929 205.56 939.329 205.56C939.729 205.56 940.057 205.696 940.313 205.968C940.569 206.224 940.697 206.544 940.697 206.928C940.697 207.328 940.569 207.664 940.313 207.936C940.057 208.192 939.729 208.32 939.329 208.32ZM945.344 222V205.824H947.504V222H945.344ZM942.536 212.568V210.6H950.312V212.568H942.536ZM952.452 222V210.6H954.612V222H952.452ZM953.532 208.32C953.132 208.32 952.804 208.192 952.548 207.936C952.292 207.664 952.164 207.328 952.164 206.928C952.164 206.544 952.292 206.224 952.548 205.968C952.804 205.696 953.132 205.56 953.532 205.56C953.932 205.56 954.26 205.696 954.516 205.968C954.772 206.224 954.9 206.544 954.9 206.928C954.9 207.328 954.772 207.664 954.516 207.936C954.26 208.192 953.932 208.32 953.532 208.32ZM965.859 222V215.352C965.859 214.488 965.587 213.776 965.043 213.216C964.499 212.656 963.795 212.376 962.931 212.376C962.355 212.376 961.843 212.504 961.395 212.76C960.947 213.016 960.595 213.368 960.339 213.816C960.083 214.264 959.955 214.776 959.955 215.352L959.067 214.848C959.067 213.984 959.259 213.216 959.643 212.544C960.027 211.872 960.563 211.344 961.251 210.96C961.939 210.56 962.715 210.36 963.579 210.36C964.443 210.36 965.203 210.576 965.859 211.008C966.531 211.44 967.059 212.008 967.443 212.712C967.827 213.4 968.019 214.136 968.019 214.92V222H965.859ZM957.795 222V210.6H959.955V222H957.795ZM975.671 227.016C974.503 227.016 973.463 226.8 972.551 226.368C971.655 225.936 970.935 225.328 970.391 224.544L971.783 223.128C972.247 223.72 972.799 224.168 973.439 224.472C974.079 224.792 974.839 224.952 975.719 224.952C976.887 224.952 977.807 224.64 978.479 224.016C979.167 223.408 979.511 222.584 979.511 221.544V218.712L979.895 216.144L979.511 213.6V210.6H981.671V221.544C981.671 222.632 981.415 223.584 980.903 224.4C980.407 225.216 979.703 225.856 978.791 226.32C977.895 226.784 976.855 227.016 975.671 227.016ZM975.671 221.808C974.631 221.808 973.695 221.56 972.863 221.064C972.047 220.568 971.399 219.888 970.919 219.024C970.439 218.144 970.199 217.16 970.199 216.072C970.199 214.984 970.439 214.016 970.919 213.168C971.399 212.304 972.047 211.624 972.863 211.128C973.695 210.616 974.631 210.36 975.671 210.36C976.567 210.36 977.359 210.536 978.047 210.888C978.735 211.24 979.279 211.736 979.679 212.376C980.095 213 980.319 213.736 980.351 214.584V217.608C980.303 218.44 980.071 219.176 979.655 219.816C979.255 220.44 978.711 220.928 978.023 221.28C977.335 221.632 976.551 221.808 975.671 221.808ZM976.103 219.768C976.807 219.768 977.423 219.616 977.951 219.312C978.495 219.008 978.911 218.584 979.199 218.04C979.487 217.48 979.631 216.832 979.631 216.096C979.631 215.36 979.479 214.72 979.175 214.176C978.887 213.616 978.479 213.184 977.951 212.88C977.423 212.56 976.799 212.4 976.079 212.4C975.359 212.4 974.727 212.56 974.183 212.88C973.639 213.184 973.207 213.616 972.887 214.176C972.583 214.72 972.431 215.352 972.431 216.072C972.431 216.792 972.583 217.432 972.887 217.992C973.207 218.552 973.639 218.992 974.183 219.312C974.743 219.616 975.383 219.768 976.103 219.768Z" fill="black"/>
<path d="M1109.77 210.24C1108.57 210.24 1107.45 210.024 1106.43 209.592C1105.41 209.144 1104.51 208.528 1103.74 207.744C1102.99 206.96 1102.41 206.048 1101.99 205.008C1101.57 203.968 1101.37 202.856 1101.37 201.672C1101.37 200.472 1101.57 199.352 1101.99 198.312C1102.41 197.272 1102.99 196.368 1103.74 195.6C1104.51 194.816 1105.4 194.208 1106.41 193.776C1107.43 193.328 1108.54 193.104 1109.74 193.104C1111.05 193.104 1112.21 193.328 1113.2 193.776C1114.19 194.224 1115.07 194.832 1115.84 195.6L1114.28 197.16C1113.75 196.568 1113.1 196.104 1112.33 195.768C1111.58 195.432 1110.72 195.264 1109.74 195.264C1108.86 195.264 1108.05 195.424 1107.32 195.744C1106.58 196.048 1105.94 196.488 1105.4 197.064C1104.85 197.64 1104.43 198.32 1104.13 199.104C1103.84 199.888 1103.69 200.744 1103.69 201.672C1103.69 202.6 1103.84 203.456 1104.13 204.24C1104.43 205.024 1104.85 205.704 1105.4 206.28C1105.94 206.856 1106.58 207.304 1107.32 207.624C1108.05 207.928 1108.86 208.08 1109.74 208.08C1110.78 208.08 1111.69 207.912 1112.45 207.576C1113.22 207.224 1113.87 206.752 1114.4 206.16L1115.96 207.696C1115.19 208.496 1114.29 209.12 1113.25 209.568C1112.22 210.016 1111.06 210.24 1109.77 210.24ZM1123.16 210.24C1122.04 210.24 1121.03 209.976 1120.13 209.448C1119.24 208.92 1118.52 208.208 1118 207.312C1117.47 206.4 1117.2 205.384 1117.2 204.264C1117.2 203.16 1117.47 202.168 1118 201.288C1118.52 200.392 1119.24 199.68 1120.13 199.152C1121.03 198.624 1122.04 198.36 1123.16 198.36C1124.26 198.36 1125.26 198.624 1126.16 199.152C1127.07 199.664 1127.79 200.368 1128.32 201.264C1128.84 202.16 1129.11 203.16 1129.11 204.264C1129.11 205.384 1128.84 206.4 1128.32 207.312C1127.79 208.208 1127.07 208.92 1126.16 209.448C1125.26 209.976 1124.26 210.24 1123.16 210.24ZM1123.16 208.152C1123.88 208.152 1124.52 207.984 1125.08 207.648C1125.64 207.312 1126.08 206.856 1126.4 206.28C1126.72 205.688 1126.88 205.016 1126.88 204.264C1126.88 203.528 1126.71 202.872 1126.37 202.296C1126.05 201.72 1125.61 201.272 1125.05 200.952C1124.51 200.616 1123.88 200.448 1123.16 200.448C1122.44 200.448 1121.8 200.616 1121.24 200.952C1120.68 201.272 1120.24 201.72 1119.92 202.296C1119.6 202.872 1119.44 203.528 1119.44 204.264C1119.44 205.016 1119.6 205.688 1119.92 206.28C1120.24 206.856 1120.68 207.312 1121.24 207.648C1121.8 207.984 1122.44 208.152 1123.16 208.152ZM1131.54 210V198.6H1133.7V210H1131.54ZM1139.25 210V203.112C1139.25 202.264 1138.98 201.6 1138.45 201.12C1137.94 200.624 1137.29 200.376 1136.51 200.376C1135.98 200.376 1135.51 200.488 1135.09 200.712C1134.68 200.936 1134.34 201.248 1134.09 201.648C1133.83 202.048 1133.7 202.528 1133.7 203.088L1132.81 202.656C1132.81 201.792 1133 201.04 1133.37 200.4C1133.75 199.76 1134.27 199.264 1134.93 198.912C1135.58 198.544 1136.32 198.36 1137.13 198.36C1137.93 198.36 1138.65 198.536 1139.29 198.888C1139.95 199.24 1140.46 199.736 1140.83 200.376C1141.21 201.016 1141.41 201.776 1141.41 202.656V210H1139.25ZM1146.95 210V203.112C1146.95 202.264 1146.69 201.6 1146.16 201.12C1145.65 200.624 1145.01 200.376 1144.24 200.376C1143.71 200.376 1143.23 200.488 1142.8 200.712C1142.38 200.936 1142.05 201.248 1141.79 201.648C1141.53 202.048 1141.41 202.528 1141.41 203.088L1140.18 202.656C1140.23 201.776 1140.46 201.024 1140.88 200.4C1141.31 199.76 1141.86 199.264 1142.53 198.912C1143.21 198.544 1143.94 198.36 1144.74 198.36C1145.57 198.36 1146.32 198.536 1146.97 198.888C1147.63 199.24 1148.15 199.736 1148.53 200.376C1148.93 201.016 1149.13 201.784 1149.13 202.68V210H1146.95ZM1152.07 210V198.6H1154.23V210H1152.07ZM1159.78 210V203.112C1159.78 202.264 1159.51 201.6 1158.98 201.12C1158.47 200.624 1157.82 200.376 1157.04 200.376C1156.51 200.376 1156.04 200.488 1155.62 200.712C1155.21 200.936 1154.87 201.248 1154.62 201.648C1154.36 202.048 1154.23 202.528 1154.23 203.088L1153.34 202.656C1153.34 201.792 1153.53 201.04 1153.9 200.4C1154.28 199.76 1154.8 199.264 1155.46 198.912C1156.11 198.544 1156.85 198.36 1157.66 198.36C1158.46 198.36 1159.18 198.536 1159.82 198.888C1160.48 199.24 1160.99 199.736 1161.36 200.376C1161.74 201.016 1161.94 201.776 1161.94 202.656V210H1159.78ZM1167.48 210V203.112C1167.48 202.264 1167.22 201.6 1166.69 201.12C1166.18 200.624 1165.54 200.376 1164.77 200.376C1164.24 200.376 1163.76 200.488 1163.33 200.712C1162.91 200.936 1162.58 201.248 1162.32 201.648C1162.06 202.048 1161.94 202.528 1161.94 203.088L1160.71 202.656C1160.76 201.776 1160.99 201.024 1161.41 200.4C1161.84 199.76 1162.39 199.264 1163.06 198.912C1163.74 198.544 1164.47 198.36 1165.27 198.36C1166.1 198.36 1166.85 198.536 1167.5 198.888C1168.16 199.24 1168.68 199.736 1169.06 200.376C1169.46 201.016 1169.66 201.784 1169.66 202.68V210H1167.48ZM1177.81 210.24C1176.69 210.24 1175.68 209.976 1174.79 209.448C1173.89 208.92 1173.18 208.208 1172.65 207.312C1172.12 206.4 1171.86 205.384 1171.86 204.264C1171.86 203.16 1172.12 202.168 1172.65 201.288C1173.18 200.392 1173.89 199.68 1174.79 199.152C1175.68 198.624 1176.69 198.36 1177.81 198.36C1178.92 198.36 1179.92 198.624 1180.81 199.152C1181.72 199.664 1182.44 200.368 1182.97 201.264C1183.5 202.16 1183.76 203.16 1183.76 204.264C1183.76 205.384 1183.5 206.4 1182.97 207.312C1182.44 208.208 1181.72 208.92 1180.81 209.448C1179.92 209.976 1178.92 210.24 1177.81 210.24ZM1177.81 208.152C1178.53 208.152 1179.17 207.984 1179.73 207.648C1180.29 207.312 1180.73 206.856 1181.05 206.28C1181.37 205.688 1181.53 205.016 1181.53 204.264C1181.53 203.528 1181.36 202.872 1181.03 202.296C1180.71 201.72 1180.27 201.272 1179.71 200.952C1179.16 200.616 1178.53 200.448 1177.81 200.448C1177.09 200.448 1176.45 200.616 1175.89 200.952C1175.33 201.272 1174.89 201.72 1174.57 202.296C1174.25 202.872 1174.09 203.528 1174.09 204.264C1174.09 205.016 1174.25 205.688 1174.57 206.28C1174.89 206.856 1175.33 207.312 1175.89 207.648C1176.45 207.984 1177.09 208.152 1177.81 208.152ZM1194.26 210V203.352C1194.26 202.488 1193.99 201.776 1193.45 201.216C1192.9 200.656 1192.2 200.376 1191.33 200.376C1190.76 200.376 1190.25 200.504 1189.8 200.76C1189.35 201.016 1189 201.368 1188.74 201.816C1188.49 202.264 1188.36 202.776 1188.36 203.352L1187.47 202.848C1187.47 201.984 1187.66 201.216 1188.05 200.544C1188.43 199.872 1188.97 199.344 1189.65 198.96C1190.34 198.56 1191.12 198.36 1191.98 198.36C1192.85 198.36 1193.61 198.576 1194.26 199.008C1194.93 199.44 1195.46 200.008 1195.85 200.712C1196.23 201.4 1196.42 202.136 1196.42 202.92V210H1194.26ZM1186.2 210V198.6H1188.36V210H1186.2ZM1132.61 240.24C1131.41 240.24 1130.29 240.024 1129.27 239.592C1128.25 239.144 1127.35 238.528 1126.58 237.744C1125.83 236.96 1125.25 236.048 1124.83 235.008C1124.41 233.968 1124.21 232.856 1124.21 231.672C1124.21 230.472 1124.41 229.352 1124.83 228.312C1125.25 227.272 1125.83 226.368 1126.58 225.6C1127.35 224.816 1128.24 224.208 1129.25 223.776C1130.27 223.328 1131.38 223.104 1132.58 223.104C1133.89 223.104 1135.05 223.328 1136.04 223.776C1137.03 224.224 1137.91 224.832 1138.68 225.6L1137.12 227.16C1136.59 226.568 1135.94 226.104 1135.17 225.768C1134.42 225.432 1133.56 225.264 1132.58 225.264C1131.7 225.264 1130.89 225.424 1130.16 225.744C1129.42 226.048 1128.78 226.488 1128.24 227.064C1127.69 227.64 1127.27 228.32 1126.97 229.104C1126.68 229.888 1126.53 230.744 1126.53 231.672C1126.53 232.6 1126.68 233.456 1126.97 234.24C1127.27 235.024 1127.69 235.704 1128.24 236.28C1128.78 236.856 1129.42 237.304 1130.16 237.624C1130.89 237.928 1131.7 238.08 1132.58 238.08C1133.62 238.08 1134.53 237.912 1135.29 237.576C1136.06 237.224 1136.71 236.752 1137.24 236.16L1138.8 237.696C1138.03 238.496 1137.13 239.12 1136.09 239.568C1135.06 240.016 1133.9 240.24 1132.61 240.24ZM1146 240.24C1144.88 240.24 1143.87 239.976 1142.97 239.448C1142.08 238.92 1141.36 238.208 1140.84 237.312C1140.31 236.4 1140.04 235.384 1140.04 234.264C1140.04 233.16 1140.31 232.168 1140.84 231.288C1141.36 230.392 1142.08 229.68 1142.97 229.152C1143.87 228.624 1144.88 228.36 1146 228.36C1147.1 228.36 1148.1 228.624 1149 229.152C1149.91 229.664 1150.63 230.368 1151.16 231.264C1151.68 232.16 1151.95 233.16 1151.95 234.264C1151.95 235.384 1151.68 236.4 1151.16 237.312C1150.63 238.208 1149.91 238.92 1149 239.448C1148.1 239.976 1147.1 240.24 1146 240.24ZM1146 238.152C1146.72 238.152 1147.36 237.984 1147.92 237.648C1148.48 237.312 1148.92 236.856 1149.24 236.28C1149.56 235.688 1149.72 235.016 1149.72 234.264C1149.72 233.528 1149.55 232.872 1149.21 232.296C1148.89 231.72 1148.45 231.272 1147.89 230.952C1147.35 230.616 1146.72 230.448 1146 230.448C1145.28 230.448 1144.64 230.616 1144.08 230.952C1143.52 231.272 1143.08 231.72 1142.76 232.296C1142.44 232.872 1142.28 233.528 1142.28 234.264C1142.28 235.016 1142.44 235.688 1142.76 236.28C1143.08 236.856 1143.52 237.312 1144.08 237.648C1144.64 237.984 1145.28 238.152 1146 238.152ZM1154.38 240V228.6H1156.54V240H1154.38ZM1156.54 233.496L1155.72 233.136C1155.72 231.68 1156.06 230.52 1156.73 229.656C1157.4 228.792 1158.37 228.36 1159.64 228.36C1160.21 228.36 1160.73 228.464 1161.2 228.672C1161.66 228.864 1162.09 229.192 1162.49 229.656L1161.08 231.12C1160.84 230.864 1160.57 230.68 1160.28 230.568C1160 230.456 1159.66 230.4 1159.28 230.4C1158.48 230.4 1157.82 230.656 1157.31 231.168C1156.8 231.68 1156.54 232.456 1156.54 233.496ZM1168.92 240.24C1167.78 240.24 1166.76 239.984 1165.85 239.472C1164.93 238.944 1164.21 238.232 1163.69 237.336C1163.16 236.44 1162.89 235.424 1162.89 234.288C1162.89 233.168 1163.15 232.16 1163.66 231.264C1164.19 230.368 1164.89 229.664 1165.77 229.152C1166.67 228.624 1167.67 228.36 1168.77 228.36C1169.83 228.36 1170.76 228.6 1171.56 229.08C1172.37 229.56 1173.01 230.224 1173.45 231.072C1173.92 231.92 1174.15 232.88 1174.15 233.952C1174.15 234.112 1174.14 234.288 1174.13 234.48C1174.11 234.656 1174.08 234.864 1174.03 235.104H1164.41V233.304H1172.88L1172.09 234C1172.09 233.232 1171.95 232.584 1171.68 232.056C1171.41 231.512 1171.02 231.096 1170.53 230.808C1170.03 230.504 1169.43 230.352 1168.73 230.352C1167.99 230.352 1167.34 230.512 1166.78 230.832C1166.22 231.152 1165.79 231.6 1165.49 232.176C1165.18 232.752 1165.03 233.432 1165.03 234.216C1165.03 235.016 1165.19 235.72 1165.51 236.328C1165.83 236.92 1166.29 237.384 1166.88 237.72C1167.47 238.04 1168.15 238.2 1168.92 238.2C1169.56 238.2 1170.14 238.088 1170.67 237.864C1171.21 237.64 1171.68 237.304 1172.06 236.856L1173.45 238.272C1172.91 238.912 1172.24 239.4 1171.44 239.736C1170.65 240.072 1169.81 240.24 1168.92 240.24Z" fill="black"/>
<path d="M303.624 32V9.792H305.736L315.144 25.248H313.704L323.112 9.792H325.224V32H322.216V15.072L322.92 15.264L315.496 27.456H313.384L305.96 15.264L306.632 15.072V32H303.624ZM336.9 32.32C335.406 32.32 334.062 31.968 332.868 31.264C331.673 30.56 330.724 29.6107 330.02 28.416C329.316 27.2 328.964 25.8453 328.964 24.352C328.964 22.88 329.316 21.5573 330.02 20.384C330.724 19.1893 331.673 18.24 332.868 17.536C334.062 16.832 335.406 16.48 336.9 16.48C338.372 16.48 339.705 16.832 340.9 17.536C342.116 18.2187 343.076 19.1573 343.78 20.352C344.484 21.5467 344.836 22.88 344.836 24.352C344.836 25.8453 344.484 27.2 343.78 28.416C343.076 29.6107 342.116 30.56 340.9 31.264C339.705 31.968 338.372 32.32 336.9 32.32ZM336.9 29.536C337.86 29.536 338.713 29.312 339.46 28.864C340.206 28.416 340.793 27.808 341.22 27.04C341.646 26.2507 341.86 25.3547 341.86 24.352C341.86 23.3707 341.636 22.496 341.188 21.728C340.761 20.96 340.174 20.3627 339.428 19.936C338.702 19.488 337.86 19.264 336.9 19.264C335.94 19.264 335.086 19.488 334.34 19.936C333.593 20.3627 333.006 20.96 332.58 21.728C332.153 22.496 331.94 23.3707 331.94 24.352C331.94 25.3547 332.153 26.2507 332.58 27.04C333.006 27.808 333.593 28.416 334.34 28.864C335.086 29.312 335.94 29.536 336.9 29.536ZM358.833 32V23.136C358.833 21.984 358.47 21.0347 357.745 20.288C357.019 19.5413 356.081 19.168 354.929 19.168C354.161 19.168 353.478 19.3387 352.881 19.68C352.283 20.0213 351.814 20.4907 351.473 21.088C351.131 21.6853 350.961 22.368 350.961 23.136L349.777 22.464C349.777 21.312 350.033 20.288 350.545 19.392C351.057 18.496 351.771 17.792 352.689 17.28C353.606 16.7467 354.641 16.48 355.793 16.48C356.945 16.48 357.958 16.768 358.833 17.344C359.729 17.92 360.433 18.6773 360.945 19.616C361.457 20.5333 361.713 21.5147 361.713 22.56V32H358.833ZM348.081 32V16.8H350.961V32H348.081Z" fill="black"/>
<path d="M517.512 33V11.432H520.52V33H517.512ZM509.96 13.544V10.792H528.04V13.544H509.96ZM534.099 33.32C532.862 33.32 531.742 33.0427 530.739 32.488C529.758 31.912 528.99 31.1227 528.435 30.12C527.88 29.1173 527.603 27.9547 527.603 26.632V17.8H530.483V26.504C530.483 27.336 530.622 28.0613 530.899 28.68C531.198 29.2773 531.624 29.736 532.179 30.056C532.734 30.376 533.384 30.536 534.131 30.536C535.262 30.536 536.147 30.184 536.787 29.48C537.427 28.7547 537.747 27.7627 537.747 26.504V17.8H540.627V26.632C540.627 27.9547 540.35 29.1173 539.795 30.12C539.24 31.1227 538.472 31.912 537.491 32.488C536.531 33.0427 535.4 33.32 534.099 33.32ZM551.527 33.32C550.012 33.32 548.647 32.9787 547.431 32.296C546.215 31.592 545.255 30.6427 544.551 29.448C543.847 28.2533 543.495 26.8987 543.495 25.384C543.495 23.8907 543.836 22.5467 544.519 21.352C545.223 20.1573 546.162 19.2187 547.335 18.536C548.53 17.832 549.863 17.48 551.335 17.48C552.743 17.48 553.98 17.8 555.047 18.44C556.135 19.08 556.978 19.9653 557.575 21.096C558.194 22.2267 558.503 23.5067 558.503 24.936C558.503 25.1493 558.492 25.384 558.471 25.64C558.45 25.8747 558.407 26.152 558.343 26.472H545.511V24.072H556.807L555.751 25C555.751 23.976 555.57 23.112 555.207 22.408C554.844 21.6827 554.332 21.128 553.671 20.744C553.01 20.3387 552.21 20.136 551.271 20.136C550.29 20.136 549.426 20.3493 548.679 20.776C547.932 21.2027 547.356 21.8 546.951 22.568C546.546 23.336 546.343 24.2427 546.343 25.288C546.343 26.3547 546.556 27.2933 546.983 28.104C547.41 28.8933 548.018 29.512 548.807 29.96C549.596 30.3867 550.503 30.6 551.527 30.6C552.38 30.6 553.159 30.4507 553.863 30.152C554.588 29.8533 555.207 29.4053 555.719 28.808L557.575 30.696C556.85 31.5493 555.954 32.2 554.887 32.648C553.842 33.096 552.722 33.32 551.527 33.32Z" fill="black"/>
<path d="M714.288 32L707.024 9.792H710.032L715.792 27.904H714.928L720.592 9.792H722.768L728.432 27.904H727.6L733.36 9.792H736.336L729.104 32H726.96L721.264 13.92H722.096L716.432 32H714.288ZM744.215 32.32C742.7 32.32 741.335 31.9787 740.119 31.296C738.903 30.592 737.943 29.6427 737.239 28.448C736.535 27.2533 736.183 25.8987 736.183 24.384C736.183 22.8907 736.524 21.5467 737.207 20.352C737.911 19.1573 738.849 18.2187 740.023 17.536C741.217 16.832 742.551 16.48 744.023 16.48C745.431 16.48 746.668 16.8 747.735 17.44C748.823 18.08 749.665 18.9653 750.263 20.096C750.881 21.2267 751.191 22.5067 751.191 23.936C751.191 24.1493 751.18 24.384 751.159 24.64C751.137 24.8747 751.095 25.152 751.031 25.472H738.199V23.072H749.495L748.439 24C748.439 22.976 748.257 22.112 747.895 21.408C747.532 20.6827 747.02 20.128 746.359 19.744C745.697 19.3387 744.897 19.136 743.959 19.136C742.977 19.136 742.113 19.3493 741.367 19.776C740.62 20.2027 740.044 20.8 739.639 21.568C739.233 22.336 739.031 23.2427 739.031 24.288C739.031 25.3547 739.244 26.2933 739.671 27.104C740.097 27.8933 740.705 28.512 741.495 28.96C742.284 29.3867 743.191 29.6 744.215 29.6C745.068 29.6 745.847 29.4507 746.551 29.152C747.276 28.8533 747.895 28.4053 748.407 27.808L750.263 29.696C749.537 30.5493 748.641 31.2 747.575 31.648C746.529 32.096 745.409 32.32 744.215 32.32ZM760.763 32.32C759.355 32.32 758.096 31.9787 756.987 31.296C755.877 30.592 754.992 29.6427 754.331 28.448C753.691 27.2533 753.371 25.9093 753.371 24.416C753.371 22.9227 753.691 21.5787 754.331 20.384C754.992 19.1893 755.877 18.24 756.987 17.536C758.096 16.832 759.355 16.48 760.763 16.48C761.893 16.48 762.917 16.7253 763.835 17.216C764.752 17.6853 765.488 18.3467 766.043 19.2C766.619 20.032 766.939 21.0027 767.003 22.112V26.688C766.939 27.776 766.629 28.7467 766.075 29.6C765.52 30.4533 764.784 31.1253 763.867 31.616C762.949 32.0853 761.915 32.32 760.763 32.32ZM761.243 29.6C762.203 29.6 763.035 29.376 763.739 28.928C764.464 28.48 765.029 27.872 765.435 27.104C765.84 26.3147 766.043 25.4187 766.043 24.416C766.043 23.3707 765.829 22.464 765.403 21.696C764.997 20.928 764.432 20.32 763.707 19.872C763.003 19.424 762.171 19.2 761.211 19.2C760.251 19.2 759.408 19.424 758.683 19.872C757.957 20.32 757.381 20.9387 756.955 21.728C756.549 22.496 756.347 23.3813 756.347 24.384C756.347 25.408 756.549 26.3147 756.955 27.104C757.381 27.872 757.957 28.48 758.683 28.928C759.429 29.376 760.283 29.6 761.243 29.6ZM768.763 32H765.851V27.904L766.395 24.192L765.851 20.512V9.152H768.763V32Z" fill="black"/>
<path d="M927.512 32V10.432H930.52V32H927.512ZM919.96 12.544V9.792H938.04V12.544H919.96ZM951.864 32V23.136C951.864 21.984 951.501 21.0347 950.776 20.288C950.051 19.5413 949.112 19.168 947.96 19.168C947.192 19.168 946.509 19.3387 945.912 19.68C945.315 20.0213 944.845 20.4907 944.504 21.088C944.163 21.6853 943.992 22.368 943.992 23.136L942.808 22.464C942.808 21.312 943.064 20.288 943.576 19.392C944.088 18.496 944.803 17.792 945.72 17.28C946.637 16.7467 947.672 16.48 948.824 16.48C949.976 16.48 950.989 16.736 951.864 17.248C952.76 17.76 953.464 18.4747 953.976 19.392C954.488 20.3093 954.744 21.3653 954.744 22.56V32H951.864ZM941.112 32V9.152H943.992V32H941.112ZM964.755 32.32C963.518 32.32 962.398 32.0427 961.395 31.488C960.414 30.912 959.646 30.1227 959.091 29.12C958.537 28.1173 958.259 26.9547 958.259 25.632V16.8H961.139V25.504C961.139 26.336 961.278 27.0613 961.555 27.68C961.854 28.2773 962.281 28.736 962.835 29.056C963.39 29.376 964.041 29.536 964.787 29.536C965.918 29.536 966.803 29.184 967.443 28.48C968.083 27.7547 968.403 26.7627 968.403 25.504V16.8H971.283V25.632C971.283 26.9547 971.006 28.1173 970.451 29.12C969.897 30.1227 969.129 30.912 968.147 31.488C967.187 32.0427 966.057 32.32 964.755 32.32Z" fill="black"/>
<path d="M1129.62 32V9.792H1132.63V32H1129.62ZM1131.67 22.24V19.488H1143.26V22.24H1131.67ZM1131.67 12.544V9.792H1143.8V12.544H1131.67ZM1147.24 32V16.8H1150.12V32H1147.24ZM1150.12 23.328L1149.03 22.848C1149.03 20.9067 1149.48 19.36 1150.37 18.208C1151.27 17.056 1152.56 16.48 1154.25 16.48C1155.01 16.48 1155.71 16.6187 1156.33 16.896C1156.94 17.152 1157.52 17.5893 1158.05 18.208L1156.17 20.16C1155.85 19.8187 1155.49 19.5733 1155.11 19.424C1154.73 19.2747 1154.28 19.2 1153.77 19.2C1152.7 19.2 1151.82 19.5413 1151.14 20.224C1150.46 20.9067 1150.12 21.9413 1150.12 23.328ZM1160.11 32V16.8H1162.99V32H1160.11ZM1161.55 13.76C1161.02 13.76 1160.58 13.5893 1160.24 13.248C1159.9 12.8853 1159.73 12.4373 1159.73 11.904C1159.73 11.392 1159.9 10.9653 1160.24 10.624C1160.58 10.2613 1161.02 10.08 1161.55 10.08C1162.09 10.08 1162.52 10.2613 1162.86 10.624C1163.21 10.9653 1163.38 11.392 1163.38 11.904C1163.38 12.4373 1163.21 12.8853 1162.86 13.248C1162.52 13.5893 1162.09 13.76 1161.55 13.76Z" fill="black"/>
<path d="M8.904 129.32C7.45333 129.32 6.13067 129.053 4.936 128.52C3.76267 127.965 2.77067 127.165 1.96 126.12L4.008 124.072C4.49867 124.819 5.17067 125.416 6.024 125.864C6.87733 126.291 7.82667 126.504 8.872 126.504C9.85333 126.504 10.696 126.323 11.4 125.96C12.1253 125.576 12.6907 125.043 13.096 124.36C13.5227 123.677 13.736 122.888 13.736 121.992C13.736 121.075 13.5227 120.285 13.096 119.624C12.6907 118.941 12.1147 118.419 11.368 118.056C10.6213 117.693 9.736 117.512 8.712 117.512C8.328 117.512 7.944 117.544 7.56 117.608C7.176 117.651 6.80267 117.725 6.44 117.832L7.72 116.104C8.12533 115.912 8.56267 115.763 9.032 115.656C9.50133 115.549 9.97067 115.496 10.44 115.496C11.6347 115.496 12.7013 115.773 13.64 116.328C14.6 116.883 15.3573 117.661 15.912 118.664C16.488 119.667 16.776 120.829 16.776 122.152C16.776 123.56 16.4347 124.808 15.752 125.896C15.0907 126.963 14.1733 127.805 13 128.424C11.8267 129.021 10.4613 129.32 8.904 129.32ZM6.44 117.832V116.008L12.936 108.616L16.52 108.584L9.832 116.168L6.44 117.832ZM3.016 109.48V106.792H16.52V108.584L13.896 109.48H3.016ZM22.5388 129.32C21.9414 129.32 21.4401 129.117 21.0348 128.712C20.6508 128.285 20.4588 127.795 20.4588 127.24C20.4588 126.621 20.6508 126.12 21.0348 125.736C21.4401 125.331 21.9414 125.128 22.5388 125.128C23.1361 125.128 23.6268 125.331 24.0108 125.736C24.4161 126.12 24.6188 126.621 24.6188 127.24C24.6188 127.795 24.4161 128.285 24.0108 128.712C23.6268 129.117 23.1361 129.32 22.5388 129.32ZM22.5388 119.336C21.9414 119.336 21.4401 119.133 21.0348 118.728C20.6508 118.323 20.4588 117.832 20.4588 117.256C20.4588 116.637 20.6508 116.136 21.0348 115.752C21.4401 115.347 21.9414 115.144 22.5388 115.144C23.1361 115.144 23.6268 115.347 24.0108 115.752C24.4161 116.136 24.6188 116.637 24.6188 117.256C24.6188 117.832 24.4161 118.323 24.0108 118.728C23.6268 119.133 23.1361 119.336 22.5388 119.336ZM37.4663 129.32C35.8023 129.32 34.2769 128.851 32.8903 127.912C31.5249 126.973 30.4369 125.651 29.6263 123.944C28.8156 122.216 28.4103 120.189 28.4103 117.864C28.4103 115.539 28.8049 113.523 29.5943 111.816C30.4049 110.109 31.4929 108.797 32.8583 107.88C34.2236 106.941 35.7276 106.472 37.3703 106.472C39.0556 106.472 40.5809 106.941 41.9463 107.88C43.3116 108.797 44.3889 110.109 45.1783 111.816C45.9889 113.523 46.3943 115.549 46.3943 117.896C46.3943 120.221 45.9889 122.248 45.1783 123.976C44.3889 125.683 43.3116 127.005 41.9463 127.944C40.6023 128.861 39.1089 129.32 37.4663 129.32ZM37.4023 126.472C38.5756 126.472 39.5996 126.152 40.4743 125.512C41.3703 124.851 42.0743 123.88 42.5863 122.6C43.0983 121.32 43.3542 119.741 43.3542 117.864C43.3542 115.987 43.0983 114.419 42.5863 113.16C42.0743 111.88 41.3703 110.92 40.4743 110.28C39.5783 109.619 38.5436 109.288 37.3703 109.288C36.2183 109.288 35.1943 109.619 34.2983 110.28C33.4023 110.92 32.6983 111.88 32.1863 113.16C31.6956 114.419 31.4503 115.987 31.4503 117.864C31.4503 119.741 31.6956 121.32 32.1863 122.6C32.6983 123.88 33.4023 124.851 34.2983 125.512C35.1943 126.152 36.2289 126.472 37.4023 126.472ZM58.4663 129.32C56.8023 129.32 55.2769 128.851 53.8903 127.912C52.5249 126.973 51.4369 125.651 50.6263 123.944C49.8156 122.216 49.4103 120.189 49.4103 117.864C49.4103 115.539 49.8049 113.523 50.5943 111.816C51.4049 110.109 52.4929 108.797 53.8583 107.88C55.2236 106.941 56.7276 106.472 58.3703 106.472C60.0556 106.472 61.5809 106.941 62.9463 107.88C64.3116 108.797 65.3889 110.109 66.1783 111.816C66.9889 113.523 67.3943 115.549 67.3943 117.896C67.3943 120.221 66.9889 122.248 66.1783 123.976C65.3889 125.683 64.3116 127.005 62.9463 127.944C61.6023 128.861 60.1089 129.32 58.4663 129.32ZM58.4023 126.472C59.5756 126.472 60.5996 126.152 61.4743 125.512C62.3703 124.851 63.0743 123.88 63.5863 122.6C64.0983 121.32 64.3542 119.741 64.3542 117.864C64.3542 115.987 64.0983 114.419 63.5863 113.16C63.0743 111.88 62.3703 110.92 61.4743 110.28C60.5783 109.619 59.5436 109.288 58.3703 109.288C57.2183 109.288 56.1943 109.619 55.2983 110.28C54.4023 110.92 53.6983 111.88 53.1863 113.16C52.6956 114.419 52.4503 115.987 52.4503 117.864C52.4503 119.741 52.6956 121.32 53.1863 122.6C53.6983 123.88 54.4023 124.851 55.2983 125.512C56.1943 126.152 57.2289 126.472 58.4023 126.472ZM77.6745 122.216V119.496H88.2025V122.216H77.6745ZM98.0247 121.352L106.121 106.792H109.513L101.257 121.352H98.0247ZM98.0247 123.208V121.352L99.3048 120.52H115.049V123.208H98.0247ZM108.873 129V114.312H111.849V129H108.873ZM120.414 129.32C119.816 129.32 119.315 129.117 118.91 128.712C118.526 128.285 118.334 127.795 118.334 127.24C118.334 126.621 118.526 126.12 118.91 125.736C119.315 125.331 119.816 125.128 120.414 125.128C121.011 125.128 121.502 125.331 121.886 125.736C122.291 126.12 122.494 126.621 122.494 127.24C122.494 127.795 122.291 128.285 121.886 128.712C121.502 129.117 121.011 129.32 120.414 129.32ZM120.414 119.336C119.816 119.336 119.315 119.133 118.91 118.728C118.526 118.323 118.334 117.832 118.334 117.256C118.334 116.637 118.526 116.136 118.91 115.752C119.315 115.347 119.816 115.144 120.414 115.144C121.011 115.144 121.502 115.347 121.886 115.752C122.291 116.136 122.494 116.637 122.494 117.256C122.494 117.832 122.291 118.323 121.886 118.728C121.502 119.133 121.011 119.336 120.414 119.336ZM132.685 129.32C131.235 129.32 129.912 129.053 128.717 128.52C127.544 127.965 126.552 127.165 125.741 126.12L127.789 124.072C128.28 124.819 128.952 125.416 129.805 125.864C130.659 126.291 131.608 126.504 132.653 126.504C133.635 126.504 134.477 126.323 135.181 125.96C135.907 125.576 136.472 125.043 136.877 124.36C137.304 123.677 137.517 122.888 137.517 121.992C137.517 121.075 137.304 120.285 136.877 119.624C136.472 118.941 135.896 118.419 135.149 118.056C134.403 117.693 133.517 117.512 132.493 117.512C132.109 117.512 131.725 117.544 131.341 117.608C130.957 117.651 130.584 117.725 130.221 117.832L131.501 116.104C131.907 115.912 132.344 115.763 132.813 115.656C133.283 115.549 133.752 115.496 134.221 115.496C135.416 115.496 136.483 115.773 137.421 116.328C138.381 116.883 139.139 117.661 139.693 118.664C140.269 119.667 140.557 120.829 140.557 122.152C140.557 123.56 140.216 124.808 139.533 125.896C138.872 126.963 137.955 127.805 136.781 128.424C135.608 129.021 134.243 129.32 132.685 129.32ZM130.221 117.832V116.008L136.717 108.616L140.301 108.584L133.613 116.168L130.221 117.832ZM126.797 109.48V106.792H140.301V108.584L137.677 109.48H126.797ZM152.56 129.32C150.896 129.32 149.371 128.851 147.984 127.912C146.619 126.973 145.531 125.651 144.72 123.944C143.909 122.216 143.504 120.189 143.504 117.864C143.504 115.539 143.899 113.523 144.688 111.816C145.499 110.109 146.587 108.797 147.952 107.88C149.317 106.941 150.821 106.472 152.464 106.472C154.149 106.472 155.675 106.941 157.04 107.88C158.405 108.797 159.483 110.109 160.272 111.816C161.083 113.523 161.488 115.549 161.488 117.896C161.488 120.221 161.083 122.248 160.272 123.976C159.483 125.683 158.405 127.005 157.04 127.944C155.696 128.861 154.203 129.32 152.56 129.32ZM152.496 126.472C153.669 126.472 154.693 126.152 155.568 125.512C156.464 124.851 157.168 123.88 157.68 122.6C158.192 121.32 158.448 119.741 158.448 117.864C158.448 115.987 158.192 114.419 157.68 113.16C157.168 111.88 156.464 110.92 155.568 110.28C154.672 109.619 153.637 109.288 152.464 109.288C151.312 109.288 150.288 109.619 149.392 110.28C148.496 110.92 147.792 111.88 147.28 113.16C146.789 114.419 146.544 115.987 146.544 117.864C146.544 119.741 146.789 121.32 147.28 122.6C147.792 123.88 148.496 124.851 149.392 125.512C150.288 126.152 151.323 126.472 152.496 126.472ZM179.768 129.32C178.616 129.32 177.571 129.085 176.632 128.616C175.715 128.125 174.979 127.453 174.424 126.6C173.87 125.747 173.56 124.776 173.496 123.688V119.112C173.56 118.003 173.87 117.032 174.424 116.2C175 115.347 175.747 114.685 176.664 114.216C177.603 113.725 178.638 113.48 179.768 113.48C181.155 113.48 182.403 113.832 183.512 114.536C184.643 115.24 185.528 116.189 186.168 117.384C186.808 118.579 187.128 119.923 187.128 121.416C187.128 122.909 186.808 124.253 186.168 125.448C185.528 126.643 184.643 127.592 183.512 128.296C182.403 128.979 181.155 129.32 179.768 129.32ZM171.768 135.368V113.8H174.648V117.8L174.104 121.48L174.648 125.192V135.368H171.768ZM179.288 126.6C180.248 126.6 181.091 126.376 181.816 125.928C182.542 125.48 183.118 124.872 183.544 124.104C183.971 123.315 184.184 122.408 184.184 121.384C184.184 120.381 183.971 119.485 183.544 118.696C183.118 117.907 182.542 117.299 181.816 116.872C181.091 116.424 180.259 116.2 179.32 116.2C178.36 116.2 177.518 116.424 176.792 116.872C176.067 117.299 175.502 117.907 175.096 118.696C174.691 119.485 174.488 120.392 174.488 121.416C174.488 122.419 174.68 123.315 175.064 124.104C175.47 124.872 176.035 125.48 176.76 125.928C177.507 126.376 178.35 126.6 179.288 126.6ZM190.393 129V113.8H193.273V129H190.393ZM200.665 129V119.816C200.665 118.685 200.313 117.8 199.609 117.16C198.927 116.499 198.063 116.168 197.017 116.168C196.313 116.168 195.684 116.317 195.129 116.616C194.575 116.915 194.127 117.331 193.785 117.864C193.444 118.397 193.273 119.037 193.273 119.784L192.089 119.208C192.089 118.056 192.335 117.053 192.825 116.2C193.337 115.347 194.031 114.685 194.905 114.216C195.78 113.725 196.761 113.48 197.849 113.48C198.916 113.48 199.876 113.715 200.729 114.184C201.604 114.653 202.287 115.315 202.777 116.168C203.289 117.021 203.545 118.035 203.545 119.208V129H200.665ZM210.937 129V119.816C210.937 118.685 210.585 117.8 209.881 117.16C209.199 116.499 208.345 116.168 207.321 116.168C206.617 116.168 205.977 116.317 205.401 116.616C204.847 116.915 204.399 117.331 204.057 117.864C203.716 118.397 203.545 119.037 203.545 119.784L201.913 119.208C201.977 118.035 202.287 117.032 202.841 116.2C203.417 115.347 204.153 114.685 205.049 114.216C205.945 113.725 206.927 113.48 207.993 113.48C209.103 113.48 210.095 113.715 210.969 114.184C211.844 114.653 212.537 115.315 213.049 116.168C213.583 117.021 213.849 118.045 213.849 119.24V129H210.937Z" fill="black"/>
<path d="M1.056 222.352L9.152 207.792H12.544L4.288 222.352H1.056ZM1.056 224.208V222.352L2.336 221.52H18.08V224.208H1.056ZM11.904 230V215.312H14.88V230H11.904ZM23.445 230.32C22.8477 230.32 22.3463 230.117 21.941 229.712C21.557 229.285 21.365 228.795 21.365 228.24C21.365 227.621 21.557 227.12 21.941 226.736C22.3463 226.331 22.8477 226.128 23.445 226.128C24.0423 226.128 24.533 226.331 24.917 226.736C25.3223 227.12 25.525 227.621 25.525 228.24C25.525 228.795 25.3223 229.285 24.917 229.712C24.533 230.117 24.0423 230.32 23.445 230.32ZM23.445 220.336C22.8477 220.336 22.3463 220.133 21.941 219.728C21.557 219.323 21.365 218.832 21.365 218.256C21.365 217.637 21.557 217.136 21.941 216.752C22.3463 216.347 22.8477 216.144 23.445 216.144C24.0423 216.144 24.533 216.347 24.917 216.752C25.3223 217.136 25.525 217.637 25.525 218.256C25.525 218.832 25.3223 219.323 24.917 219.728C24.533 220.133 24.0423 220.336 23.445 220.336ZM35.7165 230.32C34.2658 230.32 32.9432 230.053 31.7485 229.52C30.5752 228.965 29.5832 228.165 28.7725 227.12L30.8205 225.072C31.3112 225.819 31.9832 226.416 32.8365 226.864C33.6898 227.291 34.6392 227.504 35.6845 227.504C36.6658 227.504 37.5085 227.323 38.2125 226.96C38.9378 226.576 39.5032 226.043 39.9085 225.36C40.3352 224.677 40.5485 223.888 40.5485 222.992C40.5485 222.075 40.3352 221.285 39.9085 220.624C39.5032 219.941 38.9272 219.419 38.1805 219.056C37.4338 218.693 36.5485 218.512 35.5245 218.512C35.1405 218.512 34.7565 218.544 34.3725 218.608C33.9885 218.651 33.6152 218.725 33.2525 218.832L34.5325 217.104C34.9378 216.912 35.3752 216.763 35.8445 216.656C36.3138 216.549 36.7832 216.496 37.2525 216.496C38.4472 216.496 39.5138 216.773 40.4525 217.328C41.4125 217.883 42.1698 218.661 42.7245 219.664C43.3005 220.667 43.5885 221.829 43.5885 223.152C43.5885 224.56 43.2472 225.808 42.5645 226.896C41.9032 227.963 40.9858 228.805 39.8125 229.424C38.6392 230.021 37.2738 230.32 35.7165 230.32ZM33.2525 218.832V217.008L39.7485 209.616L43.3325 209.584L36.6445 217.168L33.2525 218.832ZM29.8285 210.48V207.792H43.3325V209.584L40.7085 210.48H29.8285ZM55.5913 230.32C53.9273 230.32 52.4019 229.851 51.0153 228.912C49.6499 227.973 48.5619 226.651 47.7513 224.944C46.9406 223.216 46.5353 221.189 46.5353 218.864C46.5353 216.539 46.9299 214.523 47.7193 212.816C48.5299 211.109 49.6179 209.797 50.9833 208.88C52.3486 207.941 53.8526 207.472 55.4953 207.472C57.1806 207.472 58.7059 207.941 60.0713 208.88C61.4366 209.797 62.5139 211.109 63.3033 212.816C64.1139 214.523 64.5193 216.549 64.5193 218.896C64.5193 221.221 64.1139 223.248 63.3033 224.976C62.5139 226.683 61.4366 228.005 60.0713 228.944C58.7273 229.861 57.2339 230.32 55.5913 230.32ZM55.5273 227.472C56.7006 227.472 57.7246 227.152 58.5993 226.512C59.4953 225.851 60.1993 224.88 60.7113 223.6C61.2233 222.32 61.4792 220.741 61.4792 218.864C61.4792 216.987 61.2233 215.419 60.7113 214.16C60.1993 212.88 59.4953 211.92 58.5993 211.28C57.7033 210.619 56.6686 210.288 55.4953 210.288C54.3433 210.288 53.3193 210.619 52.4233 211.28C51.5273 211.92 50.8233 212.88 50.3113 214.16C49.8206 215.419 49.5753 216.987 49.5753 218.864C49.5753 220.741 49.8206 222.32 50.3113 223.6C50.8233 224.88 51.5273 225.851 52.4233 226.512C53.3193 227.152 54.3539 227.472 55.5273 227.472ZM74.7995 223.216V220.496H85.3275V223.216H74.7995ZM103.118 230.32C101.646 230.32 100.323 229.979 99.1498 229.296C97.9978 228.613 97.0804 227.696 96.3978 226.544C95.7151 225.392 95.3738 224.112 95.3738 222.704C95.3738 220.741 96.0564 218.789 97.4218 216.848L103.95 207.792H107.438L100.75 216.912L99.6618 217.488C99.9178 217.04 100.227 216.667 100.59 216.368C100.952 216.048 101.4 215.803 101.934 215.632C102.467 215.461 103.096 215.376 103.822 215.376C105.123 215.376 106.296 215.685 107.342 216.304C108.408 216.923 109.262 217.776 109.902 218.864C110.563 219.931 110.894 221.179 110.894 222.608C110.894 224.016 110.542 225.307 109.838 226.48C109.155 227.653 108.216 228.592 107.022 229.296C105.848 229.979 104.547 230.32 103.118 230.32ZM103.118 227.504C104.014 227.504 104.814 227.291 105.518 226.864C106.243 226.416 106.808 225.829 107.214 225.104C107.64 224.357 107.854 223.525 107.854 222.608C107.854 221.691 107.64 220.869 107.214 220.144C106.808 219.397 106.243 218.811 105.518 218.384C104.814 217.957 104.014 217.744 103.118 217.744C102.222 217.744 101.411 217.957 100.686 218.384C99.9818 218.811 99.4164 219.397 98.9898 220.144C98.5844 220.869 98.3818 221.691 98.3818 222.608C98.3818 223.525 98.5844 224.357 98.9898 225.104C99.4164 225.851 99.9818 226.437 100.686 226.864C101.411 227.291 102.222 227.504 103.118 227.504ZM116.476 230.32C115.879 230.32 115.378 230.117 114.972 229.712C114.588 229.285 114.396 228.795 114.396 228.24C114.396 227.621 114.588 227.12 114.972 226.736C115.378 226.331 115.879 226.128 116.476 226.128C117.074 226.128 117.564 226.331 117.948 226.736C118.354 227.12 118.556 227.621 118.556 228.24C118.556 228.795 118.354 229.285 117.948 229.712C117.564 230.117 117.074 230.32 116.476 230.32ZM116.476 220.336C115.879 220.336 115.378 220.133 114.972 219.728C114.588 219.323 114.396 218.832 114.396 218.256C114.396 217.637 114.588 217.136 114.972 216.752C115.378 216.347 115.879 216.144 116.476 216.144C117.074 216.144 117.564 216.347 117.948 216.752C118.354 217.136 118.556 217.637 118.556 218.256C118.556 218.832 118.354 219.323 117.948 219.728C117.564 220.133 117.074 220.336 116.476 220.336ZM131.404 230.32C129.74 230.32 128.214 229.851 126.828 228.912C125.462 227.973 124.374 226.651 123.564 224.944C122.753 223.216 122.348 221.189 122.348 218.864C122.348 216.539 122.742 214.523 123.532 212.816C124.342 211.109 125.43 209.797 126.796 208.88C128.161 207.941 129.665 207.472 131.308 207.472C132.993 207.472 134.518 207.941 135.884 208.88C137.249 209.797 138.326 211.109 139.116 212.816C139.926 214.523 140.332 216.549 140.332 218.896C140.332 221.221 139.926 223.248 139.116 224.976C138.326 226.683 137.249 228.005 135.884 228.944C134.54 229.861 133.046 230.32 131.404 230.32ZM131.34 227.472C132.513 227.472 133.537 227.152 134.412 226.512C135.308 225.851 136.012 224.88 136.524 223.6C137.036 222.32 137.292 220.741 137.292 218.864C137.292 216.987 137.036 215.419 136.524 214.16C136.012 212.88 135.308 211.92 134.412 211.28C133.516 210.619 132.481 210.288 131.308 210.288C130.156 210.288 129.132 210.619 128.236 211.28C127.34 211.92 126.636 212.88 126.124 214.16C125.633 215.419 125.388 216.987 125.388 218.864C125.388 220.741 125.633 222.32 126.124 223.6C126.636 224.88 127.34 225.851 128.236 226.512C129.132 227.152 130.166 227.472 131.34 227.472ZM152.404 230.32C150.74 230.32 149.214 229.851 147.828 228.912C146.462 227.973 145.374 226.651 144.564 224.944C143.753 223.216 143.348 221.189 143.348 218.864C143.348 216.539 143.742 214.523 144.532 212.816C145.342 211.109 146.43 209.797 147.796 208.88C149.161 207.941 150.665 207.472 152.308 207.472C153.993 207.472 155.518 207.941 156.884 208.88C158.249 209.797 159.326 211.109 160.116 212.816C160.926 214.523 161.332 216.549 161.332 218.896C161.332 221.221 160.926 223.248 160.116 224.976C159.326 226.683 158.249 228.005 156.884 228.944C155.54 229.861 154.046 230.32 152.404 230.32ZM152.34 227.472C153.513 227.472 154.537 227.152 155.412 226.512C156.308 225.851 157.012 224.88 157.524 223.6C158.036 222.32 158.292 220.741 158.292 218.864C158.292 216.987 158.036 215.419 157.524 214.16C157.012 212.88 156.308 211.92 155.412 211.28C154.516 210.619 153.481 210.288 152.308 210.288C151.156 210.288 150.132 210.619 149.236 211.28C148.34 211.92 147.636 212.88 147.124 214.16C146.633 215.419 146.388 216.987 146.388 218.864C146.388 220.741 146.633 222.32 147.124 223.6C147.636 224.88 148.34 225.851 149.236 226.512C150.132 227.152 151.166 227.472 152.34 227.472ZM179.612 230.32C178.46 230.32 177.415 230.085 176.476 229.616C175.559 229.125 174.823 228.453 174.268 227.6C173.713 226.747 173.404 225.776 173.34 224.688V220.112C173.404 219.003 173.713 218.032 174.268 217.2C174.844 216.347 175.591 215.685 176.508 215.216C177.447 214.725 178.481 214.48 179.612 214.48C180.999 214.48 182.247 214.832 183.356 215.536C184.487 216.24 185.372 217.189 186.012 218.384C186.652 219.579 186.972 220.923 186.972 222.416C186.972 223.909 186.652 225.253 186.012 226.448C185.372 227.643 184.487 228.592 183.356 229.296C182.247 229.979 180.999 230.32 179.612 230.32ZM171.612 236.368V214.8H174.492V218.8L173.948 222.48L174.492 226.192V236.368H171.612ZM179.132 227.6C180.092 227.6 180.935 227.376 181.66 226.928C182.385 226.48 182.961 225.872 183.388 225.104C183.815 224.315 184.028 223.408 184.028 222.384C184.028 221.381 183.815 220.485 183.388 219.696C182.961 218.907 182.385 218.299 181.66 217.872C180.935 217.424 180.103 217.2 179.164 217.2C178.204 217.2 177.361 217.424 176.636 217.872C175.911 218.299 175.345 218.907 174.94 219.696C174.535 220.485 174.332 221.392 174.332 222.416C174.332 223.419 174.524 224.315 174.908 225.104C175.313 225.872 175.879 226.48 176.604 226.928C177.351 227.376 178.193 227.6 179.132 227.6ZM190.237 230V214.8H193.117V230H190.237ZM200.509 230V220.816C200.509 219.685 200.157 218.8 199.453 218.16C198.77 217.499 197.906 217.168 196.861 217.168C196.157 217.168 195.528 217.317 194.973 217.616C194.418 217.915 193.97 218.331 193.629 218.864C193.288 219.397 193.117 220.037 193.117 220.784L191.933 220.208C191.933 219.056 192.178 218.053 192.669 217.2C193.181 216.347 193.874 215.685 194.749 215.216C195.624 214.725 196.605 214.48 197.693 214.48C198.76 214.48 199.72 214.715 200.573 215.184C201.448 215.653 202.13 216.315 202.621 217.168C203.133 218.021 203.389 219.035 203.389 220.208V230H200.509ZM210.781 230V220.816C210.781 219.685 210.429 218.8 209.725 218.16C209.042 217.499 208.189 217.168 207.165 217.168C206.461 217.168 205.821 217.317 205.245 217.616C204.69 217.915 204.242 218.331 203.901 218.864C203.56 219.397 203.389 220.037 203.389 220.784L201.757 220.208C201.821 219.035 202.13 218.032 202.685 217.2C203.261 216.347 203.997 215.685 204.893 215.216C205.789 214.725 206.77 214.48 207.837 214.48C208.946 214.48 209.938 214.715 210.813 215.184C211.688 215.653 212.381 216.315 212.893 217.168C213.426 218.021 213.693 219.045 213.693 220.24V230H210.781Z" fill="black"/>
<rect x="438" y="41" width="197" height="253" rx="19" stroke="black" stroke-width="2"/>
<rect x="234" y="41" width="197" height="253" rx="19" stroke="black" stroke-width="2"/>
<rect x="642" y="41" width="197" height="253" rx="19" stroke="black" stroke-width="2"/>
<rect x="846" y="41" width="197" height="253" rx="19" stroke="black" stroke-width="2"/>
<rect x="1050" y="41" width="197" height="253" rx="19" stroke="black" stroke-width="2"/>
<rect x="244" y="84" width="994" height="72" rx="20" fill="#86BCC8"/>
<path d="M656.968 126V109.344H659.224V126H656.968ZM667.72 126V109.344H669.976V126H667.72ZM658.504 118.416V116.352H668.272V118.416H658.504ZM678.737 126.24C677.617 126.24 676.609 125.976 675.713 125.448C674.817 124.92 674.105 124.208 673.577 123.312C673.049 122.4 672.785 121.384 672.785 120.264C672.785 119.16 673.049 118.168 673.577 117.288C674.105 116.392 674.817 115.68 675.713 115.152C676.609 114.624 677.617 114.36 678.737 114.36C679.841 114.36 680.841 114.624 681.737 115.152C682.649 115.664 683.369 116.368 683.897 117.264C684.425 118.16 684.689 119.16 684.689 120.264C684.689 121.384 684.425 122.4 683.897 123.312C683.369 124.208 682.649 124.92 681.737 125.448C680.841 125.976 679.841 126.24 678.737 126.24ZM678.737 124.152C679.457 124.152 680.097 123.984 680.657 123.648C681.217 123.312 681.657 122.856 681.977 122.28C682.297 121.688 682.457 121.016 682.457 120.264C682.457 119.528 682.289 118.872 681.953 118.296C681.633 117.72 681.193 117.272 680.633 116.952C680.089 116.616 679.457 116.448 678.737 116.448C678.017 116.448 677.377 116.616 676.817 116.952C676.257 117.272 675.817 117.72 675.497 118.296C675.177 118.872 675.017 119.528 675.017 120.264C675.017 121.016 675.177 121.688 675.497 122.28C675.817 122.856 676.257 123.312 676.817 123.648C677.377 123.984 678.017 124.152 678.737 124.152ZM687.123 126V114.6H689.283V126H687.123ZM694.827 126V119.112C694.827 118.264 694.563 117.6 694.035 117.12C693.523 116.624 692.875 116.376 692.091 116.376C691.563 116.376 691.091 116.488 690.675 116.712C690.259 116.936 689.923 117.248 689.667 117.648C689.411 118.048 689.283 118.528 689.283 119.088L688.395 118.656C688.395 117.792 688.579 117.04 688.947 116.4C689.331 115.76 689.851 115.264 690.507 114.912C691.163 114.544 691.899 114.36 692.715 114.36C693.515 114.36 694.235 114.536 694.875 114.888C695.531 115.24 696.043 115.736 696.411 116.376C696.795 117.016 696.987 117.776 696.987 118.656V126H694.827ZM702.531 126V119.112C702.531 118.264 702.267 117.6 701.739 117.12C701.227 116.624 700.587 116.376 699.819 116.376C699.291 116.376 698.811 116.488 698.379 116.712C697.963 116.936 697.627 117.248 697.371 117.648C697.115 118.048 696.987 118.528 696.987 119.088L695.763 118.656C695.811 117.776 696.043 117.024 696.459 116.4C696.891 115.76 697.443 115.264 698.115 114.912C698.787 114.544 699.523 114.36 700.323 114.36C701.155 114.36 701.899 114.536 702.555 114.888C703.211 115.24 703.731 115.736 704.115 116.376C704.515 117.016 704.715 117.784 704.715 118.68V126H702.531ZM712.934 126.24C711.798 126.24 710.774 125.984 709.862 125.472C708.95 124.944 708.23 124.232 707.702 123.336C707.174 122.44 706.91 121.424 706.91 120.288C706.91 119.168 707.166 118.16 707.678 117.264C708.206 116.368 708.91 115.664 709.79 115.152C710.686 114.624 711.686 114.36 712.79 114.36C713.846 114.36 714.774 114.6 715.574 115.08C716.39 115.56 717.022 116.224 717.47 117.072C717.934 117.92 718.166 118.88 718.166 119.952C718.166 120.112 718.158 120.288 718.142 120.48C718.126 120.656 718.094 120.864 718.046 121.104H708.422V119.304H716.894L716.102 120C716.102 119.232 715.966 118.584 715.694 118.056C715.422 117.512 715.038 117.096 714.542 116.808C714.046 116.504 713.446 116.352 712.742 116.352C712.006 116.352 711.358 116.512 710.798 116.832C710.238 117.152 709.806 117.6 709.502 118.176C709.198 118.752 709.046 119.432 709.046 120.216C709.046 121.016 709.206 121.72 709.526 122.328C709.846 122.92 710.302 123.384 710.894 123.72C711.486 124.04 712.166 124.2 712.934 124.2C713.574 124.2 714.158 124.088 714.686 123.864C715.23 123.64 715.694 123.304 716.078 122.856L717.47 124.272C716.926 124.912 716.254 125.4 715.454 125.736C714.67 126.072 713.83 126.24 712.934 126.24ZM723.645 126L719.133 114.6H721.389L724.653 123.48H723.933L727.173 114.6H728.421L731.661 123.48H730.941L734.205 114.6H736.461L731.973 126H730.701L727.413 117.384H728.205L724.893 126H723.645ZM743.261 126.24C742.141 126.24 741.133 125.976 740.237 125.448C739.341 124.92 738.629 124.208 738.101 123.312C737.573 122.4 737.309 121.384 737.309 120.264C737.309 119.16 737.573 118.168 738.101 117.288C738.629 116.392 739.341 115.68 740.237 115.152C741.133 114.624 742.141 114.36 743.261 114.36C744.365 114.36 745.365 114.624 746.261 115.152C747.173 115.664 747.893 116.368 748.421 117.264C748.949 118.16 749.213 119.16 749.213 120.264C749.213 121.384 748.949 122.4 748.421 123.312C747.893 124.208 747.173 124.92 746.261 125.448C745.365 125.976 744.365 126.24 743.261 126.24ZM743.261 124.152C743.981 124.152 744.621 123.984 745.181 123.648C745.741 123.312 746.181 122.856 746.501 122.28C746.821 121.688 746.981 121.016 746.981 120.264C746.981 119.528 746.813 118.872 746.477 118.296C746.157 117.72 745.717 117.272 745.157 116.952C744.613 116.616 743.981 116.448 743.261 116.448C742.541 116.448 741.901 116.616 741.341 116.952C740.781 117.272 740.341 117.72 740.021 118.296C739.701 118.872 739.541 119.528 739.541 120.264C739.541 121.016 739.701 121.688 740.021 122.28C740.341 122.856 740.781 123.312 741.341 123.648C741.901 123.984 742.541 124.152 743.261 124.152ZM751.646 126V114.6H753.807V126H751.646ZM753.807 119.496L752.991 119.136C752.991 117.68 753.327 116.52 753.999 115.656C754.671 114.792 755.639 114.36 756.903 114.36C757.479 114.36 757.999 114.464 758.463 114.672C758.927 114.864 759.359 115.192 759.759 115.656L758.343 117.12C758.103 116.864 757.839 116.68 757.551 116.568C757.263 116.456 756.927 116.4 756.543 116.4C755.743 116.4 755.087 116.656 754.575 117.168C754.063 117.68 753.807 118.456 753.807 119.496ZM768.575 126L763.247 120.168L768.527 114.6H771.143L765.263 120.744L765.359 119.496L771.359 126H768.575ZM761.279 126V108.864H763.439V126H761.279ZM778.609 126V109.344H780.865V126H778.609ZM789.361 126V109.344H791.617V126H789.361ZM780.145 118.416V116.352H789.913V118.416H780.145ZM800.45 126.24C799.314 126.24 798.29 125.984 797.378 125.472C796.466 124.944 795.746 124.232 795.218 123.336C794.69 122.44 794.426 121.424 794.426 120.288C794.426 119.168 794.682 118.16 795.194 117.264C795.722 116.368 796.426 115.664 797.306 115.152C798.202 114.624 799.202 114.36 800.306 114.36C801.362 114.36 802.29 114.6 803.09 115.08C803.906 115.56 804.538 116.224 804.986 117.072C805.45 117.92 805.682 118.88 805.682 119.952C805.682 120.112 805.674 120.288 805.658 120.48C805.642 120.656 805.61 120.864 805.562 121.104H795.938V119.304H804.41L803.618 120C803.618 119.232 803.482 118.584 803.21 118.056C802.938 117.512 802.554 117.096 802.058 116.808C801.562 116.504 800.962 116.352 800.258 116.352C799.522 116.352 798.874 116.512 798.314 116.832C797.754 117.152 797.322 117.6 797.018 118.176C796.714 118.752 796.562 119.432 796.562 120.216C796.562 121.016 796.722 121.72 797.042 122.328C797.362 122.92 797.818 123.384 798.41 123.72C799.002 124.04 799.682 124.2 800.45 124.2C801.09 124.2 801.674 124.088 802.202 123.864C802.746 123.64 803.21 123.304 803.594 122.856L804.986 124.272C804.442 124.912 803.77 125.4 802.97 125.736C802.186 126.072 801.346 126.24 800.45 126.24ZM808.037 126V108.864H810.197V126H808.037ZM819.357 126.24C818.493 126.24 817.709 126.064 817.005 125.712C816.317 125.344 815.765 124.84 815.349 124.2C814.933 123.56 814.701 122.832 814.653 122.016V118.584C814.701 117.752 814.933 117.024 815.349 116.4C815.781 115.76 816.341 115.264 817.029 114.912C817.733 114.544 818.509 114.36 819.357 114.36C820.397 114.36 821.333 114.624 822.165 115.152C823.013 115.68 823.677 116.392 824.157 117.288C824.637 118.184 824.877 119.192 824.877 120.312C824.877 121.432 824.637 122.44 824.157 123.336C823.677 124.232 823.013 124.944 822.165 125.472C821.333 125.984 820.397 126.24 819.357 126.24ZM813.357 130.776V114.6H815.517V117.6L815.109 120.36L815.517 123.144V130.776H813.357ZM818.997 124.2C819.717 124.2 820.349 124.032 820.893 123.696C821.437 123.36 821.869 122.904 822.189 122.328C822.509 121.736 822.669 121.056 822.669 120.288C822.669 119.536 822.509 118.864 822.189 118.272C821.869 117.68 821.437 117.224 820.893 116.904C820.349 116.568 819.725 116.4 819.021 116.4C818.301 116.4 817.669 116.568 817.125 116.904C816.581 117.224 816.157 117.68 815.853 118.272C815.549 118.864 815.397 119.544 815.397 120.312C815.397 121.064 815.541 121.736 815.829 122.328C816.133 122.904 816.557 123.36 817.101 123.696C817.661 124.032 818.293 124.2 818.997 124.2Z" fill="black"/>
</svg>
