<svg width="334" height="102" viewBox="0 0 334 102" fill="none" xmlns="http://www.w3.org/2000/svg">
<rect x="127" y="61" width="46" height="26" rx="13" fill="#E08283"/>
<rect x="180" y="61" width="45" height="26" rx="13" fill="#86A5C8"/>
<rect x="232" y="61" width="46" height="26" rx="13" fill="#B7B0EE"/>
<rect x="285" y="61" width="45" height="26" rx="13" fill="#6BB96A"/>
<rect x="75" y="61" width="46" height="26" rx="13" fill="#EBD39C"/>
<path d="M87.781 77L85.279 70.754H86.197L88.258 76.037H87.925L90.004 70.754H90.913L88.393 77H87.781ZM92.8029 77.09C92.3829 77.09 92.0049 76.991 91.6689 76.793C91.3329 76.595 91.0659 76.328 90.8679 75.992C90.6699 75.65 90.5709 75.269 90.5709 74.849C90.5709 74.435 90.6699 74.063 90.8679 73.733C91.0659 73.397 91.3329 73.13 91.6689 72.932C92.0049 72.734 92.3829 72.635 92.8029 72.635C93.2169 72.635 93.5919 72.734 93.9279 72.932C94.2699 73.124 94.5399 73.388 94.7379 73.724C94.9359 74.06 95.0349 74.435 95.0349 74.849C95.0349 75.269 94.9359 75.65 94.7379 75.992C94.5399 76.328 94.2699 76.595 93.9279 76.793C93.5919 76.991 93.2169 77.09 92.8029 77.09ZM92.8029 76.307C93.0729 76.307 93.3129 76.244 93.5229 76.118C93.7329 75.992 93.8979 75.821 94.0179 75.605C94.1379 75.383 94.1979 75.131 94.1979 74.849C94.1979 74.573 94.1349 74.327 94.0089 74.111C93.8889 73.895 93.7239 73.727 93.5139 73.607C93.3099 73.481 93.0729 73.418 92.8029 73.418C92.5329 73.418 92.2929 73.481 92.0829 73.607C91.8729 73.727 91.7079 73.895 91.5879 74.111C91.4679 74.327 91.4079 74.573 91.4079 74.849C91.4079 75.131 91.4679 75.383 91.5879 75.605C91.7079 75.821 91.8729 75.992 92.0829 76.118C92.2929 76.244 92.5329 76.307 92.8029 76.307ZM97.9005 77.09C97.4805 77.09 97.0995 76.991 96.7575 76.793C96.4215 76.595 96.1545 76.328 95.9565 75.992C95.7645 75.65 95.6685 75.272 95.6685 74.858C95.6685 74.438 95.7645 74.06 95.9565 73.724C96.1545 73.388 96.4215 73.124 96.7575 72.932C97.0995 72.734 97.4805 72.635 97.9005 72.635C98.2305 72.635 98.5365 72.698 98.8185 72.824C99.1005 72.944 99.3435 73.121 99.5475 73.355L99.0075 73.895C98.8755 73.739 98.7135 73.622 98.5215 73.544C98.3355 73.46 98.1285 73.418 97.9005 73.418C97.6305 73.418 97.3905 73.481 97.1805 73.607C96.9705 73.727 96.8055 73.895 96.6855 74.111C96.5655 74.327 96.5055 74.576 96.5055 74.858C96.5055 75.14 96.5655 75.389 96.6855 75.605C96.8055 75.821 96.9705 75.992 97.1805 76.118C97.3905 76.244 97.6305 76.307 97.9005 76.307C98.1285 76.307 98.3355 76.268 98.5215 76.19C98.7135 76.106 98.8785 75.986 99.0165 75.83L99.5475 76.37C99.3495 76.598 99.1065 76.775 98.8185 76.901C98.5365 77.027 98.2305 77.09 97.9005 77.09ZM102.081 77.09C101.691 77.09 101.337 76.994 101.019 76.802C100.701 76.604 100.449 76.337 100.263 76.001C100.083 75.665 99.9929 75.287 99.9929 74.867C99.9929 74.447 100.083 74.069 100.263 73.733C100.449 73.397 100.698 73.13 101.01 72.932C101.328 72.734 101.685 72.635 102.081 72.635C102.405 72.635 102.693 72.704 102.945 72.842C103.203 72.974 103.41 73.16 103.566 73.4C103.722 73.634 103.809 73.907 103.827 74.219V75.506C103.809 75.812 103.722 76.085 103.566 76.325C103.416 76.565 103.212 76.754 102.954 76.892C102.702 77.024 102.411 77.09 102.081 77.09ZM102.216 76.325C102.618 76.325 102.942 76.19 103.188 75.92C103.434 75.644 103.557 75.293 103.557 74.867C103.557 74.573 103.5 74.318 103.386 74.102C103.278 73.88 103.122 73.709 102.918 73.589C102.714 73.463 102.477 73.4 102.207 73.4C101.937 73.4 101.697 73.463 101.487 73.589C101.283 73.715 101.121 73.889 101.001 74.111C100.887 74.327 100.83 74.576 100.83 74.858C100.83 75.146 100.887 75.401 101.001 75.623C101.121 75.839 101.286 76.01 101.496 76.136C101.706 76.262 101.946 76.325 102.216 76.325ZM103.503 77V75.848L103.656 74.804L103.503 73.769V72.725H104.322V77H103.503ZM107.751 77.09C107.427 77.09 107.133 77.024 106.869 76.892C106.611 76.754 106.404 76.565 106.248 76.325C106.092 76.085 106.005 75.812 105.987 75.506V74.219C106.005 73.907 106.092 73.634 106.248 73.4C106.41 73.16 106.62 72.974 106.878 72.842C107.142 72.704 107.433 72.635 107.751 72.635C108.141 72.635 108.492 72.734 108.804 72.932C109.122 73.13 109.371 73.397 109.551 73.733C109.731 74.069 109.821 74.447 109.821 74.867C109.821 75.287 109.731 75.665 109.551 76.001C109.371 76.337 109.122 76.604 108.804 76.802C108.492 76.994 108.141 77.09 107.751 77.09ZM105.501 77V70.574H106.311V73.769L106.158 74.804L106.311 75.848V77H105.501ZM107.616 76.325C107.886 76.325 108.123 76.262 108.327 76.136C108.531 76.01 108.693 75.839 108.813 75.623C108.933 75.401 108.993 75.146 108.993 74.858C108.993 74.576 108.933 74.324 108.813 74.102C108.693 73.88 108.531 73.709 108.327 73.589C108.123 73.463 107.889 73.4 107.625 73.4C107.355 73.4 107.118 73.463 106.914 73.589C106.71 73.709 106.551 73.88 106.437 74.102C106.323 74.324 106.266 74.579 106.266 74.867C106.266 75.149 106.32 75.401 106.428 75.623C106.542 75.839 106.701 76.01 106.905 76.136C107.115 76.262 107.352 76.325 107.616 76.325Z" fill="black"/>
<path d="M135.305 74.282V73.571H136.997C137.363 73.571 137.645 73.478 137.843 73.292C138.041 73.106 138.14 72.854 138.14 72.536C138.14 72.236 138.041 71.987 137.843 71.789C137.651 71.591 137.372 71.492 137.006 71.492H135.305V70.754H137.033C137.429 70.754 137.774 70.832 138.068 70.988C138.362 71.138 138.587 71.345 138.743 71.609C138.905 71.873 138.986 72.176 138.986 72.518C138.986 72.872 138.905 73.181 138.743 73.445C138.587 73.709 138.362 73.916 138.068 74.066C137.774 74.21 137.429 74.282 137.033 74.282H135.305ZM134.738 77V70.754H135.584V77H134.738ZM138.338 77L136.07 74.201L136.871 73.922L139.409 77H138.338ZM141.979 77.09C141.553 77.09 141.169 76.994 140.827 76.802C140.485 76.604 140.215 76.337 140.017 76.001C139.819 75.665 139.72 75.284 139.72 74.858C139.72 74.438 139.816 74.06 140.008 73.724C140.206 73.388 140.47 73.124 140.8 72.932C141.136 72.734 141.511 72.635 141.925 72.635C142.321 72.635 142.669 72.725 142.969 72.905C143.275 73.085 143.512 73.334 143.68 73.652C143.854 73.97 143.941 74.33 143.941 74.732C143.941 74.792 143.938 74.858 143.932 74.93C143.926 74.996 143.914 75.074 143.896 75.164H140.287V74.489H143.464L143.167 74.75C143.167 74.462 143.116 74.219 143.014 74.021C142.912 73.817 142.768 73.661 142.582 73.553C142.396 73.439 142.171 73.382 141.907 73.382C141.631 73.382 141.388 73.442 141.178 73.562C140.968 73.682 140.806 73.85 140.692 74.066C140.578 74.282 140.521 74.537 140.521 74.831C140.521 75.131 140.581 75.395 140.701 75.623C140.821 75.845 140.992 76.019 141.214 76.145C141.436 76.265 141.691 76.325 141.979 76.325C142.219 76.325 142.438 76.283 142.636 76.199C142.84 76.115 143.014 75.989 143.158 75.821L143.68 76.352C143.476 76.592 143.224 76.775 142.924 76.901C142.63 77.027 142.315 77.09 141.979 77.09ZM146.642 77.09C146.252 77.09 145.898 76.994 145.58 76.802C145.262 76.604 145.01 76.337 144.824 76.001C144.644 75.665 144.554 75.287 144.554 74.867C144.554 74.447 144.644 74.069 144.824 73.733C145.01 73.397 145.259 73.13 145.571 72.932C145.889 72.734 146.246 72.635 146.642 72.635C146.966 72.635 147.254 72.704 147.506 72.842C147.764 72.974 147.971 73.16 148.127 73.4C148.283 73.634 148.37 73.907 148.388 74.219V75.506C148.37 75.812 148.283 76.085 148.127 76.325C147.977 76.565 147.773 76.754 147.515 76.892C147.263 77.024 146.972 77.09 146.642 77.09ZM146.777 76.325C147.179 76.325 147.503 76.19 147.749 75.92C147.995 75.644 148.118 75.293 148.118 74.867C148.118 74.573 148.061 74.318 147.947 74.102C147.839 73.88 147.683 73.709 147.479 73.589C147.275 73.463 147.038 73.4 146.768 73.4C146.498 73.4 146.258 73.463 146.048 73.589C145.844 73.715 145.682 73.889 145.562 74.111C145.448 74.327 145.391 74.576 145.391 74.858C145.391 75.146 145.448 75.401 145.562 75.623C145.682 75.839 145.847 76.01 146.057 76.136C146.267 76.262 146.507 76.325 146.777 76.325ZM148.064 77V75.848L148.217 74.804L148.064 73.769V72.725H148.883V77H148.064ZM151.872 77.09C151.476 77.09 151.122 76.994 150.81 76.802C150.498 76.604 150.249 76.337 150.063 76.001C149.883 75.665 149.793 75.287 149.793 74.867C149.793 74.447 149.883 74.069 150.063 73.733C150.249 73.397 150.498 73.13 150.81 72.932C151.122 72.734 151.476 72.635 151.872 72.635C152.19 72.635 152.478 72.704 152.736 72.842C152.994 72.974 153.201 73.16 153.357 73.4C153.519 73.634 153.609 73.907 153.627 74.219V75.506C153.609 75.812 153.522 76.085 153.366 76.325C153.21 76.565 153.003 76.754 152.745 76.892C152.487 77.024 152.196 77.09 151.872 77.09ZM152.007 76.325C152.277 76.325 152.511 76.262 152.709 76.136C152.913 76.01 153.072 75.839 153.186 75.623C153.3 75.401 153.357 75.149 153.357 74.867C153.357 74.573 153.297 74.318 153.177 74.102C153.063 73.886 152.904 73.715 152.7 73.589C152.502 73.463 152.268 73.4 151.998 73.4C151.728 73.4 151.491 73.463 151.287 73.589C151.083 73.715 150.921 73.889 150.801 74.111C150.687 74.327 150.63 74.576 150.63 74.858C150.63 75.146 150.687 75.401 150.801 75.623C150.921 75.839 151.083 76.01 151.287 76.136C151.497 76.262 151.737 76.325 152.007 76.325ZM154.122 77H153.303V75.848L153.456 74.804L153.303 73.769V70.574H154.122V77ZM155.31 77V72.725H156.12V77H155.31ZM155.715 71.87C155.565 71.87 155.442 71.822 155.346 71.726C155.25 71.624 155.202 71.498 155.202 71.348C155.202 71.204 155.25 71.084 155.346 70.988C155.442 70.886 155.565 70.835 155.715 70.835C155.865 70.835 155.988 70.886 156.084 70.988C156.18 71.084 156.228 71.204 156.228 71.348C156.228 71.498 156.18 71.624 156.084 71.726C155.988 71.822 155.865 71.87 155.715 71.87ZM160.338 77V74.507C160.338 74.183 160.236 73.916 160.032 73.706C159.828 73.496 159.564 73.391 159.24 73.391C159.024 73.391 158.832 73.439 158.664 73.535C158.496 73.631 158.364 73.763 158.268 73.931C158.172 74.099 158.124 74.291 158.124 74.507L157.791 74.318C157.791 73.994 157.863 73.706 158.007 73.454C158.151 73.202 158.352 73.004 158.61 72.86C158.868 72.71 159.159 72.635 159.483 72.635C159.807 72.635 160.092 72.716 160.338 72.878C160.59 73.04 160.788 73.253 160.932 73.517C161.076 73.775 161.148 74.051 161.148 74.345V77H160.338ZM157.314 77V72.725H158.124V77H157.314ZM164.017 78.881C163.579 78.881 163.189 78.8 162.847 78.638C162.511 78.476 162.241 78.248 162.037 77.954L162.559 77.423C162.733 77.645 162.94 77.813 163.18 77.927C163.42 78.047 163.705 78.107 164.035 78.107C164.473 78.107 164.818 77.99 165.07 77.756C165.328 77.528 165.457 77.219 165.457 76.829V75.767L165.601 74.804L165.457 73.85V72.725H166.267V76.829C166.267 77.237 166.171 77.594 165.979 77.9C165.793 78.206 165.529 78.446 165.187 78.62C164.851 78.794 164.461 78.881 164.017 78.881ZM164.017 76.928C163.627 76.928 163.276 76.835 162.964 76.649C162.658 76.463 162.415 76.208 162.235 75.884C162.055 75.554 161.965 75.185 161.965 74.777C161.965 74.369 162.055 74.006 162.235 73.688C162.415 73.364 162.658 73.109 162.964 72.923C163.276 72.731 163.627 72.635 164.017 72.635C164.353 72.635 164.65 72.701 164.908 72.833C165.166 72.965 165.37 73.151 165.52 73.391C165.676 73.625 165.76 73.901 165.772 74.219V75.353C165.754 75.665 165.667 75.941 165.511 76.181C165.361 76.415 165.157 76.598 164.899 76.73C164.641 76.862 164.347 76.928 164.017 76.928ZM164.179 76.163C164.443 76.163 164.674 76.106 164.872 75.992C165.076 75.878 165.232 75.719 165.34 75.515C165.448 75.305 165.502 75.062 165.502 74.786C165.502 74.51 165.445 74.27 165.331 74.066C165.223 73.856 165.07 73.694 164.872 73.58C164.674 73.46 164.44 73.4 164.17 73.4C163.9 73.4 163.663 73.46 163.459 73.58C163.255 73.694 163.093 73.856 162.973 74.066C162.859 74.27 162.802 74.507 162.802 74.777C162.802 75.047 162.859 75.287 162.973 75.497C163.093 75.707 163.255 75.872 163.459 75.992C163.669 76.106 163.909 76.163 164.179 76.163Z" fill="black"/>
<path d="M192.738 77V70.754H193.332L195.978 75.101H195.573L198.219 70.754H198.813V77H197.967V72.239L198.165 72.293L196.077 75.722H195.483L193.395 72.293L193.584 72.239V77H192.738ZM201.962 77.09C201.572 77.09 201.218 76.994 200.9 76.802C200.582 76.604 200.33 76.337 200.144 76.001C199.964 75.665 199.874 75.287 199.874 74.867C199.874 74.447 199.964 74.069 200.144 73.733C200.33 73.397 200.579 73.13 200.891 72.932C201.209 72.734 201.566 72.635 201.962 72.635C202.286 72.635 202.574 72.704 202.826 72.842C203.084 72.974 203.291 73.16 203.447 73.4C203.603 73.634 203.69 73.907 203.708 74.219V75.506C203.69 75.812 203.603 76.085 203.447 76.325C203.297 76.565 203.093 76.754 202.835 76.892C202.583 77.024 202.292 77.09 201.962 77.09ZM202.097 76.325C202.499 76.325 202.823 76.19 203.069 75.92C203.315 75.644 203.438 75.293 203.438 74.867C203.438 74.573 203.381 74.318 203.267 74.102C203.159 73.88 203.003 73.709 202.799 73.589C202.595 73.463 202.358 73.4 202.088 73.4C201.818 73.4 201.578 73.463 201.368 73.589C201.164 73.715 201.002 73.889 200.882 74.111C200.768 74.327 200.711 74.576 200.711 74.858C200.711 75.146 200.768 75.401 200.882 75.623C201.002 75.839 201.167 76.01 201.377 76.136C201.587 76.262 201.827 76.325 202.097 76.325ZM203.384 77V75.848L203.537 74.804L203.384 73.769V72.725H204.203V77H203.384ZM206.022 77V70.934H206.832V77H206.022ZM204.969 73.463V72.725H207.885V73.463H204.969ZM211.702 77V74.507C211.702 74.183 211.6 73.916 211.396 73.706C211.192 73.496 210.928 73.391 210.604 73.391C210.388 73.391 210.196 73.439 210.028 73.535C209.86 73.631 209.728 73.763 209.632 73.931C209.536 74.099 209.488 74.291 209.488 74.507L209.155 74.318C209.155 73.994 209.227 73.706 209.371 73.454C209.515 73.202 209.716 73.004 209.974 72.86C210.232 72.71 210.523 72.635 210.847 72.635C211.171 72.635 211.456 72.707 211.702 72.851C211.954 72.995 212.152 73.196 212.296 73.454C212.44 73.712 212.512 74.009 212.512 74.345V77H211.702ZM208.678 77V70.574H209.488V77H208.678Z" fill="black"/>
<path d="M242.331 77L240.288 70.754H241.134L242.754 75.848H242.511L244.104 70.754H244.716L246.309 75.848H246.075L247.695 70.754H248.532L246.498 77H245.895L244.293 71.915H244.527L242.934 77H242.331ZM248.847 77V72.725H249.657V77H248.847ZM249.657 74.561L249.351 74.426C249.351 73.88 249.477 73.445 249.729 73.121C249.981 72.797 250.344 72.635 250.818 72.635C251.034 72.635 251.229 72.674 251.403 72.752C251.577 72.824 251.739 72.947 251.889 73.121L251.358 73.67C251.268 73.574 251.169 73.505 251.061 73.463C250.953 73.421 250.827 73.4 250.683 73.4C250.383 73.4 250.137 73.496 249.945 73.688C249.753 73.88 249.657 74.171 249.657 74.561ZM252.468 77V72.725H253.278V77H252.468ZM252.873 71.87C252.723 71.87 252.6 71.822 252.504 71.726C252.408 71.624 252.36 71.498 252.36 71.348C252.36 71.204 252.408 71.084 252.504 70.988C252.6 70.886 252.723 70.835 252.873 70.835C253.023 70.835 253.146 70.886 253.242 70.988C253.338 71.084 253.386 71.204 253.386 71.348C253.386 71.498 253.338 71.624 253.242 71.726C253.146 71.822 253.023 71.87 252.873 71.87ZM255.129 77V70.934H255.939V77H255.129ZM254.076 73.463V72.725H256.992V73.463H254.076ZM257.794 77V72.725H258.604V77H257.794ZM258.199 71.87C258.049 71.87 257.926 71.822 257.83 71.726C257.734 71.624 257.686 71.498 257.686 71.348C257.686 71.204 257.734 71.084 257.83 70.988C257.926 70.886 258.049 70.835 258.199 70.835C258.349 70.835 258.472 70.886 258.568 70.988C258.664 71.084 258.712 71.204 258.712 71.348C258.712 71.498 258.664 71.624 258.568 71.726C258.472 71.822 258.349 71.87 258.199 71.87ZM262.822 77V74.507C262.822 74.183 262.72 73.916 262.516 73.706C262.312 73.496 262.048 73.391 261.724 73.391C261.508 73.391 261.316 73.439 261.148 73.535C260.98 73.631 260.848 73.763 260.752 73.931C260.656 74.099 260.608 74.291 260.608 74.507L260.275 74.318C260.275 73.994 260.347 73.706 260.491 73.454C260.635 73.202 260.836 73.004 261.094 72.86C261.352 72.71 261.643 72.635 261.967 72.635C262.291 72.635 262.576 72.716 262.822 72.878C263.074 73.04 263.272 73.253 263.416 73.517C263.56 73.775 263.632 74.051 263.632 74.345V77H262.822ZM259.798 77V72.725H260.608V77H259.798ZM266.502 78.881C266.064 78.881 265.674 78.8 265.332 78.638C264.996 78.476 264.726 78.248 264.522 77.954L265.044 77.423C265.218 77.645 265.425 77.813 265.665 77.927C265.905 78.047 266.19 78.107 266.52 78.107C266.958 78.107 267.303 77.99 267.555 77.756C267.813 77.528 267.942 77.219 267.942 76.829V75.767L268.086 74.804L267.942 73.85V72.725H268.752V76.829C268.752 77.237 268.656 77.594 268.464 77.9C268.278 78.206 268.014 78.446 267.672 78.62C267.336 78.794 266.946 78.881 266.502 78.881ZM266.502 76.928C266.112 76.928 265.761 76.835 265.449 76.649C265.143 76.463 264.9 76.208 264.72 75.884C264.54 75.554 264.45 75.185 264.45 74.777C264.45 74.369 264.54 74.006 264.72 73.688C264.9 73.364 265.143 73.109 265.449 72.923C265.761 72.731 266.112 72.635 266.502 72.635C266.838 72.635 267.135 72.701 267.393 72.833C267.651 72.965 267.855 73.151 268.005 73.391C268.161 73.625 268.245 73.901 268.257 74.219V75.353C268.239 75.665 268.152 75.941 267.996 76.181C267.846 76.415 267.642 76.598 267.384 76.73C267.126 76.862 266.832 76.928 266.502 76.928ZM266.664 76.163C266.928 76.163 267.159 76.106 267.357 75.992C267.561 75.878 267.717 75.719 267.825 75.515C267.933 75.305 267.987 75.062 267.987 74.786C267.987 74.51 267.93 74.27 267.816 74.066C267.708 73.856 267.555 73.694 267.357 73.58C267.159 73.46 266.925 73.4 266.655 73.4C266.385 73.4 266.148 73.46 265.944 73.58C265.74 73.694 265.578 73.856 265.458 74.066C265.344 74.27 265.287 74.507 265.287 74.777C265.287 75.047 265.344 75.287 265.458 75.497C265.578 75.707 265.74 75.872 265.944 75.992C266.154 76.106 266.394 76.163 266.664 76.163Z" fill="black"/>
<path d="M294.922 72.08C294.522 72.08 294.151 72.008 293.81 71.864C293.469 71.7147 293.17 71.5093 292.914 71.248C292.663 70.9867 292.469 70.6827 292.33 70.336C292.191 69.9893 292.122 69.6187 292.122 69.224C292.122 68.824 292.191 68.4507 292.33 68.104C292.469 67.7573 292.663 67.456 292.914 67.2C293.17 66.9387 293.466 66.736 293.802 66.592C294.143 66.4427 294.514 66.368 294.914 66.368C295.351 66.368 295.735 66.4427 296.066 66.592C296.397 66.7413 296.69 66.944 296.946 67.2L296.426 67.72C296.25 67.5227 296.034 67.368 295.778 67.256C295.527 67.144 295.239 67.088 294.914 67.088C294.621 67.088 294.351 67.1413 294.106 67.248C293.861 67.3493 293.647 67.496 293.466 67.688C293.285 67.88 293.143 68.1067 293.042 68.368C292.946 68.6293 292.898 68.9147 292.898 69.224C292.898 69.5333 292.946 69.8187 293.042 70.08C293.143 70.3413 293.285 70.568 293.466 70.76C293.647 70.952 293.861 71.1013 294.106 71.208C294.351 71.3093 294.621 71.36 294.914 71.36C295.261 71.36 295.562 71.304 295.818 71.192C296.074 71.0747 296.29 70.9173 296.466 70.72L296.986 71.232C296.73 71.4987 296.429 71.7067 296.082 71.856C295.741 72.0053 295.354 72.08 294.922 72.08ZM299.385 72.08C299.012 72.08 298.676 71.992 298.377 71.816C298.078 71.64 297.841 71.4027 297.665 71.104C297.489 70.8 297.401 70.4613 297.401 70.088C297.401 69.72 297.489 69.3893 297.665 69.096C297.841 68.7973 298.078 68.56 298.377 68.384C298.676 68.208 299.012 68.12 299.385 68.12C299.753 68.12 300.086 68.208 300.385 68.384C300.689 68.5547 300.929 68.7893 301.105 69.088C301.281 69.3867 301.369 69.72 301.369 70.088C301.369 70.4613 301.281 70.8 301.105 71.104C300.929 71.4027 300.689 71.64 300.385 71.816C300.086 71.992 299.753 72.08 299.385 72.08ZM299.385 71.384C299.625 71.384 299.838 71.328 300.025 71.216C300.212 71.104 300.358 70.952 300.465 70.76C300.572 70.5627 300.625 70.3387 300.625 70.088C300.625 69.8427 300.569 69.624 300.457 69.432C300.35 69.24 300.204 69.0907 300.017 68.984C299.836 68.872 299.625 68.816 299.385 68.816C299.145 68.816 298.932 68.872 298.745 68.984C298.558 69.0907 298.412 69.24 298.305 69.432C298.198 69.624 298.145 69.8427 298.145 70.088C298.145 70.3387 298.198 70.5627 298.305 70.76C298.412 70.952 298.558 71.104 298.745 71.216C298.932 71.328 299.145 71.384 299.385 71.384ZM302.18 72V68.2H302.9V72H302.18ZM304.748 72V69.704C304.748 69.4213 304.66 69.2 304.484 69.04C304.314 68.8747 304.098 68.792 303.836 68.792C303.66 68.792 303.503 68.8293 303.364 68.904C303.226 68.9787 303.114 69.0827 303.028 69.216C302.943 69.3493 302.9 69.5093 302.9 69.696L302.604 69.552C302.604 69.264 302.666 69.0133 302.788 68.8C302.916 68.5867 303.09 68.4213 303.308 68.304C303.527 68.1813 303.772 68.12 304.044 68.12C304.311 68.12 304.551 68.1787 304.764 68.296C304.983 68.4133 305.154 68.5787 305.276 68.792C305.404 69.0053 305.468 69.2587 305.468 69.552V72H304.748ZM307.316 72V69.704C307.316 69.4213 307.228 69.2 307.052 69.04C306.882 68.8747 306.668 68.792 306.412 68.792C306.236 68.792 306.076 68.8293 305.932 68.904C305.794 68.9787 305.682 69.0827 305.596 69.216C305.511 69.3493 305.468 69.5093 305.468 69.696L305.06 69.552C305.076 69.2587 305.154 69.008 305.292 68.8C305.436 68.5867 305.62 68.4213 305.844 68.304C306.068 68.1813 306.314 68.12 306.58 68.12C306.858 68.12 307.106 68.1787 307.324 68.296C307.543 68.4133 307.716 68.5787 307.844 68.792C307.978 69.0053 308.044 69.2613 308.044 69.56V72H307.316ZM309.024 72V68.2H309.744V72H309.024ZM311.592 72V69.704C311.592 69.4213 311.504 69.2 311.328 69.04C311.157 68.8747 310.941 68.792 310.68 68.792C310.504 68.792 310.347 68.8293 310.208 68.904C310.069 68.9787 309.957 69.0827 309.872 69.216C309.787 69.3493 309.744 69.5093 309.744 69.696L309.448 69.552C309.448 69.264 309.509 69.0133 309.632 68.8C309.76 68.5867 309.933 68.4213 310.152 68.304C310.371 68.1813 310.616 68.12 310.888 68.12C311.155 68.12 311.395 68.1787 311.608 68.296C311.827 68.4133 311.997 68.5787 312.12 68.792C312.248 69.0053 312.312 69.2587 312.312 69.552V72H311.592ZM314.16 72V69.704C314.16 69.4213 314.072 69.2 313.896 69.04C313.725 68.8747 313.512 68.792 313.256 68.792C313.08 68.792 312.92 68.8293 312.776 68.904C312.637 68.9787 312.525 69.0827 312.44 69.216C312.355 69.3493 312.312 69.5093 312.312 69.696L311.904 69.552C311.92 69.2587 311.997 69.008 312.136 68.8C312.28 68.5867 312.464 68.4213 312.688 68.304C312.912 68.1813 313.157 68.12 313.424 68.12C313.701 68.12 313.949 68.1787 314.168 68.296C314.387 68.4133 314.56 68.5787 314.688 68.792C314.821 69.0053 314.888 69.2613 314.888 69.56V72H314.16ZM317.604 72.08C317.231 72.08 316.895 71.992 316.596 71.816C316.297 71.64 316.06 71.4027 315.884 71.104C315.708 70.8 315.62 70.4613 315.62 70.088C315.62 69.72 315.708 69.3893 315.884 69.096C316.06 68.7973 316.297 68.56 316.596 68.384C316.895 68.208 317.231 68.12 317.604 68.12C317.972 68.12 318.305 68.208 318.604 68.384C318.908 68.5547 319.148 68.7893 319.324 69.088C319.5 69.3867 319.588 69.72 319.588 70.088C319.588 70.4613 319.5 70.8 319.324 71.104C319.148 71.4027 318.908 71.64 318.604 71.816C318.305 71.992 317.972 72.08 317.604 72.08ZM317.604 71.384C317.844 71.384 318.057 71.328 318.244 71.216C318.431 71.104 318.577 70.952 318.684 70.76C318.791 70.5627 318.844 70.3387 318.844 70.088C318.844 69.8427 318.788 69.624 318.676 69.432C318.569 69.24 318.423 69.0907 318.236 68.984C318.055 68.872 317.844 68.816 317.604 68.816C317.364 68.816 317.151 68.872 316.964 68.984C316.777 69.0907 316.631 69.24 316.524 69.432C316.417 69.624 316.364 69.8427 316.364 70.088C316.364 70.3387 316.417 70.5627 316.524 70.76C316.631 70.952 316.777 71.104 316.964 71.216C317.151 71.328 317.364 71.384 317.604 71.384ZM323.087 72V69.784C323.087 69.496 322.996 69.2587 322.815 69.072C322.634 68.8853 322.399 68.792 322.111 68.792C321.919 68.792 321.748 68.8347 321.599 68.92C321.45 69.0053 321.332 69.1227 321.247 69.272C321.162 69.4213 321.119 69.592 321.119 69.784L320.823 69.616C320.823 69.328 320.887 69.072 321.015 68.848C321.143 68.624 321.322 68.448 321.551 68.32C321.78 68.1867 322.039 68.12 322.327 68.12C322.615 68.12 322.868 68.192 323.087 68.336C323.311 68.48 323.487 68.6693 323.615 68.904C323.743 69.1333 323.807 69.3787 323.807 69.64V72H323.087ZM320.399 72V68.2H321.119V72H320.399ZM302.535 82.08C302.135 82.08 301.765 82.008 301.423 81.864C301.082 81.7147 300.783 81.5093 300.527 81.248C300.277 80.9867 300.082 80.6827 299.943 80.336C299.805 79.9893 299.735 79.6187 299.735 79.224C299.735 78.824 299.805 78.4507 299.943 78.104C300.082 77.7573 300.277 77.456 300.527 77.2C300.783 76.9387 301.079 76.736 301.415 76.592C301.757 76.4427 302.127 76.368 302.527 76.368C302.965 76.368 303.349 76.4427 303.679 76.592C304.01 76.7413 304.303 76.944 304.559 77.2L304.039 77.72C303.863 77.5227 303.647 77.368 303.391 77.256C303.141 77.144 302.853 77.088 302.527 77.088C302.234 77.088 301.965 77.1413 301.719 77.248C301.474 77.3493 301.261 77.496 301.079 77.688C300.898 77.88 300.757 78.1067 300.655 78.368C300.559 78.6293 300.511 78.9147 300.511 79.224C300.511 79.5333 300.559 79.8187 300.655 80.08C300.757 80.3413 300.898 80.568 301.079 80.76C301.261 80.952 301.474 81.1013 301.719 81.208C301.965 81.3093 302.234 81.36 302.527 81.36C302.874 81.36 303.175 81.304 303.431 81.192C303.687 81.0747 303.903 80.9173 304.079 80.72L304.599 81.232C304.343 81.4987 304.042 81.7067 303.695 81.856C303.354 82.0053 302.967 82.08 302.535 82.08ZM306.998 82.08C306.625 82.08 306.289 81.992 305.99 81.816C305.692 81.64 305.454 81.4027 305.278 81.104C305.102 80.8 305.014 80.4613 305.014 80.088C305.014 79.72 305.102 79.3893 305.278 79.096C305.454 78.7973 305.692 78.56 305.99 78.384C306.289 78.208 306.625 78.12 306.998 78.12C307.366 78.12 307.7 78.208 307.998 78.384C308.302 78.5547 308.542 78.7893 308.718 79.088C308.894 79.3867 308.982 79.72 308.982 80.088C308.982 80.4613 308.894 80.8 308.718 81.104C308.542 81.4027 308.302 81.64 307.998 81.816C307.7 81.992 307.366 82.08 306.998 82.08ZM306.998 81.384C307.238 81.384 307.452 81.328 307.638 81.216C307.825 81.104 307.972 80.952 308.078 80.76C308.185 80.5627 308.238 80.3387 308.238 80.088C308.238 79.8427 308.182 79.624 308.07 79.432C307.964 79.24 307.817 79.0907 307.63 78.984C307.449 78.872 307.238 78.816 306.998 78.816C306.758 78.816 306.545 78.872 306.358 78.984C306.172 79.0907 306.025 79.24 305.918 79.432C305.812 79.624 305.758 79.8427 305.758 80.088C305.758 80.3387 305.812 80.5627 305.918 80.76C306.025 80.952 306.172 81.104 306.358 81.216C306.545 81.328 306.758 81.384 306.998 81.384ZM309.794 82V78.2H310.514V82H309.794ZM310.514 79.832L310.242 79.712C310.242 79.2267 310.354 78.84 310.578 78.552C310.802 78.264 311.124 78.12 311.546 78.12C311.738 78.12 311.911 78.1547 312.066 78.224C312.22 78.288 312.364 78.3973 312.498 78.552L312.026 79.04C311.946 78.9547 311.858 78.8933 311.762 78.856C311.666 78.8187 311.554 78.8 311.426 78.8C311.159 78.8 310.94 78.8853 310.77 79.056C310.599 79.2267 310.514 79.4853 310.514 79.832ZM314.64 82.08C314.261 82.08 313.92 81.9947 313.616 81.824C313.312 81.648 313.072 81.4107 312.896 81.112C312.72 80.8133 312.632 80.4747 312.632 80.096C312.632 79.7227 312.717 79.3867 312.888 79.088C313.064 78.7893 313.298 78.5547 313.592 78.384C313.89 78.208 314.224 78.12 314.592 78.12C314.944 78.12 315.253 78.2 315.52 78.36C315.792 78.52 316.002 78.7413 316.152 79.024C316.306 79.3067 316.384 79.6267 316.384 79.984C316.384 80.0373 316.381 80.096 316.376 80.16C316.37 80.2187 316.36 80.288 316.344 80.368H313.136V79.768H315.96L315.696 80C315.696 79.744 315.65 79.528 315.56 79.352C315.469 79.1707 315.341 79.032 315.176 78.936C315.01 78.8347 314.81 78.784 314.576 78.784C314.33 78.784 314.114 78.8373 313.928 78.944C313.741 79.0507 313.597 79.2 313.496 79.392C313.394 79.584 313.344 79.8107 313.344 80.072C313.344 80.3387 313.397 80.5733 313.504 80.776C313.61 80.9733 313.762 81.128 313.96 81.24C314.157 81.3467 314.384 81.4 314.64 81.4C314.853 81.4 315.048 81.3627 315.224 81.288C315.405 81.2133 315.56 81.1013 315.688 80.952L316.152 81.424C315.97 81.6373 315.746 81.8 315.48 81.912C315.218 82.024 314.938 82.08 314.64 82.08Z" fill="black"/>
<path d="M88.82 10V3.06H89.48L92.42 7.89H91.97L94.91 3.06H95.57V10H94.63V4.71L94.85 4.77L92.53 8.58H91.87L89.55 4.77L89.76 4.71V10H88.82ZM99.2187 10.1C98.752 10.1 98.332 9.99 97.9587 9.77C97.5853 9.55 97.2887 9.25333 97.0687 8.88C96.8487 8.5 96.7387 8.07667 96.7387 7.61C96.7387 7.15 96.8487 6.73667 97.0687 6.37C97.2887 5.99667 97.5853 5.7 97.9587 5.48C98.332 5.26 98.752 5.15 99.2187 5.15C99.6787 5.15 100.095 5.26 100.469 5.48C100.849 5.69333 101.149 5.98667 101.369 6.36C101.589 6.73333 101.699 7.15 101.699 7.61C101.699 8.07667 101.589 8.5 101.369 8.88C101.149 9.25333 100.849 9.55 100.469 9.77C100.095 9.99 99.6787 10.1 99.2187 10.1ZM99.2187 9.23C99.5187 9.23 99.7853 9.16 100.019 9.02C100.252 8.88 100.435 8.69 100.569 8.45C100.702 8.20333 100.769 7.92333 100.769 7.61C100.769 7.30333 100.699 7.03 100.559 6.79C100.425 6.55 100.242 6.36333 100.009 6.23C99.782 6.09 99.5187 6.02 99.2187 6.02C98.9187 6.02 98.652 6.09 98.4187 6.23C98.1853 6.36333 98.002 6.55 97.8687 6.79C97.7353 7.03 97.6687 7.30333 97.6687 7.61C97.6687 7.92333 97.7353 8.20333 97.8687 8.45C98.002 8.69 98.1853 8.88 98.4187 9.02C98.652 9.16 98.9187 9.23 99.2187 9.23ZM106.073 10V7.23C106.073 6.87 105.959 6.57333 105.733 6.34C105.506 6.10667 105.213 5.99 104.853 5.99C104.613 5.99 104.399 6.04333 104.213 6.15C104.026 6.25667 103.879 6.40333 103.773 6.59C103.666 6.77667 103.613 6.99 103.613 7.23L103.243 7.02C103.243 6.66 103.323 6.34 103.483 6.06C103.643 5.78 103.866 5.56 104.153 5.4C104.439 5.23333 104.763 5.15 105.123 5.15C105.483 5.15 105.799 5.24 106.073 5.42C106.353 5.6 106.573 5.83667 106.733 6.13C106.893 6.41667 106.973 6.72333 106.973 7.05V10H106.073ZM102.713 10V5.25H103.613V10H102.713Z" fill="black"/>
<path d="M144.66 10V3.26H145.6V10H144.66ZM142.3 3.92V3.06H147.95V3.92H142.3ZM149.843 10.1C149.457 10.1 149.107 10.0133 148.793 9.84C148.487 9.66 148.247 9.41333 148.073 9.1C147.9 8.78667 147.813 8.42333 147.813 8.01V5.25H148.713V7.97C148.713 8.23 148.757 8.45667 148.843 8.65C148.937 8.83667 149.07 8.98 149.243 9.08C149.417 9.18 149.62 9.23 149.853 9.23C150.207 9.23 150.483 9.12 150.683 8.9C150.883 8.67333 150.983 8.36333 150.983 7.97V5.25H151.883V8.01C151.883 8.42333 151.797 8.78667 151.623 9.1C151.45 9.41333 151.21 9.66 150.903 9.84C150.603 10.0133 150.25 10.1 149.843 10.1ZM155.29 10.1C154.816 10.1 154.39 9.99333 154.01 9.78C153.63 9.56 153.33 9.26333 153.11 8.89C152.89 8.51667 152.78 8.09333 152.78 7.62C152.78 7.15333 152.886 6.73333 153.1 6.36C153.32 5.98667 153.613 5.69333 153.98 5.48C154.353 5.26 154.77 5.15 155.23 5.15C155.67 5.15 156.056 5.25 156.39 5.45C156.73 5.65 156.993 5.92667 157.18 6.28C157.373 6.63333 157.47 7.03333 157.47 7.48C157.47 7.54667 157.466 7.62 157.46 7.7C157.453 7.77333 157.44 7.86 157.42 7.96H153.41V7.21H156.94L156.61 7.5C156.61 7.18 156.553 6.91 156.44 6.69C156.326 6.46333 156.166 6.29 155.96 6.17C155.753 6.04333 155.503 5.98 155.21 5.98C154.903 5.98 154.633 6.04667 154.4 6.18C154.166 6.31333 153.986 6.5 153.86 6.74C153.733 6.98 153.67 7.26333 153.67 7.59C153.67 7.92333 153.736 8.21667 153.87 8.47C154.003 8.71667 154.193 8.91 154.44 9.05C154.686 9.18333 154.97 9.25 155.29 9.25C155.556 9.25 155.8 9.20333 156.02 9.11C156.246 9.01667 156.44 8.87667 156.6 8.69L157.18 9.28C156.953 9.54667 156.673 9.75 156.34 9.89C156.013 10.03 155.663 10.1 155.29 10.1Z" fill="black"/>
<path d="M194.59 10L192.32 3.06H193.26L195.06 8.72H194.79L196.56 3.06H197.24L199.01 8.72H198.75L200.55 3.06H201.48L199.22 10H198.55L196.77 4.35H197.03L195.26 10H194.59ZM203.942 10.1C203.469 10.1 203.042 9.99333 202.662 9.78C202.282 9.56 201.982 9.26333 201.762 8.89C201.542 8.51667 201.432 8.09333 201.432 7.62C201.432 7.15333 201.539 6.73333 201.752 6.36C201.972 5.98667 202.265 5.69333 202.632 5.48C203.005 5.26 203.422 5.15 203.882 5.15C204.322 5.15 204.709 5.25 205.042 5.45C205.382 5.65 205.645 5.92667 205.832 6.28C206.025 6.63333 206.122 7.03333 206.122 7.48C206.122 7.54667 206.119 7.62 206.112 7.7C206.105 7.77333 206.092 7.86 206.072 7.96H202.062V7.21H205.592L205.262 7.5C205.262 7.18 205.205 6.91 205.092 6.69C204.979 6.46333 204.819 6.29 204.612 6.17C204.405 6.04333 204.155 5.98 203.862 5.98C203.555 5.98 203.285 6.04667 203.052 6.18C202.819 6.31333 202.639 6.5 202.512 6.74C202.385 6.98 202.322 7.26333 202.322 7.59C202.322 7.92333 202.389 8.21667 202.522 8.47C202.655 8.71667 202.845 8.91 203.092 9.05C203.339 9.18333 203.622 9.25 203.942 9.25C204.209 9.25 204.452 9.20333 204.672 9.11C204.899 9.01667 205.092 8.87667 205.252 8.69L205.832 9.28C205.605 9.54667 205.325 9.75 204.992 9.89C204.665 10.03 204.315 10.1 203.942 10.1ZM209.113 10.1C208.673 10.1 208.28 9.99333 207.933 9.78C207.587 9.56 207.31 9.26333 207.103 8.89C206.903 8.51667 206.803 8.09667 206.803 7.63C206.803 7.16333 206.903 6.74333 207.103 6.37C207.31 5.99667 207.587 5.7 207.933 5.48C208.28 5.26 208.673 5.15 209.113 5.15C209.467 5.15 209.787 5.22667 210.073 5.38C210.36 5.52667 210.59 5.73333 210.763 6C210.943 6.26 211.043 6.56333 211.063 6.91V8.34C211.043 8.68 210.947 8.98333 210.773 9.25C210.6 9.51667 210.37 9.72667 210.083 9.88C209.797 10.0267 209.473 10.1 209.113 10.1ZM209.263 9.25C209.563 9.25 209.823 9.18 210.043 9.04C210.27 8.9 210.447 8.71 210.573 8.47C210.7 8.22333 210.763 7.94333 210.763 7.63C210.763 7.30333 210.697 7.02 210.563 6.78C210.437 6.54 210.26 6.35 210.033 6.21C209.813 6.07 209.553 6 209.253 6C208.953 6 208.69 6.07 208.463 6.21C208.237 6.35 208.057 6.54333 207.923 6.79C207.797 7.03 207.733 7.30667 207.733 7.62C207.733 7.94 207.797 8.22333 207.923 8.47C208.057 8.71 208.237 8.9 208.463 9.04C208.697 9.18 208.963 9.25 209.263 9.25ZM211.613 10H210.703V8.72L210.873 7.56L210.703 6.41V2.86H211.613V10Z" fill="black"/>
<path d="M249.66 10V3.26H250.6V10H249.66ZM247.3 3.92V3.06H252.95V3.92H247.3ZM257.27 10V7.23C257.27 6.87 257.157 6.57333 256.93 6.34C256.703 6.10667 256.41 5.99 256.05 5.99C255.81 5.99 255.597 6.04333 255.41 6.15C255.223 6.25667 255.077 6.40333 254.97 6.59C254.863 6.77667 254.81 6.99 254.81 7.23L254.44 7.02C254.44 6.66 254.52 6.34 254.68 6.06C254.84 5.78 255.063 5.56 255.35 5.4C255.637 5.23333 255.96 5.15 256.32 5.15C256.68 5.15 256.997 5.23 257.27 5.39C257.55 5.55 257.77 5.77333 257.93 6.06C258.09 6.34667 258.17 6.67667 258.17 7.05V10H257.27ZM253.91 10V2.86H254.81V10H253.91ZM261.299 10.1C260.912 10.1 260.562 10.0133 260.249 9.84C259.942 9.66 259.702 9.41333 259.529 9.1C259.355 8.78667 259.269 8.42333 259.269 8.01V5.25H260.169V7.97C260.169 8.23 260.212 8.45667 260.299 8.65C260.392 8.83667 260.525 8.98 260.699 9.08C260.872 9.18 261.075 9.23 261.309 9.23C261.662 9.23 261.939 9.12 262.139 8.9C262.339 8.67333 262.439 8.36333 262.439 7.97V5.25H263.339V8.01C263.339 8.42333 263.252 8.78667 263.079 9.1C262.905 9.41333 262.665 9.66 262.359 9.84C262.059 10.0133 261.705 10.1 261.299 10.1Z" fill="black"/>
<path d="M302.82 10V3.06H303.76V10H302.82ZM303.46 6.95V6.09H307.08V6.95H303.46ZM303.46 3.92V3.06H307.25V3.92H303.46ZM308.324 10V5.25H309.224V10H308.324ZM309.224 7.29L308.884 7.14C308.884 6.53333 309.024 6.05 309.304 5.69C309.584 5.33 309.987 5.15 310.514 5.15C310.754 5.15 310.971 5.19333 311.164 5.28C311.357 5.36 311.537 5.49667 311.704 5.69L311.114 6.3C311.014 6.19333 310.904 6.11667 310.784 6.07C310.664 6.02333 310.524 6 310.364 6C310.031 6 309.757 6.10667 309.544 6.32C309.331 6.53333 309.224 6.85667 309.224 7.29ZM312.348 10V5.25H313.248V10H312.348ZM312.798 4.3C312.631 4.3 312.494 4.24667 312.388 4.14C312.281 4.02667 312.228 3.88667 312.228 3.72C312.228 3.56 312.281 3.42667 312.388 3.32C312.494 3.20667 312.631 3.15 312.798 3.15C312.964 3.15 313.101 3.20667 313.208 3.32C313.314 3.42667 313.368 3.56 313.368 3.72C313.368 3.88667 313.314 4.02667 313.208 4.14C313.101 4.24667 312.964 4.3 312.798 4.3Z" fill="black"/>
<path d="M2.47 43.1C2.01667 43.1 1.60333 43.0167 1.23 42.85C0.863333 42.6767 0.553333 42.4267 0.3 42.1L0.94 41.46C1.09333 41.6933 1.30333 41.88 1.57 42.02C1.83667 42.1533 2.13333 42.22 2.46 42.22C2.76667 42.22 3.03 42.1633 3.25 42.05C3.47667 41.93 3.65333 41.7633 3.78 41.55C3.91333 41.3367 3.98 41.09 3.98 40.81C3.98 40.5233 3.91333 40.2767 3.78 40.07C3.65333 39.8567 3.47333 39.6933 3.24 39.58C3.00667 39.4667 2.73 39.41 2.41 39.41C2.29 39.41 2.17 39.42 2.05 39.44C1.93 39.4533 1.81333 39.4767 1.7 39.51L2.1 38.97C2.22667 38.91 2.36333 38.8633 2.51 38.83C2.65667 38.7967 2.80333 38.78 2.95 38.78C3.32333 38.78 3.65667 38.8667 3.95 39.04C4.25 39.2133 4.48667 39.4567 4.66 39.77C4.84 40.0833 4.93 40.4467 4.93 40.86C4.93 41.3 4.82333 41.69 4.61 42.03C4.40333 42.3633 4.11667 42.6267 3.75 42.82C3.38333 43.0067 2.95667 43.1 2.47 43.1ZM1.7 39.51V38.94L3.73 36.63L4.85 36.62L2.76 38.99L1.7 39.51ZM0.63 36.9V36.06H4.85V36.62L4.03 36.9H0.63ZM6.73086 43.1C6.54419 43.1 6.38753 43.0367 6.26086 42.91C6.14086 42.7767 6.08086 42.6233 6.08086 42.45C6.08086 42.2567 6.14086 42.1 6.26086 41.98C6.38753 41.8533 6.54419 41.79 6.73086 41.79C6.91753 41.79 7.07086 41.8533 7.19086 41.98C7.31753 42.1 7.38086 42.2567 7.38086 42.45C7.38086 42.6233 7.31753 42.7767 7.19086 42.91C7.07086 43.0367 6.91753 43.1 6.73086 43.1ZM6.73086 39.98C6.54419 39.98 6.38753 39.9167 6.26086 39.79C6.14086 39.6633 6.08086 39.51 6.08086 39.33C6.08086 39.1367 6.14086 38.98 6.26086 38.86C6.38753 38.7333 6.54419 38.67 6.73086 38.67C6.91753 38.67 7.07086 38.7333 7.19086 38.86C7.31753 38.98 7.38086 39.1367 7.38086 39.33C7.38086 39.51 7.31753 39.6633 7.19086 39.79C7.07086 39.9167 6.91753 39.98 6.73086 39.98ZM11.3957 43.1C10.8757 43.1 10.399 42.9533 9.9657 42.66C9.53904 42.3667 9.19904 41.9533 8.9457 41.42C8.69237 40.88 8.5657 40.2467 8.5657 39.52C8.5657 38.7933 8.68904 38.1633 8.9357 37.63C9.18904 37.0967 9.52904 36.6867 9.9557 36.4C10.3824 36.1067 10.8524 35.96 11.3657 35.96C11.8924 35.96 12.369 36.1067 12.7957 36.4C13.2224 36.6867 13.559 37.0967 13.8057 37.63C14.059 38.1633 14.1857 38.7967 14.1857 39.53C14.1857 40.2567 14.059 40.89 13.8057 41.43C13.559 41.9633 13.2224 42.3767 12.7957 42.67C12.3757 42.9567 11.909 43.1 11.3957 43.1ZM11.3757 42.21C11.7424 42.21 12.0624 42.11 12.3357 41.91C12.6157 41.7033 12.8357 41.4 12.9957 41C13.1557 40.6 13.2357 40.1067 13.2357 39.52C13.2357 38.9333 13.1557 38.4433 12.9957 38.05C12.8357 37.65 12.6157 37.35 12.3357 37.15C12.0557 36.9433 11.7324 36.84 11.3657 36.84C11.0057 36.84 10.6857 36.9433 10.4057 37.15C10.1257 37.35 9.9057 37.65 9.7457 38.05C9.59237 38.4433 9.5157 38.9333 9.5157 39.52C9.5157 40.1067 9.59237 40.6 9.7457 41C9.9057 41.4 10.1257 41.7033 10.4057 41.91C10.6857 42.11 11.009 42.21 11.3757 42.21ZM17.9582 43.1C17.4382 43.1 16.9615 42.9533 16.5282 42.66C16.1015 42.3667 15.7615 41.9533 15.5082 41.42C15.2549 40.88 15.1282 40.2467 15.1282 39.52C15.1282 38.7933 15.2515 38.1633 15.4982 37.63C15.7515 37.0967 16.0915 36.6867 16.5182 36.4C16.9449 36.1067 17.4149 35.96 17.9282 35.96C18.4549 35.96 18.9315 36.1067 19.3582 36.4C19.7849 36.6867 20.1215 37.0967 20.3682 37.63C20.6215 38.1633 20.7482 38.7967 20.7482 39.53C20.7482 40.2567 20.6215 40.89 20.3682 41.43C20.1215 41.9633 19.7849 42.3767 19.3582 42.67C18.9382 42.9567 18.4715 43.1 17.9582 43.1ZM17.9382 42.21C18.3049 42.21 18.6249 42.11 18.8982 41.91C19.1782 41.7033 19.3982 41.4 19.5582 41C19.7182 40.6 19.7982 40.1067 19.7982 39.52C19.7982 38.9333 19.7182 38.4433 19.5582 38.05C19.3982 37.65 19.1782 37.35 18.8982 37.15C18.6182 36.9433 18.2949 36.84 17.9282 36.84C17.5682 36.84 17.2482 36.9433 16.9682 37.15C16.6882 37.35 16.4682 37.65 16.3082 38.05C16.1549 38.4433 16.0782 38.9333 16.0782 39.52C16.0782 40.1067 16.1549 40.6 16.3082 41C16.4682 41.4 16.6882 41.7033 16.9682 41.91C17.2482 42.11 17.5715 42.21 17.9382 42.21ZM23.9608 40.88V40.03H27.2508V40.88H23.9608ZM30.3202 40.61L32.8502 36.06H33.9102L31.3302 40.61H30.3202ZM30.3202 41.19V40.61L30.7202 40.35H35.6402V41.19H30.3202ZM33.7102 43V38.41H34.6402V43H33.7102ZM37.3168 43.1C37.1301 43.1 36.9735 43.0367 36.8468 42.91C36.7268 42.7767 36.6668 42.6233 36.6668 42.45C36.6668 42.2567 36.7268 42.1 36.8468 41.98C36.9735 41.8533 37.1301 41.79 37.3168 41.79C37.5035 41.79 37.6568 41.8533 37.7768 41.98C37.9035 42.1 37.9668 42.2567 37.9668 42.45C37.9668 42.6233 37.9035 42.7767 37.7768 42.91C37.6568 43.0367 37.5035 43.1 37.3168 43.1ZM37.3168 39.98C37.1301 39.98 36.9735 39.9167 36.8468 39.79C36.7268 39.6633 36.6668 39.51 36.6668 39.33C36.6668 39.1367 36.7268 38.98 36.8468 38.86C36.9735 38.7333 37.1301 38.67 37.3168 38.67C37.5035 38.67 37.6568 38.7333 37.7768 38.86C37.9035 38.98 37.9668 39.1367 37.9668 39.33C37.9668 39.51 37.9035 39.6633 37.7768 39.79C37.6568 39.9167 37.5035 39.98 37.3168 39.98ZM41.1516 43.1C40.6983 43.1 40.285 43.0167 39.9116 42.85C39.545 42.6767 39.235 42.4267 38.9816 42.1L39.6216 41.46C39.775 41.6933 39.985 41.88 40.2516 42.02C40.5183 42.1533 40.815 42.22 41.1416 42.22C41.4483 42.22 41.7116 42.1633 41.9316 42.05C42.1583 41.93 42.335 41.7633 42.4616 41.55C42.595 41.3367 42.6616 41.09 42.6616 40.81C42.6616 40.5233 42.595 40.2767 42.4616 40.07C42.335 39.8567 42.155 39.6933 41.9216 39.58C41.6883 39.4667 41.4116 39.41 41.0916 39.41C40.9716 39.41 40.8516 39.42 40.7316 39.44C40.6116 39.4533 40.495 39.4767 40.3816 39.51L40.7816 38.97C40.9083 38.91 41.045 38.8633 41.1916 38.83C41.3383 38.7967 41.485 38.78 41.6316 38.78C42.005 38.78 42.3383 38.8667 42.6316 39.04C42.9316 39.2133 43.1683 39.4567 43.3416 39.77C43.5216 40.0833 43.6116 40.4467 43.6116 40.86C43.6116 41.3 43.505 41.69 43.2916 42.03C43.085 42.3633 42.7983 42.6267 42.4316 42.82C42.065 43.0067 41.6383 43.1 41.1516 43.1ZM40.3816 39.51V38.94L42.4116 36.63L43.5316 36.62L41.4416 38.99L40.3816 39.51ZM39.3116 36.9V36.06H43.5316V36.62L42.7116 36.9H39.3116ZM47.3625 43.1C46.8425 43.1 46.3658 42.9533 45.9325 42.66C45.5058 42.3667 45.1658 41.9533 44.9125 41.42C44.6592 40.88 44.5325 40.2467 44.5325 39.52C44.5325 38.7933 44.6558 38.1633 44.9025 37.63C45.1558 37.0967 45.4958 36.6867 45.9225 36.4C46.3492 36.1067 46.8192 35.96 47.3325 35.96C47.8592 35.96 48.3358 36.1067 48.7625 36.4C49.1892 36.6867 49.5258 37.0967 49.7725 37.63C50.0258 38.1633 50.1525 38.7967 50.1525 39.53C50.1525 40.2567 50.0258 40.89 49.7725 41.43C49.5258 41.9633 49.1892 42.3767 48.7625 42.67C48.3425 42.9567 47.8758 43.1 47.3625 43.1ZM47.3425 42.21C47.7092 42.21 48.0292 42.11 48.3025 41.91C48.5825 41.7033 48.8025 41.4 48.9625 41C49.1225 40.6 49.2025 40.1067 49.2025 39.52C49.2025 38.9333 49.1225 38.4433 48.9625 38.05C48.8025 37.65 48.5825 37.35 48.3025 37.15C48.0225 36.9433 47.6992 36.84 47.3325 36.84C46.9725 36.84 46.6525 36.9433 46.3725 37.15C46.0925 37.35 45.8725 37.65 45.7125 38.05C45.5592 38.4433 45.4825 38.9333 45.4825 39.52C45.4825 40.1067 45.5592 40.6 45.7125 41C45.8725 41.4 46.0925 41.7033 46.3725 41.91C46.6525 42.11 46.9758 42.21 47.3425 42.21ZM55.8651 43.1C55.5051 43.1 55.1784 43.0267 54.8851 42.88C54.5984 42.7267 54.3684 42.5167 54.1951 42.25C54.0217 41.9833 53.9251 41.68 53.9051 41.34V39.91C53.9251 39.5633 54.0217 39.26 54.1951 39C54.3751 38.7333 54.6084 38.5267 54.8951 38.38C55.1884 38.2267 55.5117 38.15 55.8651 38.15C56.2984 38.15 56.6884 38.26 57.0351 38.48C57.3884 38.7 57.6651 38.9967 57.8651 39.37C58.0651 39.7433 58.1651 40.1633 58.1651 40.63C58.1651 41.0967 58.0651 41.5167 57.8651 41.89C57.6651 42.2633 57.3884 42.56 57.0351 42.78C56.6884 42.9933 56.2984 43.1 55.8651 43.1ZM53.3651 44.99V38.25H54.2651V39.5L54.0951 40.65L54.2651 41.81V44.99H53.3651ZM55.7151 42.25C56.0151 42.25 56.2784 42.18 56.5051 42.04C56.7317 41.9 56.9117 41.71 57.0451 41.47C57.1784 41.2233 57.2451 40.94 57.2451 40.62C57.2451 40.3067 57.1784 40.0267 57.0451 39.78C56.9117 39.5333 56.7317 39.3433 56.5051 39.21C56.2784 39.07 56.0184 39 55.7251 39C55.4251 39 55.1617 39.07 54.9351 39.21C54.7084 39.3433 54.5317 39.5333 54.4051 39.78C54.2784 40.0267 54.2151 40.31 54.2151 40.63C54.2151 40.9433 54.2751 41.2233 54.3951 41.47C54.5217 41.71 54.6984 41.9 54.9251 42.04C55.1584 42.18 55.4217 42.25 55.7151 42.25ZM59.1854 43V38.25H60.0854V43H59.1854ZM62.3954 43V40.13C62.3954 39.7767 62.2854 39.5 62.0654 39.3C61.8521 39.0933 61.5821 38.99 61.2554 38.99C61.0354 38.99 60.8387 39.0367 60.6654 39.13C60.4921 39.2233 60.3521 39.3533 60.2454 39.52C60.1387 39.6867 60.0854 39.8867 60.0854 40.12L59.7154 39.94C59.7154 39.58 59.7921 39.2667 59.9454 39C60.1054 38.7333 60.3221 38.5267 60.5954 38.38C60.8687 38.2267 61.1754 38.15 61.5154 38.15C61.8487 38.15 62.1487 38.2233 62.4154 38.37C62.6887 38.5167 62.9021 38.7233 63.0554 38.99C63.2154 39.2567 63.2954 39.5733 63.2954 39.94V43H62.3954ZM65.6054 43V40.13C65.6054 39.7767 65.4954 39.5 65.2754 39.3C65.0621 39.0933 64.7954 38.99 64.4754 38.99C64.2554 38.99 64.0554 39.0367 63.8754 39.13C63.7021 39.2233 63.5621 39.3533 63.4554 39.52C63.3487 39.6867 63.2954 39.8867 63.2954 40.12L62.7854 39.94C62.8054 39.5733 62.9021 39.26 63.0754 39C63.2554 38.7333 63.4854 38.5267 63.7654 38.38C64.0454 38.2267 64.3521 38.15 64.6854 38.15C65.0321 38.15 65.3421 38.2233 65.6154 38.37C65.8887 38.5167 66.1054 38.7233 66.2654 38.99C66.4321 39.2567 66.5154 39.5767 66.5154 39.95V43H65.6054Z" fill="black"/>
<path d="M0.33 74.61L2.86 70.06H3.92L1.34 74.61H0.33ZM0.33 75.19V74.61L0.73 74.35H5.65V75.19H0.33ZM3.72 77V72.41H4.65V77H3.72ZM7.32656 77.1C7.1399 77.1 6.98323 77.0367 6.85656 76.91C6.73656 76.7767 6.67656 76.6233 6.67656 76.45C6.67656 76.2567 6.73656 76.1 6.85656 75.98C6.98323 75.8533 7.1399 75.79 7.32656 75.79C7.51323 75.79 7.66656 75.8533 7.78656 75.98C7.91323 76.1 7.97656 76.2567 7.97656 76.45C7.97656 76.6233 7.91323 76.7767 7.78656 76.91C7.66656 77.0367 7.51323 77.1 7.32656 77.1ZM7.32656 73.98C7.1399 73.98 6.98323 73.9167 6.85656 73.79C6.73656 73.6633 6.67656 73.51 6.67656 73.33C6.67656 73.1367 6.73656 72.98 6.85656 72.86C6.98323 72.7333 7.1399 72.67 7.32656 72.67C7.51323 72.67 7.66656 72.7333 7.78656 72.86C7.91323 72.98 7.97656 73.1367 7.97656 73.33C7.97656 73.51 7.91323 73.6633 7.78656 73.79C7.66656 73.9167 7.51323 73.98 7.32656 73.98ZM11.1614 77.1C10.7081 77.1 10.2947 77.0167 9.92141 76.85C9.55474 76.6767 9.24474 76.4267 8.99141 76.1L9.63141 75.46C9.78474 75.6933 9.99474 75.88 10.2614 76.02C10.5281 76.1533 10.8247 76.22 11.1514 76.22C11.4581 76.22 11.7214 76.1633 11.9414 76.05C12.1681 75.93 12.3447 75.7633 12.4714 75.55C12.6047 75.3367 12.6714 75.09 12.6714 74.81C12.6714 74.5233 12.6047 74.2767 12.4714 74.07C12.3447 73.8567 12.1647 73.6933 11.9314 73.58C11.6981 73.4667 11.4214 73.41 11.1014 73.41C10.9814 73.41 10.8614 73.42 10.7414 73.44C10.6214 73.4533 10.5047 73.4767 10.3914 73.51L10.7914 72.97C10.9181 72.91 11.0547 72.8633 11.2014 72.83C11.3481 72.7967 11.4947 72.78 11.6414 72.78C12.0147 72.78 12.3481 72.8667 12.6414 73.04C12.9414 73.2133 13.1781 73.4567 13.3514 73.77C13.5314 74.0833 13.6214 74.4467 13.6214 74.86C13.6214 75.3 13.5147 75.69 13.3014 76.03C13.0947 76.3633 12.8081 76.6267 12.4414 76.82C12.0747 77.0067 11.6481 77.1 11.1614 77.1ZM10.3914 73.51V72.94L12.4214 70.63L13.5414 70.62L11.4514 72.99L10.3914 73.51ZM9.32141 70.9V70.06H13.5414V70.62L12.7214 70.9H9.32141ZM17.3723 77.1C16.8523 77.1 16.3756 76.9533 15.9423 76.66C15.5156 76.3667 15.1756 75.9533 14.9223 75.42C14.6689 74.88 14.5423 74.2467 14.5423 73.52C14.5423 72.7933 14.6656 72.1633 14.9123 71.63C15.1656 71.0967 15.5056 70.6867 15.9323 70.4C16.3589 70.1067 16.8289 69.96 17.3423 69.96C17.8689 69.96 18.3456 70.1067 18.7723 70.4C19.1989 70.6867 19.5356 71.0967 19.7823 71.63C20.0356 72.1633 20.1623 72.7967 20.1623 73.53C20.1623 74.2567 20.0356 74.89 19.7823 75.43C19.5356 75.9633 19.1989 76.3767 18.7723 76.67C18.3523 76.9567 17.8856 77.1 17.3723 77.1ZM17.3523 76.21C17.7189 76.21 18.0389 76.11 18.3123 75.91C18.5923 75.7033 18.8123 75.4 18.9723 75C19.1323 74.6 19.2123 74.1067 19.2123 73.52C19.2123 72.9333 19.1323 72.4433 18.9723 72.05C18.8123 71.65 18.5923 71.35 18.3123 71.15C18.0323 70.9433 17.7089 70.84 17.3423 70.84C16.9823 70.84 16.6623 70.9433 16.3823 71.15C16.1023 71.35 15.8823 71.65 15.7223 72.05C15.5689 72.4433 15.4923 72.9333 15.4923 73.52C15.4923 74.1067 15.5689 74.6 15.7223 75C15.8823 75.4 16.1023 75.7033 16.3823 75.91C16.6623 76.11 16.9856 76.21 17.3523 76.21ZM23.3748 74.88V74.03H26.6648V74.88H23.3748ZM32.2243 77.1C31.7643 77.1 31.351 76.9933 30.9843 76.78C30.6243 76.5667 30.3376 76.28 30.1243 75.92C29.911 75.56 29.8043 75.16 29.8043 74.72C29.8043 74.1067 30.0176 73.4967 30.4443 72.89L32.4843 70.06H33.5743L31.4843 72.91L31.1443 73.09C31.2243 72.95 31.321 72.8333 31.4343 72.74C31.5476 72.64 31.6876 72.5633 31.8543 72.51C32.021 72.4567 32.2176 72.43 32.4443 72.43C32.851 72.43 33.2176 72.5267 33.5443 72.72C33.8776 72.9133 34.1443 73.18 34.3443 73.52C34.551 73.8533 34.6543 74.2433 34.6543 74.69C34.6543 75.13 34.5443 75.5333 34.3243 75.9C34.111 76.2667 33.8176 76.56 33.4443 76.78C33.0776 76.9933 32.671 77.1 32.2243 77.1ZM32.2243 76.22C32.5043 76.22 32.7543 76.1533 32.9743 76.02C33.201 75.88 33.3776 75.6967 33.5043 75.47C33.6376 75.2367 33.7043 74.9767 33.7043 74.69C33.7043 74.4033 33.6376 74.1467 33.5043 73.92C33.3776 73.6867 33.201 73.5033 32.9743 73.37C32.7543 73.2367 32.5043 73.17 32.2243 73.17C31.9443 73.17 31.691 73.2367 31.4643 73.37C31.2443 73.5033 31.0676 73.6867 30.9343 73.92C30.8076 74.1467 30.7443 74.4033 30.7443 74.69C30.7443 74.9767 30.8076 75.2367 30.9343 75.47C31.0676 75.7033 31.2443 75.8867 31.4643 76.02C31.691 76.1533 31.9443 76.22 32.2243 76.22ZM36.3988 77.1C36.2122 77.1 36.0555 77.0367 35.9288 76.91C35.8088 76.7767 35.7488 76.6233 35.7488 76.45C35.7488 76.2567 35.8088 76.1 35.9288 75.98C36.0555 75.8533 36.2122 75.79 36.3988 75.79C36.5855 75.79 36.7388 75.8533 36.8588 75.98C36.9855 76.1 37.0488 76.2567 37.0488 76.45C37.0488 76.6233 36.9855 76.7767 36.8588 76.91C36.7388 77.0367 36.5855 77.1 36.3988 77.1ZM36.3988 73.98C36.2122 73.98 36.0555 73.9167 35.9288 73.79C35.8088 73.6633 35.7488 73.51 35.7488 73.33C35.7488 73.1367 35.8088 72.98 35.9288 72.86C36.0555 72.7333 36.2122 72.67 36.3988 72.67C36.5855 72.67 36.7388 72.7333 36.8588 72.86C36.9855 72.98 37.0488 73.1367 37.0488 73.33C37.0488 73.51 36.9855 73.6633 36.8588 73.79C36.7388 73.9167 36.5855 73.98 36.3988 73.98ZM41.0637 77.1C40.5437 77.1 40.067 76.9533 39.6337 76.66C39.207 76.3667 38.867 75.9533 38.6137 75.42C38.3603 74.88 38.2337 74.2467 38.2337 73.52C38.2337 72.7933 38.357 72.1633 38.6037 71.63C38.857 71.0967 39.197 70.6867 39.6237 70.4C40.0503 70.1067 40.5203 69.96 41.0337 69.96C41.5603 69.96 42.037 70.1067 42.4637 70.4C42.8903 70.6867 43.227 71.0967 43.4737 71.63C43.727 72.1633 43.8537 72.7967 43.8537 73.53C43.8537 74.2567 43.727 74.89 43.4737 75.43C43.227 75.9633 42.8903 76.3767 42.4637 76.67C42.0437 76.9567 41.577 77.1 41.0637 77.1ZM41.0437 76.21C41.4103 76.21 41.7303 76.11 42.0037 75.91C42.2837 75.7033 42.5037 75.4 42.6637 75C42.8237 74.6 42.9037 74.1067 42.9037 73.52C42.9037 72.9333 42.8237 72.4433 42.6637 72.05C42.5037 71.65 42.2837 71.35 42.0037 71.15C41.7237 70.9433 41.4003 70.84 41.0337 70.84C40.6737 70.84 40.3537 70.9433 40.0737 71.15C39.7937 71.35 39.5737 71.65 39.4137 72.05C39.2603 72.4433 39.1837 72.9333 39.1837 73.52C39.1837 74.1067 39.2603 74.6 39.4137 75C39.5737 75.4 39.7937 75.7033 40.0737 75.91C40.3537 76.11 40.677 76.21 41.0437 76.21ZM47.6262 77.1C47.1062 77.1 46.6295 76.9533 46.1962 76.66C45.7695 76.3667 45.4295 75.9533 45.1762 75.42C44.9228 74.88 44.7962 74.2467 44.7962 73.52C44.7962 72.7933 44.9195 72.1633 45.1662 71.63C45.4195 71.0967 45.7595 70.6867 46.1862 70.4C46.6128 70.1067 47.0828 69.96 47.5962 69.96C48.1228 69.96 48.5995 70.1067 49.0262 70.4C49.4528 70.6867 49.7895 71.0967 50.0362 71.63C50.2895 72.1633 50.4162 72.7967 50.4162 73.53C50.4162 74.2567 50.2895 74.89 50.0362 75.43C49.7895 75.9633 49.4528 76.3767 49.0262 76.67C48.6062 76.9567 48.1395 77.1 47.6262 77.1ZM47.6062 76.21C47.9728 76.21 48.2928 76.11 48.5662 75.91C48.8462 75.7033 49.0662 75.4 49.2262 75C49.3862 74.6 49.4662 74.1067 49.4662 73.52C49.4662 72.9333 49.3862 72.4433 49.2262 72.05C49.0662 71.65 48.8462 71.35 48.5662 71.15C48.2862 70.9433 47.9628 70.84 47.5962 70.84C47.2362 70.84 46.9162 70.9433 46.6362 71.15C46.3562 71.35 46.1362 71.65 45.9762 72.05C45.8228 72.4433 45.7462 72.9333 45.7462 73.52C45.7462 74.1067 45.8228 74.6 45.9762 75C46.1362 75.4 46.3562 75.7033 46.6362 75.91C46.9162 76.11 47.2395 76.21 47.6062 76.21ZM56.1288 77.1C55.7688 77.1 55.4421 77.0267 55.1488 76.88C54.8621 76.7267 54.6321 76.5167 54.4588 76.25C54.2854 75.9833 54.1888 75.68 54.1688 75.34V73.91C54.1888 73.5633 54.2854 73.26 54.4588 73C54.6388 72.7333 54.8721 72.5267 55.1588 72.38C55.4521 72.2267 55.7754 72.15 56.1288 72.15C56.5621 72.15 56.9521 72.26 57.2988 72.48C57.6521 72.7 57.9288 72.9967 58.1288 73.37C58.3288 73.7433 58.4288 74.1633 58.4288 74.63C58.4288 75.0967 58.3288 75.5167 58.1288 75.89C57.9288 76.2633 57.6521 76.56 57.2988 76.78C56.9521 76.9933 56.5621 77.1 56.1288 77.1ZM53.6287 78.99V72.25H54.5288V73.5L54.3588 74.65L54.5288 75.81V78.99H53.6287ZM55.9788 76.25C56.2788 76.25 56.5421 76.18 56.7688 76.04C56.9954 75.9 57.1754 75.71 57.3088 75.47C57.4421 75.2233 57.5088 74.94 57.5088 74.62C57.5088 74.3067 57.4421 74.0267 57.3088 73.78C57.1754 73.5333 56.9954 73.3433 56.7688 73.21C56.5421 73.07 56.2821 73 55.9888 73C55.6888 73 55.4254 73.07 55.1988 73.21C54.9721 73.3433 54.7954 73.5333 54.6688 73.78C54.5421 74.0267 54.4788 74.31 54.4788 74.63C54.4788 74.9433 54.5388 75.2233 54.6588 75.47C54.7854 75.71 54.9621 75.9 55.1888 76.04C55.4221 76.18 55.6854 76.25 55.9788 76.25ZM59.4491 77V72.25H60.3491V77H59.4491ZM62.6591 77V74.13C62.6591 73.7767 62.5491 73.5 62.3291 73.3C62.1157 73.0933 61.8457 72.99 61.5191 72.99C61.2991 72.99 61.1024 73.0367 60.9291 73.13C60.7557 73.2233 60.6157 73.3533 60.5091 73.52C60.4024 73.6867 60.3491 73.8867 60.3491 74.12L59.9791 73.94C59.9791 73.58 60.0557 73.2667 60.2091 73C60.3691 72.7333 60.5857 72.5267 60.8591 72.38C61.1324 72.2267 61.4391 72.15 61.7791 72.15C62.1124 72.15 62.4124 72.2233 62.6791 72.37C62.9524 72.5167 63.1657 72.7233 63.3191 72.99C63.4791 73.2567 63.5591 73.5733 63.5591 73.94V77H62.6591ZM65.8691 77V74.13C65.8691 73.7767 65.7591 73.5 65.5391 73.3C65.3257 73.0933 65.0591 72.99 64.7391 72.99C64.5191 72.99 64.3191 73.0367 64.1391 73.13C63.9657 73.2233 63.8257 73.3533 63.7191 73.52C63.6124 73.6867 63.5591 73.8867 63.5591 74.12L63.0491 73.94C63.0691 73.5733 63.1657 73.26 63.3391 73C63.5191 72.7333 63.7491 72.5267 64.0291 72.38C64.3091 72.2267 64.6157 72.15 64.9491 72.15C65.2957 72.15 65.6057 72.2233 65.8791 72.37C66.1524 72.5167 66.3691 72.7233 66.5291 72.99C66.6957 73.2567 66.7791 73.5767 66.7791 73.95V77H65.8691Z" fill="black"/>
<rect x="125.672" y="15.7997" width="50" height="85" rx="19.5" stroke="black"/>
<rect x="72.6719" y="15.7997" width="50" height="85" rx="19.5" stroke="black"/>
<rect x="177.672" y="15.7997" width="50" height="85" rx="19.5" stroke="black"/>
<rect x="230.672" y="15.7997" width="50" height="85" rx="19.5" stroke="black"/>
<rect x="282.672" y="15.7997" width="50" height="85" rx="19.5" stroke="black"/>
<rect x="75" y="27" width="256" height="26" rx="13" fill="#86BCC8"/>
<path d="M167.82 43V36.06H168.76V43H167.82ZM172.3 43V36.06H173.24V43H172.3ZM168.46 39.84V38.98H172.53V39.84H168.46ZM176.891 43.1C176.424 43.1 176.004 42.99 175.631 42.77C175.257 42.55 174.961 42.2533 174.741 41.88C174.521 41.5 174.411 41.0767 174.411 40.61C174.411 40.15 174.521 39.7367 174.741 39.37C174.961 38.9967 175.257 38.7 175.631 38.48C176.004 38.26 176.424 38.15 176.891 38.15C177.351 38.15 177.767 38.26 178.141 38.48C178.521 38.6933 178.821 38.9867 179.041 39.36C179.261 39.7333 179.371 40.15 179.371 40.61C179.371 41.0767 179.261 41.5 179.041 41.88C178.821 42.2533 178.521 42.55 178.141 42.77C177.767 42.99 177.351 43.1 176.891 43.1ZM176.891 42.23C177.191 42.23 177.457 42.16 177.691 42.02C177.924 41.88 178.107 41.69 178.241 41.45C178.374 41.2033 178.441 40.9233 178.441 40.61C178.441 40.3033 178.371 40.03 178.231 39.79C178.097 39.55 177.914 39.3633 177.681 39.23C177.454 39.09 177.191 39.02 176.891 39.02C176.591 39.02 176.324 39.09 176.091 39.23C175.857 39.3633 175.674 39.55 175.541 39.79C175.407 40.03 175.341 40.3033 175.341 40.61C175.341 40.9233 175.407 41.2033 175.541 41.45C175.674 41.69 175.857 41.88 176.091 42.02C176.324 42.16 176.591 42.23 176.891 42.23ZM180.385 43V38.25H181.285V43H180.385ZM183.595 43V40.13C183.595 39.7767 183.485 39.5 183.265 39.3C183.051 39.0933 182.781 38.99 182.455 38.99C182.235 38.99 182.038 39.0367 181.865 39.13C181.691 39.2233 181.551 39.3533 181.445 39.52C181.338 39.6867 181.285 39.8867 181.285 40.12L180.915 39.94C180.915 39.58 180.991 39.2667 181.145 39C181.305 38.7333 181.521 38.5267 181.795 38.38C182.068 38.2267 182.375 38.15 182.715 38.15C183.048 38.15 183.348 38.2233 183.615 38.37C183.888 38.5167 184.101 38.7233 184.255 38.99C184.415 39.2567 184.495 39.5733 184.495 39.94V43H183.595ZM186.805 43V40.13C186.805 39.7767 186.695 39.5 186.475 39.3C186.261 39.0933 185.995 38.99 185.675 38.99C185.455 38.99 185.255 39.0367 185.075 39.13C184.901 39.2233 184.761 39.3533 184.655 39.52C184.548 39.6867 184.495 39.8867 184.495 40.12L183.985 39.94C184.005 39.5733 184.101 39.26 184.275 39C184.455 38.7333 184.685 38.5267 184.965 38.38C185.245 38.2267 185.551 38.15 185.885 38.15C186.231 38.15 186.541 38.2233 186.815 38.37C187.088 38.5167 187.305 38.7233 187.465 38.99C187.631 39.2567 187.715 39.5767 187.715 39.95V43H186.805ZM191.139 43.1C190.666 43.1 190.239 42.9933 189.859 42.78C189.479 42.56 189.179 42.2633 188.959 41.89C188.739 41.5167 188.629 41.0933 188.629 40.62C188.629 40.1533 188.736 39.7333 188.949 39.36C189.169 38.9867 189.463 38.6933 189.829 38.48C190.203 38.26 190.619 38.15 191.079 38.15C191.519 38.15 191.906 38.25 192.239 38.45C192.579 38.65 192.843 38.9267 193.029 39.28C193.223 39.6333 193.319 40.0333 193.319 40.48C193.319 40.5467 193.316 40.62 193.309 40.7C193.303 40.7733 193.289 40.86 193.269 40.96H189.259V40.21H192.789L192.459 40.5C192.459 40.18 192.403 39.91 192.289 39.69C192.176 39.4633 192.016 39.29 191.809 39.17C191.603 39.0433 191.353 38.98 191.059 38.98C190.753 38.98 190.483 39.0467 190.249 39.18C190.016 39.3133 189.836 39.5 189.709 39.74C189.583 39.98 189.519 40.2633 189.519 40.59C189.519 40.9233 189.586 41.2167 189.719 41.47C189.853 41.7167 190.043 41.91 190.289 42.05C190.536 42.1833 190.819 42.25 191.139 42.25C191.406 42.25 191.649 42.2033 191.869 42.11C192.096 42.0167 192.289 41.8767 192.449 41.69L193.029 42.28C192.803 42.5467 192.523 42.75 192.189 42.89C191.863 43.03 191.513 43.1 191.139 43.1ZM195.602 43L193.722 38.25H194.662L196.022 41.95H195.722L197.072 38.25H197.592L198.942 41.95H198.642L200.002 38.25H200.942L199.072 43H198.542L197.172 39.41H197.502L196.122 43H195.602ZM203.775 43.1C203.309 43.1 202.889 42.99 202.515 42.77C202.142 42.55 201.845 42.2533 201.625 41.88C201.405 41.5 201.295 41.0767 201.295 40.61C201.295 40.15 201.405 39.7367 201.625 39.37C201.845 38.9967 202.142 38.7 202.515 38.48C202.889 38.26 203.309 38.15 203.775 38.15C204.235 38.15 204.652 38.26 205.025 38.48C205.405 38.6933 205.705 38.9867 205.925 39.36C206.145 39.7333 206.255 40.15 206.255 40.61C206.255 41.0767 206.145 41.5 205.925 41.88C205.705 42.2533 205.405 42.55 205.025 42.77C204.652 42.99 204.235 43.1 203.775 43.1ZM203.775 42.23C204.075 42.23 204.342 42.16 204.575 42.02C204.809 41.88 204.992 41.69 205.125 41.45C205.259 41.2033 205.325 40.9233 205.325 40.61C205.325 40.3033 205.255 40.03 205.115 39.79C204.982 39.55 204.799 39.3633 204.565 39.23C204.339 39.09 204.075 39.02 203.775 39.02C203.475 39.02 203.209 39.09 202.975 39.23C202.742 39.3633 202.559 39.55 202.425 39.79C202.292 40.03 202.225 40.3033 202.225 40.61C202.225 40.9233 202.292 41.2033 202.425 41.45C202.559 41.69 202.742 41.88 202.975 42.02C203.209 42.16 203.475 42.23 203.775 42.23ZM207.269 43V38.25H208.169V43H207.269ZM208.169 40.29L207.829 40.14C207.829 39.5333 207.969 39.05 208.249 38.69C208.529 38.33 208.933 38.15 209.459 38.15C209.699 38.15 209.916 38.1933 210.109 38.28C210.303 38.36 210.483 38.4967 210.649 38.69L210.059 39.3C209.959 39.1933 209.849 39.1167 209.729 39.07C209.609 39.0233 209.469 39 209.309 39C208.976 39 208.703 39.1067 208.489 39.32C208.276 39.5333 208.169 39.8567 208.169 40.29ZM214.323 43L212.103 40.57L214.303 38.25H215.393L212.943 40.81L212.983 40.29L215.483 43H214.323ZM211.283 43V35.86H212.183V43H211.283ZM218.504 43V36.06H219.444V43H218.504ZM222.984 43V36.06H223.924V43H222.984ZM219.144 39.84V38.98H223.214V39.84H219.144ZM227.604 43.1C227.131 43.1 226.704 42.9933 226.324 42.78C225.944 42.56 225.644 42.2633 225.424 41.89C225.204 41.5167 225.094 41.0933 225.094 40.62C225.094 40.1533 225.201 39.7333 225.414 39.36C225.634 38.9867 225.927 38.6933 226.294 38.48C226.667 38.26 227.084 38.15 227.544 38.15C227.984 38.15 228.371 38.25 228.704 38.45C229.044 38.65 229.307 38.9267 229.494 39.28C229.687 39.6333 229.784 40.0333 229.784 40.48C229.784 40.5467 229.781 40.62 229.774 40.7C229.767 40.7733 229.754 40.86 229.734 40.96H225.724V40.21H229.254L228.924 40.5C228.924 40.18 228.867 39.91 228.754 39.69C228.641 39.4633 228.481 39.29 228.274 39.17C228.067 39.0433 227.817 38.98 227.524 38.98C227.217 38.98 226.947 39.0467 226.714 39.18C226.481 39.3133 226.301 39.5 226.174 39.74C226.047 39.98 225.984 40.2633 225.984 40.59C225.984 40.9233 226.051 41.2167 226.184 41.47C226.317 41.7167 226.507 41.91 226.754 42.05C227.001 42.1833 227.284 42.25 227.604 42.25C227.871 42.25 228.114 42.2033 228.334 42.11C228.561 42.0167 228.754 41.8767 228.914 41.69L229.494 42.28C229.267 42.5467 228.987 42.75 228.654 42.89C228.327 43.03 227.977 43.1 227.604 43.1ZM230.765 43V35.86H231.665V43H230.765ZM235.482 43.1C235.122 43.1 234.796 43.0267 234.502 42.88C234.216 42.7267 233.986 42.5167 233.812 42.25C233.639 41.9833 233.542 41.68 233.522 41.34V39.91C233.542 39.5633 233.639 39.26 233.812 39C233.992 38.7333 234.226 38.5267 234.512 38.38C234.806 38.2267 235.129 38.15 235.482 38.15C235.916 38.15 236.306 38.26 236.652 38.48C237.006 38.7 237.282 38.9967 237.482 39.37C237.682 39.7433 237.782 40.1633 237.782 40.63C237.782 41.0967 237.682 41.5167 237.482 41.89C237.282 42.2633 237.006 42.56 236.652 42.78C236.306 42.9933 235.916 43.1 235.482 43.1ZM232.982 44.99V38.25H233.882V39.5L233.712 40.65L233.882 41.81V44.99H232.982ZM235.332 42.25C235.632 42.25 235.896 42.18 236.122 42.04C236.349 41.9 236.529 41.71 236.662 41.47C236.796 41.2233 236.862 40.94 236.862 40.62C236.862 40.3067 236.796 40.0267 236.662 39.78C236.529 39.5333 236.349 39.3433 236.122 39.21C235.896 39.07 235.636 39 235.342 39C235.042 39 234.779 39.07 234.552 39.21C234.326 39.3433 234.149 39.5333 234.022 39.78C233.896 40.0267 233.832 40.31 233.832 40.63C233.832 40.9433 233.892 41.2233 234.012 41.47C234.139 41.71 234.316 41.9 234.542 42.04C234.776 42.18 235.039 42.25 235.332 42.25Z" fill="black"/>
</svg>
