<svg width="670" height="328" viewBox="0 0 670 328" fill="none" xmlns="http://www.w3.org/2000/svg">
<rect x="100" width="202" height="86" rx="20" fill="#609BCC"/>
<path d="M174.968 52V35.344H176.552L183.608 46.936H182.528L189.584 35.344H191.168V52H188.912V39.304L189.44 39.448L183.872 48.592H182.288L176.72 39.448L177.224 39.304V52H174.968ZM199.565 52.24C198.525 52.24 197.581 51.984 196.733 51.472C195.885 50.944 195.213 50.232 194.717 49.336C194.237 48.44 193.997 47.432 193.997 46.312C193.997 45.192 194.237 44.184 194.717 43.288C195.213 42.392 195.877 41.68 196.709 41.152C197.557 40.624 198.509 40.36 199.565 40.36C200.429 40.36 201.197 40.544 201.869 40.912C202.557 41.264 203.109 41.76 203.525 42.4C203.941 43.024 204.173 43.752 204.221 44.584V48.016C204.173 48.832 203.941 49.56 203.525 50.2C203.125 50.84 202.581 51.344 201.893 51.712C201.221 52.064 200.445 52.24 199.565 52.24ZM199.925 50.2C200.997 50.2 201.861 49.84 202.517 49.12C203.173 48.384 203.501 47.448 203.501 46.312C203.501 45.528 203.349 44.848 203.045 44.272C202.757 43.68 202.341 43.224 201.797 42.904C201.253 42.568 200.621 42.4 199.901 42.4C199.181 42.4 198.541 42.568 197.981 42.904C197.437 43.24 197.005 43.704 196.685 44.296C196.381 44.872 196.229 45.536 196.229 46.288C196.229 47.056 196.381 47.736 196.685 48.328C197.005 48.904 197.445 49.36 198.005 49.696C198.565 50.032 199.205 50.2 199.925 50.2ZM203.357 52V48.928L203.765 46.144L203.357 43.384V40.6H205.541V52H203.357ZM210.391 52V35.824H212.551V52H210.391ZM207.583 42.568V40.6H215.359V42.568H207.583ZM225.539 52V45.352C225.539 44.488 225.267 43.776 224.723 43.216C224.179 42.656 223.475 42.376 222.611 42.376C222.035 42.376 221.523 42.504 221.075 42.76C220.627 43.016 220.275 43.368 220.019 43.816C219.763 44.264 219.635 44.776 219.635 45.352L218.747 44.848C218.747 43.984 218.939 43.216 219.323 42.544C219.707 41.872 220.243 41.344 220.931 40.96C221.619 40.56 222.395 40.36 223.259 40.36C224.123 40.36 224.883 40.552 225.539 40.936C226.211 41.32 226.739 41.856 227.123 42.544C227.507 43.232 227.699 44.024 227.699 44.92V52H225.539ZM217.475 52V34.864H219.635V52H217.475Z" fill="black"/>
<rect x="334" width="202" height="86" rx="20" fill="#F2BB5B"/>
<path d="M398.968 52V35.344H401.224V52H398.968ZM400.504 52V49.936H410.056V52H400.504ZM400.504 44.464V42.496H409.264V44.464H400.504ZM400.504 37.408V35.344H409.936V37.408H400.504ZM420.804 52V45.352C420.804 44.488 420.532 43.776 419.988 43.216C419.444 42.656 418.74 42.376 417.876 42.376C417.3 42.376 416.788 42.504 416.34 42.76C415.892 43.016 415.54 43.368 415.284 43.816C415.028 44.264 414.9 44.776 414.9 45.352L414.012 44.848C414.012 43.984 414.204 43.216 414.588 42.544C414.972 41.872 415.508 41.344 416.196 40.96C416.884 40.56 417.66 40.36 418.524 40.36C419.388 40.36 420.148 40.576 420.804 41.008C421.476 41.44 422.004 42.008 422.388 42.712C422.772 43.4 422.964 44.136 422.964 44.92V52H420.804ZM412.74 52V40.6H414.9V52H412.74ZM430.617 57.016C429.449 57.016 428.409 56.8 427.497 56.368C426.601 55.936 425.881 55.328 425.337 54.544L426.729 53.128C427.193 53.72 427.745 54.168 428.385 54.472C429.025 54.792 429.785 54.952 430.665 54.952C431.833 54.952 432.753 54.64 433.425 54.016C434.113 53.408 434.457 52.584 434.457 51.544V48.712L434.841 46.144L434.457 43.6V40.6H436.617V51.544C436.617 52.632 436.361 53.584 435.849 54.4C435.353 55.216 434.649 55.856 433.737 56.32C432.841 56.784 431.801 57.016 430.617 57.016ZM430.617 51.808C429.577 51.808 428.641 51.56 427.809 51.064C426.993 50.568 426.345 49.888 425.865 49.024C425.385 48.144 425.145 47.16 425.145 46.072C425.145 44.984 425.385 44.016 425.865 43.168C426.345 42.304 426.993 41.624 427.809 41.128C428.641 40.616 429.577 40.36 430.617 40.36C431.513 40.36 432.305 40.536 432.993 40.888C433.681 41.24 434.225 41.736 434.625 42.376C435.041 43 435.265 43.736 435.297 44.584V47.608C435.249 48.44 435.017 49.176 434.601 49.816C434.201 50.44 433.657 50.928 432.969 51.28C432.281 51.632 431.497 51.808 430.617 51.808ZM431.049 49.768C431.753 49.768 432.369 49.616 432.897 49.312C433.441 49.008 433.857 48.584 434.145 48.04C434.433 47.48 434.577 46.832 434.577 46.096C434.577 45.36 434.425 44.72 434.121 44.176C433.833 43.616 433.425 43.184 432.897 42.88C432.369 42.56 431.745 42.4 431.025 42.4C430.305 42.4 429.673 42.56 429.129 42.88C428.585 43.184 428.153 43.616 427.833 44.176C427.529 44.72 427.377 45.352 427.377 46.072C427.377 46.792 427.529 47.432 427.833 47.992C428.153 48.552 428.585 48.992 429.129 49.312C429.689 49.616 430.329 49.768 431.049 49.768ZM439.787 52V34.864H441.947V52H439.787ZM445.131 52V40.6H447.291V52H445.131ZM446.211 38.32C445.811 38.32 445.483 38.192 445.227 37.936C444.971 37.664 444.843 37.328 444.843 36.928C444.843 36.544 444.971 36.224 445.227 35.968C445.483 35.696 445.811 35.56 446.211 35.56C446.611 35.56 446.939 35.696 447.195 35.968C447.451 36.224 447.579 36.544 447.579 36.928C447.579 37.328 447.451 37.664 447.195 37.936C446.939 38.192 446.611 38.32 446.211 38.32ZM454.099 52.24C453.459 52.24 452.851 52.16 452.275 52C451.715 51.824 451.195 51.584 450.715 51.28C450.235 50.96 449.819 50.584 449.467 50.152L450.859 48.76C451.275 49.272 451.755 49.656 452.299 49.912C452.843 50.152 453.451 50.272 454.123 50.272C454.795 50.272 455.315 50.16 455.683 49.936C456.051 49.696 456.235 49.368 456.235 48.952C456.235 48.536 456.083 48.216 455.779 47.992C455.491 47.752 455.115 47.56 454.651 47.416C454.187 47.256 453.691 47.104 453.163 46.96C452.651 46.8 452.163 46.6 451.699 46.36C451.235 46.12 450.851 45.792 450.547 45.376C450.259 44.96 450.115 44.408 450.115 43.72C450.115 43.032 450.283 42.44 450.619 41.944C450.955 41.432 451.419 41.04 452.011 40.768C452.619 40.496 453.347 40.36 454.195 40.36C455.091 40.36 455.883 40.52 456.571 40.84C457.275 41.144 457.851 41.608 458.299 42.232L456.907 43.624C456.587 43.208 456.187 42.888 455.707 42.664C455.243 42.44 454.715 42.328 454.123 42.328C453.499 42.328 453.019 42.44 452.683 42.664C452.363 42.872 452.203 43.168 452.203 43.552C452.203 43.936 452.347 44.232 452.635 44.44C452.923 44.648 453.299 44.824 453.763 44.968C454.243 45.112 454.739 45.264 455.251 45.424C455.763 45.568 456.251 45.768 456.715 46.024C457.179 46.28 457.555 46.624 457.843 47.056C458.147 47.488 458.299 48.056 458.299 48.76C458.299 49.832 457.915 50.68 457.147 51.304C456.395 51.928 455.379 52.24 454.099 52.24ZM468.781 52V45.352C468.781 44.488 468.509 43.776 467.965 43.216C467.421 42.656 466.717 42.376 465.853 42.376C465.277 42.376 464.765 42.504 464.317 42.76C463.869 43.016 463.517 43.368 463.261 43.816C463.005 44.264 462.877 44.776 462.877 45.352L461.989 44.848C461.989 43.984 462.181 43.216 462.565 42.544C462.949 41.872 463.485 41.344 464.173 40.96C464.861 40.56 465.637 40.36 466.501 40.36C467.365 40.36 468.125 40.552 468.781 40.936C469.453 41.32 469.981 41.856 470.365 42.544C470.749 43.232 470.941 44.024 470.941 44.92V52H468.781ZM460.717 52V34.864H462.877V52H460.717Z" fill="black"/>
<rect y="121" width="202" height="86" rx="20" fill="#D47777"/>
<path d="M65.6 173.24C64.288 173.24 63.168 173 62.24 172.52C61.312 172.04 60.488 171.344 59.768 170.432L61.304 168.896C61.832 169.632 62.44 170.192 63.128 170.576C63.816 170.944 64.664 171.128 65.672 171.128C66.664 171.128 67.456 170.912 68.048 170.48C68.656 170.048 68.96 169.456 68.96 168.704C68.96 168.08 68.816 167.576 68.528 167.192C68.24 166.808 67.848 166.496 67.352 166.256C66.872 166 66.344 165.776 65.768 165.584C65.192 165.376 64.616 165.16 64.04 164.936C63.464 164.696 62.936 164.408 62.456 164.072C61.976 163.72 61.584 163.264 61.28 162.704C60.992 162.144 60.848 161.44 60.848 160.592C60.848 159.648 61.072 158.848 61.52 158.192C61.984 157.52 62.608 157.008 63.392 156.656C64.192 156.288 65.088 156.104 66.08 156.104C67.168 156.104 68.144 156.32 69.008 156.752C69.872 157.168 70.576 157.72 71.12 158.408L69.584 159.944C69.088 159.368 68.552 158.936 67.976 158.648C67.416 158.36 66.768 158.216 66.032 158.216C65.136 158.216 64.424 158.416 63.896 158.816C63.368 159.2 63.104 159.744 63.104 160.448C63.104 161.008 63.248 161.464 63.536 161.816C63.84 162.152 64.232 162.44 64.712 162.68C65.192 162.92 65.72 163.144 66.296 163.352C66.888 163.544 67.472 163.76 68.048 164C68.624 164.24 69.152 164.544 69.632 164.912C70.112 165.28 70.496 165.76 70.784 166.352C71.088 166.928 71.24 167.656 71.24 168.536C71.24 170.008 70.728 171.16 69.704 171.992C68.696 172.824 67.328 173.24 65.6 173.24ZM79.8965 173.24C79.0325 173.24 78.2485 173.064 77.5445 172.712C76.8565 172.344 76.3045 171.84 75.8885 171.2C75.4725 170.56 75.2405 169.832 75.1925 169.016V165.584C75.2405 164.752 75.4725 164.024 75.8885 163.4C76.3205 162.76 76.8805 162.264 77.5685 161.912C78.2725 161.544 79.0485 161.36 79.8965 161.36C80.9365 161.36 81.8725 161.624 82.7045 162.152C83.5525 162.68 84.2165 163.392 84.6965 164.288C85.1765 165.184 85.4165 166.192 85.4165 167.312C85.4165 168.432 85.1765 169.44 84.6965 170.336C84.2165 171.232 83.5525 171.944 82.7045 172.472C81.8725 172.984 80.9365 173.24 79.8965 173.24ZM73.8965 177.776V161.6H76.0565V164.6L75.6485 167.36L76.0565 170.144V177.776H73.8965ZM79.5365 171.2C80.2565 171.2 80.8885 171.032 81.4325 170.696C81.9765 170.36 82.4085 169.904 82.7285 169.328C83.0485 168.736 83.2085 168.056 83.2085 167.288C83.2085 166.536 83.0485 165.864 82.7285 165.272C82.4085 164.68 81.9765 164.224 81.4325 163.904C80.8885 163.568 80.2645 163.4 79.5605 163.4C78.8405 163.4 78.2085 163.568 77.6645 163.904C77.1205 164.224 76.6965 164.68 76.3925 165.272C76.0885 165.864 75.9365 166.544 75.9365 167.312C75.9365 168.064 76.0805 168.736 76.3685 169.328C76.6725 169.904 77.0965 170.36 77.6405 170.696C78.2005 171.032 78.8325 171.2 79.5365 171.2ZM92.7133 173.24C91.6733 173.24 90.7293 172.984 89.8813 172.472C89.0333 171.944 88.3613 171.232 87.8652 170.336C87.3853 169.44 87.1453 168.432 87.1453 167.312C87.1453 166.192 87.3853 165.184 87.8652 164.288C88.3613 163.392 89.0253 162.68 89.8573 162.152C90.7053 161.624 91.6573 161.36 92.7133 161.36C93.5773 161.36 94.3453 161.544 95.0173 161.912C95.7053 162.264 96.2573 162.76 96.6733 163.4C97.0893 164.024 97.3213 164.752 97.3693 165.584V169.016C97.3213 169.832 97.0893 170.56 96.6733 171.2C96.2733 171.84 95.7293 172.344 95.0413 172.712C94.3693 173.064 93.5933 173.24 92.7133 173.24ZM93.0733 171.2C94.1453 171.2 95.0093 170.84 95.6653 170.12C96.3213 169.384 96.6493 168.448 96.6493 167.312C96.6493 166.528 96.4973 165.848 96.1933 165.272C95.9053 164.68 95.4893 164.224 94.9453 163.904C94.4013 163.568 93.7693 163.4 93.0493 163.4C92.3293 163.4 91.6893 163.568 91.1293 163.904C90.5853 164.24 90.1533 164.704 89.8333 165.296C89.5293 165.872 89.3773 166.536 89.3773 167.288C89.3773 168.056 89.5293 168.736 89.8333 169.328C90.1533 169.904 90.5933 170.36 91.1533 170.696C91.7133 171.032 92.3533 171.2 93.0733 171.2ZM96.5053 173V169.928L96.9133 167.144L96.5053 164.384V161.6H98.6893V173H96.5053ZM109.898 173V166.352C109.898 165.488 109.626 164.776 109.082 164.216C108.538 163.656 107.834 163.376 106.97 163.376C106.394 163.376 105.882 163.504 105.434 163.76C104.986 164.016 104.634 164.368 104.378 164.816C104.122 165.264 103.994 165.776 103.994 166.352L103.106 165.848C103.106 164.984 103.298 164.216 103.682 163.544C104.066 162.872 104.602 162.344 105.29 161.96C105.978 161.56 106.754 161.36 107.618 161.36C108.482 161.36 109.242 161.576 109.898 162.008C110.57 162.44 111.098 163.008 111.482 163.712C111.866 164.4 112.058 165.136 112.058 165.92V173H109.898ZM101.834 173V161.6H103.994V173H101.834ZM115.006 173V161.6H117.166V173H115.006ZM116.086 159.32C115.686 159.32 115.358 159.192 115.102 158.936C114.846 158.664 114.718 158.328 114.718 157.928C114.718 157.544 114.846 157.224 115.102 156.968C115.358 156.696 115.686 156.56 116.086 156.56C116.486 156.56 116.814 156.696 117.07 156.968C117.326 157.224 117.454 157.544 117.454 157.928C117.454 158.328 117.326 158.664 117.07 158.936C116.814 159.192 116.486 159.32 116.086 159.32ZM123.974 173.24C123.334 173.24 122.726 173.16 122.15 173C121.59 172.824 121.07 172.584 120.59 172.28C120.11 171.96 119.694 171.584 119.342 171.152L120.734 169.76C121.15 170.272 121.63 170.656 122.174 170.912C122.718 171.152 123.326 171.272 123.998 171.272C124.67 171.272 125.19 171.16 125.558 170.936C125.926 170.696 126.11 170.368 126.11 169.952C126.11 169.536 125.958 169.216 125.654 168.992C125.366 168.752 124.99 168.56 124.526 168.416C124.062 168.256 123.566 168.104 123.038 167.96C122.526 167.8 122.038 167.6 121.574 167.36C121.11 167.12 120.726 166.792 120.422 166.376C120.134 165.96 119.99 165.408 119.99 164.72C119.99 164.032 120.158 163.44 120.494 162.944C120.83 162.432 121.294 162.04 121.886 161.768C122.494 161.496 123.222 161.36 124.07 161.36C124.966 161.36 125.758 161.52 126.446 161.84C127.15 162.144 127.726 162.608 128.174 163.232L126.782 164.624C126.462 164.208 126.062 163.888 125.582 163.664C125.118 163.44 124.59 163.328 123.998 163.328C123.374 163.328 122.894 163.44 122.558 163.664C122.238 163.872 122.078 164.168 122.078 164.552C122.078 164.936 122.222 165.232 122.51 165.44C122.798 165.648 123.174 165.824 123.638 165.968C124.118 166.112 124.614 166.264 125.126 166.424C125.638 166.568 126.126 166.768 126.59 167.024C127.054 167.28 127.43 167.624 127.718 168.056C128.022 168.488 128.174 169.056 128.174 169.76C128.174 170.832 127.79 171.68 127.022 172.304C126.27 172.928 125.254 173.24 123.974 173.24ZM138.656 173V166.352C138.656 165.488 138.384 164.776 137.84 164.216C137.296 163.656 136.592 163.376 135.728 163.376C135.152 163.376 134.64 163.504 134.192 163.76C133.744 164.016 133.392 164.368 133.136 164.816C132.88 165.264 132.752 165.776 132.752 166.352L131.864 165.848C131.864 164.984 132.056 164.216 132.44 163.544C132.824 162.872 133.36 162.344 134.048 161.96C134.736 161.56 135.512 161.36 136.376 161.36C137.24 161.36 138 161.552 138.656 161.936C139.328 162.32 139.856 162.856 140.24 163.544C140.624 164.232 140.816 165.024 140.816 165.92V173H138.656ZM130.592 173V155.864H132.752V173H130.592Z" fill="black"/>
<rect x="234" y="121" width="202" height="86" rx="20" fill="#AAE492"/>
<path d="M301.6 173.24C300.288 173.24 299.168 173 298.24 172.52C297.312 172.04 296.488 171.344 295.768 170.432L297.304 168.896C297.832 169.632 298.44 170.192 299.128 170.576C299.816 170.944 300.664 171.128 301.672 171.128C302.664 171.128 303.456 170.912 304.048 170.48C304.656 170.048 304.96 169.456 304.96 168.704C304.96 168.08 304.816 167.576 304.528 167.192C304.24 166.808 303.848 166.496 303.352 166.256C302.872 166 302.344 165.776 301.768 165.584C301.192 165.376 300.616 165.16 300.04 164.936C299.464 164.696 298.936 164.408 298.456 164.072C297.976 163.72 297.584 163.264 297.28 162.704C296.992 162.144 296.848 161.44 296.848 160.592C296.848 159.648 297.072 158.848 297.52 158.192C297.984 157.52 298.608 157.008 299.392 156.656C300.192 156.288 301.088 156.104 302.08 156.104C303.168 156.104 304.144 156.32 305.008 156.752C305.872 157.168 306.576 157.72 307.12 158.408L305.584 159.944C305.088 159.368 304.552 158.936 303.976 158.648C303.416 158.36 302.768 158.216 302.032 158.216C301.136 158.216 300.424 158.416 299.896 158.816C299.368 159.2 299.104 159.744 299.104 160.448C299.104 161.008 299.248 161.464 299.536 161.816C299.84 162.152 300.232 162.44 300.712 162.68C301.192 162.92 301.72 163.144 302.296 163.352C302.888 163.544 303.472 163.76 304.048 164C304.624 164.24 305.152 164.544 305.632 164.912C306.112 165.28 306.496 165.76 306.784 166.352C307.088 166.928 307.24 167.656 307.24 168.536C307.24 170.008 306.728 171.16 305.704 171.992C304.696 172.824 303.328 173.24 301.6 173.24ZM314.94 173.24C313.82 173.24 312.804 172.976 311.892 172.448C310.996 171.92 310.284 171.208 309.756 170.312C309.244 169.4 308.988 168.392 308.988 167.288C308.988 166.168 309.244 165.16 309.756 164.264C310.284 163.368 310.996 162.664 311.892 162.152C312.804 161.624 313.82 161.36 314.94 161.36C315.82 161.36 316.636 161.528 317.388 161.864C318.14 162.184 318.788 162.656 319.332 163.28L317.892 164.72C317.54 164.304 317.108 163.992 316.596 163.784C316.1 163.56 315.548 163.448 314.94 163.448C314.22 163.448 313.58 163.616 313.02 163.952C312.46 164.272 312.02 164.72 311.7 165.296C311.38 165.872 311.22 166.536 311.22 167.288C311.22 168.04 311.38 168.704 311.7 169.28C312.02 169.856 312.46 170.312 313.02 170.648C313.58 170.984 314.22 171.152 314.94 171.152C315.548 171.152 316.1 171.048 316.596 170.84C317.108 170.616 317.548 170.296 317.916 169.88L319.332 171.32C318.804 171.928 318.156 172.4 317.388 172.736C316.636 173.072 315.82 173.24 314.94 173.24ZM321.499 173V161.6H323.659V173H321.499ZM322.579 159.32C322.179 159.32 321.851 159.192 321.595 158.936C321.339 158.664 321.211 158.328 321.211 157.928C321.211 157.544 321.339 157.224 321.595 156.968C321.851 156.696 322.179 156.56 322.579 156.56C322.979 156.56 323.307 156.696 323.563 156.968C323.819 157.224 323.947 157.544 323.947 157.928C323.947 158.328 323.819 158.664 323.563 158.936C323.307 159.192 322.979 159.32 322.579 159.32ZM332.122 173.24C330.986 173.24 329.962 172.984 329.05 172.472C328.138 171.944 327.418 171.232 326.89 170.336C326.362 169.44 326.098 168.424 326.098 167.288C326.098 166.168 326.354 165.16 326.866 164.264C327.394 163.368 328.098 162.664 328.978 162.152C329.874 161.624 330.874 161.36 331.978 161.36C333.034 161.36 333.962 161.6 334.762 162.08C335.578 162.56 336.21 163.224 336.658 164.072C337.122 164.92 337.354 165.88 337.354 166.952C337.354 167.112 337.346 167.288 337.33 167.48C337.314 167.656 337.282 167.864 337.234 168.104H327.61V166.304H336.082L335.29 167C335.29 166.232 335.154 165.584 334.882 165.056C334.61 164.512 334.226 164.096 333.73 163.808C333.234 163.504 332.634 163.352 331.93 163.352C331.194 163.352 330.546 163.512 329.986 163.832C329.426 164.152 328.994 164.6 328.69 165.176C328.386 165.752 328.234 166.432 328.234 167.216C328.234 168.016 328.394 168.72 328.714 169.328C329.034 169.92 329.49 170.384 330.082 170.72C330.674 171.04 331.354 171.2 332.122 171.2C332.762 171.2 333.346 171.088 333.874 170.864C334.418 170.64 334.882 170.304 335.266 169.856L336.658 171.272C336.114 171.912 335.442 172.4 334.642 172.736C333.858 173.072 333.018 173.24 332.122 173.24ZM347.773 173V166.352C347.773 165.488 347.501 164.776 346.957 164.216C346.413 163.656 345.709 163.376 344.845 163.376C344.269 163.376 343.757 163.504 343.309 163.76C342.861 164.016 342.509 164.368 342.253 164.816C341.997 165.264 341.869 165.776 341.869 166.352L340.981 165.848C340.981 164.984 341.173 164.216 341.557 163.544C341.941 162.872 342.477 162.344 343.165 161.96C343.853 161.56 344.629 161.36 345.493 161.36C346.357 161.36 347.117 161.576 347.773 162.008C348.445 162.44 348.973 163.008 349.357 163.712C349.741 164.4 349.933 165.136 349.933 165.92V173H347.773ZM339.709 173V161.6H341.869V173H339.709ZM358.065 173.24C356.945 173.24 355.929 172.976 355.017 172.448C354.121 171.92 353.409 171.208 352.881 170.312C352.369 169.4 352.113 168.392 352.113 167.288C352.113 166.168 352.369 165.16 352.881 164.264C353.409 163.368 354.121 162.664 355.017 162.152C355.929 161.624 356.945 161.36 358.065 161.36C358.945 161.36 359.761 161.528 360.513 161.864C361.265 162.184 361.913 162.656 362.457 163.28L361.017 164.72C360.665 164.304 360.233 163.992 359.721 163.784C359.225 163.56 358.673 163.448 358.065 163.448C357.345 163.448 356.705 163.616 356.145 163.952C355.585 164.272 355.145 164.72 354.825 165.296C354.505 165.872 354.345 166.536 354.345 167.288C354.345 168.04 354.505 168.704 354.825 169.28C355.145 169.856 355.585 170.312 356.145 170.648C356.705 170.984 357.345 171.152 358.065 171.152C358.673 171.152 359.225 171.048 359.721 170.84C360.233 170.616 360.673 170.296 361.041 169.88L362.457 171.32C361.929 171.928 361.281 172.4 360.513 172.736C359.761 173.072 358.945 173.24 358.065 173.24ZM369.645 173.24C368.509 173.24 367.485 172.984 366.573 172.472C365.661 171.944 364.941 171.232 364.413 170.336C363.885 169.44 363.621 168.424 363.621 167.288C363.621 166.168 363.877 165.16 364.389 164.264C364.917 163.368 365.621 162.664 366.501 162.152C367.397 161.624 368.397 161.36 369.501 161.36C370.557 161.36 371.485 161.6 372.285 162.08C373.101 162.56 373.733 163.224 374.181 164.072C374.645 164.92 374.877 165.88 374.877 166.952C374.877 167.112 374.869 167.288 374.853 167.48C374.837 167.656 374.805 167.864 374.757 168.104H365.133V166.304H373.605L372.813 167C372.813 166.232 372.677 165.584 372.405 165.056C372.133 164.512 371.749 164.096 371.253 163.808C370.757 163.504 370.157 163.352 369.453 163.352C368.717 163.352 368.069 163.512 367.509 163.832C366.949 164.152 366.517 164.6 366.213 165.176C365.909 165.752 365.757 166.432 365.757 167.216C365.757 168.016 365.917 168.72 366.237 169.328C366.557 169.92 367.013 170.384 367.605 170.72C368.197 171.04 368.877 171.2 369.645 171.2C370.285 171.2 370.869 171.088 371.397 170.864C371.941 170.64 372.405 170.304 372.789 169.856L374.181 171.272C373.637 171.912 372.965 172.4 372.165 172.736C371.381 173.072 370.541 173.24 369.645 173.24Z" fill="black"/>
<rect x="101" y="242" width="202" height="86" rx="20" fill="#A78BCB"/>
<path d="M169.216 294L163.768 277.344H166.024L170.344 290.928H169.696L173.944 277.344H175.576L179.824 290.928H179.2L183.52 277.344H185.752L180.328 294H178.72L174.448 280.44H175.072L170.824 294H169.216ZM186.592 294V282.6H188.752V294H186.592ZM188.752 287.496L187.936 287.136C187.936 285.68 188.272 284.52 188.944 283.656C189.616 282.792 190.584 282.36 191.848 282.36C192.424 282.36 192.944 282.464 193.408 282.672C193.872 282.864 194.304 283.192 194.704 283.656L193.288 285.12C193.048 284.864 192.784 284.68 192.496 284.568C192.208 284.456 191.872 284.4 191.488 284.4C190.688 284.4 190.032 284.656 189.52 285.168C189.008 285.68 188.752 286.456 188.752 287.496ZM196.249 294V282.6H198.409V294H196.249ZM197.329 280.32C196.929 280.32 196.601 280.192 196.345 279.936C196.089 279.664 195.961 279.328 195.961 278.928C195.961 278.544 196.089 278.224 196.345 277.968C196.601 277.696 196.929 277.56 197.329 277.56C197.729 277.56 198.057 277.696 198.313 277.968C198.569 278.224 198.697 278.544 198.697 278.928C198.697 279.328 198.569 279.664 198.313 279.936C198.057 280.192 197.729 280.32 197.329 280.32ZM203.344 294V277.824H205.504V294H203.344ZM200.536 284.568V282.6H208.312V284.568H200.536ZM210.452 294V282.6H212.612V294H210.452ZM211.532 280.32C211.132 280.32 210.804 280.192 210.548 279.936C210.292 279.664 210.164 279.328 210.164 278.928C210.164 278.544 210.292 278.224 210.548 277.968C210.804 277.696 211.132 277.56 211.532 277.56C211.932 277.56 212.26 277.696 212.516 277.968C212.772 278.224 212.9 278.544 212.9 278.928C212.9 279.328 212.772 279.664 212.516 279.936C212.26 280.192 211.932 280.32 211.532 280.32ZM223.859 294V287.352C223.859 286.488 223.587 285.776 223.043 285.216C222.499 284.656 221.795 284.376 220.931 284.376C220.355 284.376 219.843 284.504 219.395 284.76C218.947 285.016 218.595 285.368 218.339 285.816C218.083 286.264 217.955 286.776 217.955 287.352L217.067 286.848C217.067 285.984 217.259 285.216 217.643 284.544C218.027 283.872 218.563 283.344 219.251 282.96C219.939 282.56 220.715 282.36 221.579 282.36C222.443 282.36 223.203 282.576 223.859 283.008C224.531 283.44 225.059 284.008 225.443 284.712C225.827 285.4 226.019 286.136 226.019 286.92V294H223.859ZM215.795 294V282.6H217.955V294H215.795ZM233.671 299.016C232.503 299.016 231.463 298.8 230.551 298.368C229.655 297.936 228.935 297.328 228.391 296.544L229.783 295.128C230.247 295.72 230.799 296.168 231.439 296.472C232.079 296.792 232.839 296.952 233.719 296.952C234.887 296.952 235.807 296.64 236.479 296.016C237.167 295.408 237.511 294.584 237.511 293.544V290.712L237.895 288.144L237.511 285.6V282.6H239.671V293.544C239.671 294.632 239.415 295.584 238.903 296.4C238.407 297.216 237.703 297.856 236.791 298.32C235.895 298.784 234.855 299.016 233.671 299.016ZM233.671 293.808C232.631 293.808 231.695 293.56 230.863 293.064C230.047 292.568 229.399 291.888 228.919 291.024C228.439 290.144 228.199 289.16 228.199 288.072C228.199 286.984 228.439 286.016 228.919 285.168C229.399 284.304 230.047 283.624 230.863 283.128C231.695 282.616 232.631 282.36 233.671 282.36C234.567 282.36 235.359 282.536 236.047 282.888C236.735 283.24 237.279 283.736 237.679 284.376C238.095 285 238.319 285.736 238.351 286.584V289.608C238.303 290.44 238.071 291.176 237.655 291.816C237.255 292.44 236.711 292.928 236.023 293.28C235.335 293.632 234.551 293.808 233.671 293.808ZM234.103 291.768C234.807 291.768 235.423 291.616 235.951 291.312C236.495 291.008 236.911 290.584 237.199 290.04C237.487 289.48 237.631 288.832 237.631 288.096C237.631 287.36 237.479 286.72 237.175 286.176C236.887 285.616 236.479 285.184 235.951 284.88C235.423 284.56 234.799 284.4 234.079 284.4C233.359 284.4 232.727 284.56 232.183 284.88C231.639 285.184 231.207 285.616 230.887 286.176C230.583 286.72 230.431 287.352 230.431 288.072C230.431 288.792 230.583 289.432 230.887 289.992C231.207 290.552 231.639 290.992 232.183 291.312C232.743 291.616 233.383 291.768 234.103 291.768Z" fill="black"/>
<rect x="334" y="242" width="202" height="86" rx="20" fill="url(#paint0_radial_719_941)"/>
<path d="M405.968 294V277.344H407.552L414.608 288.936H413.528L420.584 277.344H422.168V294H419.912V281.304L420.44 281.448L414.872 290.592H413.288L407.72 281.448L408.224 281.304V294H405.968ZM430.925 294.24C429.805 294.24 428.797 293.976 427.901 293.448C427.005 292.92 426.293 292.208 425.765 291.312C425.237 290.4 424.973 289.384 424.973 288.264C424.973 287.16 425.237 286.168 425.765 285.288C426.293 284.392 427.005 283.68 427.901 283.152C428.797 282.624 429.805 282.36 430.925 282.36C432.029 282.36 433.029 282.624 433.925 283.152C434.837 283.664 435.557 284.368 436.085 285.264C436.613 286.16 436.877 287.16 436.877 288.264C436.877 289.384 436.613 290.4 436.085 291.312C435.557 292.208 434.837 292.92 433.925 293.448C433.029 293.976 432.029 294.24 430.925 294.24ZM430.925 292.152C431.645 292.152 432.285 291.984 432.845 291.648C433.405 291.312 433.845 290.856 434.165 290.28C434.485 289.688 434.645 289.016 434.645 288.264C434.645 287.528 434.477 286.872 434.141 286.296C433.821 285.72 433.381 285.272 432.821 284.952C432.277 284.616 431.645 284.448 430.925 284.448C430.205 284.448 429.565 284.616 429.005 284.952C428.445 285.272 428.005 285.72 427.685 286.296C427.365 286.872 427.205 287.528 427.205 288.264C427.205 289.016 427.365 289.688 427.685 290.28C428.005 290.856 428.445 291.312 429.005 291.648C429.565 291.984 430.205 292.152 430.925 292.152ZM439.311 294V282.6H441.471V294H439.311ZM441.471 287.496L440.655 287.136C440.655 285.68 440.991 284.52 441.663 283.656C442.335 282.792 443.303 282.36 444.567 282.36C445.143 282.36 445.663 282.464 446.127 282.672C446.591 282.864 447.023 283.192 447.423 283.656L446.007 285.12C445.767 284.864 445.503 284.68 445.215 284.568C444.927 284.456 444.591 284.4 444.207 284.4C443.407 284.4 442.751 284.656 442.239 285.168C441.727 285.68 441.471 286.456 441.471 287.496ZM453.848 294.24C452.712 294.24 451.688 293.984 450.776 293.472C449.864 292.944 449.144 292.232 448.616 291.336C448.088 290.44 447.824 289.424 447.824 288.288C447.824 287.168 448.08 286.16 448.592 285.264C449.12 284.368 449.824 283.664 450.704 283.152C451.6 282.624 452.6 282.36 453.704 282.36C454.76 282.36 455.688 282.6 456.488 283.08C457.304 283.56 457.936 284.224 458.384 285.072C458.848 285.92 459.08 286.88 459.08 287.952C459.08 288.112 459.072 288.288 459.056 288.48C459.04 288.656 459.008 288.864 458.96 289.104H449.336V287.304H457.808L457.016 288C457.016 287.232 456.88 286.584 456.608 286.056C456.336 285.512 455.952 285.096 455.456 284.808C454.96 284.504 454.36 284.352 453.656 284.352C452.92 284.352 452.272 284.512 451.712 284.832C451.152 285.152 450.72 285.6 450.416 286.176C450.112 286.752 449.96 287.432 449.96 288.216C449.96 289.016 450.12 289.72 450.44 290.328C450.76 290.92 451.216 291.384 451.808 291.72C452.4 292.04 453.08 292.2 453.848 292.2C454.488 292.2 455.072 292.088 455.6 291.864C456.144 291.64 456.608 291.304 456.992 290.856L458.384 292.272C457.84 292.912 457.168 293.4 456.368 293.736C455.584 294.072 454.744 294.24 453.848 294.24ZM462.084 288.72L461.772 276.864H464.076L463.764 288.72H462.084ZM462.9 294.24C462.452 294.24 462.084 294.088 461.796 293.784C461.508 293.48 461.364 293.104 461.364 292.656C461.364 292.208 461.508 291.84 461.796 291.552C462.084 291.248 462.452 291.096 462.9 291.096C463.364 291.096 463.74 291.248 464.028 291.552C464.316 291.84 464.46 292.208 464.46 292.656C464.46 293.104 464.316 293.48 464.028 293.784C463.74 294.088 463.364 294.24 462.9 294.24Z" fill="black"/>
<rect x="468" y="121" width="202" height="86" rx="20" fill="#E8D9BB"/>
<path d="M547.48 166.52V164.552H552.016C552.64 164.552 553.192 164.424 553.672 164.168C554.168 163.912 554.552 163.552 554.824 163.088C555.112 162.624 555.256 162.072 555.256 161.432C555.256 160.792 555.112 160.24 554.824 159.776C554.552 159.312 554.168 158.952 553.672 158.696C553.192 158.44 552.64 158.312 552.016 158.312H547.48V156.344H552.16C553.184 156.344 554.096 156.552 554.896 156.968C555.712 157.384 556.352 157.976 556.816 158.744C557.296 159.496 557.536 160.392 557.536 161.432C557.536 162.456 557.296 163.352 556.816 164.12C556.352 164.872 555.712 165.464 554.896 165.896C554.096 166.312 553.184 166.52 552.16 166.52H547.48ZM545.968 173V156.344H548.224V173H545.968ZM560.139 173V161.6H562.299V173H560.139ZM562.299 166.496L561.483 166.136C561.483 164.68 561.819 163.52 562.491 162.656C563.163 161.792 564.131 161.36 565.395 161.36C565.971 161.36 566.491 161.464 566.955 161.672C567.419 161.864 567.851 162.192 568.251 162.656L566.835 164.12C566.595 163.864 566.331 163.68 566.043 163.568C565.755 163.456 565.419 163.4 565.035 163.4C564.235 163.4 563.579 163.656 563.067 164.168C562.555 164.68 562.299 165.456 562.299 166.496ZM574.677 173.24C573.541 173.24 572.517 172.984 571.605 172.472C570.693 171.944 569.973 171.232 569.445 170.336C568.917 169.44 568.653 168.424 568.653 167.288C568.653 166.168 568.909 165.16 569.421 164.264C569.949 163.368 570.653 162.664 571.533 162.152C572.429 161.624 573.429 161.36 574.533 161.36C575.589 161.36 576.517 161.6 577.317 162.08C578.133 162.56 578.765 163.224 579.213 164.072C579.677 164.92 579.909 165.88 579.909 166.952C579.909 167.112 579.901 167.288 579.885 167.48C579.869 167.656 579.837 167.864 579.789 168.104H570.165V166.304H578.637L577.845 167C577.845 166.232 577.709 165.584 577.437 165.056C577.165 164.512 576.781 164.096 576.285 163.808C575.789 163.504 575.189 163.352 574.485 163.352C573.749 163.352 573.101 163.512 572.541 163.832C571.981 164.152 571.549 164.6 571.245 165.176C570.941 165.752 570.789 166.432 570.789 167.216C570.789 168.016 570.949 168.72 571.269 169.328C571.589 169.92 572.045 170.384 572.637 170.72C573.229 171.04 573.909 171.2 574.677 171.2C575.317 171.2 575.901 171.088 576.429 170.864C576.973 170.64 577.437 170.304 577.821 169.856L579.213 171.272C578.669 171.912 577.997 172.4 577.197 172.736C576.413 173.072 575.573 173.24 574.677 173.24ZM588.264 173.24C587.4 173.24 586.616 173.064 585.912 172.712C585.224 172.344 584.672 171.84 584.256 171.2C583.84 170.56 583.608 169.832 583.56 169.016V165.584C583.608 164.752 583.84 164.024 584.256 163.4C584.688 162.76 585.248 162.264 585.936 161.912C586.64 161.544 587.416 161.36 588.264 161.36C589.304 161.36 590.24 161.624 591.072 162.152C591.92 162.68 592.584 163.392 593.064 164.288C593.544 165.184 593.784 166.192 593.784 167.312C593.784 168.432 593.544 169.44 593.064 170.336C592.584 171.232 591.92 171.944 591.072 172.472C590.24 172.984 589.304 173.24 588.264 173.24ZM582.264 177.776V161.6H584.424V164.6L584.016 167.36L584.424 170.144V177.776H582.264ZM587.904 171.2C588.624 171.2 589.256 171.032 589.8 170.696C590.344 170.36 590.776 169.904 591.096 169.328C591.416 168.736 591.576 168.056 591.576 167.288C591.576 166.536 591.416 165.864 591.096 165.272C590.776 164.68 590.344 164.224 589.8 163.904C589.256 163.568 588.632 163.4 587.928 163.4C587.208 163.4 586.576 163.568 586.032 163.904C585.488 164.224 585.064 164.68 584.76 165.272C584.456 165.864 584.304 166.544 584.304 167.312C584.304 168.064 584.448 168.736 584.736 169.328C585.04 169.904 585.464 170.36 586.008 170.696C586.568 171.032 587.2 171.2 587.904 171.2Z" fill="black"/>
<defs>
<radialGradient id="paint0_radial_719_941" cx="0" cy="0" r="1" gradientUnits="userSpaceOnUse" gradientTransform="translate(435 285) rotate(158.035) scale(108.905 255.801)">
<stop stop-color="#B2DBA1"/>
<stop offset="1" stop-color="#519A50"/>
</radialGradient>
</defs>
</svg>
