<svg width="324" height="60" viewBox="0 0 324 60" fill="none" xmlns="http://www.w3.org/2000/svg">
<rect width="324" height="60" rx="10" fill="#EBD39C"/>
<path d="M30.5005 37.7917C30.7556 37.7917 31.0019 37.8854 31.1925 38.0549C31.3832 38.2245 31.505 38.4581 31.5348 38.7115L31.5421 38.8333V39.875C31.5418 40.1405 31.4402 40.3959 31.2579 40.5889C31.0757 40.782 30.8266 40.8982 30.5615 40.9137C30.2965 40.9293 30.0355 40.8431 29.8319 40.6726C29.6283 40.5022 29.4975 40.2605 29.4661 39.9969L29.4588 39.875V38.8333C29.4588 38.5571 29.5686 38.2921 29.7639 38.0968C29.9593 37.9014 30.2242 37.7917 30.5005 37.7917ZM37.0765 35.6146L37.1744 35.701L37.9036 36.4302C38.0904 36.6177 38.1989 36.8692 38.207 37.1337C38.215 37.3983 38.1221 37.656 37.9471 37.8545C37.7721 38.053 37.528 38.1774 37.2646 38.2025C37.0011 38.2276 36.738 38.1515 36.5286 37.9896L36.4307 37.9031L35.7015 37.174C35.5218 36.9945 35.4138 36.7556 35.3978 36.5021C35.3819 36.2486 35.4591 35.998 35.615 35.7975C35.7709 35.5969 35.9946 35.4603 36.2442 35.4132C36.4938 35.366 36.752 35.4117 36.9703 35.5417L37.0765 35.6146ZM25.2994 35.701C25.4788 35.8804 25.5865 36.1191 25.6024 36.3722C25.6184 36.6254 25.5414 36.8756 25.3859 37.076L25.2994 37.174L24.5703 37.9031C24.3828 38.0899 24.1313 38.1984 23.8667 38.2065C23.6022 38.2146 23.3445 38.1217 23.146 37.9466C22.9475 37.7716 22.8231 37.5276 22.798 37.2641C22.7729 37.0006 22.849 36.7375 23.0109 36.5281L23.0973 36.4302L23.8265 35.701C24.0219 35.5058 24.2868 35.3961 24.563 35.3961C24.8392 35.3961 25.1041 35.5058 25.2994 35.701ZM22.1671 29.4583C22.4326 29.4586 22.688 29.5603 22.8811 29.7426C23.0741 29.9248 23.1903 30.1739 23.2059 30.439C23.2214 30.704 23.1352 30.965 22.9648 31.1686C22.7944 31.3722 22.5527 31.503 22.289 31.5344L22.1671 31.5417H21.1255C20.86 31.5414 20.6046 31.4397 20.4115 31.2575C20.2185 31.0752 20.1023 30.8261 20.0868 30.561C20.0712 30.296 20.1574 30.035 20.3278 29.8314C20.4982 29.6278 20.74 29.497 21.0036 29.4656L21.1255 29.4583H22.1671ZM39.8755 29.4583C40.141 29.4586 40.3963 29.5603 40.5894 29.7426C40.7825 29.9248 40.8986 30.1739 40.9142 30.439C40.9298 30.704 40.8435 30.965 40.6731 31.1686C40.5027 31.3722 40.261 31.503 39.9973 31.5344L39.8755 31.5417H38.8338C38.5683 31.5414 38.3129 31.4397 38.1199 31.2575C37.9268 31.0752 37.8106 30.8261 37.7951 30.561C37.7795 30.296 37.8658 30.035 38.0362 29.8314C38.2066 29.6278 38.4483 29.497 38.7119 29.4656L38.8338 29.4583H39.8755ZM24.4723 23.0104L24.5703 23.0969L25.2994 23.826C25.4863 24.0135 25.5947 24.265 25.6028 24.5296C25.6109 24.7941 25.518 25.0518 25.3429 25.2503C25.1679 25.4488 24.9239 25.5732 24.6604 25.5983C24.3969 25.6234 24.1338 25.5473 23.9244 25.3854L23.8265 25.299L23.0973 24.5698C22.9183 24.3903 22.8108 24.1516 22.7951 23.8986C22.7794 23.6455 22.8566 23.3954 23.0121 23.1952C23.1676 22.9949 23.3908 22.8583 23.6399 22.8108C23.889 22.7634 24.1468 22.8084 24.3651 22.9375L24.4723 23.0104ZM37.9036 23.0969C38.0829 23.2762 38.1907 23.5149 38.2066 23.768C38.2225 24.0212 38.1455 24.2715 37.9901 24.4719L37.9036 24.5698L37.1744 25.299C36.987 25.4858 36.7354 25.5942 36.4709 25.6023C36.2064 25.6104 35.9487 25.5175 35.7502 25.3425C35.5517 25.1674 35.4272 24.9234 35.4021 24.6599C35.377 24.3965 35.4532 24.1333 35.6151 23.924L35.7015 23.826L36.4307 23.0969C36.626 22.9016 36.8909 22.7919 37.1671 22.7919C37.4434 22.7919 37.7083 22.9016 37.9036 23.0969ZM30.5005 20.0833C30.7556 20.0834 31.0019 20.177 31.1925 20.3466C31.3832 20.5161 31.505 20.7497 31.5348 21.0031L31.5421 21.125V22.1667C31.5418 22.4322 31.4402 22.6875 31.2579 22.8806C31.0757 23.0737 30.8266 23.1898 30.5615 23.2054C30.2965 23.2209 30.0355 23.1347 29.8319 22.9643C29.6283 22.7939 29.4975 22.5522 29.4661 22.2885L29.4588 22.1667V21.125C29.4588 20.8487 29.5686 20.5838 29.7639 20.3884C29.9593 20.1931 30.2242 20.0833 30.5005 20.0833ZM30.5005 25.2917C31.521 25.2916 32.519 25.5913 33.3706 26.1536C34.2222 26.7159 34.8899 27.516 35.2906 28.4545C35.6914 29.393 35.8077 30.4286 35.6249 31.4326C35.4422 32.4366 34.9685 33.3648 34.2628 34.1019C33.557 34.839 32.6503 35.3526 31.6552 35.5788C30.6601 35.805 29.6204 35.7338 28.6654 35.3742C27.7104 35.0146 26.882 34.3824 26.2832 33.556C25.6845 32.7296 25.3416 31.7456 25.2973 30.726L25.2921 30.5L25.2973 30.274C25.3556 28.9331 25.9292 27.6664 26.8986 26.7382C27.868 25.8099 29.1583 25.2917 30.5005 25.2917Z" fill="#614D20"/>
<path d="M59.523 35.13C58.8037 35.13 58.1927 35 57.69 34.74C57.1873 34.48 56.7367 34.0987 56.338 33.596L57.352 32.582C57.6033 32.946 57.9023 33.232 58.249 33.44C58.5957 33.6393 59.0377 33.739 59.575 33.739C60.0777 33.739 60.4763 33.635 60.771 33.427C61.0743 33.219 61.226 32.933 61.226 32.569C61.226 32.2657 61.148 32.0187 60.992 31.828C60.836 31.6373 60.628 31.4813 60.368 31.36C60.1167 31.23 59.835 31.1173 59.523 31.022C59.2197 30.918 58.912 30.8053 58.6 30.684C58.2967 30.554 58.015 30.3937 57.755 30.203C57.5037 30.0123 57.3 29.7653 57.144 29.462C56.988 29.1587 56.91 28.773 56.91 28.305C56.91 27.7677 57.04 27.3127 57.3 26.94C57.5687 26.5587 57.9283 26.2683 58.379 26.069C58.8297 25.8697 59.3323 25.77 59.887 25.77C60.485 25.77 61.018 25.887 61.486 26.121C61.9627 26.355 62.3483 26.654 62.643 27.018L61.629 28.032C61.369 27.7373 61.096 27.5207 60.81 27.382C60.5327 27.2347 60.212 27.161 59.848 27.161C59.3973 27.161 59.042 27.252 58.782 27.434C58.5307 27.616 58.405 27.8717 58.405 28.201C58.405 28.4783 58.483 28.7037 58.639 28.877C58.795 29.0417 58.9987 29.1847 59.25 29.306C59.51 29.4187 59.7917 29.527 60.095 29.631C60.407 29.735 60.7147 29.852 61.018 29.982C61.33 30.112 61.6117 30.281 61.863 30.489C62.123 30.6883 62.331 30.9483 62.487 31.269C62.643 31.5897 62.721 31.9927 62.721 32.478C62.721 33.2927 62.4307 33.9383 61.85 34.415C61.278 34.8917 60.5023 35.13 59.523 35.13ZM66.5776 35.13C66.049 35.13 65.5766 35.013 65.1606 34.779C64.7533 34.545 64.4326 34.2243 64.1986 33.817C63.9733 33.401 63.8606 32.9243 63.8606 32.387V28.76H65.2906V32.322C65.2906 32.6253 65.3383 32.8853 65.4336 33.102C65.5376 33.31 65.685 33.4703 65.8756 33.583C66.075 33.6957 66.309 33.752 66.5776 33.752C66.9936 33.752 67.31 33.6307 67.5266 33.388C67.752 33.1367 67.8646 32.7813 67.8646 32.322V28.76H69.2946V32.387C69.2946 32.933 69.1776 33.414 68.9436 33.83C68.7183 34.2373 68.402 34.558 67.9946 34.792C67.5873 35.0173 67.115 35.13 66.5776 35.13ZM70.7325 35V28.76H72.1625V35H70.7325ZM74.8795 35V31.282C74.8795 30.866 74.7495 30.5453 74.4895 30.32C74.2295 30.086 73.9088 29.969 73.5275 29.969C73.2675 29.969 73.0335 30.021 72.8255 30.125C72.6261 30.229 72.4658 30.3807 72.3445 30.58C72.2231 30.7707 72.1625 31.0047 72.1625 31.282L71.6035 30.97C71.6035 30.4933 71.7075 30.0817 71.9155 29.735C72.1235 29.3883 72.4051 29.1197 72.7605 28.929C73.1158 28.7297 73.5145 28.63 73.9565 28.63C74.3985 28.63 74.7971 28.7253 75.1525 28.916C75.5078 29.1067 75.7895 29.3753 75.9975 29.722C76.2055 30.0687 76.3095 30.4847 76.3095 30.97V35H74.8795ZM79.0265 35V31.282C79.0265 30.866 78.8965 30.5453 78.6365 30.32C78.3765 30.086 78.0558 29.969 77.6745 29.969C77.4231 29.969 77.1935 30.021 76.9855 30.125C76.7775 30.229 76.6128 30.3807 76.4915 30.58C76.3701 30.7707 76.3095 31.0047 76.3095 31.282L75.5035 30.97C75.5468 30.4933 75.6855 30.0817 75.9195 29.735C76.1535 29.3883 76.4525 29.1197 76.8165 28.929C77.1891 28.7297 77.5965 28.63 78.0385 28.63C78.4891 28.63 78.8965 28.7253 79.2605 28.916C79.6245 29.1067 79.9148 29.3753 80.1315 29.722C80.3481 30.0687 80.4565 30.4847 80.4565 30.97V35H79.0265ZM81.9297 35V28.76H83.3597V35H81.9297ZM86.0767 35V31.282C86.0767 30.866 85.9467 30.5453 85.6867 30.32C85.4267 30.086 85.1061 29.969 84.7247 29.969C84.4647 29.969 84.2307 30.021 84.0227 30.125C83.8234 30.229 83.6631 30.3807 83.5417 30.58C83.4204 30.7707 83.3597 31.0047 83.3597 31.282L82.8007 30.97C82.8007 30.4933 82.9047 30.0817 83.1127 29.735C83.3207 29.3883 83.6024 29.1197 83.9577 28.929C84.3131 28.7297 84.7117 28.63 85.1537 28.63C85.5957 28.63 85.9944 28.7253 86.3497 28.916C86.7051 29.1067 86.9867 29.3753 87.1947 29.722C87.4027 30.0687 87.5067 30.4847 87.5067 30.97V35H86.0767ZM90.2237 35V31.282C90.2237 30.866 90.0937 30.5453 89.8337 30.32C89.5737 30.086 89.2531 29.969 88.8717 29.969C88.6204 29.969 88.3907 30.021 88.1827 30.125C87.9747 30.229 87.8101 30.3807 87.6887 30.58C87.5674 30.7707 87.5067 31.0047 87.5067 31.282L86.7007 30.97C86.7441 30.4933 86.8827 30.0817 87.1167 29.735C87.3507 29.3883 87.6497 29.1197 88.0137 28.929C88.3864 28.7297 88.7937 28.63 89.2357 28.63C89.6864 28.63 90.0937 28.7253 90.4577 28.916C90.8217 29.1067 91.1121 29.3753 91.3287 29.722C91.5454 30.0687 91.6537 30.4847 91.6537 30.97V35H90.2237ZM96.026 35.13C95.402 35.13 94.8387 34.9913 94.336 34.714C93.842 34.428 93.4477 34.038 93.153 33.544C92.867 33.05 92.724 32.4953 92.724 31.88C92.724 31.2647 92.867 30.7143 93.153 30.229C93.439 29.735 93.8247 29.345 94.31 29.059C94.804 28.773 95.35 28.63 95.948 28.63C96.5287 28.63 97.04 28.7643 97.482 29.033C97.9327 29.3017 98.2837 29.67 98.535 30.138C98.795 30.606 98.925 31.139 98.925 31.737C98.925 31.841 98.9163 31.9493 98.899 32.062C98.8903 32.166 98.873 32.283 98.847 32.413H93.725V31.243H98.106L97.573 31.711C97.5557 31.3297 97.482 31.009 97.352 30.749C97.222 30.489 97.0357 30.2897 96.793 30.151C96.559 30.0123 96.2687 29.943 95.922 29.943C95.558 29.943 95.2417 30.021 94.973 30.177C94.7043 30.333 94.4963 30.554 94.349 30.84C94.2017 31.1173 94.128 31.451 94.128 31.841C94.128 32.231 94.206 32.5733 94.362 32.868C94.518 33.1627 94.739 33.3923 95.025 33.557C95.311 33.713 95.6403 33.791 96.013 33.791C96.3337 33.791 96.6283 33.7347 96.897 33.622C97.1743 33.5093 97.4083 33.3447 97.599 33.128L98.509 34.051C98.2057 34.4063 97.8373 34.675 97.404 34.857C96.9707 35.039 96.5113 35.13 96.026 35.13ZM100.071 35V28.76H101.501V35H100.071ZM101.501 31.529L101.007 31.282C101.007 30.4933 101.181 29.8563 101.527 29.371C101.883 28.877 102.416 28.63 103.126 28.63C103.438 28.63 103.72 28.6863 103.971 28.799C104.223 28.9117 104.457 29.0937 104.673 29.345L103.737 30.307C103.625 30.1857 103.499 30.099 103.36 30.047C103.222 29.995 103.061 29.969 102.879 29.969C102.481 29.969 102.151 30.0947 101.891 30.346C101.631 30.5973 101.501 30.9917 101.501 31.529ZM109.418 31.568V30.268H111.693C112.005 30.268 112.278 30.2073 112.512 30.086C112.755 29.956 112.946 29.7783 113.084 29.553C113.223 29.319 113.292 29.046 113.292 28.734C113.292 28.422 113.223 28.1533 113.084 27.928C112.946 27.694 112.755 27.5163 112.512 27.395C112.278 27.265 112.005 27.2 111.693 27.2H109.418V25.9H111.771C112.343 25.9 112.855 26.017 113.305 26.251C113.765 26.485 114.124 26.8143 114.384 27.239C114.653 27.6637 114.787 28.162 114.787 28.734C114.787 29.306 114.653 29.8043 114.384 30.229C114.124 30.6537 113.765 30.983 113.305 31.217C112.855 31.451 112.343 31.568 111.771 31.568H109.418ZM108.391 35V25.9H109.886V35H108.391ZM116.042 35V28.76H117.472V35H116.042ZM117.472 31.529L116.978 31.282C116.978 30.4933 117.151 29.8563 117.498 29.371C117.853 28.877 118.386 28.63 119.097 28.63C119.409 28.63 119.691 28.6863 119.942 28.799C120.193 28.9117 120.427 29.0937 120.644 29.345L119.708 30.307C119.595 30.1857 119.47 30.099 119.331 30.047C119.192 29.995 119.032 29.969 118.85 29.969C118.451 29.969 118.122 30.0947 117.862 30.346C117.602 30.5973 117.472 30.9917 117.472 31.529ZM124.006 35.13C123.399 35.13 122.849 34.987 122.355 34.701C121.861 34.4063 121.466 34.012 121.172 33.518C120.886 33.024 120.743 32.4737 120.743 31.867C120.743 31.2603 120.886 30.7143 121.172 30.229C121.466 29.7437 121.861 29.358 122.355 29.072C122.849 28.7773 123.399 28.63 124.006 28.63C124.621 28.63 125.176 28.773 125.67 29.059C126.164 29.345 126.554 29.735 126.84 30.229C127.134 30.7143 127.282 31.2603 127.282 31.867C127.282 32.4737 127.134 33.024 126.84 33.518C126.554 34.012 126.164 34.4063 125.67 34.701C125.176 34.987 124.621 35.13 124.006 35.13ZM124.006 33.752C124.361 33.752 124.673 33.674 124.942 33.518C125.219 33.3533 125.431 33.128 125.579 32.842C125.735 32.556 125.813 32.231 125.813 31.867C125.813 31.503 125.735 31.1823 125.579 30.905C125.423 30.6277 125.21 30.411 124.942 30.255C124.673 30.0903 124.361 30.008 124.006 30.008C123.659 30.008 123.347 30.0903 123.07 30.255C122.801 30.411 122.589 30.6277 122.433 30.905C122.285 31.1823 122.212 31.503 122.212 31.867C122.212 32.231 122.285 32.556 122.433 32.842C122.589 33.128 122.801 33.3533 123.07 33.518C123.347 33.674 123.659 33.752 124.006 33.752ZM131.071 37.73C130.412 37.73 129.836 37.6087 129.342 37.366C128.848 37.132 128.449 36.7983 128.146 36.365L129.082 35.429C129.333 35.741 129.619 35.975 129.94 36.131C130.26 36.287 130.646 36.365 131.097 36.365C131.66 36.365 132.106 36.2177 132.436 35.923C132.765 35.637 132.93 35.2427 132.93 34.74V33.206L133.177 31.828L132.93 30.437V28.76H134.36V34.74C134.36 35.338 134.221 35.858 133.944 36.3C133.666 36.7507 133.281 37.1017 132.787 37.353C132.293 37.6043 131.721 37.73 131.071 37.73ZM131.006 34.87C130.451 34.87 129.948 34.7357 129.498 34.467C129.056 34.1897 128.705 33.8127 128.445 33.336C128.193 32.8593 128.068 32.3263 128.068 31.737C128.068 31.1477 128.193 30.619 128.445 30.151C128.705 29.683 129.056 29.3147 129.498 29.046C129.948 28.7687 130.451 28.63 131.006 28.63C131.5 28.63 131.933 28.7297 132.306 28.929C132.678 29.1283 132.969 29.4057 133.177 29.761C133.385 30.1077 133.489 30.515 133.489 30.983V32.517C133.489 32.9763 133.38 33.3837 133.164 33.739C132.956 34.0943 132.665 34.3717 132.293 34.571C131.92 34.7703 131.491 34.87 131.006 34.87ZM131.292 33.518C131.638 33.518 131.942 33.4443 132.202 33.297C132.462 33.1497 132.661 32.946 132.8 32.686C132.947 32.4173 133.021 32.1053 133.021 31.75C133.021 31.3947 132.947 31.087 132.8 30.827C132.661 30.5583 132.462 30.3503 132.202 30.203C131.942 30.0557 131.638 29.982 131.292 29.982C130.945 29.982 130.637 30.0557 130.369 30.203C130.109 30.3503 129.905 30.5583 129.758 30.827C129.61 31.087 129.537 31.3947 129.537 31.75C129.537 32.0967 129.61 32.4043 129.758 32.673C129.905 32.9417 130.109 33.1497 130.369 33.297C130.637 33.4443 130.945 33.518 131.292 33.518ZM135.948 35V28.76H137.378V35H135.948ZM137.378 31.529L136.884 31.282C136.884 30.4933 137.058 29.8563 137.404 29.371C137.76 28.877 138.293 28.63 139.003 28.63C139.315 28.63 139.597 28.6863 139.848 28.799C140.1 28.9117 140.334 29.0937 140.55 29.345L139.614 30.307C139.502 30.1857 139.376 30.099 139.237 30.047C139.099 29.995 138.938 29.969 138.756 29.969C138.358 29.969 138.028 30.0947 137.768 30.346C137.508 30.5973 137.378 30.9917 137.378 31.529ZM143.665 35.13C143.101 35.13 142.59 34.987 142.131 34.701C141.68 34.415 141.32 34.0293 141.052 33.544C140.792 33.05 140.662 32.4997 140.662 31.893C140.662 31.2777 140.792 30.7273 141.052 30.242C141.32 29.748 141.68 29.358 142.131 29.072C142.59 28.7773 143.101 28.63 143.665 28.63C144.141 28.63 144.562 28.734 144.926 28.942C145.298 29.1413 145.593 29.4187 145.81 29.774C146.026 30.1293 146.135 30.5323 146.135 30.983V32.777C146.135 33.2277 146.026 33.6307 145.81 33.986C145.602 34.3413 145.311 34.623 144.939 34.831C144.566 35.0303 144.141 35.13 143.665 35.13ZM143.899 33.778C144.427 33.778 144.852 33.6003 145.173 33.245C145.502 32.8897 145.667 32.4347 145.667 31.88C145.667 31.5073 145.593 31.178 145.446 30.892C145.298 30.606 145.09 30.385 144.822 30.229C144.562 30.0643 144.254 29.982 143.899 29.982C143.552 29.982 143.244 30.0643 142.976 30.229C142.716 30.385 142.508 30.606 142.352 30.892C142.204 31.178 142.131 31.5073 142.131 31.88C142.131 32.2527 142.204 32.582 142.352 32.868C142.508 33.154 142.716 33.3793 142.976 33.544C143.244 33.7 143.552 33.778 143.899 33.778ZM145.576 35V33.323L145.823 31.802L145.576 30.294V28.76H147.006V35H145.576ZM148.593 35V28.76H150.023V35H148.593ZM152.74 35V31.282C152.74 30.866 152.61 30.5453 152.35 30.32C152.09 30.086 151.769 29.969 151.388 29.969C151.128 29.969 150.894 30.021 150.686 30.125C150.486 30.229 150.326 30.3807 150.205 30.58C150.083 30.7707 150.023 31.0047 150.023 31.282L149.464 30.97C149.464 30.4933 149.568 30.0817 149.776 29.735C149.984 29.3883 150.265 29.1197 150.621 28.929C150.976 28.7297 151.375 28.63 151.817 28.63C152.259 28.63 152.657 28.7253 153.013 28.916C153.368 29.1067 153.65 29.3753 153.858 29.722C154.066 30.0687 154.17 30.4847 154.17 30.97V35H152.74ZM156.887 35V31.282C156.887 30.866 156.757 30.5453 156.497 30.32C156.237 30.086 155.916 29.969 155.535 29.969C155.283 29.969 155.054 30.021 154.846 30.125C154.638 30.229 154.473 30.3807 154.352 30.58C154.23 30.7707 154.17 31.0047 154.17 31.282L153.364 30.97C153.407 30.4933 153.546 30.0817 153.78 29.735C154.014 29.3883 154.313 29.1197 154.677 28.929C155.049 28.7297 155.457 28.63 155.899 28.63C156.349 28.63 156.757 28.7253 157.121 28.916C157.485 29.1067 157.775 29.3753 157.992 29.722C158.208 30.0687 158.317 30.4847 158.317 30.97V35H156.887Z" fill="#614D20"/>
<path fill-rule="evenodd" clip-rule="evenodd" d="M297.772 30.474L294 34.2453L293.058 33.3027L296.358 30.0027L293.058 26.7027L294 25.76L297.772 29.5313C297.897 29.6564 297.967 29.8259 297.967 30.0027C297.967 30.1794 297.897 30.349 297.772 30.474Z" fill="black"/>
</svg>
