<svg width="18" height="18" viewBox="0 0 18 18" fill="none" xmlns="http://www.w3.org/2000/svg">
<path d="M5.76925 1.47925H11.982C14.3488 1.47925 16.2717 3.40224 16.2717 5.769V11.9817C16.2717 13.1195 15.8198 14.2106 15.0153 15.0151C14.2108 15.8195 13.1197 16.2715 11.982 16.2715H5.76925C3.40249 16.2715 1.47949 14.3485 1.47949 11.9817V5.769C1.47949 4.63129 1.93145 3.54017 2.73593 2.73569C3.54042 1.9312 4.63153 1.47925 5.76925 1.47925ZM5.62132 2.95847C4.91516 2.95847 4.23791 3.239 3.73858 3.73833C3.23924 4.23767 2.95872 4.91491 2.95872 5.62108V12.1297C2.95872 13.6015 4.14949 14.7923 5.62132 14.7923H12.1299C12.8361 14.7923 13.5133 14.5118 14.0127 14.0124C14.512 13.5131 14.7925 12.8358 14.7925 12.1297V5.62108C14.7925 4.14925 13.6017 2.95847 12.1299 2.95847H5.62132ZM12.7586 4.06789C13.0038 4.06789 13.2389 4.1653 13.4123 4.33868C13.5857 4.51206 13.6831 4.74721 13.6831 4.99241C13.6831 5.23761 13.5857 5.47276 13.4123 5.64614C13.2389 5.81952 13.0038 5.91692 12.7586 5.91692C12.5134 5.91692 12.2782 5.81952 12.1049 5.64614C11.9315 5.47276 11.8341 5.23761 11.8341 4.99241C11.8341 4.74721 11.9315 4.51206 12.1049 4.33868C12.2782 4.1653 12.5134 4.06789 12.7586 4.06789ZM8.87562 5.17731C9.85641 5.17731 10.797 5.56693 11.4905 6.26045C12.1841 6.95397 12.5737 7.89459 12.5737 8.87538C12.5737 9.85616 12.1841 10.7968 11.4905 11.4903C10.797 12.1838 9.85641 12.5734 8.87562 12.5734C7.89483 12.5734 6.95422 12.1838 6.26069 11.4903C5.56717 10.7968 5.17756 9.85616 5.17756 8.87538C5.17756 7.89459 5.56717 6.95397 6.26069 6.26045C6.95422 5.56693 7.89483 5.17731 8.87562 5.17731ZM8.87562 6.65654C8.28715 6.65654 7.72278 6.89031 7.30666 7.30642C6.89055 7.72253 6.65678 8.2869 6.65678 8.87538C6.65678 9.46385 6.89055 10.0282 7.30666 10.4443C7.72278 10.8604 8.28715 11.0942 8.87562 11.0942C9.46409 11.0942 10.0285 10.8604 10.4446 10.4443C10.8607 10.0282 11.0945 9.46385 11.0945 8.87538C11.0945 8.2869 10.8607 7.72253 10.4446 7.30642C10.0285 6.89031 9.46409 6.65654 8.87562 6.65654Z" fill="#FFFCF7"/>
</svg>
