<svg width="55" height="60" viewBox="0 0 55 60" fill="none" xmlns="http://www.w3.org/2000/svg">
<circle cx="27.5" cy="32.5" r="27.5" fill="#CACACA"/>
<circle cx="27.4922" cy="32.5078" r="24.4922" fill="#3D6CA2"/>
<path d="M29.838 22.5736C29.838 22.5736 27.8556 17.8046 28.004 15.7566C28.5341 8.44145 33.8968 6.31393 33.8968 6.31393" stroke="#6BB96A" stroke-width="3"/>
<path d="M34.1947 5.12066C33.8703 6.87067 31.4822 7.89545 28.8606 7.40956C26.239 6.92368 23.0307 6.57846 23.3551 4.82845C23.6794 3.07844 27.4136 0.586335 30.0351 1.07222C32.6567 1.5581 34.519 3.37065 34.1947 5.12066Z" fill="#6BB96A"/>
<path d="M32.3404 6.01965C32.0166 7.76656 33.7596 9.5544 36.2335 10.0129C38.7074 10.4714 41.6481 11.2654 41.9719 9.5185C42.2957 7.7716 39.8799 4.14531 37.406 3.6868C34.9321 3.22829 32.6642 4.27274 32.3404 6.01965Z" fill="#6BB96A"/>
<circle cx="27.4922" cy="32.5078" r="20.4844" fill="#8EC58D"/>
<ellipse cx="23.0947" cy="34.7344" rx="1.3916" ry="2.22656" fill="black"/>
<ellipse cx="32.8359" cy="34.7344" rx="1.33594" ry="2.22656" fill="black"/>
<path d="M18.1406 39.6328C18.1406 39.6328 27.5093 52.6582 36.8862 39.6328" stroke="black"/>
</svg>
