<svg width="71" height="81" viewBox="0 0 71 81" fill="none" xmlns="http://www.w3.org/2000/svg">
<path d="M35.1786 77.5366C35.1786 77.5366 24.8599 61.6909 24.0277 54.2194C21.0551 27.5309 38.9414 16.2937 38.9414 16.2937" stroke="#6BB96A" stroke-width="10"/>
<path d="M39.2177 11.7991C39.2177 18.3155 31.3041 23.5982 21.5421 23.5982C11.7802 23.5982 0 24.496 0 17.9796C0 11.4631 11.7802 0 21.5421 0C31.3041 0 39.2177 5.28263 39.2177 11.7991Z" fill="#6BB96A"/>
<path d="M33.1412 16.2728C33.1412 22.7777 40.609 28.051 49.8209 28.051C59.0329 28.051 70.1494 28.9472 70.1494 22.4423C70.1494 15.9374 59.0329 4.49463 49.8209 4.49463C40.609 4.49463 33.1412 9.7679 33.1412 16.2728Z" fill="#6BB96A"/>
</svg>
