<svg width="20" height="20" viewBox="0 0 20 20" fill="none" xmlns="http://www.w3.org/2000/svg">
<path d="M7.9 2.89062C6.48867 2.21679 4.51602 1.88671 1.875 1.87499C1.62593 1.87161 1.38174 1.94424 1.175 2.08319C1.00531 2.19789 0.866402 2.35253 0.770498 2.53351C0.674593 2.71449 0.62463 2.91626 0.625002 3.12108V14.2969C0.625002 15.0523 1.1625 15.6223 1.875 15.6223C4.65117 15.6223 7.43594 15.8816 9.10391 17.4582C9.12672 17.4799 9.15541 17.4943 9.18638 17.4998C9.21736 17.5053 9.24928 17.5016 9.27816 17.4891C9.30704 17.4767 9.33162 17.456 9.34883 17.4296C9.36605 17.4033 9.37515 17.3725 9.375 17.341V4.17265C9.37504 4.08381 9.35603 3.99599 9.31923 3.91512C9.28244 3.83426 9.22873 3.76223 9.16172 3.7039C8.77965 3.37727 8.35525 3.10371 7.9 2.89062ZM18.825 2.08202C18.6182 1.94341 18.374 1.87119 18.125 1.87499C15.484 1.88671 13.5113 2.21522 12.1 2.89062C11.6448 3.10332 11.2203 3.37634 10.8379 3.70233C10.771 3.76075 10.7174 3.83281 10.6807 3.91366C10.644 3.99451 10.625 4.08228 10.625 4.17108V17.3402C10.625 17.3705 10.6339 17.4 10.6506 17.4252C10.6673 17.4504 10.6911 17.4701 10.719 17.4818C10.7469 17.4935 10.7776 17.4968 10.8073 17.4911C10.837 17.4855 10.8643 17.4711 10.8859 17.45C11.8887 16.4539 13.6484 15.6211 18.1266 15.6215C18.4581 15.6215 18.776 15.4898 19.0104 15.2554C19.2449 15.0209 19.3766 14.703 19.3766 14.3715V3.12147C19.377 2.91625 19.3269 2.71407 19.2307 2.53279C19.1346 2.3515 18.9952 2.19669 18.825 2.08202Z" fill="#1E4168"/>
</svg>
