<svg width="100" height="100" viewBox="0 0 100 100" fill="none" xmlns="http://www.w3.org/2000/svg">
<circle cx="50" cy="50" r="50" fill="url(#paint0_radial_792_942)"/>
<path d="M75.0001 64.6326C75.0001 65.2576 74.8751 65.8826 74.6251 66.4576C74.3833 67.0338 74.0356 67.5595 73.6001 68.0076C73.1476 68.4351 72.6226 68.7826 72.0501 69.0326C71.4629 69.2716 70.8339 69.3906 70.2001 69.3826C67.3707 69.3348 64.5449 69.6031 61.7751 70.1826C58.4929 70.5697 55.3309 71.6521 52.5001 73.3576V36.0826C55.2276 34.7826 58.1501 33.9376 61.1501 33.5826C64.2033 32.9766 67.3128 32.7 70.4251 32.7576C71.6649 32.8264 72.8298 33.373 73.6751 34.2826C74.5001 35.1626 74.9576 36.3251 74.9501 37.5326L75.0001 64.6326ZM47.5001 36.0826V73.3576C44.7159 71.6686 41.6064 70.5867 38.3751 70.1826C35.5533 69.6119 32.6787 69.3437 29.8001 69.3826C29.1662 69.3906 28.5372 69.2716 27.9501 69.0326C27.379 68.7813 26.8549 68.4347 26.4001 68.0076C25.9543 67.5679 25.6052 67.04 25.3751 66.4576C25.1241 65.8821 24.9964 65.2604 25.0001 64.6326V37.3826C25.004 36.1775 25.4659 35.0188 26.2922 34.1415C27.1184 33.2642 28.2473 32.7337 29.4501 32.6576C32.6293 32.5772 35.8076 32.854 38.9251 33.4826C41.9093 33.861 44.8083 34.74 47.5001 36.0826Z" fill="black"/>
<defs>
<radialGradient id="paint0_radial_792_942" cx="0" cy="0" r="1" gradientUnits="userSpaceOnUse" gradientTransform="translate(50 50) rotate(90) scale(50)">
<stop stop-color="#3D6CA2"/>
<stop offset="1" stop-color="#9FC0E5"/>
</radialGradient>
</defs>
</svg>
