<svg width="30" height="29" viewBox="0 0 30 29" fill="none" xmlns="http://www.w3.org/2000/svg">
<path d="M21.1545 4.97238C25.1943 4.97238 28.2835 9.29736 28.2835 14.4778V20.4187C28.2835 20.7339 28.1584 21.0361 27.9355 21.2589C27.7127 21.4817 27.4105 21.6069 27.0954 21.6069H25.704C25.458 22.3018 25.0027 22.9034 24.4008 23.3289C23.7988 23.7544 23.0798 23.9828 22.3426 23.9828C21.6055 23.9828 20.8865 23.7544 20.2845 23.3289C19.6825 22.9034 19.2272 22.3018 18.9813 21.6069H11.4458C11.1999 22.3018 10.7446 22.9034 10.1426 23.3289C9.54064 23.7544 8.82161 23.9828 8.08446 23.9828C7.34731 23.9828 6.62828 23.7544 6.02632 23.3289C5.42436 22.9034 4.96907 22.3018 4.7231 21.6069H3.33174C3.01661 21.6069 2.71439 21.4817 2.49156 21.2589C2.26874 21.0361 2.14355 20.7339 2.14355 20.4187V7.34874C2.14355 6.71849 2.39392 6.11406 2.83958 5.6684C3.28523 5.22275 3.88967 4.97238 4.51992 4.97238H21.1545ZM8.08446 19.2306C7.76933 19.2306 7.46712 19.3557 7.24429 19.5786C7.02146 19.8014 6.89628 20.1036 6.89628 20.4187C6.89628 20.7339 7.02146 21.0361 7.24429 21.2589C7.46712 21.4817 7.76933 21.6069 8.08446 21.6069C8.39959 21.6069 8.7018 21.4817 8.92463 21.2589C9.14746 21.0361 9.27264 20.7339 9.27264 20.4187C9.27264 20.1036 9.14746 19.8014 8.92463 19.5786C8.7018 19.3557 8.39959 19.2306 8.08446 19.2306ZM22.3426 19.2306C22.0275 19.2306 21.7253 19.3557 21.5025 19.5786C21.2796 19.8014 21.1545 20.1036 21.1545 20.4187C21.1545 20.7339 21.2796 21.0361 21.5025 21.2589C21.7253 21.4817 22.0275 21.6069 22.3426 21.6069C22.6578 21.6069 22.96 21.4817 23.1828 21.2589C23.4056 21.0361 23.5308 20.7339 23.5308 20.4187C23.5308 20.1036 23.4056 19.8014 23.1828 19.5786C22.96 19.3557 22.6578 19.2306 22.3426 19.2306ZM21.4396 7.36181L22.7086 13.2896H25.8406C25.4687 10.015 23.589 7.56262 21.4396 7.36181ZM8.08446 7.34874H4.51992V10.9133H8.08446V7.34874ZM14.0254 7.34874H10.4608V10.9133H14.0254V7.34874ZM19.005 7.34874H16.4017V10.9133H19.769L19.005 7.34874Z" fill="black"/>
</svg>
