<svg width="165" height="175" viewBox="0 0 165 175" fill="none" xmlns="http://www.w3.org/2000/svg">
<path d="M40.7213 94.2065C27.5926 96.6397 21.0305 111.525 28.0901 122.858C58.2084 171.21 132 157.655 143.638 101.892C146.401 88.6534 134.87 76.7571 121.572 79.2216L40.7213 94.2065Z" fill="#C38C5C"/>
<path d="M84.8364 88.6012C84.8364 88.6012 71.8028 74.9012 69.623 67.7065C61.8366 42.0067 77.3756 27.6981 77.3756 27.6981" stroke="#6BB96A" stroke-width="10"/>
<rect x="13.0034" y="95.6286" width="139.747" height="26.9694" rx="13.4847" transform="rotate(-10.5 13.0034 95.6286)" fill="#89542F"/>
<path d="M76.8279 23.2278C78.0154 29.6351 71.197 36.2714 61.5985 38.0504C52 39.8294 40.5807 42.8589 39.3932 36.4516C38.2057 30.0443 47.6996 16.6263 57.2981 14.8474C66.8966 13.0684 75.6404 16.8204 76.8279 23.2278Z" fill="#6BB96A"/>
<path d="M71.669 28.7345C72.8544 35.1305 81.1582 38.9546 90.2159 37.2758C99.2736 35.5971 110.367 34.4525 109.182 28.0565C107.996 21.6605 94.9808 12.4352 85.9231 14.1139C76.8653 15.7927 70.4836 22.3385 71.669 28.7345Z" fill="#6BB96A"/>
</svg>
