<svg width="46" height="45" viewBox="0 0 46 45" fill="none" xmlns="http://www.w3.org/2000/svg">
<path d="M15.3044 5.43948C17.6325 -1.81316 27.8942 -1.81316 30.2223 5.43948C31.2628 8.68065 34.2847 10.879 37.6887 10.879C45.3057 10.879 48.4058 20.6972 42.2695 25.2099C39.5317 27.2233 38.373 30.8305 39.4117 34.0663C41.7301 41.2887 33.5078 47.4563 27.397 42.9623C24.6405 40.9352 20.8863 40.9352 18.1298 42.9623C12.0189 47.4563 3.79662 41.2887 6.11505 34.0663C7.15375 30.8305 5.99505 27.2233 3.25724 25.2099C-2.87907 20.6972 0.22104 10.879 7.83802 10.879C11.2421 10.879 14.264 8.68065 15.3044 5.43948Z" fill="#90BD7D"/>
</svg>
