<svg width="50" height="50" viewBox="0 0 50 50" fill="none" xmlns="http://www.w3.org/2000/svg">
<circle cx="25" cy="25" r="25" fill="#164274"/>
<path d="M19.75 12.5H30.25C34.25 12.5 37.5 15.75 37.5 19.75V30.25C37.5 32.1728 36.7362 34.0169 35.3765 35.3765C34.0169 36.7362 32.1728 37.5 30.25 37.5H19.75C15.75 37.5 12.5 34.25 12.5 30.25V19.75C12.5 17.8272 13.2638 15.9831 14.6235 14.6235C15.9831 13.2638 17.8272 12.5 19.75 12.5ZM19.5 15C18.3065 15 17.1619 15.4741 16.318 16.318C15.4741 17.1619 15 18.3065 15 19.5V30.5C15 32.9875 17.0125 35 19.5 35H30.5C31.6935 35 32.8381 34.5259 33.682 33.682C34.5259 32.8381 35 31.6935 35 30.5V19.5C35 17.0125 32.9875 15 30.5 15H19.5ZM31.5625 16.875C31.9769 16.875 32.3743 17.0396 32.6674 17.3326C32.9604 17.6257 33.125 18.0231 33.125 18.4375C33.125 18.8519 32.9604 19.2493 32.6674 19.5424C32.3743 19.8354 31.9769 20 31.5625 20C31.1481 20 30.7507 19.8354 30.4576 19.5424C30.1646 19.2493 30 18.8519 30 18.4375C30 18.0231 30.1646 17.6257 30.4576 17.3326C30.7507 17.0396 31.1481 16.875 31.5625 16.875ZM25 18.75C26.6576 18.75 28.2473 19.4085 29.4194 20.5806C30.5915 21.7527 31.25 23.3424 31.25 25C31.25 26.6576 30.5915 28.2473 29.4194 29.4194C28.2473 30.5915 26.6576 31.25 25 31.25C23.3424 31.25 21.7527 30.5915 20.5806 29.4194C19.4085 28.2473 18.75 26.6576 18.75 25C18.75 23.3424 19.4085 21.7527 20.5806 20.5806C21.7527 19.4085 23.3424 18.75 25 18.75ZM25 21.25C24.0054 21.25 23.0516 21.6451 22.3483 22.3483C21.6451 23.0516 21.25 24.0054 21.25 25C21.25 25.9946 21.6451 26.9484 22.3483 27.6517C23.0516 28.3549 24.0054 28.75 25 28.75C25.9946 28.75 26.9484 28.3549 27.6517 27.6517C28.3549 26.9484 28.75 25.9946 28.75 25C28.75 24.0054 28.3549 23.0516 27.6517 22.3483C26.9484 21.6451 25.9946 21.25 25 21.25Z" fill="#FFFCF7"/>
</svg>
