<svg width="50" height="50" viewBox="0 0 50 50" fill="none" xmlns="http://www.w3.org/2000/svg">
<circle cx="25" cy="25" r="25" fill="#90BD7D"/>
<path d="M22.6437 37.2638C23.4012 37.8888 24.1912 38.46 25 39.0175C25.8105 38.4674 26.5967 37.8823 27.3563 37.2638C28.6225 36.224 29.8142 35.0967 30.9225 33.89C33.4775 31.0962 36.25 27.0463 36.25 22.5C36.25 21.0226 35.959 19.5597 35.3936 18.1948C34.8283 16.8299 33.9996 15.5897 32.955 14.545C31.9103 13.5004 30.6701 12.6717 29.3052 12.1064C27.9403 11.541 26.4774 11.25 25 11.25C23.5226 11.25 22.0597 11.541 20.6948 12.1064C19.3299 12.6717 18.0897 13.5004 17.045 14.545C16.0004 15.5897 15.1717 16.8299 14.6064 18.1948C14.041 19.5597 13.75 21.0226 13.75 22.5C13.75 27.0463 16.5225 31.095 19.0775 33.89C20.1858 35.0971 21.3775 36.2236 22.6437 37.2638ZM25 26.5625C23.9226 26.5625 22.8892 26.1345 22.1274 25.3726C21.3655 24.6108 20.9375 23.5774 20.9375 22.5C20.9375 21.4226 21.3655 20.3892 22.1274 19.6274C22.8892 18.8655 23.9226 18.4375 25 18.4375C26.0774 18.4375 27.1108 18.8655 27.8726 19.6274C28.6345 20.3892 29.0625 21.4226 29.0625 22.5C29.0625 23.5774 28.6345 24.6108 27.8726 25.3726C27.1108 26.1345 26.0774 26.5625 25 26.5625Z" fill="#FFFCF7"/>
</svg>
