<svg width="20" height="20" viewBox="0 0 20 20" fill="none" xmlns="http://www.w3.org/2000/svg">
<path d="M9.99967 10C9.08301 10 8.29829 9.67361 7.64551 9.02083C6.99273 8.36805 6.66634 7.58333 6.66634 6.66666C6.66634 5.74999 6.99273 4.96527 7.64551 4.3125C8.29829 3.65972 9.08301 3.33333 9.99967 3.33333C10.9163 3.33333 11.7011 3.65972 12.3538 4.3125C13.0066 4.96527 13.333 5.74999 13.333 6.66666C13.333 7.58333 13.0066 8.36805 12.3538 9.02083C11.7011 9.67361 10.9163 10 9.99967 10ZM3.33301 15V14.3333C3.33301 13.8611 3.45467 13.4272 3.69801 13.0317C3.94134 12.6361 4.26412 12.3339 4.66634 12.125C5.52745 11.6944 6.40245 11.3717 7.29134 11.1567C8.18023 10.9417 9.08301 10.8339 9.99967 10.8333C10.9163 10.8328 11.8191 10.9406 12.708 11.1567C13.5969 11.3728 14.4719 11.6956 15.333 12.125C15.7358 12.3333 16.0588 12.6356 16.3022 13.0317C16.5455 13.4278 16.6669 13.8617 16.6663 14.3333V15C16.6663 15.4583 16.5033 15.8508 16.1772 16.1775C15.8511 16.5042 15.4586 16.6672 14.9997 16.6667H4.99967C4.54134 16.6667 4.14912 16.5036 3.82301 16.1775C3.4969 15.8514 3.33356 15.4589 3.33301 15Z" fill="#DEA319"/>
</svg>
