<svg width="27" height="27" viewBox="0 0 27 27" fill="none" xmlns="http://www.w3.org/2000/svg">
<path d="M7.29496 1C8.01439 1 10.8921 7.47482 10.8921 8.19424C10.8921 9.63309 8.73381 11.0719 8.01439 12.5108C7.29496 13.9496 8.73381 15.3885 10.1727 16.8273C10.7338 17.3885 13.0504 19.705 14.4892 18.9856C15.9281 18.2662 17.3669 16.1079 18.8058 16.1079C19.5252 16.1079 26 18.9856 26 19.705C26 22.5827 23.8417 24.741 21.6835 25.4604C19.5252 26.1799 18.0863 26.1799 15.2086 25.4604C12.3309 24.741 10.1727 24.0216 6.57554 20.4245C2.97842 16.8273 2.25899 14.6691 1.53957 11.7914C0.820144 8.91367 0.820144 7.47482 1.53957 5.31655C2.25899 3.15827 4.41727 1 7.29496 1Z" fill="#FFFCF7" stroke="#FFFCF7" stroke-width="2" stroke-linecap="round" stroke-linejoin="round"/>
</svg>
