<svg width="50" height="50" viewBox="0 0 50 50" fill="none" xmlns="http://www.w3.org/2000/svg">
<circle cx="25" cy="25" r="25" fill="#90BD7D"/>
<path d="M20 13.75C20.625 13.75 23.125 19.375 23.125 20C23.125 21.25 21.25 22.5 20.625 23.75C20 25 21.25 26.25 22.5 27.5C22.9875 27.9875 25 30 26.25 29.375C27.5 28.75 28.75 26.875 30 26.875C30.625 26.875 36.25 29.375 36.25 30C36.25 32.5 34.375 34.375 32.5 35C30.625 35.625 29.375 35.625 26.875 35C24.375 34.375 22.5 33.75 19.375 30.625C16.25 27.5 15.625 25.625 15 23.125C14.375 20.625 14.375 19.375 15 17.5C15.625 15.625 17.5 13.75 20 13.75Z" fill="#FFFCF7" stroke="#FFFCF7" stroke-width="2" stroke-linecap="round" stroke-linejoin="round"/>
</svg>
