<svg width="100" height="100" viewBox="0 0 100 100" fill="none" xmlns="http://www.w3.org/2000/svg">
<path fill-rule="evenodd" clip-rule="evenodd" d="M4.16667 50C4.16667 24.6875 24.6875 4.16669 50 4.16669C75.3125 4.16669 95.8333 24.6875 95.8333 50C95.8333 75.3125 75.3125 95.8334 50 95.8334H0.816666L12.7583 76.725C7.15695 68.941 4.15072 59.5899 4.16667 50ZM49.7417 31.25C47.5315 31.25 45.4119 32.128 43.8491 33.6908C42.2863 35.2536 41.4083 37.3732 41.4083 39.5834V41.9H33.075V39.5834C33.075 35.1631 34.8309 30.9238 37.9566 27.7982C41.0822 24.6726 45.3214 22.9167 49.7417 22.9167C54.1619 22.9167 58.4012 24.6726 61.5268 27.7982C64.6524 30.9238 66.4083 35.1631 66.4083 39.5834V43.7709L65.0083 45.0125L53.9083 54.8792V60.4167H45.575V51.1375L46.9708 49.8959L58.075 40.025V39.5834C58.075 37.3732 57.197 35.2536 55.6342 33.6908C54.0714 32.128 51.9518 31.25 49.7417 31.25ZM45.575 75V66.6667H53.9083V75H45.575Z" fill="black"/>
</svg>
