<svg width="30" height="30" viewBox="0 0 30 30" fill="none" xmlns="http://www.w3.org/2000/svg">
<path d="M11.25 6.25C11.913 6.25 12.5489 6.51339 13.0178 6.98223C13.4866 7.45107 13.75 8.08696 13.75 8.75V16.25C13.75 20.1625 11.6875 22.7412 7.80375 23.7125C7.64408 23.7537 7.47783 23.7629 7.31459 23.7396C7.15134 23.7163 6.99432 23.6609 6.85257 23.5766C6.71083 23.4924 6.58716 23.3809 6.48868 23.2486C6.39021 23.1163 6.31888 22.9659 6.27881 22.8059C6.23874 22.646 6.23071 22.4797 6.25519 22.3166C6.27968 22.1535 6.33619 21.9969 6.42146 21.8557C6.50674 21.7146 6.6191 21.5917 6.75208 21.4942C6.88505 21.3967 7.03601 21.3264 7.19625 21.2875C9.98 20.5912 11.25 19.0037 11.25 16.25V15H7.5C6.86928 15.0002 6.26179 14.762 5.79931 14.3331C5.33684 13.9043 5.05355 13.3164 5.00625 12.6875L5 12.5V8.75C5 8.08696 5.26339 7.45107 5.73223 6.98223C6.20107 6.51339 6.83696 6.25 7.5 6.25H11.25ZM22.5 6.25C23.163 6.25 23.7989 6.51339 24.2678 6.98223C24.7366 7.45107 25 8.08696 25 8.75V16.25C25 20.1625 22.9375 22.7412 19.0538 23.7125C18.8941 23.7537 18.7278 23.7629 18.5646 23.7396C18.4013 23.7163 18.2443 23.6609 18.1026 23.5766C17.9608 23.4924 17.8372 23.3809 17.7387 23.2486C17.6402 23.1163 17.5689 22.9659 17.5288 22.8059C17.4887 22.646 17.4807 22.4797 17.5052 22.3166C17.5297 22.1535 17.5862 21.9969 17.6715 21.8557C17.7567 21.7146 17.8691 21.5917 18.0021 21.4942C18.1351 21.3967 18.286 21.3264 18.4462 21.2875C21.23 20.5912 22.5 19.0037 22.5 16.25V15H18.75C18.1193 15.0002 17.5118 14.762 17.0493 14.3331C16.5868 13.9043 16.3036 13.3164 16.2563 12.6875L16.25 12.5V8.75C16.25 8.08696 16.5134 7.45107 16.9822 6.98223C17.4511 6.51339 18.087 6.25 18.75 6.25H22.5Z" fill="black"/>
</svg>
