<svg width="334" height="102" viewBox="0 0 334 102" fill="none" xmlns="http://www.w3.org/2000/svg">
<path d="M88.82 10V3.06H89.48L92.42 7.89H91.97L94.91 3.06H95.57V10H94.63V4.71L94.85 4.77L92.53 8.58H91.87L89.55 4.77L89.76 4.71V10H88.82ZM99.2187 10.1C98.752 10.1 98.332 9.99 97.9587 9.77C97.5853 9.55 97.2887 9.25333 97.0687 8.88C96.8487 8.5 96.7387 8.07667 96.7387 7.61C96.7387 7.15 96.8487 6.73667 97.0687 6.37C97.2887 5.99667 97.5853 5.7 97.9587 5.48C98.332 5.26 98.752 5.15 99.2187 5.15C99.6787 5.15 100.095 5.26 100.469 5.48C100.849 5.69333 101.149 5.98667 101.369 6.36C101.589 6.73333 101.699 7.15 101.699 7.61C101.699 8.07667 101.589 8.5 101.369 8.88C101.149 9.25333 100.849 9.55 100.469 9.77C100.095 9.99 99.6787 10.1 99.2187 10.1ZM99.2187 9.23C99.5187 9.23 99.7853 9.16 100.019 9.02C100.252 8.88 100.435 8.69 100.569 8.45C100.702 8.20333 100.769 7.92333 100.769 7.61C100.769 7.30333 100.699 7.03 100.559 6.79C100.425 6.55 100.242 6.36333 100.009 6.23C99.782 6.09 99.5187 6.02 99.2187 6.02C98.9187 6.02 98.652 6.09 98.4187 6.23C98.1853 6.36333 98.002 6.55 97.8687 6.79C97.7353 7.03 97.6687 7.30333 97.6687 7.61C97.6687 7.92333 97.7353 8.20333 97.8687 8.45C98.002 8.69 98.1853 8.88 98.4187 9.02C98.652 9.16 98.9187 9.23 99.2187 9.23ZM106.073 10V7.23C106.073 6.87 105.959 6.57333 105.733 6.34C105.506 6.10667 105.213 5.99 104.853 5.99C104.613 5.99 104.399 6.04333 104.213 6.15C104.026 6.25667 103.879 6.40333 103.773 6.59C103.666 6.77667 103.613 6.99 103.613 7.23L103.243 7.02C103.243 6.66 103.323 6.34 103.483 6.06C103.643 5.78 103.866 5.56 104.153 5.4C104.439 5.23333 104.763 5.15 105.123 5.15C105.483 5.15 105.799 5.24 106.073 5.42C106.353 5.6 106.573 5.83667 106.733 6.13C106.893 6.41667 106.973 6.72333 106.973 7.05V10H106.073ZM102.713 10V5.25H103.613V10H102.713Z" fill="black"/>
<path d="M144.66 10V3.26H145.6V10H144.66ZM142.3 3.92V3.06H147.95V3.92H142.3ZM149.843 10.1C149.457 10.1 149.107 10.0133 148.793 9.84C148.487 9.66 148.247 9.41333 148.073 9.1C147.9 8.78667 147.813 8.42333 147.813 8.01V5.25H148.713V7.97C148.713 8.23 148.757 8.45667 148.843 8.65C148.937 8.83667 149.07 8.98 149.243 9.08C149.417 9.18 149.62 9.23 149.853 9.23C150.207 9.23 150.483 9.12 150.683 8.9C150.883 8.67333 150.983 8.36333 150.983 7.97V5.25H151.883V8.01C151.883 8.42333 151.797 8.78667 151.623 9.1C151.45 9.41333 151.21 9.66 150.903 9.84C150.603 10.0133 150.25 10.1 149.843 10.1ZM155.29 10.1C154.816 10.1 154.39 9.99333 154.01 9.78C153.63 9.56 153.33 9.26333 153.11 8.89C152.89 8.51667 152.78 8.09333 152.78 7.62C152.78 7.15333 152.886 6.73333 153.1 6.36C153.32 5.98667 153.613 5.69333 153.98 5.48C154.353 5.26 154.77 5.15 155.23 5.15C155.67 5.15 156.056 5.25 156.39 5.45C156.73 5.65 156.993 5.92667 157.18 6.28C157.373 6.63333 157.47 7.03333 157.47 7.48C157.47 7.54667 157.466 7.62 157.46 7.7C157.453 7.77333 157.44 7.86 157.42 7.96H153.41V7.21H156.94L156.61 7.5C156.61 7.18 156.553 6.91 156.44 6.69C156.326 6.46333 156.166 6.29 155.96 6.17C155.753 6.04333 155.503 5.98 155.21 5.98C154.903 5.98 154.633 6.04667 154.4 6.18C154.166 6.31333 153.986 6.5 153.86 6.74C153.733 6.98 153.67 7.26333 153.67 7.59C153.67 7.92333 153.736 8.21667 153.87 8.47C154.003 8.71667 154.193 8.91 154.44 9.05C154.686 9.18333 154.97 9.25 155.29 9.25C155.556 9.25 155.8 9.20333 156.02 9.11C156.246 9.01667 156.44 8.87667 156.6 8.69L157.18 9.28C156.953 9.54667 156.673 9.75 156.34 9.89C156.013 10.03 155.663 10.1 155.29 10.1Z" fill="black"/>
<path d="M194.59 10L192.32 3.06H193.26L195.06 8.72H194.79L196.56 3.06H197.24L199.01 8.72H198.75L200.55 3.06H201.48L199.22 10H198.55L196.77 4.35H197.03L195.26 10H194.59ZM203.942 10.1C203.469 10.1 203.042 9.99333 202.662 9.78C202.282 9.56 201.982 9.26333 201.762 8.89C201.542 8.51667 201.432 8.09333 201.432 7.62C201.432 7.15333 201.539 6.73333 201.752 6.36C201.972 5.98667 202.265 5.69333 202.632 5.48C203.005 5.26 203.422 5.15 203.882 5.15C204.322 5.15 204.709 5.25 205.042 5.45C205.382 5.65 205.645 5.92667 205.832 6.28C206.025 6.63333 206.122 7.03333 206.122 7.48C206.122 7.54667 206.119 7.62 206.112 7.7C206.105 7.77333 206.092 7.86 206.072 7.96H202.062V7.21H205.592L205.262 7.5C205.262 7.18 205.205 6.91 205.092 6.69C204.979 6.46333 204.819 6.29 204.612 6.17C204.405 6.04333 204.155 5.98 203.862 5.98C203.555 5.98 203.285 6.04667 203.052 6.18C202.819 6.31333 202.639 6.5 202.512 6.74C202.385 6.98 202.322 7.26333 202.322 7.59C202.322 7.92333 202.389 8.21667 202.522 8.47C202.655 8.71667 202.845 8.91 203.092 9.05C203.339 9.18333 203.622 9.25 203.942 9.25C204.209 9.25 204.452 9.20333 204.672 9.11C204.899 9.01667 205.092 8.87667 205.252 8.69L205.832 9.28C205.605 9.54667 205.325 9.75 204.992 9.89C204.665 10.03 204.315 10.1 203.942 10.1ZM209.113 10.1C208.673 10.1 208.28 9.99333 207.933 9.78C207.587 9.56 207.31 9.26333 207.103 8.89C206.903 8.51667 206.803 8.09667 206.803 7.63C206.803 7.16333 206.903 6.74333 207.103 6.37C207.31 5.99667 207.587 5.7 207.933 5.48C208.28 5.26 208.673 5.15 209.113 5.15C209.467 5.15 209.787 5.22667 210.073 5.38C210.36 5.52667 210.59 5.73333 210.763 6C210.943 6.26 211.043 6.56333 211.063 6.91V8.34C211.043 8.68 210.947 8.98333 210.773 9.25C210.6 9.51667 210.37 9.72667 210.083 9.88C209.797 10.0267 209.473 10.1 209.113 10.1ZM209.263 9.25C209.563 9.25 209.823 9.18 210.043 9.04C210.27 8.9 210.447 8.71 210.573 8.47C210.7 8.22333 210.763 7.94333 210.763 7.63C210.763 7.30333 210.697 7.02 210.563 6.78C210.437 6.54 210.26 6.35 210.033 6.21C209.813 6.07 209.553 6 209.253 6C208.953 6 208.69 6.07 208.463 6.21C208.237 6.35 208.057 6.54333 207.923 6.79C207.797 7.03 207.733 7.30667 207.733 7.62C207.733 7.94 207.797 8.22333 207.923 8.47C208.057 8.71 208.237 8.9 208.463 9.04C208.697 9.18 208.963 9.25 209.263 9.25ZM211.613 10H210.703V8.72L210.873 7.56L210.703 6.41V2.86H211.613V10Z" fill="black"/>
<path d="M249.66 10V3.26H250.6V10H249.66ZM247.3 3.92V3.06H252.95V3.92H247.3ZM257.27 10V7.23C257.27 6.87 257.157 6.57333 256.93 6.34C256.703 6.10667 256.41 5.99 256.05 5.99C255.81 5.99 255.597 6.04333 255.41 6.15C255.223 6.25667 255.077 6.40333 254.97 6.59C254.863 6.77667 254.81 6.99 254.81 7.23L254.44 7.02C254.44 6.66 254.52 6.34 254.68 6.06C254.84 5.78 255.063 5.56 255.35 5.4C255.637 5.23333 255.96 5.15 256.32 5.15C256.68 5.15 256.997 5.23 257.27 5.39C257.55 5.55 257.77 5.77333 257.93 6.06C258.09 6.34667 258.17 6.67667 258.17 7.05V10H257.27ZM253.91 10V2.86H254.81V10H253.91ZM261.299 10.1C260.912 10.1 260.562 10.0133 260.249 9.84C259.942 9.66 259.702 9.41333 259.529 9.1C259.355 8.78667 259.269 8.42333 259.269 8.01V5.25H260.169V7.97C260.169 8.23 260.212 8.45667 260.299 8.65C260.392 8.83667 260.525 8.98 260.699 9.08C260.872 9.18 261.075 9.23 261.309 9.23C261.662 9.23 261.939 9.12 262.139 8.9C262.339 8.67333 262.439 8.36333 262.439 7.97V5.25H263.339V8.01C263.339 8.42333 263.252 8.78667 263.079 9.1C262.905 9.41333 262.665 9.66 262.359 9.84C262.059 10.0133 261.705 10.1 261.299 10.1Z" fill="black"/>
<path d="M302.82 10V3.06H303.76V10H302.82ZM303.46 6.95V6.09H307.08V6.95H303.46ZM303.46 3.92V3.06H307.25V3.92H303.46ZM308.324 10V5.25H309.224V10H308.324ZM309.224 7.29L308.884 7.14C308.884 6.53333 309.024 6.05 309.304 5.69C309.584 5.33 309.987 5.15 310.514 5.15C310.754 5.15 310.971 5.19333 311.164 5.28C311.357 5.36 311.537 5.49667 311.704 5.69L311.114 6.3C311.014 6.19333 310.904 6.11667 310.784 6.07C310.664 6.02333 310.524 6 310.364 6C310.031 6 309.757 6.10667 309.544 6.32C309.331 6.53333 309.224 6.85667 309.224 7.29ZM312.348 10V5.25H313.248V10H312.348ZM312.798 4.3C312.631 4.3 312.494 4.24667 312.388 4.14C312.281 4.02667 312.228 3.88667 312.228 3.72C312.228 3.56 312.281 3.42667 312.388 3.32C312.494 3.20667 312.631 3.15 312.798 3.15C312.964 3.15 313.101 3.20667 313.208 3.32C313.314 3.42667 313.368 3.56 313.368 3.72C313.368 3.88667 313.314 4.02667 313.208 4.14C313.101 4.24667 312.964 4.3 312.798 4.3Z" fill="black"/>
<path d="M2.47 43.1C2.01667 43.1 1.60333 43.0167 1.23 42.85C0.863333 42.6767 0.553333 42.4267 0.3 42.1L0.94 41.46C1.09333 41.6933 1.30333 41.88 1.57 42.02C1.83667 42.1533 2.13333 42.22 2.46 42.22C2.76667 42.22 3.03 42.1633 3.25 42.05C3.47667 41.93 3.65333 41.7633 3.78 41.55C3.91333 41.3367 3.98 41.09 3.98 40.81C3.98 40.5233 3.91333 40.2767 3.78 40.07C3.65333 39.8567 3.47333 39.6933 3.24 39.58C3.00667 39.4667 2.73 39.41 2.41 39.41C2.29 39.41 2.17 39.42 2.05 39.44C1.93 39.4533 1.81333 39.4767 1.7 39.51L2.1 38.97C2.22667 38.91 2.36333 38.8633 2.51 38.83C2.65667 38.7967 2.80333 38.78 2.95 38.78C3.32333 38.78 3.65667 38.8667 3.95 39.04C4.25 39.2133 4.48667 39.4567 4.66 39.77C4.84 40.0833 4.93 40.4467 4.93 40.86C4.93 41.3 4.82333 41.69 4.61 42.03C4.40333 42.3633 4.11667 42.6267 3.75 42.82C3.38333 43.0067 2.95667 43.1 2.47 43.1ZM1.7 39.51V38.94L3.73 36.63L4.85 36.62L2.76 38.99L1.7 39.51ZM0.63 36.9V36.06H4.85V36.62L4.03 36.9H0.63ZM6.73086 43.1C6.54419 43.1 6.38753 43.0367 6.26086 42.91C6.14086 42.7767 6.08086 42.6233 6.08086 42.45C6.08086 42.2567 6.14086 42.1 6.26086 41.98C6.38753 41.8533 6.54419 41.79 6.73086 41.79C6.91753 41.79 7.07086 41.8533 7.19086 41.98C7.31753 42.1 7.38086 42.2567 7.38086 42.45C7.38086 42.6233 7.31753 42.7767 7.19086 42.91C7.07086 43.0367 6.91753 43.1 6.73086 43.1ZM6.73086 39.98C6.54419 39.98 6.38753 39.9167 6.26086 39.79C6.14086 39.6633 6.08086 39.51 6.08086 39.33C6.08086 39.1367 6.14086 38.98 6.26086 38.86C6.38753 38.7333 6.54419 38.67 6.73086 38.67C6.91753 38.67 7.07086 38.7333 7.19086 38.86C7.31753 38.98 7.38086 39.1367 7.38086 39.33C7.38086 39.51 7.31753 39.6633 7.19086 39.79C7.07086 39.9167 6.91753 39.98 6.73086 39.98ZM11.3957 43.1C10.8757 43.1 10.399 42.9533 9.9657 42.66C9.53904 42.3667 9.19904 41.9533 8.9457 41.42C8.69237 40.88 8.5657 40.2467 8.5657 39.52C8.5657 38.7933 8.68904 38.1633 8.9357 37.63C9.18904 37.0967 9.52904 36.6867 9.9557 36.4C10.3824 36.1067 10.8524 35.96 11.3657 35.96C11.8924 35.96 12.369 36.1067 12.7957 36.4C13.2224 36.6867 13.559 37.0967 13.8057 37.63C14.059 38.1633 14.1857 38.7967 14.1857 39.53C14.1857 40.2567 14.059 40.89 13.8057 41.43C13.559 41.9633 13.2224 42.3767 12.7957 42.67C12.3757 42.9567 11.909 43.1 11.3957 43.1ZM11.3757 42.21C11.7424 42.21 12.0624 42.11 12.3357 41.91C12.6157 41.7033 12.8357 41.4 12.9957 41C13.1557 40.6 13.2357 40.1067 13.2357 39.52C13.2357 38.9333 13.1557 38.4433 12.9957 38.05C12.8357 37.65 12.6157 37.35 12.3357 37.15C12.0557 36.9433 11.7324 36.84 11.3657 36.84C11.0057 36.84 10.6857 36.9433 10.4057 37.15C10.1257 37.35 9.9057 37.65 9.7457 38.05C9.59237 38.4433 9.5157 38.9333 9.5157 39.52C9.5157 40.1067 9.59237 40.6 9.7457 41C9.9057 41.4 10.1257 41.7033 10.4057 41.91C10.6857 42.11 11.009 42.21 11.3757 42.21ZM17.9582 43.1C17.4382 43.1 16.9615 42.9533 16.5282 42.66C16.1015 42.3667 15.7615 41.9533 15.5082 41.42C15.2549 40.88 15.1282 40.2467 15.1282 39.52C15.1282 38.7933 15.2515 38.1633 15.4982 37.63C15.7515 37.0967 16.0915 36.6867 16.5182 36.4C16.9449 36.1067 17.4149 35.96 17.9282 35.96C18.4549 35.96 18.9315 36.1067 19.3582 36.4C19.7849 36.6867 20.1215 37.0967 20.3682 37.63C20.6215 38.1633 20.7482 38.7967 20.7482 39.53C20.7482 40.2567 20.6215 40.89 20.3682 41.43C20.1215 41.9633 19.7849 42.3767 19.3582 42.67C18.9382 42.9567 18.4715 43.1 17.9582 43.1ZM17.9382 42.21C18.3049 42.21 18.6249 42.11 18.8982 41.91C19.1782 41.7033 19.3982 41.4 19.5582 41C19.7182 40.6 19.7982 40.1067 19.7982 39.52C19.7982 38.9333 19.7182 38.4433 19.5582 38.05C19.3982 37.65 19.1782 37.35 18.8982 37.15C18.6182 36.9433 18.2949 36.84 17.9282 36.84C17.5682 36.84 17.2482 36.9433 16.9682 37.15C16.6882 37.35 16.4682 37.65 16.3082 38.05C16.1549 38.4433 16.0782 38.9333 16.0782 39.52C16.0782 40.1067 16.1549 40.6 16.3082 41C16.4682 41.4 16.6882 41.7033 16.9682 41.91C17.2482 42.11 17.5715 42.21 17.9382 42.21ZM23.9608 40.88V40.03H27.2508V40.88H23.9608ZM30.3202 40.61L32.8502 36.06H33.9102L31.3302 40.61H30.3202ZM30.3202 41.19V40.61L30.7202 40.35H35.6402V41.19H30.3202ZM33.7102 43V38.41H34.6402V43H33.7102ZM37.3168 43.1C37.1301 43.1 36.9735 43.0367 36.8468 42.91C36.7268 42.7767 36.6668 42.6233 36.6668 42.45C36.6668 42.2567 36.7268 42.1 36.8468 41.98C36.9735 41.8533 37.1301 41.79 37.3168 41.79C37.5035 41.79 37.6568 41.8533 37.7768 41.98C37.9035 42.1 37.9668 42.2567 37.9668 42.45C37.9668 42.6233 37.9035 42.7767 37.7768 42.91C37.6568 43.0367 37.5035 43.1 37.3168 43.1ZM37.3168 39.98C37.1301 39.98 36.9735 39.9167 36.8468 39.79C36.7268 39.6633 36.6668 39.51 36.6668 39.33C36.6668 39.1367 36.7268 38.98 36.8468 38.86C36.9735 38.7333 37.1301 38.67 37.3168 38.67C37.5035 38.67 37.6568 38.7333 37.7768 38.86C37.9035 38.98 37.9668 39.1367 37.9668 39.33C37.9668 39.51 37.9035 39.6633 37.7768 39.79C37.6568 39.9167 37.5035 39.98 37.3168 39.98ZM41.1516 43.1C40.6983 43.1 40.285 43.0167 39.9116 42.85C39.545 42.6767 39.235 42.4267 38.9816 42.1L39.6216 41.46C39.775 41.6933 39.985 41.88 40.2516 42.02C40.5183 42.1533 40.815 42.22 41.1416 42.22C41.4483 42.22 41.7116 42.1633 41.9316 42.05C42.1583 41.93 42.335 41.7633 42.4616 41.55C42.595 41.3367 42.6616 41.09 42.6616 40.81C42.6616 40.5233 42.595 40.2767 42.4616 40.07C42.335 39.8567 42.155 39.6933 41.9216 39.58C41.6883 39.4667 41.4116 39.41 41.0916 39.41C40.9716 39.41 40.8516 39.42 40.7316 39.44C40.6116 39.4533 40.495 39.4767 40.3816 39.51L40.7816 38.97C40.9083 38.91 41.045 38.8633 41.1916 38.83C41.3383 38.7967 41.485 38.78 41.6316 38.78C42.005 38.78 42.3383 38.8667 42.6316 39.04C42.9316 39.2133 43.1683 39.4567 43.3416 39.77C43.5216 40.0833 43.6116 40.4467 43.6116 40.86C43.6116 41.3 43.505 41.69 43.2916 42.03C43.085 42.3633 42.7983 42.6267 42.4316 42.82C42.065 43.0067 41.6383 43.1 41.1516 43.1ZM40.3816 39.51V38.94L42.4116 36.63L43.5316 36.62L41.4416 38.99L40.3816 39.51ZM39.3116 36.9V36.06H43.5316V36.62L42.7116 36.9H39.3116ZM47.3625 43.1C46.8425 43.1 46.3658 42.9533 45.9325 42.66C45.5058 42.3667 45.1658 41.9533 44.9125 41.42C44.6592 40.88 44.5325 40.2467 44.5325 39.52C44.5325 38.7933 44.6558 38.1633 44.9025 37.63C45.1558 37.0967 45.4958 36.6867 45.9225 36.4C46.3492 36.1067 46.8192 35.96 47.3325 35.96C47.8592 35.96 48.3358 36.1067 48.7625 36.4C49.1892 36.6867 49.5258 37.0967 49.7725 37.63C50.0258 38.1633 50.1525 38.7967 50.1525 39.53C50.1525 40.2567 50.0258 40.89 49.7725 41.43C49.5258 41.9633 49.1892 42.3767 48.7625 42.67C48.3425 42.9567 47.8758 43.1 47.3625 43.1ZM47.3425 42.21C47.7092 42.21 48.0292 42.11 48.3025 41.91C48.5825 41.7033 48.8025 41.4 48.9625 41C49.1225 40.6 49.2025 40.1067 49.2025 39.52C49.2025 38.9333 49.1225 38.4433 48.9625 38.05C48.8025 37.65 48.5825 37.35 48.3025 37.15C48.0225 36.9433 47.6992 36.84 47.3325 36.84C46.9725 36.84 46.6525 36.9433 46.3725 37.15C46.0925 37.35 45.8725 37.65 45.7125 38.05C45.5592 38.4433 45.4825 38.9333 45.4825 39.52C45.4825 40.1067 45.5592 40.6 45.7125 41C45.8725 41.4 46.0925 41.7033 46.3725 41.91C46.6525 42.11 46.9758 42.21 47.3425 42.21ZM55.8651 43.1C55.5051 43.1 55.1784 43.0267 54.8851 42.88C54.5984 42.7267 54.3684 42.5167 54.1951 42.25C54.0217 41.9833 53.9251 41.68 53.9051 41.34V39.91C53.9251 39.5633 54.0217 39.26 54.1951 39C54.3751 38.7333 54.6084 38.5267 54.8951 38.38C55.1884 38.2267 55.5117 38.15 55.8651 38.15C56.2984 38.15 56.6884 38.26 57.0351 38.48C57.3884 38.7 57.6651 38.9967 57.8651 39.37C58.0651 39.7433 58.1651 40.1633 58.1651 40.63C58.1651 41.0967 58.0651 41.5167 57.8651 41.89C57.6651 42.2633 57.3884 42.56 57.0351 42.78C56.6884 42.9933 56.2984 43.1 55.8651 43.1ZM53.3651 44.99V38.25H54.2651V39.5L54.0951 40.65L54.2651 41.81V44.99H53.3651ZM55.7151 42.25C56.0151 42.25 56.2784 42.18 56.5051 42.04C56.7317 41.9 56.9117 41.71 57.0451 41.47C57.1784 41.2233 57.2451 40.94 57.2451 40.62C57.2451 40.3067 57.1784 40.0267 57.0451 39.78C56.9117 39.5333 56.7317 39.3433 56.5051 39.21C56.2784 39.07 56.0184 39 55.7251 39C55.4251 39 55.1617 39.07 54.9351 39.21C54.7084 39.3433 54.5317 39.5333 54.4051 39.78C54.2784 40.0267 54.2151 40.31 54.2151 40.63C54.2151 40.9433 54.2751 41.2233 54.3951 41.47C54.5217 41.71 54.6984 41.9 54.9251 42.04C55.1584 42.18 55.4217 42.25 55.7151 42.25ZM59.1854 43V38.25H60.0854V43H59.1854ZM62.3954 43V40.13C62.3954 39.7767 62.2854 39.5 62.0654 39.3C61.8521 39.0933 61.5821 38.99 61.2554 38.99C61.0354 38.99 60.8387 39.0367 60.6654 39.13C60.4921 39.2233 60.3521 39.3533 60.2454 39.52C60.1387 39.6867 60.0854 39.8867 60.0854 40.12L59.7154 39.94C59.7154 39.58 59.7921 39.2667 59.9454 39C60.1054 38.7333 60.3221 38.5267 60.5954 38.38C60.8687 38.2267 61.1754 38.15 61.5154 38.15C61.8487 38.15 62.1487 38.2233 62.4154 38.37C62.6887 38.5167 62.9021 38.7233 63.0554 38.99C63.2154 39.2567 63.2954 39.5733 63.2954 39.94V43H62.3954ZM65.6054 43V40.13C65.6054 39.7767 65.4954 39.5 65.2754 39.3C65.0621 39.0933 64.7954 38.99 64.4754 38.99C64.2554 38.99 64.0554 39.0367 63.8754 39.13C63.7021 39.2233 63.5621 39.3533 63.4554 39.52C63.3487 39.6867 63.2954 39.8867 63.2954 40.12L62.7854 39.94C62.8054 39.5733 62.9021 39.26 63.0754 39C63.2554 38.7333 63.4854 38.5267 63.7654 38.38C64.0454 38.2267 64.3521 38.15 64.6854 38.15C65.0321 38.15 65.3421 38.2233 65.6154 38.37C65.8887 38.5167 66.1054 38.7233 66.2654 38.99C66.4321 39.2567 66.5154 39.5767 66.5154 39.95V43H65.6054Z" fill="black"/>
<path d="M0.33 74.61L2.86 70.06H3.92L1.34 74.61H0.33ZM0.33 75.19V74.61L0.73 74.35H5.65V75.19H0.33ZM3.72 77V72.41H4.65V77H3.72ZM7.32656 77.1C7.1399 77.1 6.98323 77.0367 6.85656 76.91C6.73656 76.7767 6.67656 76.6233 6.67656 76.45C6.67656 76.2567 6.73656 76.1 6.85656 75.98C6.98323 75.8533 7.1399 75.79 7.32656 75.79C7.51323 75.79 7.66656 75.8533 7.78656 75.98C7.91323 76.1 7.97656 76.2567 7.97656 76.45C7.97656 76.6233 7.91323 76.7767 7.78656 76.91C7.66656 77.0367 7.51323 77.1 7.32656 77.1ZM7.32656 73.98C7.1399 73.98 6.98323 73.9167 6.85656 73.79C6.73656 73.6633 6.67656 73.51 6.67656 73.33C6.67656 73.1367 6.73656 72.98 6.85656 72.86C6.98323 72.7333 7.1399 72.67 7.32656 72.67C7.51323 72.67 7.66656 72.7333 7.78656 72.86C7.91323 72.98 7.97656 73.1367 7.97656 73.33C7.97656 73.51 7.91323 73.6633 7.78656 73.79C7.66656 73.9167 7.51323 73.98 7.32656 73.98ZM11.1614 77.1C10.7081 77.1 10.2947 77.0167 9.92141 76.85C9.55474 76.6767 9.24474 76.4267 8.99141 76.1L9.63141 75.46C9.78474 75.6933 9.99474 75.88 10.2614 76.02C10.5281 76.1533 10.8247 76.22 11.1514 76.22C11.4581 76.22 11.7214 76.1633 11.9414 76.05C12.1681 75.93 12.3447 75.7633 12.4714 75.55C12.6047 75.3367 12.6714 75.09 12.6714 74.81C12.6714 74.5233 12.6047 74.2767 12.4714 74.07C12.3447 73.8567 12.1647 73.6933 11.9314 73.58C11.6981 73.4667 11.4214 73.41 11.1014 73.41C10.9814 73.41 10.8614 73.42 10.7414 73.44C10.6214 73.4533 10.5047 73.4767 10.3914 73.51L10.7914 72.97C10.9181 72.91 11.0547 72.8633 11.2014 72.83C11.3481 72.7967 11.4947 72.78 11.6414 72.78C12.0147 72.78 12.3481 72.8667 12.6414 73.04C12.9414 73.2133 13.1781 73.4567 13.3514 73.77C13.5314 74.0833 13.6214 74.4467 13.6214 74.86C13.6214 75.3 13.5147 75.69 13.3014 76.03C13.0947 76.3633 12.8081 76.6267 12.4414 76.82C12.0747 77.0067 11.6481 77.1 11.1614 77.1ZM10.3914 73.51V72.94L12.4214 70.63L13.5414 70.62L11.4514 72.99L10.3914 73.51ZM9.32141 70.9V70.06H13.5414V70.62L12.7214 70.9H9.32141ZM17.3723 77.1C16.8523 77.1 16.3756 76.9533 15.9423 76.66C15.5156 76.3667 15.1756 75.9533 14.9223 75.42C14.6689 74.88 14.5423 74.2467 14.5423 73.52C14.5423 72.7933 14.6656 72.1633 14.9123 71.63C15.1656 71.0967 15.5056 70.6867 15.9323 70.4C16.3589 70.1067 16.8289 69.96 17.3423 69.96C17.8689 69.96 18.3456 70.1067 18.7723 70.4C19.1989 70.6867 19.5356 71.0967 19.7823 71.63C20.0356 72.1633 20.1623 72.7967 20.1623 73.53C20.1623 74.2567 20.0356 74.89 19.7823 75.43C19.5356 75.9633 19.1989 76.3767 18.7723 76.67C18.3523 76.9567 17.8856 77.1 17.3723 77.1ZM17.3523 76.21C17.7189 76.21 18.0389 76.11 18.3123 75.91C18.5923 75.7033 18.8123 75.4 18.9723 75C19.1323 74.6 19.2123 74.1067 19.2123 73.52C19.2123 72.9333 19.1323 72.4433 18.9723 72.05C18.8123 71.65 18.5923 71.35 18.3123 71.15C18.0323 70.9433 17.7089 70.84 17.3423 70.84C16.9823 70.84 16.6623 70.9433 16.3823 71.15C16.1023 71.35 15.8823 71.65 15.7223 72.05C15.5689 72.4433 15.4923 72.9333 15.4923 73.52C15.4923 74.1067 15.5689 74.6 15.7223 75C15.8823 75.4 16.1023 75.7033 16.3823 75.91C16.6623 76.11 16.9856 76.21 17.3523 76.21ZM23.3748 74.88V74.03H26.6648V74.88H23.3748ZM32.2243 77.1C31.7643 77.1 31.351 76.9933 30.9843 76.78C30.6243 76.5667 30.3376 76.28 30.1243 75.92C29.911 75.56 29.8043 75.16 29.8043 74.72C29.8043 74.1067 30.0176 73.4967 30.4443 72.89L32.4843 70.06H33.5743L31.4843 72.91L31.1443 73.09C31.2243 72.95 31.321 72.8333 31.4343 72.74C31.5476 72.64 31.6876 72.5633 31.8543 72.51C32.021 72.4567 32.2176 72.43 32.4443 72.43C32.851 72.43 33.2176 72.5267 33.5443 72.72C33.8776 72.9133 34.1443 73.18 34.3443 73.52C34.551 73.8533 34.6543 74.2433 34.6543 74.69C34.6543 75.13 34.5443 75.5333 34.3243 75.9C34.111 76.2667 33.8176 76.56 33.4443 76.78C33.0776 76.9933 32.671 77.1 32.2243 77.1ZM32.2243 76.22C32.5043 76.22 32.7543 76.1533 32.9743 76.02C33.201 75.88 33.3776 75.6967 33.5043 75.47C33.6376 75.2367 33.7043 74.9767 33.7043 74.69C33.7043 74.4033 33.6376 74.1467 33.5043 73.92C33.3776 73.6867 33.201 73.5033 32.9743 73.37C32.7543 73.2367 32.5043 73.17 32.2243 73.17C31.9443 73.17 31.691 73.2367 31.4643 73.37C31.2443 73.5033 31.0676 73.6867 30.9343 73.92C30.8076 74.1467 30.7443 74.4033 30.7443 74.69C30.7443 74.9767 30.8076 75.2367 30.9343 75.47C31.0676 75.7033 31.2443 75.8867 31.4643 76.02C31.691 76.1533 31.9443 76.22 32.2243 76.22ZM36.3988 77.1C36.2122 77.1 36.0555 77.0367 35.9288 76.91C35.8088 76.7767 35.7488 76.6233 35.7488 76.45C35.7488 76.2567 35.8088 76.1 35.9288 75.98C36.0555 75.8533 36.2122 75.79 36.3988 75.79C36.5855 75.79 36.7388 75.8533 36.8588 75.98C36.9855 76.1 37.0488 76.2567 37.0488 76.45C37.0488 76.6233 36.9855 76.7767 36.8588 76.91C36.7388 77.0367 36.5855 77.1 36.3988 77.1ZM36.3988 73.98C36.2122 73.98 36.0555 73.9167 35.9288 73.79C35.8088 73.6633 35.7488 73.51 35.7488 73.33C35.7488 73.1367 35.8088 72.98 35.9288 72.86C36.0555 72.7333 36.2122 72.67 36.3988 72.67C36.5855 72.67 36.7388 72.7333 36.8588 72.86C36.9855 72.98 37.0488 73.1367 37.0488 73.33C37.0488 73.51 36.9855 73.6633 36.8588 73.79C36.7388 73.9167 36.5855 73.98 36.3988 73.98ZM41.0637 77.1C40.5437 77.1 40.067 76.9533 39.6337 76.66C39.207 76.3667 38.867 75.9533 38.6137 75.42C38.3603 74.88 38.2337 74.2467 38.2337 73.52C38.2337 72.7933 38.357 72.1633 38.6037 71.63C38.857 71.0967 39.197 70.6867 39.6237 70.4C40.0503 70.1067 40.5203 69.96 41.0337 69.96C41.5603 69.96 42.037 70.1067 42.4637 70.4C42.8903 70.6867 43.227 71.0967 43.4737 71.63C43.727 72.1633 43.8537 72.7967 43.8537 73.53C43.8537 74.2567 43.727 74.89 43.4737 75.43C43.227 75.9633 42.8903 76.3767 42.4637 76.67C42.0437 76.9567 41.577 77.1 41.0637 77.1ZM41.0437 76.21C41.4103 76.21 41.7303 76.11 42.0037 75.91C42.2837 75.7033 42.5037 75.4 42.6637 75C42.8237 74.6 42.9037 74.1067 42.9037 73.52C42.9037 72.9333 42.8237 72.4433 42.6637 72.05C42.5037 71.65 42.2837 71.35 42.0037 71.15C41.7237 70.9433 41.4003 70.84 41.0337 70.84C40.6737 70.84 40.3537 70.9433 40.0737 71.15C39.7937 71.35 39.5737 71.65 39.4137 72.05C39.2603 72.4433 39.1837 72.9333 39.1837 73.52C39.1837 74.1067 39.2603 74.6 39.4137 75C39.5737 75.4 39.7937 75.7033 40.0737 75.91C40.3537 76.11 40.677 76.21 41.0437 76.21ZM47.6262 77.1C47.1062 77.1 46.6295 76.9533 46.1962 76.66C45.7695 76.3667 45.4295 75.9533 45.1762 75.42C44.9228 74.88 44.7962 74.2467 44.7962 73.52C44.7962 72.7933 44.9195 72.1633 45.1662 71.63C45.4195 71.0967 45.7595 70.6867 46.1862 70.4C46.6128 70.1067 47.0828 69.96 47.5962 69.96C48.1228 69.96 48.5995 70.1067 49.0262 70.4C49.4528 70.6867 49.7895 71.0967 50.0362 71.63C50.2895 72.1633 50.4162 72.7967 50.4162 73.53C50.4162 74.2567 50.2895 74.89 50.0362 75.43C49.7895 75.9633 49.4528 76.3767 49.0262 76.67C48.6062 76.9567 48.1395 77.1 47.6262 77.1ZM47.6062 76.21C47.9728 76.21 48.2928 76.11 48.5662 75.91C48.8462 75.7033 49.0662 75.4 49.2262 75C49.3862 74.6 49.4662 74.1067 49.4662 73.52C49.4662 72.9333 49.3862 72.4433 49.2262 72.05C49.0662 71.65 48.8462 71.35 48.5662 71.15C48.2862 70.9433 47.9628 70.84 47.5962 70.84C47.2362 70.84 46.9162 70.9433 46.6362 71.15C46.3562 71.35 46.1362 71.65 45.9762 72.05C45.8228 72.4433 45.7462 72.9333 45.7462 73.52C45.7462 74.1067 45.8228 74.6 45.9762 75C46.1362 75.4 46.3562 75.7033 46.6362 75.91C46.9162 76.11 47.2395 76.21 47.6062 76.21ZM56.1288 77.1C55.7688 77.1 55.4421 77.0267 55.1488 76.88C54.8621 76.7267 54.6321 76.5167 54.4588 76.25C54.2854 75.9833 54.1888 75.68 54.1688 75.34V73.91C54.1888 73.5633 54.2854 73.26 54.4588 73C54.6388 72.7333 54.8721 72.5267 55.1588 72.38C55.4521 72.2267 55.7754 72.15 56.1288 72.15C56.5621 72.15 56.9521 72.26 57.2988 72.48C57.6521 72.7 57.9288 72.9967 58.1288 73.37C58.3288 73.7433 58.4288 74.1633 58.4288 74.63C58.4288 75.0967 58.3288 75.5167 58.1288 75.89C57.9288 76.2633 57.6521 76.56 57.2988 76.78C56.9521 76.9933 56.5621 77.1 56.1288 77.1ZM53.6287 78.99V72.25H54.5288V73.5L54.3588 74.65L54.5288 75.81V78.99H53.6287ZM55.9788 76.25C56.2788 76.25 56.5421 76.18 56.7688 76.04C56.9954 75.9 57.1754 75.71 57.3088 75.47C57.4421 75.2233 57.5088 74.94 57.5088 74.62C57.5088 74.3067 57.4421 74.0267 57.3088 73.78C57.1754 73.5333 56.9954 73.3433 56.7688 73.21C56.5421 73.07 56.2821 73 55.9888 73C55.6888 73 55.4254 73.07 55.1988 73.21C54.9721 73.3433 54.7954 73.5333 54.6688 73.78C54.5421 74.0267 54.4788 74.31 54.4788 74.63C54.4788 74.9433 54.5388 75.2233 54.6588 75.47C54.7854 75.71 54.9621 75.9 55.1888 76.04C55.4221 76.18 55.6854 76.25 55.9788 76.25ZM59.4491 77V72.25H60.3491V77H59.4491ZM62.6591 77V74.13C62.6591 73.7767 62.5491 73.5 62.3291 73.3C62.1157 73.0933 61.8457 72.99 61.5191 72.99C61.2991 72.99 61.1024 73.0367 60.9291 73.13C60.7557 73.2233 60.6157 73.3533 60.5091 73.52C60.4024 73.6867 60.3491 73.8867 60.3491 74.12L59.9791 73.94C59.9791 73.58 60.0557 73.2667 60.2091 73C60.3691 72.7333 60.5857 72.5267 60.8591 72.38C61.1324 72.2267 61.4391 72.15 61.7791 72.15C62.1124 72.15 62.4124 72.2233 62.6791 72.37C62.9524 72.5167 63.1657 72.7233 63.3191 72.99C63.4791 73.2567 63.5591 73.5733 63.5591 73.94V77H62.6591ZM65.8691 77V74.13C65.8691 73.7767 65.7591 73.5 65.5391 73.3C65.3257 73.0933 65.0591 72.99 64.7391 72.99C64.5191 72.99 64.3191 73.0367 64.1391 73.13C63.9657 73.2233 63.8257 73.3533 63.7191 73.52C63.6124 73.6867 63.5591 73.8867 63.5591 74.12L63.0491 73.94C63.0691 73.5733 63.1657 73.26 63.3391 73C63.5191 72.7333 63.7491 72.5267 64.0291 72.38C64.3091 72.2267 64.6157 72.15 64.9491 72.15C65.2957 72.15 65.6057 72.2233 65.8791 72.37C66.1524 72.5167 66.3691 72.7233 66.5291 72.99C66.6957 73.2567 66.7791 73.5767 66.7791 73.95V77H65.8691Z" fill="black"/>
<rect x="125.672" y="15.7997" width="50" height="85" rx="19.5" stroke="black"/>
<rect x="72.6719" y="15.7997" width="50" height="85" rx="19.5" stroke="black"/>
<rect x="177.672" y="15.7997" width="50" height="85" rx="19.5" stroke="black"/>
<rect x="230.672" y="15.7997" width="50" height="85" rx="19.5" stroke="black"/>
<rect x="282.672" y="15.7997" width="50" height="85" rx="19.5" stroke="black"/>
<rect x="75" y="27" width="256" height="26" rx="13" fill="#86BCC8"/>
<path d="M167.82 43V36.06H168.76V43H167.82ZM172.3 43V36.06H173.24V43H172.3ZM168.46 39.84V38.98H172.53V39.84H168.46ZM176.891 43.1C176.424 43.1 176.004 42.99 175.631 42.77C175.257 42.55 174.961 42.2533 174.741 41.88C174.521 41.5 174.411 41.0767 174.411 40.61C174.411 40.15 174.521 39.7367 174.741 39.37C174.961 38.9967 175.257 38.7 175.631 38.48C176.004 38.26 176.424 38.15 176.891 38.15C177.351 38.15 177.767 38.26 178.141 38.48C178.521 38.6933 178.821 38.9867 179.041 39.36C179.261 39.7333 179.371 40.15 179.371 40.61C179.371 41.0767 179.261 41.5 179.041 41.88C178.821 42.2533 178.521 42.55 178.141 42.77C177.767 42.99 177.351 43.1 176.891 43.1ZM176.891 42.23C177.191 42.23 177.457 42.16 177.691 42.02C177.924 41.88 178.107 41.69 178.241 41.45C178.374 41.2033 178.441 40.9233 178.441 40.61C178.441 40.3033 178.371 40.03 178.231 39.79C178.097 39.55 177.914 39.3633 177.681 39.23C177.454 39.09 177.191 39.02 176.891 39.02C176.591 39.02 176.324 39.09 176.091 39.23C175.857 39.3633 175.674 39.55 175.541 39.79C175.407 40.03 175.341 40.3033 175.341 40.61C175.341 40.9233 175.407 41.2033 175.541 41.45C175.674 41.69 175.857 41.88 176.091 42.02C176.324 42.16 176.591 42.23 176.891 42.23ZM180.385 43V38.25H181.285V43H180.385ZM183.595 43V40.13C183.595 39.7767 183.485 39.5 183.265 39.3C183.051 39.0933 182.781 38.99 182.455 38.99C182.235 38.99 182.038 39.0367 181.865 39.13C181.691 39.2233 181.551 39.3533 181.445 39.52C181.338 39.6867 181.285 39.8867 181.285 40.12L180.915 39.94C180.915 39.58 180.991 39.2667 181.145 39C181.305 38.7333 181.521 38.5267 181.795 38.38C182.068 38.2267 182.375 38.15 182.715 38.15C183.048 38.15 183.348 38.2233 183.615 38.37C183.888 38.5167 184.101 38.7233 184.255 38.99C184.415 39.2567 184.495 39.5733 184.495 39.94V43H183.595ZM186.805 43V40.13C186.805 39.7767 186.695 39.5 186.475 39.3C186.261 39.0933 185.995 38.99 185.675 38.99C185.455 38.99 185.255 39.0367 185.075 39.13C184.901 39.2233 184.761 39.3533 184.655 39.52C184.548 39.6867 184.495 39.8867 184.495 40.12L183.985 39.94C184.005 39.5733 184.101 39.26 184.275 39C184.455 38.7333 184.685 38.5267 184.965 38.38C185.245 38.2267 185.551 38.15 185.885 38.15C186.231 38.15 186.541 38.2233 186.815 38.37C187.088 38.5167 187.305 38.7233 187.465 38.99C187.631 39.2567 187.715 39.5767 187.715 39.95V43H186.805ZM191.139 43.1C190.666 43.1 190.239 42.9933 189.859 42.78C189.479 42.56 189.179 42.2633 188.959 41.89C188.739 41.5167 188.629 41.0933 188.629 40.62C188.629 40.1533 188.736 39.7333 188.949 39.36C189.169 38.9867 189.463 38.6933 189.829 38.48C190.203 38.26 190.619 38.15 191.079 38.15C191.519 38.15 191.906 38.25 192.239 38.45C192.579 38.65 192.843 38.9267 193.029 39.28C193.223 39.6333 193.319 40.0333 193.319 40.48C193.319 40.5467 193.316 40.62 193.309 40.7C193.303 40.7733 193.289 40.86 193.269 40.96H189.259V40.21H192.789L192.459 40.5C192.459 40.18 192.403 39.91 192.289 39.69C192.176 39.4633 192.016 39.29 191.809 39.17C191.603 39.0433 191.353 38.98 191.059 38.98C190.753 38.98 190.483 39.0467 190.249 39.18C190.016 39.3133 189.836 39.5 189.709 39.74C189.583 39.98 189.519 40.2633 189.519 40.59C189.519 40.9233 189.586 41.2167 189.719 41.47C189.853 41.7167 190.043 41.91 190.289 42.05C190.536 42.1833 190.819 42.25 191.139 42.25C191.406 42.25 191.649 42.2033 191.869 42.11C192.096 42.0167 192.289 41.8767 192.449 41.69L193.029 42.28C192.803 42.5467 192.523 42.75 192.189 42.89C191.863 43.03 191.513 43.1 191.139 43.1ZM195.602 43L193.722 38.25H194.662L196.022 41.95H195.722L197.072 38.25H197.592L198.942 41.95H198.642L200.002 38.25H200.942L199.072 43H198.542L197.172 39.41H197.502L196.122 43H195.602ZM203.775 43.1C203.309 43.1 202.889 42.99 202.515 42.77C202.142 42.55 201.845 42.2533 201.625 41.88C201.405 41.5 201.295 41.0767 201.295 40.61C201.295 40.15 201.405 39.7367 201.625 39.37C201.845 38.9967 202.142 38.7 202.515 38.48C202.889 38.26 203.309 38.15 203.775 38.15C204.235 38.15 204.652 38.26 205.025 38.48C205.405 38.6933 205.705 38.9867 205.925 39.36C206.145 39.7333 206.255 40.15 206.255 40.61C206.255 41.0767 206.145 41.5 205.925 41.88C205.705 42.2533 205.405 42.55 205.025 42.77C204.652 42.99 204.235 43.1 203.775 43.1ZM203.775 42.23C204.075 42.23 204.342 42.16 204.575 42.02C204.809 41.88 204.992 41.69 205.125 41.45C205.259 41.2033 205.325 40.9233 205.325 40.61C205.325 40.3033 205.255 40.03 205.115 39.79C204.982 39.55 204.799 39.3633 204.565 39.23C204.339 39.09 204.075 39.02 203.775 39.02C203.475 39.02 203.209 39.09 202.975 39.23C202.742 39.3633 202.559 39.55 202.425 39.79C202.292 40.03 202.225 40.3033 202.225 40.61C202.225 40.9233 202.292 41.2033 202.425 41.45C202.559 41.69 202.742 41.88 202.975 42.02C203.209 42.16 203.475 42.23 203.775 42.23ZM207.269 43V38.25H208.169V43H207.269ZM208.169 40.29L207.829 40.14C207.829 39.5333 207.969 39.05 208.249 38.69C208.529 38.33 208.933 38.15 209.459 38.15C209.699 38.15 209.916 38.1933 210.109 38.28C210.303 38.36 210.483 38.4967 210.649 38.69L210.059 39.3C209.959 39.1933 209.849 39.1167 209.729 39.07C209.609 39.0233 209.469 39 209.309 39C208.976 39 208.703 39.1067 208.489 39.32C208.276 39.5333 208.169 39.8567 208.169 40.29ZM214.323 43L212.103 40.57L214.303 38.25H215.393L212.943 40.81L212.983 40.29L215.483 43H214.323ZM211.283 43V35.86H212.183V43H211.283ZM218.504 43V36.06H219.444V43H218.504ZM222.984 43V36.06H223.924V43H222.984ZM219.144 39.84V38.98H223.214V39.84H219.144ZM227.604 43.1C227.131 43.1 226.704 42.9933 226.324 42.78C225.944 42.56 225.644 42.2633 225.424 41.89C225.204 41.5167 225.094 41.0933 225.094 40.62C225.094 40.1533 225.201 39.7333 225.414 39.36C225.634 38.9867 225.927 38.6933 226.294 38.48C226.667 38.26 227.084 38.15 227.544 38.15C227.984 38.15 228.371 38.25 228.704 38.45C229.044 38.65 229.307 38.9267 229.494 39.28C229.687 39.6333 229.784 40.0333 229.784 40.48C229.784 40.5467 229.781 40.62 229.774 40.7C229.767 40.7733 229.754 40.86 229.734 40.96H225.724V40.21H229.254L228.924 40.5C228.924 40.18 228.867 39.91 228.754 39.69C228.641 39.4633 228.481 39.29 228.274 39.17C228.067 39.0433 227.817 38.98 227.524 38.98C227.217 38.98 226.947 39.0467 226.714 39.18C226.481 39.3133 226.301 39.5 226.174 39.74C226.047 39.98 225.984 40.2633 225.984 40.59C225.984 40.9233 226.051 41.2167 226.184 41.47C226.317 41.7167 226.507 41.91 226.754 42.05C227.001 42.1833 227.284 42.25 227.604 42.25C227.871 42.25 228.114 42.2033 228.334 42.11C228.561 42.0167 228.754 41.8767 228.914 41.69L229.494 42.28C229.267 42.5467 228.987 42.75 228.654 42.89C228.327 43.03 227.977 43.1 227.604 43.1ZM230.765 43V35.86H231.665V43H230.765ZM235.482 43.1C235.122 43.1 234.796 43.0267 234.502 42.88C234.216 42.7267 233.986 42.5167 233.812 42.25C233.639 41.9833 233.542 41.68 233.522 41.34V39.91C233.542 39.5633 233.639 39.26 233.812 39C233.992 38.7333 234.226 38.5267 234.512 38.38C234.806 38.2267 235.129 38.15 235.482 38.15C235.916 38.15 236.306 38.26 236.652 38.48C237.006 38.7 237.282 38.9967 237.482 39.37C237.682 39.7433 237.782 40.1633 237.782 40.63C237.782 41.0967 237.682 41.5167 237.482 41.89C237.282 42.2633 237.006 42.56 236.652 42.78C236.306 42.9933 235.916 43.1 235.482 43.1ZM232.982 44.99V38.25H233.882V39.5L233.712 40.65L233.882 41.81V44.99H232.982ZM235.332 42.25C235.632 42.25 235.896 42.18 236.122 42.04C236.349 41.9 236.529 41.71 236.662 41.47C236.796 41.2233 236.862 40.94 236.862 40.62C236.862 40.3067 236.796 40.0267 236.662 39.78C236.529 39.5333 236.349 39.3433 236.122 39.21C235.896 39.07 235.636 39 235.342 39C235.042 39 234.779 39.07 234.552 39.21C234.326 39.3433 234.149 39.5333 234.022 39.78C233.896 40.0267 233.832 40.31 233.832 40.63C233.832 40.9433 233.892 41.2233 234.012 41.47C234.139 41.71 234.316 41.9 234.542 42.04C234.776 42.18 235.039 42.25 235.332 42.25Z" fill="black"/>
<rect x="75" y="61" width="256" height="26" rx="13" fill="#0C3F4A"/>
<path d="M177.738 76V69.754H178.332L180.978 74.101H180.573L183.219 69.754H183.813V76H182.967V71.239L183.165 71.293L181.077 74.722H180.483L178.395 71.293L178.584 71.239V76H177.738ZM186.962 76.09C186.572 76.09 186.218 75.994 185.9 75.802C185.582 75.604 185.33 75.337 185.144 75.001C184.964 74.665 184.874 74.287 184.874 73.867C184.874 73.447 184.964 73.069 185.144 72.733C185.33 72.397 185.579 72.13 185.891 71.932C186.209 71.734 186.566 71.635 186.962 71.635C187.286 71.635 187.574 71.704 187.826 71.842C188.084 71.974 188.291 72.16 188.447 72.4C188.603 72.634 188.69 72.907 188.708 73.219V74.506C188.69 74.812 188.603 75.085 188.447 75.325C188.297 75.565 188.093 75.754 187.835 75.892C187.583 76.024 187.292 76.09 186.962 76.09ZM187.097 75.325C187.499 75.325 187.823 75.19 188.069 74.92C188.315 74.644 188.438 74.293 188.438 73.867C188.438 73.573 188.381 73.318 188.267 73.102C188.159 72.88 188.003 72.709 187.799 72.589C187.595 72.463 187.358 72.4 187.088 72.4C186.818 72.4 186.578 72.463 186.368 72.589C186.164 72.715 186.002 72.889 185.882 73.111C185.768 73.327 185.711 73.576 185.711 73.858C185.711 74.146 185.768 74.401 185.882 74.623C186.002 74.839 186.167 75.01 186.377 75.136C186.587 75.262 186.827 75.325 187.097 75.325ZM188.384 76V74.848L188.537 73.804L188.384 72.769V71.725H189.203V76H188.384ZM191.022 76V69.934H191.832V76H191.022ZM189.969 72.463V71.725H192.885V72.463H189.969ZM196.702 76V73.507C196.702 73.183 196.6 72.916 196.396 72.706C196.192 72.496 195.928 72.391 195.604 72.391C195.388 72.391 195.196 72.439 195.028 72.535C194.86 72.631 194.728 72.763 194.632 72.931C194.536 73.099 194.488 73.291 194.488 73.507L194.155 73.318C194.155 72.994 194.227 72.706 194.371 72.454C194.515 72.202 194.716 72.004 194.974 71.86C195.232 71.71 195.523 71.635 195.847 71.635C196.171 71.635 196.456 71.707 196.702 71.851C196.954 71.995 197.152 72.196 197.296 72.454C197.44 72.712 197.512 73.009 197.512 73.345V76H196.702ZM193.678 76V69.574H194.488V76H193.678ZM203.46 76.09C203.01 76.09 202.593 76.009 202.209 75.847C201.825 75.679 201.489 75.448 201.201 75.154C200.919 74.86 200.7 74.518 200.544 74.128C200.388 73.738 200.31 73.321 200.31 72.877C200.31 72.427 200.388 72.007 200.544 71.617C200.7 71.227 200.919 70.888 201.201 70.6C201.489 70.306 201.822 70.078 202.2 69.916C202.584 69.748 203.001 69.664 203.451 69.664C203.943 69.664 204.375 69.748 204.747 69.916C205.119 70.084 205.449 70.312 205.737 70.6L205.152 71.185C204.954 70.963 204.711 70.789 204.423 70.663C204.141 70.537 203.817 70.474 203.451 70.474C203.121 70.474 202.818 70.534 202.542 70.654C202.266 70.768 202.026 70.933 201.822 71.149C201.618 71.365 201.459 71.62 201.345 71.914C201.237 72.208 201.183 72.529 201.183 72.877C201.183 73.225 201.237 73.546 201.345 73.84C201.459 74.134 201.618 74.389 201.822 74.605C202.026 74.821 202.266 74.989 202.542 75.109C202.818 75.223 203.121 75.28 203.451 75.28C203.841 75.28 204.18 75.217 204.468 75.091C204.756 74.959 204.999 74.782 205.197 74.56L205.782 75.136C205.494 75.436 205.155 75.67 204.765 75.838C204.381 76.006 203.946 76.09 203.46 76.09ZM206.677 76V69.574H207.487V76H206.677ZM210.49 76.09C210.1 76.09 209.746 75.994 209.428 75.802C209.11 75.604 208.858 75.337 208.672 75.001C208.492 74.665 208.402 74.287 208.402 73.867C208.402 73.447 208.492 73.069 208.672 72.733C208.858 72.397 209.107 72.13 209.419 71.932C209.737 71.734 210.094 71.635 210.49 71.635C210.814 71.635 211.102 71.704 211.354 71.842C211.612 71.974 211.819 72.16 211.975 72.4C212.131 72.634 212.218 72.907 212.236 73.219V74.506C212.218 74.812 212.131 75.085 211.975 75.325C211.825 75.565 211.621 75.754 211.363 75.892C211.111 76.024 210.82 76.09 210.49 76.09ZM210.625 75.325C211.027 75.325 211.351 75.19 211.597 74.92C211.843 74.644 211.966 74.293 211.966 73.867C211.966 73.573 211.909 73.318 211.795 73.102C211.687 72.88 211.531 72.709 211.327 72.589C211.123 72.463 210.886 72.4 210.616 72.4C210.346 72.4 210.106 72.463 209.896 72.589C209.692 72.715 209.53 72.889 209.41 73.111C209.296 73.327 209.239 73.576 209.239 73.858C209.239 74.146 209.296 74.401 209.41 74.623C209.53 74.839 209.695 75.01 209.905 75.136C210.115 75.262 210.355 75.325 210.625 75.325ZM211.912 76V74.848L212.065 73.804L211.912 72.769V71.725H212.731V76H211.912ZM215.269 76.09C215.029 76.09 214.801 76.06 214.585 76C214.375 75.934 214.18 75.844 214 75.73C213.82 75.61 213.664 75.469 213.532 75.307L214.054 74.785C214.21 74.977 214.39 75.121 214.594 75.217C214.798 75.307 215.026 75.352 215.278 75.352C215.53 75.352 215.725 75.31 215.863 75.226C216.001 75.136 216.07 75.013 216.07 74.857C216.07 74.701 216.013 74.581 215.899 74.497C215.791 74.407 215.65 74.335 215.476 74.281C215.302 74.221 215.116 74.164 214.918 74.11C214.726 74.05 214.543 73.975 214.369 73.885C214.195 73.795 214.051 73.672 213.937 73.516C213.829 73.36 213.775 73.153 213.775 72.895C213.775 72.637 213.838 72.415 213.964 72.229C214.09 72.037 214.264 71.89 214.486 71.788C214.714 71.686 214.987 71.635 215.305 71.635C215.641 71.635 215.938 71.695 216.196 71.815C216.46 71.929 216.676 72.103 216.844 72.337L216.322 72.859C216.202 72.703 216.052 72.583 215.872 72.499C215.698 72.415 215.5 72.373 215.278 72.373C215.044 72.373 214.864 72.415 214.738 72.499C214.618 72.577 214.558 72.688 214.558 72.832C214.558 72.976 214.612 73.087 214.72 73.165C214.828 73.243 214.969 73.309 215.143 73.363C215.323 73.417 215.509 73.474 215.701 73.534C215.893 73.588 216.076 73.663 216.25 73.759C216.424 73.855 216.565 73.984 216.673 74.146C216.787 74.308 216.844 74.521 216.844 74.785C216.844 75.187 216.7 75.505 216.412 75.739C216.13 75.973 215.749 76.09 215.269 76.09ZM219.11 76.09C218.87 76.09 218.642 76.06 218.426 76C218.216 75.934 218.021 75.844 217.841 75.73C217.661 75.61 217.505 75.469 217.373 75.307L217.895 74.785C218.051 74.977 218.231 75.121 218.435 75.217C218.639 75.307 218.867 75.352 219.119 75.352C219.371 75.352 219.566 75.31 219.704 75.226C219.842 75.136 219.911 75.013 219.911 74.857C219.911 74.701 219.854 74.581 219.74 74.497C219.632 74.407 219.491 74.335 219.317 74.281C219.143 74.221 218.957 74.164 218.759 74.11C218.567 74.05 218.384 73.975 218.21 73.885C218.036 73.795 217.892 73.672 217.778 73.516C217.67 73.36 217.616 73.153 217.616 72.895C217.616 72.637 217.679 72.415 217.805 72.229C217.931 72.037 218.105 71.89 218.327 71.788C218.555 71.686 218.828 71.635 219.146 71.635C219.482 71.635 219.779 71.695 220.037 71.815C220.301 71.929 220.517 72.103 220.685 72.337L220.163 72.859C220.043 72.703 219.893 72.583 219.713 72.499C219.539 72.415 219.341 72.373 219.119 72.373C218.885 72.373 218.705 72.415 218.579 72.499C218.459 72.577 218.399 72.688 218.399 72.832C218.399 72.976 218.453 73.087 218.561 73.165C218.669 73.243 218.81 73.309 218.984 73.363C219.164 73.417 219.35 73.474 219.542 73.534C219.734 73.588 219.917 73.663 220.091 73.759C220.265 73.855 220.406 73.984 220.514 74.146C220.628 74.308 220.685 74.521 220.685 74.785C220.685 75.187 220.541 75.505 220.253 75.739C219.971 75.973 219.59 76.09 219.11 76.09ZM223.572 76.09C223.146 76.09 222.762 75.994 222.42 75.802C222.078 75.604 221.808 75.337 221.61 75.001C221.412 74.665 221.313 74.284 221.313 73.858C221.313 73.438 221.409 73.06 221.601 72.724C221.799 72.388 222.063 72.124 222.393 71.932C222.729 71.734 223.104 71.635 223.518 71.635C223.914 71.635 224.262 71.725 224.562 71.905C224.868 72.085 225.105 72.334 225.273 72.652C225.447 72.97 225.534 73.33 225.534 73.732C225.534 73.792 225.531 73.858 225.525 73.93C225.519 73.996 225.507 74.074 225.489 74.164H221.88V73.489H225.057L224.76 73.75C224.76 73.462 224.709 73.219 224.607 73.021C224.505 72.817 224.361 72.661 224.175 72.553C223.989 72.439 223.764 72.382 223.5 72.382C223.224 72.382 222.981 72.442 222.771 72.562C222.561 72.682 222.399 72.85 222.285 73.066C222.171 73.282 222.114 73.537 222.114 73.831C222.114 74.131 222.174 74.395 222.294 74.623C222.414 74.845 222.585 75.019 222.807 75.145C223.029 75.265 223.284 75.325 223.572 75.325C223.812 75.325 224.031 75.283 224.229 75.199C224.433 75.115 224.607 74.989 224.751 74.821L225.273 75.352C225.069 75.592 224.817 75.775 224.517 75.901C224.223 76.027 223.908 76.09 223.572 76.09ZM227.776 76.09C227.536 76.09 227.308 76.06 227.092 76C226.882 75.934 226.687 75.844 226.507 75.73C226.327 75.61 226.171 75.469 226.039 75.307L226.561 74.785C226.717 74.977 226.897 75.121 227.101 75.217C227.305 75.307 227.533 75.352 227.785 75.352C228.037 75.352 228.232 75.31 228.37 75.226C228.508 75.136 228.577 75.013 228.577 74.857C228.577 74.701 228.52 74.581 228.406 74.497C228.298 74.407 228.157 74.335 227.983 74.281C227.809 74.221 227.623 74.164 227.425 74.11C227.233 74.05 227.05 73.975 226.876 73.885C226.702 73.795 226.558 73.672 226.444 73.516C226.336 73.36 226.282 73.153 226.282 72.895C226.282 72.637 226.345 72.415 226.471 72.229C226.597 72.037 226.771 71.89 226.993 71.788C227.221 71.686 227.494 71.635 227.812 71.635C228.148 71.635 228.445 71.695 228.703 71.815C228.967 71.929 229.183 72.103 229.351 72.337L228.829 72.859C228.709 72.703 228.559 72.583 228.379 72.499C228.205 72.415 228.007 72.373 227.785 72.373C227.551 72.373 227.371 72.415 227.245 72.499C227.125 72.577 227.065 72.688 227.065 72.832C227.065 72.976 227.119 73.087 227.227 73.165C227.335 73.243 227.476 73.309 227.65 73.363C227.83 73.417 228.016 73.474 228.208 73.534C228.4 73.588 228.583 73.663 228.757 73.759C228.931 73.855 229.072 73.984 229.18 74.146C229.294 74.308 229.351 74.521 229.351 74.785C229.351 75.187 229.207 75.505 228.919 75.739C228.637 75.973 228.256 76.09 227.776 76.09Z" fill="white"/>
</svg>
