<svg width="1248" height="295" viewBox="0 0 1248 295" fill="none" xmlns="http://www.w3.org/2000/svg">
<path d="M303.624 32V9.792H305.736L315.144 25.248H313.704L323.112 9.792H325.224V32H322.216V15.072L322.92 15.264L315.496 27.456H313.384L305.96 15.264L306.632 15.072V32H303.624ZM336.9 32.32C335.406 32.32 334.062 31.968 332.868 31.264C331.673 30.56 330.724 29.6107 330.02 28.416C329.316 27.2 328.964 25.8453 328.964 24.352C328.964 22.88 329.316 21.5573 330.02 20.384C330.724 19.1893 331.673 18.24 332.868 17.536C334.062 16.832 335.406 16.48 336.9 16.48C338.372 16.48 339.705 16.832 340.9 17.536C342.116 18.2187 343.076 19.1573 343.78 20.352C344.484 21.5467 344.836 22.88 344.836 24.352C344.836 25.8453 344.484 27.2 343.78 28.416C343.076 29.6107 342.116 30.56 340.9 31.264C339.705 31.968 338.372 32.32 336.9 32.32ZM336.9 29.536C337.86 29.536 338.713 29.312 339.46 28.864C340.206 28.416 340.793 27.808 341.22 27.04C341.646 26.2507 341.86 25.3547 341.86 24.352C341.86 23.3707 341.636 22.496 341.188 21.728C340.761 20.96 340.174 20.3627 339.428 19.936C338.702 19.488 337.86 19.264 336.9 19.264C335.94 19.264 335.086 19.488 334.34 19.936C333.593 20.3627 333.006 20.96 332.58 21.728C332.153 22.496 331.94 23.3707 331.94 24.352C331.94 25.3547 332.153 26.2507 332.58 27.04C333.006 27.808 333.593 28.416 334.34 28.864C335.086 29.312 335.94 29.536 336.9 29.536ZM358.833 32V23.136C358.833 21.984 358.47 21.0347 357.745 20.288C357.019 19.5413 356.081 19.168 354.929 19.168C354.161 19.168 353.478 19.3387 352.881 19.68C352.283 20.0213 351.814 20.4907 351.473 21.088C351.131 21.6853 350.961 22.368 350.961 23.136L349.777 22.464C349.777 21.312 350.033 20.288 350.545 19.392C351.057 18.496 351.771 17.792 352.689 17.28C353.606 16.7467 354.641 16.48 355.793 16.48C356.945 16.48 357.958 16.768 358.833 17.344C359.729 17.92 360.433 18.6773 360.945 19.616C361.457 20.5333 361.713 21.5147 361.713 22.56V32H358.833ZM348.081 32V16.8H350.961V32H348.081Z" fill="black"/>
<path d="M517.512 33V11.432H520.52V33H517.512ZM509.96 13.544V10.792H528.04V13.544H509.96ZM534.099 33.32C532.862 33.32 531.742 33.0427 530.739 32.488C529.758 31.912 528.99 31.1227 528.435 30.12C527.88 29.1173 527.603 27.9547 527.603 26.632V17.8H530.483V26.504C530.483 27.336 530.622 28.0613 530.899 28.68C531.198 29.2773 531.624 29.736 532.179 30.056C532.734 30.376 533.384 30.536 534.131 30.536C535.262 30.536 536.147 30.184 536.787 29.48C537.427 28.7547 537.747 27.7627 537.747 26.504V17.8H540.627V26.632C540.627 27.9547 540.35 29.1173 539.795 30.12C539.24 31.1227 538.472 31.912 537.491 32.488C536.531 33.0427 535.4 33.32 534.099 33.32ZM551.527 33.32C550.012 33.32 548.647 32.9787 547.431 32.296C546.215 31.592 545.255 30.6427 544.551 29.448C543.847 28.2533 543.495 26.8987 543.495 25.384C543.495 23.8907 543.836 22.5467 544.519 21.352C545.223 20.1573 546.162 19.2187 547.335 18.536C548.53 17.832 549.863 17.48 551.335 17.48C552.743 17.48 553.98 17.8 555.047 18.44C556.135 19.08 556.978 19.9653 557.575 21.096C558.194 22.2267 558.503 23.5067 558.503 24.936C558.503 25.1493 558.492 25.384 558.471 25.64C558.45 25.8747 558.407 26.152 558.343 26.472H545.511V24.072H556.807L555.751 25C555.751 23.976 555.57 23.112 555.207 22.408C554.844 21.6827 554.332 21.128 553.671 20.744C553.01 20.3387 552.21 20.136 551.271 20.136C550.29 20.136 549.426 20.3493 548.679 20.776C547.932 21.2027 547.356 21.8 546.951 22.568C546.546 23.336 546.343 24.2427 546.343 25.288C546.343 26.3547 546.556 27.2933 546.983 28.104C547.41 28.8933 548.018 29.512 548.807 29.96C549.596 30.3867 550.503 30.6 551.527 30.6C552.38 30.6 553.159 30.4507 553.863 30.152C554.588 29.8533 555.207 29.4053 555.719 28.808L557.575 30.696C556.85 31.5493 555.954 32.2 554.887 32.648C553.842 33.096 552.722 33.32 551.527 33.32Z" fill="black"/>
<path d="M714.288 32L707.024 9.792H710.032L715.792 27.904H714.928L720.592 9.792H722.768L728.432 27.904H727.6L733.36 9.792H736.336L729.104 32H726.96L721.264 13.92H722.096L716.432 32H714.288ZM744.215 32.32C742.7 32.32 741.335 31.9787 740.119 31.296C738.903 30.592 737.943 29.6427 737.239 28.448C736.535 27.2533 736.183 25.8987 736.183 24.384C736.183 22.8907 736.524 21.5467 737.207 20.352C737.911 19.1573 738.849 18.2187 740.023 17.536C741.217 16.832 742.551 16.48 744.023 16.48C745.431 16.48 746.668 16.8 747.735 17.44C748.823 18.08 749.665 18.9653 750.263 20.096C750.881 21.2267 751.191 22.5067 751.191 23.936C751.191 24.1493 751.18 24.384 751.159 24.64C751.137 24.8747 751.095 25.152 751.031 25.472H738.199V23.072H749.495L748.439 24C748.439 22.976 748.257 22.112 747.895 21.408C747.532 20.6827 747.02 20.128 746.359 19.744C745.697 19.3387 744.897 19.136 743.959 19.136C742.977 19.136 742.113 19.3493 741.367 19.776C740.62 20.2027 740.044 20.8 739.639 21.568C739.233 22.336 739.031 23.2427 739.031 24.288C739.031 25.3547 739.244 26.2933 739.671 27.104C740.097 27.8933 740.705 28.512 741.495 28.96C742.284 29.3867 743.191 29.6 744.215 29.6C745.068 29.6 745.847 29.4507 746.551 29.152C747.276 28.8533 747.895 28.4053 748.407 27.808L750.263 29.696C749.537 30.5493 748.641 31.2 747.575 31.648C746.529 32.096 745.409 32.32 744.215 32.32ZM760.763 32.32C759.355 32.32 758.096 31.9787 756.987 31.296C755.877 30.592 754.992 29.6427 754.331 28.448C753.691 27.2533 753.371 25.9093 753.371 24.416C753.371 22.9227 753.691 21.5787 754.331 20.384C754.992 19.1893 755.877 18.24 756.987 17.536C758.096 16.832 759.355 16.48 760.763 16.48C761.893 16.48 762.917 16.7253 763.835 17.216C764.752 17.6853 765.488 18.3467 766.043 19.2C766.619 20.032 766.939 21.0027 767.003 22.112V26.688C766.939 27.776 766.629 28.7467 766.075 29.6C765.52 30.4533 764.784 31.1253 763.867 31.616C762.949 32.0853 761.915 32.32 760.763 32.32ZM761.243 29.6C762.203 29.6 763.035 29.376 763.739 28.928C764.464 28.48 765.029 27.872 765.435 27.104C765.84 26.3147 766.043 25.4187 766.043 24.416C766.043 23.3707 765.829 22.464 765.403 21.696C764.997 20.928 764.432 20.32 763.707 19.872C763.003 19.424 762.171 19.2 761.211 19.2C760.251 19.2 759.408 19.424 758.683 19.872C757.957 20.32 757.381 20.9387 756.955 21.728C756.549 22.496 756.347 23.3813 756.347 24.384C756.347 25.408 756.549 26.3147 756.955 27.104C757.381 27.872 757.957 28.48 758.683 28.928C759.429 29.376 760.283 29.6 761.243 29.6ZM768.763 32H765.851V27.904L766.395 24.192L765.851 20.512V9.152H768.763V32Z" fill="black"/>
<path d="M927.512 32V10.432H930.52V32H927.512ZM919.96 12.544V9.792H938.04V12.544H919.96ZM951.864 32V23.136C951.864 21.984 951.501 21.0347 950.776 20.288C950.051 19.5413 949.112 19.168 947.96 19.168C947.192 19.168 946.509 19.3387 945.912 19.68C945.315 20.0213 944.845 20.4907 944.504 21.088C944.163 21.6853 943.992 22.368 943.992 23.136L942.808 22.464C942.808 21.312 943.064 20.288 943.576 19.392C944.088 18.496 944.803 17.792 945.72 17.28C946.637 16.7467 947.672 16.48 948.824 16.48C949.976 16.48 950.989 16.736 951.864 17.248C952.76 17.76 953.464 18.4747 953.976 19.392C954.488 20.3093 954.744 21.3653 954.744 22.56V32H951.864ZM941.112 32V9.152H943.992V32H941.112ZM964.755 32.32C963.518 32.32 962.398 32.0427 961.395 31.488C960.414 30.912 959.646 30.1227 959.091 29.12C958.537 28.1173 958.259 26.9547 958.259 25.632V16.8H961.139V25.504C961.139 26.336 961.278 27.0613 961.555 27.68C961.854 28.2773 962.281 28.736 962.835 29.056C963.39 29.376 964.041 29.536 964.787 29.536C965.918 29.536 966.803 29.184 967.443 28.48C968.083 27.7547 968.403 26.7627 968.403 25.504V16.8H971.283V25.632C971.283 26.9547 971.006 28.1173 970.451 29.12C969.897 30.1227 969.129 30.912 968.147 31.488C967.187 32.0427 966.057 32.32 964.755 32.32Z" fill="black"/>
<path d="M1129.62 32V9.792H1132.63V32H1129.62ZM1131.67 22.24V19.488H1143.26V22.24H1131.67ZM1131.67 12.544V9.792H1143.8V12.544H1131.67ZM1147.24 32V16.8H1150.12V32H1147.24ZM1150.12 23.328L1149.03 22.848C1149.03 20.9067 1149.48 19.36 1150.37 18.208C1151.27 17.056 1152.56 16.48 1154.25 16.48C1155.01 16.48 1155.71 16.6187 1156.33 16.896C1156.94 17.152 1157.52 17.5893 1158.05 18.208L1156.17 20.16C1155.85 19.8187 1155.49 19.5733 1155.11 19.424C1154.73 19.2747 1154.28 19.2 1153.77 19.2C1152.7 19.2 1151.82 19.5413 1151.14 20.224C1150.46 20.9067 1150.12 21.9413 1150.12 23.328ZM1160.11 32V16.8H1162.99V32H1160.11ZM1161.55 13.76C1161.02 13.76 1160.58 13.5893 1160.24 13.248C1159.9 12.8853 1159.73 12.4373 1159.73 11.904C1159.73 11.392 1159.9 10.9653 1160.24 10.624C1160.58 10.2613 1161.02 10.08 1161.55 10.08C1162.09 10.08 1162.52 10.2613 1162.86 10.624C1163.21 10.9653 1163.38 11.392 1163.38 11.904C1163.38 12.4373 1163.21 12.8853 1162.86 13.248C1162.52 13.5893 1162.09 13.76 1161.55 13.76Z" fill="black"/>
<path d="M8.904 129.32C7.45333 129.32 6.13067 129.053 4.936 128.52C3.76267 127.965 2.77067 127.165 1.96 126.12L4.008 124.072C4.49867 124.819 5.17067 125.416 6.024 125.864C6.87733 126.291 7.82667 126.504 8.872 126.504C9.85333 126.504 10.696 126.323 11.4 125.96C12.1253 125.576 12.6907 125.043 13.096 124.36C13.5227 123.677 13.736 122.888 13.736 121.992C13.736 121.075 13.5227 120.285 13.096 119.624C12.6907 118.941 12.1147 118.419 11.368 118.056C10.6213 117.693 9.736 117.512 8.712 117.512C8.328 117.512 7.944 117.544 7.56 117.608C7.176 117.651 6.80267 117.725 6.44 117.832L7.72 116.104C8.12533 115.912 8.56267 115.763 9.032 115.656C9.50133 115.549 9.97067 115.496 10.44 115.496C11.6347 115.496 12.7013 115.773 13.64 116.328C14.6 116.883 15.3573 117.661 15.912 118.664C16.488 119.667 16.776 120.829 16.776 122.152C16.776 123.56 16.4347 124.808 15.752 125.896C15.0907 126.963 14.1733 127.805 13 128.424C11.8267 129.021 10.4613 129.32 8.904 129.32ZM6.44 117.832V116.008L12.936 108.616L16.52 108.584L9.832 116.168L6.44 117.832ZM3.016 109.48V106.792H16.52V108.584L13.896 109.48H3.016ZM22.5388 129.32C21.9414 129.32 21.4401 129.117 21.0348 128.712C20.6508 128.285 20.4588 127.795 20.4588 127.24C20.4588 126.621 20.6508 126.12 21.0348 125.736C21.4401 125.331 21.9414 125.128 22.5388 125.128C23.1361 125.128 23.6268 125.331 24.0108 125.736C24.4161 126.12 24.6188 126.621 24.6188 127.24C24.6188 127.795 24.4161 128.285 24.0108 128.712C23.6268 129.117 23.1361 129.32 22.5388 129.32ZM22.5388 119.336C21.9414 119.336 21.4401 119.133 21.0348 118.728C20.6508 118.323 20.4588 117.832 20.4588 117.256C20.4588 116.637 20.6508 116.136 21.0348 115.752C21.4401 115.347 21.9414 115.144 22.5388 115.144C23.1361 115.144 23.6268 115.347 24.0108 115.752C24.4161 116.136 24.6188 116.637 24.6188 117.256C24.6188 117.832 24.4161 118.323 24.0108 118.728C23.6268 119.133 23.1361 119.336 22.5388 119.336ZM37.4663 129.32C35.8023 129.32 34.2769 128.851 32.8903 127.912C31.5249 126.973 30.4369 125.651 29.6263 123.944C28.8156 122.216 28.4103 120.189 28.4103 117.864C28.4103 115.539 28.8049 113.523 29.5943 111.816C30.4049 110.109 31.4929 108.797 32.8583 107.88C34.2236 106.941 35.7276 106.472 37.3703 106.472C39.0556 106.472 40.5809 106.941 41.9463 107.88C43.3116 108.797 44.3889 110.109 45.1783 111.816C45.9889 113.523 46.3943 115.549 46.3943 117.896C46.3943 120.221 45.9889 122.248 45.1783 123.976C44.3889 125.683 43.3116 127.005 41.9463 127.944C40.6023 128.861 39.1089 129.32 37.4663 129.32ZM37.4023 126.472C38.5756 126.472 39.5996 126.152 40.4743 125.512C41.3703 124.851 42.0743 123.88 42.5863 122.6C43.0983 121.32 43.3542 119.741 43.3542 117.864C43.3542 115.987 43.0983 114.419 42.5863 113.16C42.0743 111.88 41.3703 110.92 40.4743 110.28C39.5783 109.619 38.5436 109.288 37.3703 109.288C36.2183 109.288 35.1943 109.619 34.2983 110.28C33.4023 110.92 32.6983 111.88 32.1863 113.16C31.6956 114.419 31.4503 115.987 31.4503 117.864C31.4503 119.741 31.6956 121.32 32.1863 122.6C32.6983 123.88 33.4023 124.851 34.2983 125.512C35.1943 126.152 36.2289 126.472 37.4023 126.472ZM58.4663 129.32C56.8023 129.32 55.2769 128.851 53.8903 127.912C52.5249 126.973 51.4369 125.651 50.6263 123.944C49.8156 122.216 49.4103 120.189 49.4103 117.864C49.4103 115.539 49.8049 113.523 50.5943 111.816C51.4049 110.109 52.4929 108.797 53.8583 107.88C55.2236 106.941 56.7276 106.472 58.3703 106.472C60.0556 106.472 61.5809 106.941 62.9463 107.88C64.3116 108.797 65.3889 110.109 66.1783 111.816C66.9889 113.523 67.3943 115.549 67.3943 117.896C67.3943 120.221 66.9889 122.248 66.1783 123.976C65.3889 125.683 64.3116 127.005 62.9463 127.944C61.6023 128.861 60.1089 129.32 58.4663 129.32ZM58.4023 126.472C59.5756 126.472 60.5996 126.152 61.4743 125.512C62.3703 124.851 63.0743 123.88 63.5863 122.6C64.0983 121.32 64.3542 119.741 64.3542 117.864C64.3542 115.987 64.0983 114.419 63.5863 113.16C63.0743 111.88 62.3703 110.92 61.4743 110.28C60.5783 109.619 59.5436 109.288 58.3703 109.288C57.2183 109.288 56.1943 109.619 55.2983 110.28C54.4023 110.92 53.6983 111.88 53.1863 113.16C52.6956 114.419 52.4503 115.987 52.4503 117.864C52.4503 119.741 52.6956 121.32 53.1863 122.6C53.6983 123.88 54.4023 124.851 55.2983 125.512C56.1943 126.152 57.2289 126.472 58.4023 126.472ZM77.6745 122.216V119.496H88.2025V122.216H77.6745ZM105.993 129.32C104.521 129.32 103.198 128.979 102.025 128.296C100.873 127.613 99.9554 126.696 99.2728 125.544C98.5901 124.392 98.2488 123.112 98.2488 121.704C98.2488 119.741 98.9314 117.789 100.297 115.848L106.825 106.792H110.313L103.625 115.912L102.537 116.488C102.793 116.04 103.102 115.667 103.465 115.368C103.827 115.048 104.275 114.803 104.809 114.632C105.342 114.461 105.971 114.376 106.697 114.376C107.998 114.376 109.171 114.685 110.217 115.304C111.283 115.923 112.137 116.776 112.777 117.864C113.438 118.931 113.769 120.179 113.769 121.608C113.769 123.016 113.417 124.307 112.713 125.48C112.03 126.653 111.091 127.592 109.897 128.296C108.723 128.979 107.422 129.32 105.993 129.32ZM105.993 126.504C106.889 126.504 107.689 126.291 108.393 125.864C109.118 125.416 109.683 124.829 110.089 124.104C110.515 123.357 110.729 122.525 110.729 121.608C110.729 120.691 110.515 119.869 110.089 119.144C109.683 118.397 109.118 117.811 108.393 117.384C107.689 116.957 106.889 116.744 105.993 116.744C105.097 116.744 104.286 116.957 103.561 117.384C102.857 117.811 102.291 118.397 101.865 119.144C101.459 119.869 101.257 120.691 101.257 121.608C101.257 122.525 101.459 123.357 101.865 124.104C102.291 124.851 102.857 125.437 103.561 125.864C104.286 126.291 105.097 126.504 105.993 126.504ZM119.351 129.32C118.754 129.32 118.253 129.117 117.847 128.712C117.463 128.285 117.271 127.795 117.271 127.24C117.271 126.621 117.463 126.12 117.847 125.736C118.253 125.331 118.754 125.128 119.351 125.128C119.949 125.128 120.439 125.331 120.823 125.736C121.229 126.12 121.431 126.621 121.431 127.24C121.431 127.795 121.229 128.285 120.823 128.712C120.439 129.117 119.949 129.32 119.351 129.32ZM119.351 119.336C118.754 119.336 118.253 119.133 117.847 118.728C117.463 118.323 117.271 117.832 117.271 117.256C117.271 116.637 117.463 116.136 117.847 115.752C118.253 115.347 118.754 115.144 119.351 115.144C119.949 115.144 120.439 115.347 120.823 115.752C121.229 116.136 121.431 116.637 121.431 117.256C121.431 117.832 121.229 118.323 120.823 118.728C120.439 119.133 119.949 119.336 119.351 119.336ZM134.279 129.32C132.615 129.32 131.089 128.851 129.703 127.912C128.337 126.973 127.249 125.651 126.439 123.944C125.628 122.216 125.223 120.189 125.223 117.864C125.223 115.539 125.617 113.523 126.407 111.816C127.217 110.109 128.305 108.797 129.671 107.88C131.036 106.941 132.54 106.472 134.183 106.472C135.868 106.472 137.393 106.941 138.759 107.88C140.124 108.797 141.201 110.109 141.991 111.816C142.801 113.523 143.207 115.549 143.207 117.896C143.207 120.221 142.801 122.248 141.991 123.976C141.201 125.683 140.124 127.005 138.759 127.944C137.415 128.861 135.921 129.32 134.279 129.32ZM134.215 126.472C135.388 126.472 136.412 126.152 137.287 125.512C138.183 124.851 138.887 123.88 139.399 122.6C139.911 121.32 140.167 119.741 140.167 117.864C140.167 115.987 139.911 114.419 139.399 113.16C138.887 111.88 138.183 110.92 137.287 110.28C136.391 109.619 135.356 109.288 134.183 109.288C133.031 109.288 132.007 109.619 131.111 110.28C130.215 110.92 129.511 111.88 128.999 113.16C128.508 114.419 128.263 115.987 128.263 117.864C128.263 119.741 128.508 121.32 128.999 122.6C129.511 123.88 130.215 124.851 131.111 125.512C132.007 126.152 133.041 126.472 134.215 126.472ZM155.279 129.32C153.615 129.32 152.089 128.851 150.703 127.912C149.337 126.973 148.249 125.651 147.439 123.944C146.628 122.216 146.223 120.189 146.223 117.864C146.223 115.539 146.617 113.523 147.407 111.816C148.217 110.109 149.305 108.797 150.671 107.88C152.036 106.941 153.54 106.472 155.183 106.472C156.868 106.472 158.393 106.941 159.759 107.88C161.124 108.797 162.201 110.109 162.991 111.816C163.801 113.523 164.207 115.549 164.207 117.896C164.207 120.221 163.801 122.248 162.991 123.976C162.201 125.683 161.124 127.005 159.759 127.944C158.415 128.861 156.921 129.32 155.279 129.32ZM155.215 126.472C156.388 126.472 157.412 126.152 158.287 125.512C159.183 124.851 159.887 123.88 160.399 122.6C160.911 121.32 161.167 119.741 161.167 117.864C161.167 115.987 160.911 114.419 160.399 113.16C159.887 111.88 159.183 110.92 158.287 110.28C157.391 109.619 156.356 109.288 155.183 109.288C154.031 109.288 153.007 109.619 152.111 110.28C151.215 110.92 150.511 111.88 149.999 113.16C149.508 114.419 149.263 115.987 149.263 117.864C149.263 119.741 149.508 121.32 149.999 122.6C150.511 123.88 151.215 124.851 152.111 125.512C153.007 126.152 154.041 126.472 155.215 126.472ZM182.487 129.32C181.335 129.32 180.29 129.085 179.351 128.616C178.434 128.125 177.698 127.453 177.143 126.6C176.588 125.747 176.279 124.776 176.215 123.688V119.112C176.279 118.003 176.588 117.032 177.143 116.2C177.719 115.347 178.466 114.685 179.383 114.216C180.322 113.725 181.356 113.48 182.487 113.48C183.874 113.48 185.122 113.832 186.231 114.536C187.362 115.24 188.247 116.189 188.887 117.384C189.527 118.579 189.847 119.923 189.847 121.416C189.847 122.909 189.527 124.253 188.887 125.448C188.247 126.643 187.362 127.592 186.231 128.296C185.122 128.979 183.874 129.32 182.487 129.32ZM174.487 135.368V113.8H177.367V117.8L176.823 121.48L177.367 125.192V135.368H174.487ZM182.007 126.6C182.967 126.6 183.81 126.376 184.535 125.928C185.26 125.48 185.836 124.872 186.263 124.104C186.69 123.315 186.903 122.408 186.903 121.384C186.903 120.381 186.69 119.485 186.263 118.696C185.836 117.907 185.26 117.299 184.535 116.872C183.81 116.424 182.978 116.2 182.039 116.2C181.079 116.2 180.236 116.424 179.511 116.872C178.786 117.299 178.22 117.907 177.815 118.696C177.41 119.485 177.207 120.392 177.207 121.416C177.207 122.419 177.399 123.315 177.783 124.104C178.188 124.872 178.754 125.48 179.479 125.928C180.226 126.376 181.068 126.6 182.007 126.6ZM193.112 129V113.8H195.992V129H193.112ZM203.384 129V119.816C203.384 118.685 203.032 117.8 202.328 117.16C201.645 116.499 200.781 116.168 199.736 116.168C199.032 116.168 198.403 116.317 197.848 116.616C197.293 116.915 196.845 117.331 196.504 117.864C196.163 118.397 195.992 119.037 195.992 119.784L194.808 119.208C194.808 118.056 195.053 117.053 195.544 116.2C196.056 115.347 196.749 114.685 197.624 114.216C198.499 113.725 199.48 113.48 200.568 113.48C201.635 113.48 202.595 113.715 203.448 114.184C204.323 114.653 205.005 115.315 205.496 116.168C206.008 117.021 206.264 118.035 206.264 119.208V129H203.384ZM213.656 129V119.816C213.656 118.685 213.304 117.8 212.6 117.16C211.917 116.499 211.064 116.168 210.04 116.168C209.336 116.168 208.696 116.317 208.12 116.616C207.565 116.915 207.117 117.331 206.776 117.864C206.435 118.397 206.264 119.037 206.264 119.784L204.632 119.208C204.696 118.035 205.005 117.032 205.56 116.2C206.136 115.347 206.872 114.685 207.768 114.216C208.664 113.725 209.645 113.48 210.712 113.48C211.821 113.48 212.813 113.715 213.688 114.184C214.563 114.653 215.256 115.315 215.768 116.168C216.301 117.021 216.568 118.045 216.568 119.24V129H213.656Z" fill="black"/>
<path d="M9.024 230.32C7.552 230.32 6.22933 229.979 5.056 229.296C3.904 228.613 2.98667 227.696 2.304 226.544C1.62133 225.392 1.28 224.112 1.28 222.704C1.28 220.741 1.96267 218.789 3.328 216.848L9.856 207.792H13.344L6.656 216.912L5.568 217.488C5.824 217.04 6.13333 216.667 6.496 216.368C6.85867 216.048 7.30667 215.803 7.84 215.632C8.37333 215.461 9.00267 215.376 9.728 215.376C11.0293 215.376 12.2027 215.685 13.248 216.304C14.3147 216.923 15.168 217.776 15.808 218.864C16.4693 219.931 16.8 221.179 16.8 222.608C16.8 224.016 16.448 225.307 15.744 226.48C15.0613 227.653 14.1227 228.592 12.928 229.296C11.7547 229.979 10.4533 230.32 9.024 230.32ZM9.024 227.504C9.92 227.504 10.72 227.291 11.424 226.864C12.1493 226.416 12.7147 225.829 13.12 225.104C13.5467 224.357 13.76 223.525 13.76 222.608C13.76 221.691 13.5467 220.869 13.12 220.144C12.7147 219.397 12.1493 218.811 11.424 218.384C10.72 217.957 9.92 217.744 9.024 217.744C8.128 217.744 7.31733 217.957 6.592 218.384C5.888 218.811 5.32267 219.397 4.896 220.144C4.49067 220.869 4.288 221.691 4.288 222.608C4.288 223.525 4.49067 224.357 4.896 225.104C5.32267 225.851 5.888 226.437 6.592 226.864C7.31733 227.291 8.128 227.504 9.024 227.504ZM22.3825 230.32C21.7852 230.32 21.2838 230.117 20.8785 229.712C20.4945 229.285 20.3025 228.795 20.3025 228.24C20.3025 227.621 20.4945 227.12 20.8785 226.736C21.2838 226.331 21.7852 226.128 22.3825 226.128C22.9798 226.128 23.4705 226.331 23.8545 226.736C24.2598 227.12 24.4625 227.621 24.4625 228.24C24.4625 228.795 24.2598 229.285 23.8545 229.712C23.4705 230.117 22.9798 230.32 22.3825 230.32ZM22.3825 220.336C21.7852 220.336 21.2838 220.133 20.8785 219.728C20.4945 219.323 20.3025 218.832 20.3025 218.256C20.3025 217.637 20.4945 217.136 20.8785 216.752C21.2838 216.347 21.7852 216.144 22.3825 216.144C22.9798 216.144 23.4705 216.347 23.8545 216.752C24.2598 217.136 24.4625 217.637 24.4625 218.256C24.4625 218.832 24.2598 219.323 23.8545 219.728C23.4705 220.133 22.9798 220.336 22.3825 220.336ZM37.31 230.32C35.646 230.32 34.1207 229.851 32.734 228.912C31.3687 227.973 30.2807 226.651 29.47 224.944C28.6593 223.216 28.254 221.189 28.254 218.864C28.254 216.539 28.6487 214.523 29.438 212.816C30.2487 211.109 31.3367 209.797 32.702 208.88C34.0673 207.941 35.5713 207.472 37.214 207.472C38.8993 207.472 40.4247 207.941 41.79 208.88C43.1553 209.797 44.2327 211.109 45.022 212.816C45.8327 214.523 46.238 216.549 46.238 218.896C46.238 221.221 45.8327 223.248 45.022 224.976C44.2327 226.683 43.1553 228.005 41.79 228.944C40.446 229.861 38.9527 230.32 37.31 230.32ZM37.246 227.472C38.4193 227.472 39.4433 227.152 40.318 226.512C41.214 225.851 41.918 224.88 42.43 223.6C42.942 222.32 43.198 220.741 43.198 218.864C43.198 216.987 42.942 215.419 42.43 214.16C41.918 212.88 41.214 211.92 40.318 211.28C39.422 210.619 38.3873 210.288 37.214 210.288C36.062 210.288 35.038 210.619 34.142 211.28C33.246 211.92 32.542 212.88 32.03 214.16C31.5393 215.419 31.294 216.987 31.294 218.864C31.294 220.741 31.5393 222.32 32.03 223.6C32.542 224.88 33.246 225.851 34.142 226.512C35.038 227.152 36.0727 227.472 37.246 227.472ZM58.31 230.32C56.646 230.32 55.1207 229.851 53.734 228.912C52.3687 227.973 51.2807 226.651 50.47 224.944C49.6593 223.216 49.254 221.189 49.254 218.864C49.254 216.539 49.6487 214.523 50.438 212.816C51.2487 211.109 52.3367 209.797 53.702 208.88C55.0673 207.941 56.5713 207.472 58.214 207.472C59.8993 207.472 61.4247 207.941 62.79 208.88C64.1553 209.797 65.2327 211.109 66.022 212.816C66.8327 214.523 67.238 216.549 67.238 218.896C67.238 221.221 66.8327 223.248 66.022 224.976C65.2327 226.683 64.1553 228.005 62.79 228.944C61.446 229.861 59.9527 230.32 58.31 230.32ZM58.246 227.472C59.4193 227.472 60.4433 227.152 61.318 226.512C62.214 225.851 62.918 224.88 63.43 223.6C63.942 222.32 64.198 220.741 64.198 218.864C64.198 216.987 63.942 215.419 63.43 214.16C62.918 212.88 62.214 211.92 61.318 211.28C60.422 210.619 59.3873 210.288 58.214 210.288C57.062 210.288 56.038 210.619 55.142 211.28C54.246 211.92 53.542 212.88 53.03 214.16C52.5393 215.419 52.294 216.987 52.294 218.864C52.294 220.741 52.5393 222.32 53.03 223.6C53.542 224.88 54.246 225.851 55.142 226.512C56.038 227.152 57.0727 227.472 58.246 227.472ZM77.5182 223.216V220.496H88.0463V223.216H77.5182ZM101.293 230L109.613 209.552L112.589 209.648L104.461 230H101.293ZM97.8045 210.48V207.792H112.589V209.648L111.277 210.48H97.8045ZM117.945 230.32C117.348 230.32 116.846 230.117 116.441 229.712C116.057 229.285 115.865 228.795 115.865 228.24C115.865 227.621 116.057 227.12 116.441 226.736C116.846 226.331 117.348 226.128 117.945 226.128C118.542 226.128 119.033 226.331 119.417 226.736C119.822 227.12 120.025 227.621 120.025 228.24C120.025 228.795 119.822 229.285 119.417 229.712C119.033 230.117 118.542 230.32 117.945 230.32ZM117.945 220.336C117.348 220.336 116.846 220.133 116.441 219.728C116.057 219.323 115.865 218.832 115.865 218.256C115.865 217.637 116.057 217.136 116.441 216.752C116.846 216.347 117.348 216.144 117.945 216.144C118.542 216.144 119.033 216.347 119.417 216.752C119.822 217.136 120.025 217.637 120.025 218.256C120.025 218.832 119.822 219.323 119.417 219.728C119.033 220.133 118.542 220.336 117.945 220.336ZM130.217 230.32C128.766 230.32 127.443 230.053 126.249 229.52C125.075 228.965 124.083 228.165 123.273 227.12L125.321 225.072C125.811 225.819 126.483 226.416 127.337 226.864C128.19 227.291 129.139 227.504 130.185 227.504C131.166 227.504 132.009 227.323 132.713 226.96C133.438 226.576 134.003 226.043 134.409 225.36C134.835 224.677 135.049 223.888 135.049 222.992C135.049 222.075 134.835 221.285 134.409 220.624C134.003 219.941 133.427 219.419 132.681 219.056C131.934 218.693 131.049 218.512 130.025 218.512C129.641 218.512 129.257 218.544 128.873 218.608C128.489 218.651 128.115 218.725 127.753 218.832L129.033 217.104C129.438 216.912 129.875 216.763 130.345 216.656C130.814 216.549 131.283 216.496 131.753 216.496C132.947 216.496 134.014 216.773 134.953 217.328C135.913 217.883 136.67 218.661 137.225 219.664C137.801 220.667 138.089 221.829 138.089 223.152C138.089 224.56 137.747 225.808 137.065 226.896C136.403 227.963 135.486 228.805 134.313 229.424C133.139 230.021 131.774 230.32 130.217 230.32ZM127.753 218.832V217.008L134.249 209.616L137.833 209.584L131.145 217.168L127.753 218.832ZM124.329 210.48V207.792H137.833V209.584L135.209 210.48H124.329ZM150.091 230.32C148.427 230.32 146.902 229.851 145.515 228.912C144.15 227.973 143.062 226.651 142.251 224.944C141.441 223.216 141.035 221.189 141.035 218.864C141.035 216.539 141.43 214.523 142.219 212.816C143.03 211.109 144.118 209.797 145.483 208.88C146.849 207.941 148.353 207.472 149.995 207.472C151.681 207.472 153.206 207.941 154.571 208.88C155.937 209.797 157.014 211.109 157.803 212.816C158.614 214.523 159.019 216.549 159.019 218.896C159.019 221.221 158.614 223.248 157.803 224.976C157.014 226.683 155.937 228.005 154.571 228.944C153.227 229.861 151.734 230.32 150.091 230.32ZM150.027 227.472C151.201 227.472 152.225 227.152 153.099 226.512C153.995 225.851 154.699 224.88 155.211 223.6C155.723 222.32 155.979 220.741 155.979 218.864C155.979 216.987 155.723 215.419 155.211 214.16C154.699 212.88 153.995 211.92 153.099 211.28C152.203 210.619 151.169 210.288 149.995 210.288C148.843 210.288 147.819 210.619 146.923 211.28C146.027 211.92 145.323 212.88 144.811 214.16C144.321 215.419 144.075 216.987 144.075 218.864C144.075 220.741 144.321 222.32 144.811 223.6C145.323 224.88 146.027 225.851 146.923 226.512C147.819 227.152 148.854 227.472 150.027 227.472ZM177.3 230.32C176.148 230.32 175.102 230.085 174.164 229.616C173.246 229.125 172.51 228.453 171.956 227.6C171.401 226.747 171.092 225.776 171.028 224.688V220.112C171.092 219.003 171.401 218.032 171.956 217.2C172.532 216.347 173.278 215.685 174.196 215.216C175.134 214.725 176.169 214.48 177.3 214.48C178.686 214.48 179.934 214.832 181.044 215.536C182.174 216.24 183.06 217.189 183.7 218.384C184.34 219.579 184.66 220.923 184.66 222.416C184.66 223.909 184.34 225.253 183.7 226.448C183.06 227.643 182.174 228.592 181.044 229.296C179.934 229.979 178.686 230.32 177.3 230.32ZM169.299 236.368V214.8H172.18V218.8L171.636 222.48L172.18 226.192V236.368H169.299ZM176.82 227.6C177.78 227.6 178.622 227.376 179.348 226.928C180.073 226.48 180.649 225.872 181.076 225.104C181.502 224.315 181.716 223.408 181.716 222.384C181.716 221.381 181.502 220.485 181.076 219.696C180.649 218.907 180.073 218.299 179.348 217.872C178.622 217.424 177.79 217.2 176.852 217.2C175.892 217.2 175.049 217.424 174.324 217.872C173.598 218.299 173.033 218.907 172.628 219.696C172.222 220.485 172.02 221.392 172.02 222.416C172.02 223.419 172.212 224.315 172.596 225.104C173.001 225.872 173.566 226.48 174.292 226.928C175.038 227.376 175.881 227.6 176.82 227.6ZM187.924 230V214.8H190.805V230H187.924ZM198.197 230V220.816C198.197 219.685 197.845 218.8 197.141 218.16C196.458 217.499 195.594 217.168 194.549 217.168C193.845 217.168 193.215 217.317 192.661 217.616C192.106 217.915 191.658 218.331 191.317 218.864C190.975 219.397 190.805 220.037 190.805 220.784L189.621 220.208C189.621 219.056 189.866 218.053 190.357 217.2C190.869 216.347 191.562 215.685 192.437 215.216C193.311 214.725 194.293 214.48 195.381 214.48C196.447 214.48 197.407 214.715 198.261 215.184C199.135 215.653 199.818 216.315 200.309 217.168C200.821 218.021 201.077 219.035 201.077 220.208V230H198.197ZM208.469 230V220.816C208.469 219.685 208.117 218.8 207.413 218.16C206.73 217.499 205.877 217.168 204.853 217.168C204.149 217.168 203.509 217.317 202.933 217.616C202.378 217.915 201.93 218.331 201.589 218.864C201.247 219.397 201.077 220.037 201.077 220.784L199.445 220.208C199.509 219.035 199.818 218.032 200.373 217.2C200.949 216.347 201.685 215.685 202.581 215.216C203.477 214.725 204.458 214.48 205.525 214.48C206.634 214.48 207.626 214.715 208.501 215.184C209.375 215.653 210.069 216.315 210.581 217.168C211.114 218.021 211.381 219.045 211.381 220.24V230H208.469Z" fill="black"/>
<rect x="438" y="41" width="197" height="253" rx="19" stroke="black" stroke-width="2"/>
<rect x="234" y="41" width="197" height="253" rx="19" stroke="black" stroke-width="2"/>
<rect x="642" y="41" width="197" height="253" rx="19" stroke="black" stroke-width="2"/>
<rect x="846" y="41" width="197" height="253" rx="19" stroke="black" stroke-width="2"/>
<rect x="1050" y="41" width="197" height="253" rx="19" stroke="black" stroke-width="2"/>
<rect x="244" y="84" width="994" height="72" rx="20" fill="#86BCC8"/>
<rect x="244" y="182" width="994" height="72" rx="20" fill="#0C3F4A"/>
<path d="M656.968 126V109.344H659.224V126H656.968ZM667.72 126V109.344H669.976V126H667.72ZM658.504 118.416V116.352H668.272V118.416H658.504ZM678.737 126.24C677.617 126.24 676.609 125.976 675.713 125.448C674.817 124.92 674.105 124.208 673.577 123.312C673.049 122.4 672.785 121.384 672.785 120.264C672.785 119.16 673.049 118.168 673.577 117.288C674.105 116.392 674.817 115.68 675.713 115.152C676.609 114.624 677.617 114.36 678.737 114.36C679.841 114.36 680.841 114.624 681.737 115.152C682.649 115.664 683.369 116.368 683.897 117.264C684.425 118.16 684.689 119.16 684.689 120.264C684.689 121.384 684.425 122.4 683.897 123.312C683.369 124.208 682.649 124.92 681.737 125.448C680.841 125.976 679.841 126.24 678.737 126.24ZM678.737 124.152C679.457 124.152 680.097 123.984 680.657 123.648C681.217 123.312 681.657 122.856 681.977 122.28C682.297 121.688 682.457 121.016 682.457 120.264C682.457 119.528 682.289 118.872 681.953 118.296C681.633 117.72 681.193 117.272 680.633 116.952C680.089 116.616 679.457 116.448 678.737 116.448C678.017 116.448 677.377 116.616 676.817 116.952C676.257 117.272 675.817 117.72 675.497 118.296C675.177 118.872 675.017 119.528 675.017 120.264C675.017 121.016 675.177 121.688 675.497 122.28C675.817 122.856 676.257 123.312 676.817 123.648C677.377 123.984 678.017 124.152 678.737 124.152ZM687.123 126V114.6H689.283V126H687.123ZM694.827 126V119.112C694.827 118.264 694.563 117.6 694.035 117.12C693.523 116.624 692.875 116.376 692.091 116.376C691.563 116.376 691.091 116.488 690.675 116.712C690.259 116.936 689.923 117.248 689.667 117.648C689.411 118.048 689.283 118.528 689.283 119.088L688.395 118.656C688.395 117.792 688.579 117.04 688.947 116.4C689.331 115.76 689.851 115.264 690.507 114.912C691.163 114.544 691.899 114.36 692.715 114.36C693.515 114.36 694.235 114.536 694.875 114.888C695.531 115.24 696.043 115.736 696.411 116.376C696.795 117.016 696.987 117.776 696.987 118.656V126H694.827ZM702.531 126V119.112C702.531 118.264 702.267 117.6 701.739 117.12C701.227 116.624 700.587 116.376 699.819 116.376C699.291 116.376 698.811 116.488 698.379 116.712C697.963 116.936 697.627 117.248 697.371 117.648C697.115 118.048 696.987 118.528 696.987 119.088L695.763 118.656C695.811 117.776 696.043 117.024 696.459 116.4C696.891 115.76 697.443 115.264 698.115 114.912C698.787 114.544 699.523 114.36 700.323 114.36C701.155 114.36 701.899 114.536 702.555 114.888C703.211 115.24 703.731 115.736 704.115 116.376C704.515 117.016 704.715 117.784 704.715 118.68V126H702.531ZM712.934 126.24C711.798 126.24 710.774 125.984 709.862 125.472C708.95 124.944 708.23 124.232 707.702 123.336C707.174 122.44 706.91 121.424 706.91 120.288C706.91 119.168 707.166 118.16 707.678 117.264C708.206 116.368 708.91 115.664 709.79 115.152C710.686 114.624 711.686 114.36 712.79 114.36C713.846 114.36 714.774 114.6 715.574 115.08C716.39 115.56 717.022 116.224 717.47 117.072C717.934 117.92 718.166 118.88 718.166 119.952C718.166 120.112 718.158 120.288 718.142 120.48C718.126 120.656 718.094 120.864 718.046 121.104H708.422V119.304H716.894L716.102 120C716.102 119.232 715.966 118.584 715.694 118.056C715.422 117.512 715.038 117.096 714.542 116.808C714.046 116.504 713.446 116.352 712.742 116.352C712.006 116.352 711.358 116.512 710.798 116.832C710.238 117.152 709.806 117.6 709.502 118.176C709.198 118.752 709.046 119.432 709.046 120.216C709.046 121.016 709.206 121.72 709.526 122.328C709.846 122.92 710.302 123.384 710.894 123.72C711.486 124.04 712.166 124.2 712.934 124.2C713.574 124.2 714.158 124.088 714.686 123.864C715.23 123.64 715.694 123.304 716.078 122.856L717.47 124.272C716.926 124.912 716.254 125.4 715.454 125.736C714.67 126.072 713.83 126.24 712.934 126.24ZM723.645 126L719.133 114.6H721.389L724.653 123.48H723.933L727.173 114.6H728.421L731.661 123.48H730.941L734.205 114.6H736.461L731.973 126H730.701L727.413 117.384H728.205L724.893 126H723.645ZM743.261 126.24C742.141 126.24 741.133 125.976 740.237 125.448C739.341 124.92 738.629 124.208 738.101 123.312C737.573 122.4 737.309 121.384 737.309 120.264C737.309 119.16 737.573 118.168 738.101 117.288C738.629 116.392 739.341 115.68 740.237 115.152C741.133 114.624 742.141 114.36 743.261 114.36C744.365 114.36 745.365 114.624 746.261 115.152C747.173 115.664 747.893 116.368 748.421 117.264C748.949 118.16 749.213 119.16 749.213 120.264C749.213 121.384 748.949 122.4 748.421 123.312C747.893 124.208 747.173 124.92 746.261 125.448C745.365 125.976 744.365 126.24 743.261 126.24ZM743.261 124.152C743.981 124.152 744.621 123.984 745.181 123.648C745.741 123.312 746.181 122.856 746.501 122.28C746.821 121.688 746.981 121.016 746.981 120.264C746.981 119.528 746.813 118.872 746.477 118.296C746.157 117.72 745.717 117.272 745.157 116.952C744.613 116.616 743.981 116.448 743.261 116.448C742.541 116.448 741.901 116.616 741.341 116.952C740.781 117.272 740.341 117.72 740.021 118.296C739.701 118.872 739.541 119.528 739.541 120.264C739.541 121.016 739.701 121.688 740.021 122.28C740.341 122.856 740.781 123.312 741.341 123.648C741.901 123.984 742.541 124.152 743.261 124.152ZM751.646 126V114.6H753.807V126H751.646ZM753.807 119.496L752.991 119.136C752.991 117.68 753.327 116.52 753.999 115.656C754.671 114.792 755.639 114.36 756.903 114.36C757.479 114.36 757.999 114.464 758.463 114.672C758.927 114.864 759.359 115.192 759.759 115.656L758.343 117.12C758.103 116.864 757.839 116.68 757.551 116.568C757.263 116.456 756.927 116.4 756.543 116.4C755.743 116.4 755.087 116.656 754.575 117.168C754.063 117.68 753.807 118.456 753.807 119.496ZM768.575 126L763.247 120.168L768.527 114.6H771.143L765.263 120.744L765.359 119.496L771.359 126H768.575ZM761.279 126V108.864H763.439V126H761.279ZM778.609 126V109.344H780.865V126H778.609ZM789.361 126V109.344H791.617V126H789.361ZM780.145 118.416V116.352H789.913V118.416H780.145ZM800.45 126.24C799.314 126.24 798.29 125.984 797.378 125.472C796.466 124.944 795.746 124.232 795.218 123.336C794.69 122.44 794.426 121.424 794.426 120.288C794.426 119.168 794.682 118.16 795.194 117.264C795.722 116.368 796.426 115.664 797.306 115.152C798.202 114.624 799.202 114.36 800.306 114.36C801.362 114.36 802.29 114.6 803.09 115.08C803.906 115.56 804.538 116.224 804.986 117.072C805.45 117.92 805.682 118.88 805.682 119.952C805.682 120.112 805.674 120.288 805.658 120.48C805.642 120.656 805.61 120.864 805.562 121.104H795.938V119.304H804.41L803.618 120C803.618 119.232 803.482 118.584 803.21 118.056C802.938 117.512 802.554 117.096 802.058 116.808C801.562 116.504 800.962 116.352 800.258 116.352C799.522 116.352 798.874 116.512 798.314 116.832C797.754 117.152 797.322 117.6 797.018 118.176C796.714 118.752 796.562 119.432 796.562 120.216C796.562 121.016 796.722 121.72 797.042 122.328C797.362 122.92 797.818 123.384 798.41 123.72C799.002 124.04 799.682 124.2 800.45 124.2C801.09 124.2 801.674 124.088 802.202 123.864C802.746 123.64 803.21 123.304 803.594 122.856L804.986 124.272C804.442 124.912 803.77 125.4 802.97 125.736C802.186 126.072 801.346 126.24 800.45 126.24ZM808.037 126V108.864H810.197V126H808.037ZM819.357 126.24C818.493 126.24 817.709 126.064 817.005 125.712C816.317 125.344 815.765 124.84 815.349 124.2C814.933 123.56 814.701 122.832 814.653 122.016V118.584C814.701 117.752 814.933 117.024 815.349 116.4C815.781 115.76 816.341 115.264 817.029 114.912C817.733 114.544 818.509 114.36 819.357 114.36C820.397 114.36 821.333 114.624 822.165 115.152C823.013 115.68 823.677 116.392 824.157 117.288C824.637 118.184 824.877 119.192 824.877 120.312C824.877 121.432 824.637 122.44 824.157 123.336C823.677 124.232 823.013 124.944 822.165 125.472C821.333 125.984 820.397 126.24 819.357 126.24ZM813.357 130.776V114.6H815.517V117.6L815.109 120.36L815.517 123.144V130.776H813.357ZM818.997 124.2C819.717 124.2 820.349 124.032 820.893 123.696C821.437 123.36 821.869 122.904 822.189 122.328C822.509 121.736 822.669 121.056 822.669 120.288C822.669 119.536 822.509 118.864 822.189 118.272C821.869 117.68 821.437 117.224 820.893 116.904C820.349 116.568 819.725 116.4 819.021 116.4C818.301 116.4 817.669 116.568 817.125 116.904C816.581 117.224 816.157 117.68 815.853 118.272C815.549 118.864 815.397 119.544 815.397 120.312C815.397 121.064 815.541 121.736 815.829 122.328C816.133 122.904 816.557 123.36 817.101 123.696C817.661 124.032 818.293 124.2 818.997 124.2Z" fill="black"/>
<path d="M669.968 227V210.344H671.552L678.608 221.936H677.528L684.584 210.344H686.168V227H683.912V214.304L684.44 214.448L678.872 223.592H677.288L671.72 214.448L672.224 214.304V227H669.968ZM694.565 227.24C693.525 227.24 692.581 226.984 691.733 226.472C690.885 225.944 690.213 225.232 689.717 224.336C689.237 223.44 688.997 222.432 688.997 221.312C688.997 220.192 689.237 219.184 689.717 218.288C690.213 217.392 690.877 216.68 691.709 216.152C692.557 215.624 693.509 215.36 694.565 215.36C695.429 215.36 696.197 215.544 696.869 215.912C697.557 216.264 698.109 216.76 698.525 217.4C698.941 218.024 699.173 218.752 699.221 219.584V223.016C699.173 223.832 698.941 224.56 698.525 225.2C698.125 225.84 697.581 226.344 696.893 226.712C696.221 227.064 695.445 227.24 694.565 227.24ZM694.925 225.2C695.997 225.2 696.861 224.84 697.517 224.12C698.173 223.384 698.501 222.448 698.501 221.312C698.501 220.528 698.349 219.848 698.045 219.272C697.757 218.68 697.341 218.224 696.797 217.904C696.253 217.568 695.621 217.4 694.901 217.4C694.181 217.4 693.541 217.568 692.981 217.904C692.437 218.24 692.005 218.704 691.685 219.296C691.381 219.872 691.229 220.536 691.229 221.288C691.229 222.056 691.381 222.736 691.685 223.328C692.005 223.904 692.445 224.36 693.005 224.696C693.565 225.032 694.205 225.2 694.925 225.2ZM698.357 227V223.928L698.765 221.144L698.357 218.384V215.6H700.541V227H698.357ZM705.391 227V210.824H707.551V227H705.391ZM702.583 217.568V215.6H710.359V217.568H702.583ZM720.539 227V220.352C720.539 219.488 720.267 218.776 719.723 218.216C719.179 217.656 718.475 217.376 717.611 217.376C717.035 217.376 716.523 217.504 716.075 217.76C715.627 218.016 715.275 218.368 715.019 218.816C714.763 219.264 714.635 219.776 714.635 220.352L713.747 219.848C713.747 218.984 713.939 218.216 714.323 217.544C714.707 216.872 715.243 216.344 715.931 215.96C716.619 215.56 717.395 215.36 718.259 215.36C719.123 215.36 719.883 215.552 720.539 215.936C721.211 216.32 721.739 216.856 722.123 217.544C722.507 218.232 722.699 219.024 722.699 219.92V227H720.539ZM712.475 227V209.864H714.635V227H712.475ZM738.559 227.24C737.359 227.24 736.247 227.024 735.223 226.592C734.199 226.144 733.303 225.528 732.535 224.744C731.783 223.96 731.199 223.048 730.783 222.008C730.367 220.968 730.159 219.856 730.159 218.672C730.159 217.472 730.367 216.352 730.783 215.312C731.199 214.272 731.783 213.368 732.535 212.6C733.303 211.816 734.191 211.208 735.199 210.776C736.223 210.328 737.335 210.104 738.535 210.104C739.847 210.104 740.999 210.328 741.991 210.776C742.983 211.224 743.863 211.832 744.631 212.6L743.071 214.16C742.543 213.568 741.895 213.104 741.127 212.768C740.375 212.432 739.511 212.264 738.535 212.264C737.655 212.264 736.847 212.424 736.111 212.744C735.375 213.048 734.735 213.488 734.191 214.064C733.647 214.64 733.223 215.32 732.919 216.104C732.631 216.888 732.487 217.744 732.487 218.672C732.487 219.6 732.631 220.456 732.919 221.24C733.223 222.024 733.647 222.704 734.191 223.28C734.735 223.856 735.375 224.304 736.111 224.624C736.847 224.928 737.655 225.08 738.535 225.08C739.575 225.08 740.479 224.912 741.247 224.576C742.015 224.224 742.663 223.752 743.191 223.16L744.751 224.696C743.983 225.496 743.079 226.12 742.039 226.568C741.015 227.016 739.855 227.24 738.559 227.24ZM747.139 227V209.864H749.299V227H747.139ZM757.307 227.24C756.267 227.24 755.323 226.984 754.475 226.472C753.627 225.944 752.955 225.232 752.459 224.336C751.979 223.44 751.739 222.432 751.739 221.312C751.739 220.192 751.979 219.184 752.459 218.288C752.955 217.392 753.619 216.68 754.451 216.152C755.299 215.624 756.251 215.36 757.307 215.36C758.171 215.36 758.939 215.544 759.611 215.912C760.299 216.264 760.851 216.76 761.267 217.4C761.683 218.024 761.915 218.752 761.963 219.584V223.016C761.915 223.832 761.683 224.56 761.267 225.2C760.867 225.84 760.323 226.344 759.635 226.712C758.963 227.064 758.187 227.24 757.307 227.24ZM757.667 225.2C758.739 225.2 759.603 224.84 760.259 224.12C760.915 223.384 761.243 222.448 761.243 221.312C761.243 220.528 761.091 219.848 760.787 219.272C760.499 218.68 760.083 218.224 759.539 217.904C758.995 217.568 758.363 217.4 757.643 217.4C756.923 217.4 756.283 217.568 755.723 217.904C755.179 218.24 754.747 218.704 754.427 219.296C754.123 219.872 753.971 220.536 753.971 221.288C753.971 222.056 754.123 222.736 754.427 223.328C754.747 223.904 755.187 224.36 755.747 224.696C756.307 225.032 756.947 225.2 757.667 225.2ZM761.099 227V223.928L761.507 221.144L761.099 218.384V215.6H763.283V227H761.099ZM770.052 227.24C769.412 227.24 768.804 227.16 768.228 227C767.668 226.824 767.148 226.584 766.668 226.28C766.188 225.96 765.772 225.584 765.42 225.152L766.812 223.76C767.228 224.272 767.708 224.656 768.252 224.912C768.796 225.152 769.404 225.272 770.076 225.272C770.748 225.272 771.268 225.16 771.636 224.936C772.004 224.696 772.188 224.368 772.188 223.952C772.188 223.536 772.036 223.216 771.732 222.992C771.444 222.752 771.068 222.56 770.604 222.416C770.14 222.256 769.644 222.104 769.116 221.96C768.604 221.8 768.116 221.6 767.652 221.36C767.188 221.12 766.804 220.792 766.5 220.376C766.212 219.96 766.068 219.408 766.068 218.72C766.068 218.032 766.236 217.44 766.572 216.944C766.908 216.432 767.372 216.04 767.964 215.768C768.572 215.496 769.3 215.36 770.148 215.36C771.044 215.36 771.836 215.52 772.524 215.84C773.228 216.144 773.804 216.608 774.252 217.232L772.86 218.624C772.54 218.208 772.14 217.888 771.66 217.664C771.196 217.44 770.668 217.328 770.076 217.328C769.452 217.328 768.972 217.44 768.636 217.664C768.316 217.872 768.156 218.168 768.156 218.552C768.156 218.936 768.3 219.232 768.588 219.44C768.876 219.648 769.252 219.824 769.716 219.968C770.196 220.112 770.692 220.264 771.204 220.424C771.716 220.568 772.204 220.768 772.668 221.024C773.132 221.28 773.508 221.624 773.796 222.056C774.1 222.488 774.252 223.056 774.252 223.76C774.252 224.832 773.868 225.68 773.1 226.304C772.348 226.928 771.332 227.24 770.052 227.24ZM780.294 227.24C779.654 227.24 779.046 227.16 778.47 227C777.91 226.824 777.39 226.584 776.91 226.28C776.43 225.96 776.014 225.584 775.662 225.152L777.054 223.76C777.47 224.272 777.95 224.656 778.494 224.912C779.038 225.152 779.646 225.272 780.318 225.272C780.99 225.272 781.51 225.16 781.878 224.936C782.246 224.696 782.43 224.368 782.43 223.952C782.43 223.536 782.278 223.216 781.974 222.992C781.686 222.752 781.31 222.56 780.846 222.416C780.382 222.256 779.886 222.104 779.358 221.96C778.846 221.8 778.358 221.6 777.894 221.36C777.43 221.12 777.046 220.792 776.742 220.376C776.454 219.96 776.31 219.408 776.31 218.72C776.31 218.032 776.478 217.44 776.814 216.944C777.15 216.432 777.614 216.04 778.206 215.768C778.814 215.496 779.542 215.36 780.39 215.36C781.286 215.36 782.078 215.52 782.766 215.84C783.47 216.144 784.046 216.608 784.494 217.232L783.102 218.624C782.782 218.208 782.382 217.888 781.902 217.664C781.438 217.44 780.91 217.328 780.318 217.328C779.694 217.328 779.214 217.44 778.878 217.664C778.558 217.872 778.398 218.168 778.398 218.552C778.398 218.936 778.542 219.232 778.83 219.44C779.118 219.648 779.494 219.824 779.958 219.968C780.438 220.112 780.934 220.264 781.446 220.424C781.958 220.568 782.446 220.768 782.91 221.024C783.374 221.28 783.75 221.624 784.038 222.056C784.342 222.488 784.494 223.056 784.494 223.76C784.494 224.832 784.11 225.68 783.342 226.304C782.59 226.928 781.574 227.24 780.294 227.24ZM792.192 227.24C791.056 227.24 790.032 226.984 789.12 226.472C788.208 225.944 787.488 225.232 786.96 224.336C786.432 223.44 786.168 222.424 786.168 221.288C786.168 220.168 786.424 219.16 786.936 218.264C787.464 217.368 788.168 216.664 789.048 216.152C789.944 215.624 790.944 215.36 792.048 215.36C793.104 215.36 794.032 215.6 794.832 216.08C795.648 216.56 796.28 217.224 796.728 218.072C797.192 218.92 797.424 219.88 797.424 220.952C797.424 221.112 797.416 221.288 797.4 221.48C797.384 221.656 797.352 221.864 797.304 222.104H787.68V220.304H796.152L795.36 221C795.36 220.232 795.224 219.584 794.952 219.056C794.68 218.512 794.296 218.096 793.8 217.808C793.304 217.504 792.704 217.352 792 217.352C791.264 217.352 790.616 217.512 790.056 217.832C789.496 218.152 789.064 218.6 788.76 219.176C788.456 219.752 788.304 220.432 788.304 221.216C788.304 222.016 788.464 222.72 788.784 223.328C789.104 223.92 789.56 224.384 790.152 224.72C790.744 225.04 791.424 225.2 792.192 225.2C792.832 225.2 793.416 225.088 793.944 224.864C794.488 224.64 794.952 224.304 795.336 223.856L796.728 225.272C796.184 225.912 795.512 226.4 794.712 226.736C793.928 227.072 793.088 227.24 792.192 227.24ZM803.403 227.24C802.763 227.24 802.155 227.16 801.579 227C801.019 226.824 800.499 226.584 800.019 226.28C799.539 225.96 799.123 225.584 798.771 225.152L800.163 223.76C800.579 224.272 801.059 224.656 801.603 224.912C802.147 225.152 802.755 225.272 803.427 225.272C804.099 225.272 804.619 225.16 804.987 224.936C805.355 224.696 805.539 224.368 805.539 223.952C805.539 223.536 805.387 223.216 805.083 222.992C804.795 222.752 804.419 222.56 803.955 222.416C803.491 222.256 802.995 222.104 802.467 221.96C801.955 221.8 801.467 221.6 801.003 221.36C800.539 221.12 800.155 220.792 799.851 220.376C799.563 219.96 799.419 219.408 799.419 218.72C799.419 218.032 799.587 217.44 799.923 216.944C800.259 216.432 800.723 216.04 801.315 215.768C801.923 215.496 802.651 215.36 803.499 215.36C804.395 215.36 805.187 215.52 805.875 215.84C806.579 216.144 807.155 216.608 807.603 217.232L806.211 218.624C805.891 218.208 805.491 217.888 805.011 217.664C804.547 217.44 804.019 217.328 803.427 217.328C802.803 217.328 802.323 217.44 801.987 217.664C801.667 217.872 801.507 218.168 801.507 218.552C801.507 218.936 801.651 219.232 801.939 219.44C802.227 219.648 802.603 219.824 803.067 219.968C803.547 220.112 804.043 220.264 804.555 220.424C805.067 220.568 805.555 220.768 806.019 221.024C806.483 221.28 806.859 221.624 807.147 222.056C807.451 222.488 807.603 223.056 807.603 223.76C807.603 224.832 807.219 225.68 806.451 226.304C805.699 226.928 804.683 227.24 803.403 227.24Z" fill="white"/>
</svg>
