<svg width="334" height="102" viewBox="0 0 334 102" fill="none" xmlns="http://www.w3.org/2000/svg">
<path d="M88.82 10V3.06H89.48L92.42 7.89H91.97L94.91 3.06H95.57V10H94.63V4.71L94.85 4.77L92.53 8.58H91.87L89.55 4.77L89.76 4.71V10H88.82ZM99.2187 10.1C98.752 10.1 98.332 9.99 97.9587 9.77C97.5853 9.55 97.2887 9.25333 97.0687 8.88C96.8487 8.5 96.7387 8.07667 96.7387 7.61C96.7387 7.15 96.8487 6.73667 97.0687 6.37C97.2887 5.99667 97.5853 5.7 97.9587 5.48C98.332 5.26 98.752 5.15 99.2187 5.15C99.6787 5.15 100.095 5.26 100.469 5.48C100.849 5.69333 101.149 5.98667 101.369 6.36C101.589 6.73333 101.699 7.15 101.699 7.61C101.699 8.07667 101.589 8.5 101.369 8.88C101.149 9.25333 100.849 9.55 100.469 9.77C100.095 9.99 99.6787 10.1 99.2187 10.1ZM99.2187 9.23C99.5187 9.23 99.7853 9.16 100.019 9.02C100.252 8.88 100.435 8.69 100.569 8.45C100.702 8.20333 100.769 7.92333 100.769 7.61C100.769 7.30333 100.699 7.03 100.559 6.79C100.425 6.55 100.242 6.36333 100.009 6.23C99.782 6.09 99.5187 6.02 99.2187 6.02C98.9187 6.02 98.652 6.09 98.4187 6.23C98.1853 6.36333 98.002 6.55 97.8687 6.79C97.7353 7.03 97.6687 7.30333 97.6687 7.61C97.6687 7.92333 97.7353 8.20333 97.8687 8.45C98.002 8.69 98.1853 8.88 98.4187 9.02C98.652 9.16 98.9187 9.23 99.2187 9.23ZM106.073 10V7.23C106.073 6.87 105.959 6.57333 105.733 6.34C105.506 6.10667 105.213 5.99 104.853 5.99C104.613 5.99 104.399 6.04333 104.213 6.15C104.026 6.25667 103.879 6.40333 103.773 6.59C103.666 6.77667 103.613 6.99 103.613 7.23L103.243 7.02C103.243 6.66 103.323 6.34 103.483 6.06C103.643 5.78 103.866 5.56 104.153 5.4C104.439 5.23333 104.763 5.15 105.123 5.15C105.483 5.15 105.799 5.24 106.073 5.42C106.353 5.6 106.573 5.83667 106.733 6.13C106.893 6.41667 106.973 6.72333 106.973 7.05V10H106.073ZM102.713 10V5.25H103.613V10H102.713Z" fill="black"/>
<path d="M144.66 10V3.26H145.6V10H144.66ZM142.3 3.92V3.06H147.95V3.92H142.3ZM149.843 10.1C149.457 10.1 149.107 10.0133 148.793 9.84C148.487 9.66 148.247 9.41333 148.073 9.1C147.9 8.78667 147.813 8.42333 147.813 8.01V5.25H148.713V7.97C148.713 8.23 148.757 8.45667 148.843 8.65C148.937 8.83667 149.07 8.98 149.243 9.08C149.417 9.18 149.62 9.23 149.853 9.23C150.207 9.23 150.483 9.12 150.683 8.9C150.883 8.67333 150.983 8.36333 150.983 7.97V5.25H151.883V8.01C151.883 8.42333 151.797 8.78667 151.623 9.1C151.45 9.41333 151.21 9.66 150.903 9.84C150.603 10.0133 150.25 10.1 149.843 10.1ZM155.29 10.1C154.816 10.1 154.39 9.99333 154.01 9.78C153.63 9.56 153.33 9.26333 153.11 8.89C152.89 8.51667 152.78 8.09333 152.78 7.62C152.78 7.15333 152.886 6.73333 153.1 6.36C153.32 5.98667 153.613 5.69333 153.98 5.48C154.353 5.26 154.77 5.15 155.23 5.15C155.67 5.15 156.056 5.25 156.39 5.45C156.73 5.65 156.993 5.92667 157.18 6.28C157.373 6.63333 157.47 7.03333 157.47 7.48C157.47 7.54667 157.466 7.62 157.46 7.7C157.453 7.77333 157.44 7.86 157.42 7.96H153.41V7.21H156.94L156.61 7.5C156.61 7.18 156.553 6.91 156.44 6.69C156.326 6.46333 156.166 6.29 155.96 6.17C155.753 6.04333 155.503 5.98 155.21 5.98C154.903 5.98 154.633 6.04667 154.4 6.18C154.166 6.31333 153.986 6.5 153.86 6.74C153.733 6.98 153.67 7.26333 153.67 7.59C153.67 7.92333 153.736 8.21667 153.87 8.47C154.003 8.71667 154.193 8.91 154.44 9.05C154.686 9.18333 154.97 9.25 155.29 9.25C155.556 9.25 155.8 9.20333 156.02 9.11C156.246 9.01667 156.44 8.87667 156.6 8.69L157.18 9.28C156.953 9.54667 156.673 9.75 156.34 9.89C156.013 10.03 155.663 10.1 155.29 10.1Z" fill="black"/>
<path d="M194.59 10L192.32 3.06H193.26L195.06 8.72H194.79L196.56 3.06H197.24L199.01 8.72H198.75L200.55 3.06H201.48L199.22 10H198.55L196.77 4.35H197.03L195.26 10H194.59ZM203.942 10.1C203.469 10.1 203.042 9.99333 202.662 9.78C202.282 9.56 201.982 9.26333 201.762 8.89C201.542 8.51667 201.432 8.09333 201.432 7.62C201.432 7.15333 201.539 6.73333 201.752 6.36C201.972 5.98667 202.265 5.69333 202.632 5.48C203.005 5.26 203.422 5.15 203.882 5.15C204.322 5.15 204.709 5.25 205.042 5.45C205.382 5.65 205.645 5.92667 205.832 6.28C206.025 6.63333 206.122 7.03333 206.122 7.48C206.122 7.54667 206.119 7.62 206.112 7.7C206.105 7.77333 206.092 7.86 206.072 7.96H202.062V7.21H205.592L205.262 7.5C205.262 7.18 205.205 6.91 205.092 6.69C204.979 6.46333 204.819 6.29 204.612 6.17C204.405 6.04333 204.155 5.98 203.862 5.98C203.555 5.98 203.285 6.04667 203.052 6.18C202.819 6.31333 202.639 6.5 202.512 6.74C202.385 6.98 202.322 7.26333 202.322 7.59C202.322 7.92333 202.389 8.21667 202.522 8.47C202.655 8.71667 202.845 8.91 203.092 9.05C203.339 9.18333 203.622 9.25 203.942 9.25C204.209 9.25 204.452 9.20333 204.672 9.11C204.899 9.01667 205.092 8.87667 205.252 8.69L205.832 9.28C205.605 9.54667 205.325 9.75 204.992 9.89C204.665 10.03 204.315 10.1 203.942 10.1ZM209.113 10.1C208.673 10.1 208.28 9.99333 207.933 9.78C207.587 9.56 207.31 9.26333 207.103 8.89C206.903 8.51667 206.803 8.09667 206.803 7.63C206.803 7.16333 206.903 6.74333 207.103 6.37C207.31 5.99667 207.587 5.7 207.933 5.48C208.28 5.26 208.673 5.15 209.113 5.15C209.467 5.15 209.787 5.22667 210.073 5.38C210.36 5.52667 210.59 5.73333 210.763 6C210.943 6.26 211.043 6.56333 211.063 6.91V8.34C211.043 8.68 210.947 8.98333 210.773 9.25C210.6 9.51667 210.37 9.72667 210.083 9.88C209.797 10.0267 209.473 10.1 209.113 10.1ZM209.263 9.25C209.563 9.25 209.823 9.18 210.043 9.04C210.27 8.9 210.447 8.71 210.573 8.47C210.7 8.22333 210.763 7.94333 210.763 7.63C210.763 7.30333 210.697 7.02 210.563 6.78C210.437 6.54 210.26 6.35 210.033 6.21C209.813 6.07 209.553 6 209.253 6C208.953 6 208.69 6.07 208.463 6.21C208.237 6.35 208.057 6.54333 207.923 6.79C207.797 7.03 207.733 7.30667 207.733 7.62C207.733 7.94 207.797 8.22333 207.923 8.47C208.057 8.71 208.237 8.9 208.463 9.04C208.697 9.18 208.963 9.25 209.263 9.25ZM211.613 10H210.703V8.72L210.873 7.56L210.703 6.41V2.86H211.613V10Z" fill="black"/>
<path d="M249.66 10V3.26H250.6V10H249.66ZM247.3 3.92V3.06H252.95V3.92H247.3ZM257.27 10V7.23C257.27 6.87 257.157 6.57333 256.93 6.34C256.703 6.10667 256.41 5.99 256.05 5.99C255.81 5.99 255.597 6.04333 255.41 6.15C255.223 6.25667 255.077 6.40333 254.97 6.59C254.863 6.77667 254.81 6.99 254.81 7.23L254.44 7.02C254.44 6.66 254.52 6.34 254.68 6.06C254.84 5.78 255.063 5.56 255.35 5.4C255.637 5.23333 255.96 5.15 256.32 5.15C256.68 5.15 256.997 5.23 257.27 5.39C257.55 5.55 257.77 5.77333 257.93 6.06C258.09 6.34667 258.17 6.67667 258.17 7.05V10H257.27ZM253.91 10V2.86H254.81V10H253.91ZM261.299 10.1C260.912 10.1 260.562 10.0133 260.249 9.84C259.942 9.66 259.702 9.41333 259.529 9.1C259.355 8.78667 259.269 8.42333 259.269 8.01V5.25H260.169V7.97C260.169 8.23 260.212 8.45667 260.299 8.65C260.392 8.83667 260.525 8.98 260.699 9.08C260.872 9.18 261.075 9.23 261.309 9.23C261.662 9.23 261.939 9.12 262.139 8.9C262.339 8.67333 262.439 8.36333 262.439 7.97V5.25H263.339V8.01C263.339 8.42333 263.252 8.78667 263.079 9.1C262.905 9.41333 262.665 9.66 262.359 9.84C262.059 10.0133 261.705 10.1 261.299 10.1Z" fill="black"/>
<path d="M302.82 10V3.06H303.76V10H302.82ZM303.46 6.95V6.09H307.08V6.95H303.46ZM303.46 3.92V3.06H307.25V3.92H303.46ZM308.324 10V5.25H309.224V10H308.324ZM309.224 7.29L308.884 7.14C308.884 6.53333 309.024 6.05 309.304 5.69C309.584 5.33 309.987 5.15 310.514 5.15C310.754 5.15 310.971 5.19333 311.164 5.28C311.357 5.36 311.537 5.49667 311.704 5.69L311.114 6.3C311.014 6.19333 310.904 6.11667 310.784 6.07C310.664 6.02333 310.524 6 310.364 6C310.031 6 309.757 6.10667 309.544 6.32C309.331 6.53333 309.224 6.85667 309.224 7.29ZM312.348 10V5.25H313.248V10H312.348ZM312.798 4.3C312.631 4.3 312.494 4.24667 312.388 4.14C312.281 4.02667 312.228 3.88667 312.228 3.72C312.228 3.56 312.281 3.42667 312.388 3.32C312.494 3.20667 312.631 3.15 312.798 3.15C312.964 3.15 313.101 3.20667 313.208 3.32C313.314 3.42667 313.368 3.56 313.368 3.72C313.368 3.88667 313.314 4.02667 313.208 4.14C313.101 4.24667 312.964 4.3 312.798 4.3Z" fill="black"/>
<path d="M2.47 43.1C2.01667 43.1 1.60333 43.0167 1.23 42.85C0.863333 42.6767 0.553333 42.4267 0.3 42.1L0.94 41.46C1.09333 41.6933 1.30333 41.88 1.57 42.02C1.83667 42.1533 2.13333 42.22 2.46 42.22C2.76667 42.22 3.03 42.1633 3.25 42.05C3.47667 41.93 3.65333 41.7633 3.78 41.55C3.91333 41.3367 3.98 41.09 3.98 40.81C3.98 40.5233 3.91333 40.2767 3.78 40.07C3.65333 39.8567 3.47333 39.6933 3.24 39.58C3.00667 39.4667 2.73 39.41 2.41 39.41C2.29 39.41 2.17 39.42 2.05 39.44C1.93 39.4533 1.81333 39.4767 1.7 39.51L2.1 38.97C2.22667 38.91 2.36333 38.8633 2.51 38.83C2.65667 38.7967 2.80333 38.78 2.95 38.78C3.32333 38.78 3.65667 38.8667 3.95 39.04C4.25 39.2133 4.48667 39.4567 4.66 39.77C4.84 40.0833 4.93 40.4467 4.93 40.86C4.93 41.3 4.82333 41.69 4.61 42.03C4.40333 42.3633 4.11667 42.6267 3.75 42.82C3.38333 43.0067 2.95667 43.1 2.47 43.1ZM1.7 39.51V38.94L3.73 36.63L4.85 36.62L2.76 38.99L1.7 39.51ZM0.63 36.9V36.06H4.85V36.62L4.03 36.9H0.63ZM6.73086 43.1C6.54419 43.1 6.38753 43.0367 6.26086 42.91C6.14086 42.7767 6.08086 42.6233 6.08086 42.45C6.08086 42.2567 6.14086 42.1 6.26086 41.98C6.38753 41.8533 6.54419 41.79 6.73086 41.79C6.91753 41.79 7.07086 41.8533 7.19086 41.98C7.31753 42.1 7.38086 42.2567 7.38086 42.45C7.38086 42.6233 7.31753 42.7767 7.19086 42.91C7.07086 43.0367 6.91753 43.1 6.73086 43.1ZM6.73086 39.98C6.54419 39.98 6.38753 39.9167 6.26086 39.79C6.14086 39.6633 6.08086 39.51 6.08086 39.33C6.08086 39.1367 6.14086 38.98 6.26086 38.86C6.38753 38.7333 6.54419 38.67 6.73086 38.67C6.91753 38.67 7.07086 38.7333 7.19086 38.86C7.31753 38.98 7.38086 39.1367 7.38086 39.33C7.38086 39.51 7.31753 39.6633 7.19086 39.79C7.07086 39.9167 6.91753 39.98 6.73086 39.98ZM10.5657 43.1C10.1124 43.1 9.69904 43.0167 9.3257 42.85C8.95904 42.6767 8.64904 42.4267 8.3957 42.1L9.0357 41.46C9.18904 41.6933 9.39904 41.88 9.6657 42.02C9.93237 42.1533 10.229 42.22 10.5557 42.22C10.8624 42.22 11.1257 42.1633 11.3457 42.05C11.5724 41.93 11.749 41.7633 11.8757 41.55C12.009 41.3367 12.0757 41.09 12.0757 40.81C12.0757 40.5233 12.009 40.2767 11.8757 40.07C11.749 39.8567 11.569 39.6933 11.3357 39.58C11.1024 39.4667 10.8257 39.41 10.5057 39.41C10.3857 39.41 10.2657 39.42 10.1457 39.44C10.0257 39.4533 9.90904 39.4767 9.7957 39.51L10.1957 38.97C10.3224 38.91 10.459 38.8633 10.6057 38.83C10.7524 38.7967 10.899 38.78 11.0457 38.78C11.419 38.78 11.7524 38.8667 12.0457 39.04C12.3457 39.2133 12.5824 39.4567 12.7557 39.77C12.9357 40.0833 13.0257 40.4467 13.0257 40.86C13.0257 41.3 12.919 41.69 12.7057 42.03C12.499 42.3633 12.2124 42.6267 11.8457 42.82C11.479 43.0067 11.0524 43.1 10.5657 43.1ZM9.7957 39.51V38.94L11.8257 36.63L12.9457 36.62L10.8557 38.99L9.7957 39.51ZM8.7257 36.9V36.06H12.9457V36.62L12.1257 36.9H8.7257ZM16.7766 43.1C16.2566 43.1 15.7799 42.9533 15.3466 42.66C14.9199 42.3667 14.5799 41.9533 14.3266 41.42C14.0732 40.88 13.9466 40.2467 13.9466 39.52C13.9466 38.7933 14.0699 38.1633 14.3166 37.63C14.5699 37.0967 14.9099 36.6867 15.3366 36.4C15.7632 36.1067 16.2332 35.96 16.7466 35.96C17.2732 35.96 17.7499 36.1067 18.1766 36.4C18.6032 36.6867 18.9399 37.0967 19.1866 37.63C19.4399 38.1633 19.5666 38.7967 19.5666 39.53C19.5666 40.2567 19.4399 40.89 19.1866 41.43C18.9399 41.9633 18.6032 42.3767 18.1766 42.67C17.7566 42.9567 17.2899 43.1 16.7766 43.1ZM16.7566 42.21C17.1232 42.21 17.4432 42.11 17.7166 41.91C17.9966 41.7033 18.2166 41.4 18.3766 41C18.5366 40.6 18.6166 40.1067 18.6166 39.52C18.6166 38.9333 18.5366 38.4433 18.3766 38.05C18.2166 37.65 17.9966 37.35 17.7166 37.15C17.4366 36.9433 17.1132 36.84 16.7466 36.84C16.3866 36.84 16.0666 36.9433 15.7866 37.15C15.5066 37.35 15.2866 37.65 15.1266 38.05C14.9732 38.4433 14.8966 38.9333 14.8966 39.52C14.8966 40.1067 14.9732 40.6 15.1266 41C15.2866 41.4 15.5066 41.7033 15.7866 41.91C16.0666 42.11 16.3899 42.21 16.7566 42.21ZM22.7791 40.88V40.03H26.0691V40.88H22.7791ZM29.1386 40.61L31.6686 36.06H32.7286L30.1486 40.61H29.1386ZM29.1386 41.19V40.61L29.5386 40.35H34.4586V41.19H29.1386ZM32.5286 43V38.41H33.4586V43H32.5286ZM36.1352 43.1C35.9485 43.1 35.7918 43.0367 35.6652 42.91C35.5452 42.7767 35.4852 42.6233 35.4852 42.45C35.4852 42.2567 35.5452 42.1 35.6652 41.98C35.7918 41.8533 35.9485 41.79 36.1352 41.79C36.3218 41.79 36.4752 41.8533 36.5952 41.98C36.7218 42.1 36.7852 42.2567 36.7852 42.45C36.7852 42.6233 36.7218 42.7767 36.5952 42.91C36.4752 43.0367 36.3218 43.1 36.1352 43.1ZM36.1352 39.98C35.9485 39.98 35.7918 39.9167 35.6652 39.79C35.5452 39.6633 35.4852 39.51 35.4852 39.33C35.4852 39.1367 35.5452 38.98 35.6652 38.86C35.7918 38.7333 35.9485 38.67 36.1352 38.67C36.3218 38.67 36.4752 38.7333 36.5952 38.86C36.7218 38.98 36.7852 39.1367 36.7852 39.33C36.7852 39.51 36.7218 39.6633 36.5952 39.79C36.4752 39.9167 36.3218 39.98 36.1352 39.98ZM39.97 43.1C39.5167 43.1 39.1033 43.0167 38.73 42.85C38.3633 42.6767 38.0533 42.4267 37.8 42.1L38.44 41.46C38.5933 41.6933 38.8033 41.88 39.07 42.02C39.3367 42.1533 39.6333 42.22 39.96 42.22C40.2667 42.22 40.53 42.1633 40.75 42.05C40.9767 41.93 41.1533 41.7633 41.28 41.55C41.4133 41.3367 41.48 41.09 41.48 40.81C41.48 40.5233 41.4133 40.2767 41.28 40.07C41.1533 39.8567 40.9733 39.6933 40.74 39.58C40.5067 39.4667 40.23 39.41 39.91 39.41C39.79 39.41 39.67 39.42 39.55 39.44C39.43 39.4533 39.3133 39.4767 39.2 39.51L39.6 38.97C39.7267 38.91 39.8633 38.8633 40.01 38.83C40.1567 38.7967 40.3033 38.78 40.45 38.78C40.8233 38.78 41.1567 38.8667 41.45 39.04C41.75 39.2133 41.9867 39.4567 42.16 39.77C42.34 40.0833 42.43 40.4467 42.43 40.86C42.43 41.3 42.3233 41.69 42.11 42.03C41.9033 42.3633 41.6167 42.6267 41.25 42.82C40.8833 43.0067 40.4567 43.1 39.97 43.1ZM39.2 39.51V38.94L41.23 36.63L42.35 36.62L40.26 38.99L39.2 39.51ZM38.13 36.9V36.06H42.35V36.62L41.53 36.9H38.13ZM46.1809 43.1C45.6609 43.1 45.1842 42.9533 44.7509 42.66C44.3242 42.3667 43.9842 41.9533 43.7309 41.42C43.4775 40.88 43.3509 40.2467 43.3509 39.52C43.3509 38.7933 43.4742 38.1633 43.7209 37.63C43.9742 37.0967 44.3142 36.6867 44.7409 36.4C45.1675 36.1067 45.6375 35.96 46.1509 35.96C46.6775 35.96 47.1542 36.1067 47.5809 36.4C48.0075 36.6867 48.3442 37.0967 48.5909 37.63C48.8442 38.1633 48.9709 38.7967 48.9709 39.53C48.9709 40.2567 48.8442 40.89 48.5909 41.43C48.3442 41.9633 48.0075 42.3767 47.5809 42.67C47.1609 42.9567 46.6942 43.1 46.1809 43.1ZM46.1609 42.21C46.5275 42.21 46.8475 42.11 47.1209 41.91C47.4009 41.7033 47.6209 41.4 47.7809 41C47.9409 40.6 48.0209 40.1067 48.0209 39.52C48.0209 38.9333 47.9409 38.4433 47.7809 38.05C47.6209 37.65 47.4009 37.35 47.1209 37.15C46.8409 36.9433 46.5175 36.84 46.1509 36.84C45.7909 36.84 45.4709 36.9433 45.1909 37.15C44.9109 37.35 44.6909 37.65 44.5309 38.05C44.3775 38.4433 44.3009 38.9333 44.3009 39.52C44.3009 40.1067 44.3775 40.6 44.5309 41C44.6909 41.4 44.9109 41.7033 45.1909 41.91C45.4709 42.11 45.7942 42.21 46.1609 42.21ZM54.6834 43.1C54.3234 43.1 53.9968 43.0267 53.7034 42.88C53.4168 42.7267 53.1868 42.5167 53.0134 42.25C52.8401 41.9833 52.7434 41.68 52.7234 41.34V39.91C52.7434 39.5633 52.8401 39.26 53.0134 39C53.1934 38.7333 53.4268 38.5267 53.7134 38.38C54.0068 38.2267 54.3301 38.15 54.6834 38.15C55.1168 38.15 55.5068 38.26 55.8534 38.48C56.2068 38.7 56.4834 38.9967 56.6834 39.37C56.8834 39.7433 56.9834 40.1633 56.9834 40.63C56.9834 41.0967 56.8834 41.5167 56.6834 41.89C56.4834 42.2633 56.2068 42.56 55.8534 42.78C55.5068 42.9933 55.1168 43.1 54.6834 43.1ZM52.1834 44.99V38.25H53.0834V39.5L52.9134 40.65L53.0834 41.81V44.99H52.1834ZM54.5334 42.25C54.8334 42.25 55.0968 42.18 55.3234 42.04C55.5501 41.9 55.7301 41.71 55.8634 41.47C55.9968 41.2233 56.0634 40.94 56.0634 40.62C56.0634 40.3067 55.9968 40.0267 55.8634 39.78C55.7301 39.5333 55.5501 39.3433 55.3234 39.21C55.0968 39.07 54.8368 39 54.5434 39C54.2434 39 53.9801 39.07 53.7534 39.21C53.5268 39.3433 53.3501 39.5333 53.2234 39.78C53.0968 40.0267 53.0334 40.31 53.0334 40.63C53.0334 40.9433 53.0934 41.2233 53.2134 41.47C53.3401 41.71 53.5168 41.9 53.7434 42.04C53.9768 42.18 54.2401 42.25 54.5334 42.25ZM58.0037 43V38.25H58.9038V43H58.0037ZM61.2138 43V40.13C61.2138 39.7767 61.1038 39.5 60.8838 39.3C60.6704 39.0933 60.4004 38.99 60.0738 38.99C59.8538 38.99 59.6571 39.0367 59.4838 39.13C59.3104 39.2233 59.1704 39.3533 59.0638 39.52C58.9571 39.6867 58.9038 39.8867 58.9038 40.12L58.5338 39.94C58.5338 39.58 58.6104 39.2667 58.7638 39C58.9238 38.7333 59.1404 38.5267 59.4138 38.38C59.6871 38.2267 59.9938 38.15 60.3338 38.15C60.6671 38.15 60.9671 38.2233 61.2338 38.37C61.5071 38.5167 61.7204 38.7233 61.8738 38.99C62.0338 39.2567 62.1138 39.5733 62.1138 39.94V43H61.2138ZM64.4238 43V40.13C64.4238 39.7767 64.3138 39.5 64.0938 39.3C63.8804 39.0933 63.6138 38.99 63.2938 38.99C63.0738 38.99 62.8738 39.0367 62.6938 39.13C62.5204 39.2233 62.3804 39.3533 62.2738 39.52C62.1671 39.6867 62.1138 39.8867 62.1138 40.12L61.6038 39.94C61.6238 39.5733 61.7204 39.26 61.8938 39C62.0738 38.7333 62.3038 38.5267 62.5838 38.38C62.8638 38.2267 63.1704 38.15 63.5038 38.15C63.8504 38.15 64.1604 38.2233 64.4338 38.37C64.7071 38.5167 64.9238 38.7233 65.0838 38.99C65.2504 39.2567 65.3338 39.5767 65.3338 39.95V43H64.4238Z" fill="black"/>
<path d="M0.33 74.61L2.86 70.06H3.92L1.34 74.61H0.33ZM0.33 75.19V74.61L0.73 74.35H5.65V75.19H0.33ZM3.72 77V72.41H4.65V77H3.72ZM7.32656 77.1C7.1399 77.1 6.98323 77.0367 6.85656 76.91C6.73656 76.7767 6.67656 76.6233 6.67656 76.45C6.67656 76.2567 6.73656 76.1 6.85656 75.98C6.98323 75.8533 7.1399 75.79 7.32656 75.79C7.51323 75.79 7.66656 75.8533 7.78656 75.98C7.91323 76.1 7.97656 76.2567 7.97656 76.45C7.97656 76.6233 7.91323 76.7767 7.78656 76.91C7.66656 77.0367 7.51323 77.1 7.32656 77.1ZM7.32656 73.98C7.1399 73.98 6.98323 73.9167 6.85656 73.79C6.73656 73.6633 6.67656 73.51 6.67656 73.33C6.67656 73.1367 6.73656 72.98 6.85656 72.86C6.98323 72.7333 7.1399 72.67 7.32656 72.67C7.51323 72.67 7.66656 72.7333 7.78656 72.86C7.91323 72.98 7.97656 73.1367 7.97656 73.33C7.97656 73.51 7.91323 73.6633 7.78656 73.79C7.66656 73.9167 7.51323 73.98 7.32656 73.98ZM11.1614 77.1C10.7081 77.1 10.2947 77.0167 9.92141 76.85C9.55474 76.6767 9.24474 76.4267 8.99141 76.1L9.63141 75.46C9.78474 75.6933 9.99474 75.88 10.2614 76.02C10.5281 76.1533 10.8247 76.22 11.1514 76.22C11.4581 76.22 11.7214 76.1633 11.9414 76.05C12.1681 75.93 12.3447 75.7633 12.4714 75.55C12.6047 75.3367 12.6714 75.09 12.6714 74.81C12.6714 74.5233 12.6047 74.2767 12.4714 74.07C12.3447 73.8567 12.1647 73.6933 11.9314 73.58C11.6981 73.4667 11.4214 73.41 11.1014 73.41C10.9814 73.41 10.8614 73.42 10.7414 73.44C10.6214 73.4533 10.5047 73.4767 10.3914 73.51L10.7914 72.97C10.9181 72.91 11.0547 72.8633 11.2014 72.83C11.3481 72.7967 11.4947 72.78 11.6414 72.78C12.0147 72.78 12.3481 72.8667 12.6414 73.04C12.9414 73.2133 13.1781 73.4567 13.3514 73.77C13.5314 74.0833 13.6214 74.4467 13.6214 74.86C13.6214 75.3 13.5147 75.69 13.3014 76.03C13.0947 76.3633 12.8081 76.6267 12.4414 76.82C12.0747 77.0067 11.6481 77.1 11.1614 77.1ZM10.3914 73.51V72.94L12.4214 70.63L13.5414 70.62L11.4514 72.99L10.3914 73.51ZM9.32141 70.9V70.06H13.5414V70.62L12.7214 70.9H9.32141ZM17.3723 77.1C16.8523 77.1 16.3756 76.9533 15.9423 76.66C15.5156 76.3667 15.1756 75.9533 14.9223 75.42C14.6689 74.88 14.5423 74.2467 14.5423 73.52C14.5423 72.7933 14.6656 72.1633 14.9123 71.63C15.1656 71.0967 15.5056 70.6867 15.9323 70.4C16.3589 70.1067 16.8289 69.96 17.3423 69.96C17.8689 69.96 18.3456 70.1067 18.7723 70.4C19.1989 70.6867 19.5356 71.0967 19.7823 71.63C20.0356 72.1633 20.1623 72.7967 20.1623 73.53C20.1623 74.2567 20.0356 74.89 19.7823 75.43C19.5356 75.9633 19.1989 76.3767 18.7723 76.67C18.3523 76.9567 17.8856 77.1 17.3723 77.1ZM17.3523 76.21C17.7189 76.21 18.0389 76.11 18.3123 75.91C18.5923 75.7033 18.8123 75.4 18.9723 75C19.1323 74.6 19.2123 74.1067 19.2123 73.52C19.2123 72.9333 19.1323 72.4433 18.9723 72.05C18.8123 71.65 18.5923 71.35 18.3123 71.15C18.0323 70.9433 17.7089 70.84 17.3423 70.84C16.9823 70.84 16.6623 70.9433 16.3823 71.15C16.1023 71.35 15.8823 71.65 15.7223 72.05C15.5689 72.4433 15.4923 72.9333 15.4923 73.52C15.4923 74.1067 15.5689 74.6 15.7223 75C15.8823 75.4 16.1023 75.7033 16.3823 75.91C16.6623 76.11 16.9856 76.21 17.3523 76.21ZM23.3748 74.88V74.03H26.6648V74.88H23.3748ZM32.2243 77.1C31.7643 77.1 31.351 76.9933 30.9843 76.78C30.6243 76.5667 30.3376 76.28 30.1243 75.92C29.911 75.56 29.8043 75.16 29.8043 74.72C29.8043 74.1067 30.0176 73.4967 30.4443 72.89L32.4843 70.06H33.5743L31.4843 72.91L31.1443 73.09C31.2243 72.95 31.321 72.8333 31.4343 72.74C31.5476 72.64 31.6876 72.5633 31.8543 72.51C32.021 72.4567 32.2176 72.43 32.4443 72.43C32.851 72.43 33.2176 72.5267 33.5443 72.72C33.8776 72.9133 34.1443 73.18 34.3443 73.52C34.551 73.8533 34.6543 74.2433 34.6543 74.69C34.6543 75.13 34.5443 75.5333 34.3243 75.9C34.111 76.2667 33.8176 76.56 33.4443 76.78C33.0776 76.9933 32.671 77.1 32.2243 77.1ZM32.2243 76.22C32.5043 76.22 32.7543 76.1533 32.9743 76.02C33.201 75.88 33.3776 75.6967 33.5043 75.47C33.6376 75.2367 33.7043 74.9767 33.7043 74.69C33.7043 74.4033 33.6376 74.1467 33.5043 73.92C33.3776 73.6867 33.201 73.5033 32.9743 73.37C32.7543 73.2367 32.5043 73.17 32.2243 73.17C31.9443 73.17 31.691 73.2367 31.4643 73.37C31.2443 73.5033 31.0676 73.6867 30.9343 73.92C30.8076 74.1467 30.7443 74.4033 30.7443 74.69C30.7443 74.9767 30.8076 75.2367 30.9343 75.47C31.0676 75.7033 31.2443 75.8867 31.4643 76.02C31.691 76.1533 31.9443 76.22 32.2243 76.22ZM36.3988 77.1C36.2122 77.1 36.0555 77.0367 35.9288 76.91C35.8088 76.7767 35.7488 76.6233 35.7488 76.45C35.7488 76.2567 35.8088 76.1 35.9288 75.98C36.0555 75.8533 36.2122 75.79 36.3988 75.79C36.5855 75.79 36.7388 75.8533 36.8588 75.98C36.9855 76.1 37.0488 76.2567 37.0488 76.45C37.0488 76.6233 36.9855 76.7767 36.8588 76.91C36.7388 77.0367 36.5855 77.1 36.3988 77.1ZM36.3988 73.98C36.2122 73.98 36.0555 73.9167 35.9288 73.79C35.8088 73.6633 35.7488 73.51 35.7488 73.33C35.7488 73.1367 35.8088 72.98 35.9288 72.86C36.0555 72.7333 36.2122 72.67 36.3988 72.67C36.5855 72.67 36.7388 72.7333 36.8588 72.86C36.9855 72.98 37.0488 73.1367 37.0488 73.33C37.0488 73.51 36.9855 73.6633 36.8588 73.79C36.7388 73.9167 36.5855 73.98 36.3988 73.98ZM41.0637 77.1C40.5437 77.1 40.067 76.9533 39.6337 76.66C39.207 76.3667 38.867 75.9533 38.6137 75.42C38.3603 74.88 38.2337 74.2467 38.2337 73.52C38.2337 72.7933 38.357 72.1633 38.6037 71.63C38.857 71.0967 39.197 70.6867 39.6237 70.4C40.0503 70.1067 40.5203 69.96 41.0337 69.96C41.5603 69.96 42.037 70.1067 42.4637 70.4C42.8903 70.6867 43.227 71.0967 43.4737 71.63C43.727 72.1633 43.8537 72.7967 43.8537 73.53C43.8537 74.2567 43.727 74.89 43.4737 75.43C43.227 75.9633 42.8903 76.3767 42.4637 76.67C42.0437 76.9567 41.577 77.1 41.0637 77.1ZM41.0437 76.21C41.4103 76.21 41.7303 76.11 42.0037 75.91C42.2837 75.7033 42.5037 75.4 42.6637 75C42.8237 74.6 42.9037 74.1067 42.9037 73.52C42.9037 72.9333 42.8237 72.4433 42.6637 72.05C42.5037 71.65 42.2837 71.35 42.0037 71.15C41.7237 70.9433 41.4003 70.84 41.0337 70.84C40.6737 70.84 40.3537 70.9433 40.0737 71.15C39.7937 71.35 39.5737 71.65 39.4137 72.05C39.2603 72.4433 39.1837 72.9333 39.1837 73.52C39.1837 74.1067 39.2603 74.6 39.4137 75C39.5737 75.4 39.7937 75.7033 40.0737 75.91C40.3537 76.11 40.677 76.21 41.0437 76.21ZM47.6262 77.1C47.1062 77.1 46.6295 76.9533 46.1962 76.66C45.7695 76.3667 45.4295 75.9533 45.1762 75.42C44.9228 74.88 44.7962 74.2467 44.7962 73.52C44.7962 72.7933 44.9195 72.1633 45.1662 71.63C45.4195 71.0967 45.7595 70.6867 46.1862 70.4C46.6128 70.1067 47.0828 69.96 47.5962 69.96C48.1228 69.96 48.5995 70.1067 49.0262 70.4C49.4528 70.6867 49.7895 71.0967 50.0362 71.63C50.2895 72.1633 50.4162 72.7967 50.4162 73.53C50.4162 74.2567 50.2895 74.89 50.0362 75.43C49.7895 75.9633 49.4528 76.3767 49.0262 76.67C48.6062 76.9567 48.1395 77.1 47.6262 77.1ZM47.6062 76.21C47.9728 76.21 48.2928 76.11 48.5662 75.91C48.8462 75.7033 49.0662 75.4 49.2262 75C49.3862 74.6 49.4662 74.1067 49.4662 73.52C49.4662 72.9333 49.3862 72.4433 49.2262 72.05C49.0662 71.65 48.8462 71.35 48.5662 71.15C48.2862 70.9433 47.9628 70.84 47.5962 70.84C47.2362 70.84 46.9162 70.9433 46.6362 71.15C46.3562 71.35 46.1362 71.65 45.9762 72.05C45.8228 72.4433 45.7462 72.9333 45.7462 73.52C45.7462 74.1067 45.8228 74.6 45.9762 75C46.1362 75.4 46.3562 75.7033 46.6362 75.91C46.9162 76.11 47.2395 76.21 47.6062 76.21ZM56.1288 77.1C55.7688 77.1 55.4421 77.0267 55.1488 76.88C54.8621 76.7267 54.6321 76.5167 54.4588 76.25C54.2854 75.9833 54.1888 75.68 54.1688 75.34V73.91C54.1888 73.5633 54.2854 73.26 54.4588 73C54.6388 72.7333 54.8721 72.5267 55.1588 72.38C55.4521 72.2267 55.7754 72.15 56.1288 72.15C56.5621 72.15 56.9521 72.26 57.2988 72.48C57.6521 72.7 57.9288 72.9967 58.1288 73.37C58.3288 73.7433 58.4288 74.1633 58.4288 74.63C58.4288 75.0967 58.3288 75.5167 58.1288 75.89C57.9288 76.2633 57.6521 76.56 57.2988 76.78C56.9521 76.9933 56.5621 77.1 56.1288 77.1ZM53.6287 78.99V72.25H54.5288V73.5L54.3588 74.65L54.5288 75.81V78.99H53.6287ZM55.9788 76.25C56.2788 76.25 56.5421 76.18 56.7688 76.04C56.9954 75.9 57.1754 75.71 57.3088 75.47C57.4421 75.2233 57.5088 74.94 57.5088 74.62C57.5088 74.3067 57.4421 74.0267 57.3088 73.78C57.1754 73.5333 56.9954 73.3433 56.7688 73.21C56.5421 73.07 56.2821 73 55.9888 73C55.6888 73 55.4254 73.07 55.1988 73.21C54.9721 73.3433 54.7954 73.5333 54.6688 73.78C54.5421 74.0267 54.4788 74.31 54.4788 74.63C54.4788 74.9433 54.5388 75.2233 54.6588 75.47C54.7854 75.71 54.9621 75.9 55.1888 76.04C55.4221 76.18 55.6854 76.25 55.9788 76.25ZM59.4491 77V72.25H60.3491V77H59.4491ZM62.6591 77V74.13C62.6591 73.7767 62.5491 73.5 62.3291 73.3C62.1157 73.0933 61.8457 72.99 61.5191 72.99C61.2991 72.99 61.1024 73.0367 60.9291 73.13C60.7557 73.2233 60.6157 73.3533 60.5091 73.52C60.4024 73.6867 60.3491 73.8867 60.3491 74.12L59.9791 73.94C59.9791 73.58 60.0557 73.2667 60.2091 73C60.3691 72.7333 60.5857 72.5267 60.8591 72.38C61.1324 72.2267 61.4391 72.15 61.7791 72.15C62.1124 72.15 62.4124 72.2233 62.6791 72.37C62.9524 72.5167 63.1657 72.7233 63.3191 72.99C63.4791 73.2567 63.5591 73.5733 63.5591 73.94V77H62.6591ZM65.8691 77V74.13C65.8691 73.7767 65.7591 73.5 65.5391 73.3C65.3257 73.0933 65.0591 72.99 64.7391 72.99C64.5191 72.99 64.3191 73.0367 64.1391 73.13C63.9657 73.2233 63.8257 73.3533 63.7191 73.52C63.6124 73.6867 63.5591 73.8867 63.5591 74.12L63.0491 73.94C63.0691 73.5733 63.1657 73.26 63.3391 73C63.5191 72.7333 63.7491 72.5267 64.0291 72.38C64.3091 72.2267 64.6157 72.15 64.9491 72.15C65.2957 72.15 65.6057 72.2233 65.8791 72.37C66.1524 72.5167 66.3691 72.7233 66.5291 72.99C66.6957 73.2567 66.7791 73.5767 66.7791 73.95V77H65.8691Z" fill="black"/>
<rect x="125.672" y="15.7997" width="50" height="85" rx="19.5" stroke="black"/>
<rect x="72.6719" y="15.7997" width="50" height="85" rx="19.5" stroke="black"/>
<rect x="177.672" y="15.7997" width="50" height="85" rx="19.5" stroke="black"/>
<rect x="230.672" y="15.7997" width="50" height="85" rx="19.5" stroke="black"/>
<rect x="282.672" y="15.7997" width="50" height="85" rx="19.5" stroke="black"/>
<rect x="75" y="27" width="256" height="26" rx="13" fill="#86BCC8"/>
<path d="M142.82 43V36.06H143.76V43H142.82ZM147.3 43V36.06H148.24V43H147.3ZM143.46 39.84V38.98H147.53V39.84H143.46ZM151.891 43.1C151.424 43.1 151.004 42.99 150.631 42.77C150.257 42.55 149.961 42.2533 149.741 41.88C149.521 41.5 149.411 41.0767 149.411 40.61C149.411 40.15 149.521 39.7367 149.741 39.37C149.961 38.9967 150.257 38.7 150.631 38.48C151.004 38.26 151.424 38.15 151.891 38.15C152.351 38.15 152.767 38.26 153.141 38.48C153.521 38.6933 153.821 38.9867 154.041 39.36C154.261 39.7333 154.371 40.15 154.371 40.61C154.371 41.0767 154.261 41.5 154.041 41.88C153.821 42.2533 153.521 42.55 153.141 42.77C152.767 42.99 152.351 43.1 151.891 43.1ZM151.891 42.23C152.191 42.23 152.457 42.16 152.691 42.02C152.924 41.88 153.107 41.69 153.241 41.45C153.374 41.2033 153.441 40.9233 153.441 40.61C153.441 40.3033 153.371 40.03 153.231 39.79C153.097 39.55 152.914 39.3633 152.681 39.23C152.454 39.09 152.191 39.02 151.891 39.02C151.591 39.02 151.324 39.09 151.091 39.23C150.857 39.3633 150.674 39.55 150.541 39.79C150.407 40.03 150.341 40.3033 150.341 40.61C150.341 40.9233 150.407 41.2033 150.541 41.45C150.674 41.69 150.857 41.88 151.091 42.02C151.324 42.16 151.591 42.23 151.891 42.23ZM155.385 43V38.25H156.285V43H155.385ZM158.595 43V40.13C158.595 39.7767 158.485 39.5 158.265 39.3C158.051 39.0933 157.781 38.99 157.455 38.99C157.235 38.99 157.038 39.0367 156.865 39.13C156.691 39.2233 156.551 39.3533 156.445 39.52C156.338 39.6867 156.285 39.8867 156.285 40.12L155.915 39.94C155.915 39.58 155.991 39.2667 156.145 39C156.305 38.7333 156.521 38.5267 156.795 38.38C157.068 38.2267 157.375 38.15 157.715 38.15C158.048 38.15 158.348 38.2233 158.615 38.37C158.888 38.5167 159.101 38.7233 159.255 38.99C159.415 39.2567 159.495 39.5733 159.495 39.94V43H158.595ZM161.805 43V40.13C161.805 39.7767 161.695 39.5 161.475 39.3C161.261 39.0933 160.995 38.99 160.675 38.99C160.455 38.99 160.255 39.0367 160.075 39.13C159.901 39.2233 159.761 39.3533 159.655 39.52C159.548 39.6867 159.495 39.8867 159.495 40.12L158.985 39.94C159.005 39.5733 159.101 39.26 159.275 39C159.455 38.7333 159.685 38.5267 159.965 38.38C160.245 38.2267 160.551 38.15 160.885 38.15C161.231 38.15 161.541 38.2233 161.815 38.37C162.088 38.5167 162.305 38.7233 162.465 38.99C162.631 39.2567 162.715 39.5767 162.715 39.95V43H161.805ZM166.139 43.1C165.666 43.1 165.239 42.9933 164.859 42.78C164.479 42.56 164.179 42.2633 163.959 41.89C163.739 41.5167 163.629 41.0933 163.629 40.62C163.629 40.1533 163.736 39.7333 163.949 39.36C164.169 38.9867 164.463 38.6933 164.829 38.48C165.203 38.26 165.619 38.15 166.079 38.15C166.519 38.15 166.906 38.25 167.239 38.45C167.579 38.65 167.843 38.9267 168.029 39.28C168.223 39.6333 168.319 40.0333 168.319 40.48C168.319 40.5467 168.316 40.62 168.309 40.7C168.303 40.7733 168.289 40.86 168.269 40.96H164.259V40.21H167.789L167.459 40.5C167.459 40.18 167.403 39.91 167.289 39.69C167.176 39.4633 167.016 39.29 166.809 39.17C166.603 39.0433 166.353 38.98 166.059 38.98C165.753 38.98 165.483 39.0467 165.249 39.18C165.016 39.3133 164.836 39.5 164.709 39.74C164.583 39.98 164.519 40.2633 164.519 40.59C164.519 40.9233 164.586 41.2167 164.719 41.47C164.853 41.7167 165.043 41.91 165.289 42.05C165.536 42.1833 165.819 42.25 166.139 42.25C166.406 42.25 166.649 42.2033 166.869 42.11C167.096 42.0167 167.289 41.8767 167.449 41.69L168.029 42.28C167.803 42.5467 167.523 42.75 167.189 42.89C166.863 43.03 166.513 43.1 166.139 43.1ZM170.602 43L168.722 38.25H169.662L171.022 41.95H170.722L172.072 38.25H172.592L173.942 41.95H173.642L175.002 38.25H175.942L174.072 43H173.542L172.172 39.41H172.502L171.122 43H170.602ZM178.775 43.1C178.309 43.1 177.889 42.99 177.515 42.77C177.142 42.55 176.845 42.2533 176.625 41.88C176.405 41.5 176.295 41.0767 176.295 40.61C176.295 40.15 176.405 39.7367 176.625 39.37C176.845 38.9967 177.142 38.7 177.515 38.48C177.889 38.26 178.309 38.15 178.775 38.15C179.235 38.15 179.652 38.26 180.025 38.48C180.405 38.6933 180.705 38.9867 180.925 39.36C181.145 39.7333 181.255 40.15 181.255 40.61C181.255 41.0767 181.145 41.5 180.925 41.88C180.705 42.2533 180.405 42.55 180.025 42.77C179.652 42.99 179.235 43.1 178.775 43.1ZM178.775 42.23C179.075 42.23 179.342 42.16 179.575 42.02C179.809 41.88 179.992 41.69 180.125 41.45C180.259 41.2033 180.325 40.9233 180.325 40.61C180.325 40.3033 180.255 40.03 180.115 39.79C179.982 39.55 179.799 39.3633 179.565 39.23C179.339 39.09 179.075 39.02 178.775 39.02C178.475 39.02 178.209 39.09 177.975 39.23C177.742 39.3633 177.559 39.55 177.425 39.79C177.292 40.03 177.225 40.3033 177.225 40.61C177.225 40.9233 177.292 41.2033 177.425 41.45C177.559 41.69 177.742 41.88 177.975 42.02C178.209 42.16 178.475 42.23 178.775 42.23ZM182.269 43V38.25H183.169V43H182.269ZM183.169 40.29L182.829 40.14C182.829 39.5333 182.969 39.05 183.249 38.69C183.529 38.33 183.933 38.15 184.459 38.15C184.699 38.15 184.916 38.1933 185.109 38.28C185.303 38.36 185.483 38.4967 185.649 38.69L185.059 39.3C184.959 39.1933 184.849 39.1167 184.729 39.07C184.609 39.0233 184.469 39 184.309 39C183.976 39 183.703 39.1067 183.489 39.32C183.276 39.5333 183.169 39.8567 183.169 40.29ZM189.323 43L187.103 40.57L189.303 38.25H190.393L187.943 40.81L187.983 40.29L190.483 43H189.323ZM186.283 43V35.86H187.183V43H186.283ZM193.504 43V36.06H194.444V43H193.504ZM197.984 43V36.06H198.924V43H197.984ZM194.144 39.84V38.98H198.214V39.84H194.144ZM202.604 43.1C202.131 43.1 201.704 42.9933 201.324 42.78C200.944 42.56 200.644 42.2633 200.424 41.89C200.204 41.5167 200.094 41.0933 200.094 40.62C200.094 40.1533 200.201 39.7333 200.414 39.36C200.634 38.9867 200.927 38.6933 201.294 38.48C201.667 38.26 202.084 38.15 202.544 38.15C202.984 38.15 203.371 38.25 203.704 38.45C204.044 38.65 204.307 38.9267 204.494 39.28C204.687 39.6333 204.784 40.0333 204.784 40.48C204.784 40.5467 204.781 40.62 204.774 40.7C204.767 40.7733 204.754 40.86 204.734 40.96H200.724V40.21H204.254L203.924 40.5C203.924 40.18 203.867 39.91 203.754 39.69C203.641 39.4633 203.481 39.29 203.274 39.17C203.067 39.0433 202.817 38.98 202.524 38.98C202.217 38.98 201.947 39.0467 201.714 39.18C201.481 39.3133 201.301 39.5 201.174 39.74C201.047 39.98 200.984 40.2633 200.984 40.59C200.984 40.9233 201.051 41.2167 201.184 41.47C201.317 41.7167 201.507 41.91 201.754 42.05C202.001 42.1833 202.284 42.25 202.604 42.25C202.871 42.25 203.114 42.2033 203.334 42.11C203.561 42.0167 203.754 41.8767 203.914 41.69L204.494 42.28C204.267 42.5467 203.987 42.75 203.654 42.89C203.327 43.03 202.977 43.1 202.604 43.1ZM205.765 43V35.86H206.665V43H205.765ZM210.482 43.1C210.122 43.1 209.796 43.0267 209.502 42.88C209.216 42.7267 208.986 42.5167 208.812 42.25C208.639 41.9833 208.542 41.68 208.522 41.34V39.91C208.542 39.5633 208.639 39.26 208.812 39C208.992 38.7333 209.226 38.5267 209.512 38.38C209.806 38.2267 210.129 38.15 210.482 38.15C210.916 38.15 211.306 38.26 211.652 38.48C212.006 38.7 212.282 38.9967 212.482 39.37C212.682 39.7433 212.782 40.1633 212.782 40.63C212.782 41.0967 212.682 41.5167 212.482 41.89C212.282 42.2633 212.006 42.56 211.652 42.78C211.306 42.9933 210.916 43.1 210.482 43.1ZM207.982 44.99V38.25H208.882V39.5L208.712 40.65L208.882 41.81V44.99H207.982ZM210.332 42.25C210.632 42.25 210.896 42.18 211.122 42.04C211.349 41.9 211.529 41.71 211.662 41.47C211.796 41.2233 211.862 40.94 211.862 40.62C211.862 40.3067 211.796 40.0267 211.662 39.78C211.529 39.5333 211.349 39.3433 211.122 39.21C210.896 39.07 210.636 39 210.342 39C210.042 39 209.779 39.07 209.552 39.21C209.326 39.3433 209.149 39.5333 209.022 39.78C208.896 40.0267 208.832 40.31 208.832 40.63C208.832 40.9433 208.892 41.2233 209.012 41.47C209.139 41.71 209.316 41.9 209.542 42.04C209.776 42.18 210.039 42.25 210.332 42.25ZM220.593 43L217.273 39.44C217.013 39.16 216.819 38.8933 216.693 38.64C216.566 38.3867 216.503 38.1067 216.503 37.8C216.503 37.4467 216.586 37.1333 216.753 36.86C216.919 36.58 217.149 36.36 217.443 36.2C217.736 36.0333 218.073 35.95 218.453 35.95C218.733 35.95 218.986 35.9967 219.213 36.09C219.446 36.1767 219.649 36.2933 219.823 36.44C220.003 36.5867 220.153 36.7533 220.273 36.94L219.623 37.53C219.469 37.3167 219.299 37.1467 219.113 37.02C218.933 36.8867 218.713 36.82 218.453 36.82C218.153 36.82 217.903 36.91 217.703 37.09C217.503 37.27 217.403 37.5033 217.403 37.79C217.403 38.03 217.453 38.2333 217.553 38.4C217.653 38.5667 217.803 38.76 218.003 38.98L221.693 43H220.593ZM218.103 43.1C217.643 43.1 217.239 43.01 216.893 42.83C216.546 42.65 216.276 42.4033 216.083 42.09C215.896 41.77 215.803 41.4067 215.803 41C215.803 40.58 215.916 40.2 216.143 39.86C216.369 39.52 216.699 39.25 217.133 39.05L217.563 39.61C217.296 39.7433 217.086 39.9267 216.933 40.16C216.779 40.3867 216.703 40.66 216.703 40.98C216.703 41.24 216.763 41.4633 216.883 41.65C217.003 41.8367 217.169 41.9833 217.383 42.09C217.603 42.19 217.853 42.24 218.133 42.24C218.486 42.24 218.786 42.1667 219.033 42.02C219.279 41.8733 219.466 41.6867 219.593 41.46L220.183 42.15C220.049 42.33 219.873 42.4933 219.653 42.64C219.439 42.78 219.199 42.8933 218.933 42.98C218.673 43.06 218.396 43.1 218.103 43.1ZM226.017 43V36.26H226.957V43H226.017ZM223.657 36.92V36.06H229.307V36.92H223.657ZM231.149 43.1C230.676 43.1 230.249 42.9933 229.869 42.78C229.489 42.56 229.189 42.2633 228.969 41.89C228.749 41.5167 228.639 41.0933 228.639 40.62C228.639 40.1533 228.746 39.7333 228.959 39.36C229.179 38.9867 229.472 38.6933 229.839 38.48C230.212 38.26 230.629 38.15 231.089 38.15C231.529 38.15 231.916 38.25 232.249 38.45C232.589 38.65 232.852 38.9267 233.039 39.28C233.232 39.6333 233.329 40.0333 233.329 40.48C233.329 40.5467 233.326 40.62 233.319 40.7C233.312 40.7733 233.299 40.86 233.279 40.96H229.269V40.21H232.799L232.469 40.5C232.469 40.18 232.412 39.91 232.299 39.69C232.186 39.4633 232.026 39.29 231.819 39.17C231.612 39.0433 231.362 38.98 231.069 38.98C230.762 38.98 230.492 39.0467 230.259 39.18C230.026 39.3133 229.846 39.5 229.719 39.74C229.592 39.98 229.529 40.2633 229.529 40.59C229.529 40.9233 229.596 41.2167 229.729 41.47C229.862 41.7167 230.052 41.91 230.299 42.05C230.546 42.1833 230.829 42.25 231.149 42.25C231.416 42.25 231.659 42.2033 231.879 42.11C232.106 42.0167 232.299 41.8767 232.459 41.69L233.039 42.28C232.812 42.5467 232.532 42.75 232.199 42.89C231.872 43.03 231.522 43.1 231.149 43.1ZM235.82 43.1C235.554 43.1 235.3 43.0667 235.06 43C234.827 42.9267 234.61 42.8267 234.41 42.7C234.21 42.5667 234.037 42.41 233.89 42.23L234.47 41.65C234.644 41.8633 234.844 42.0233 235.07 42.13C235.297 42.23 235.55 42.28 235.83 42.28C236.11 42.28 236.327 42.2333 236.48 42.14C236.634 42.04 236.71 41.9033 236.71 41.73C236.71 41.5567 236.647 41.4233 236.52 41.33C236.4 41.23 236.244 41.15 236.05 41.09C235.857 41.0233 235.65 40.96 235.43 40.9C235.217 40.8333 235.014 40.75 234.82 40.65C234.627 40.55 234.467 40.4133 234.34 40.24C234.22 40.0667 234.16 39.8367 234.16 39.55C234.16 39.2633 234.23 39.0167 234.37 38.81C234.51 38.5967 234.704 38.4333 234.95 38.32C235.204 38.2067 235.507 38.15 235.86 38.15C236.234 38.15 236.564 38.2167 236.85 38.35C237.144 38.4767 237.384 38.67 237.57 38.93L236.99 39.51C236.857 39.3367 236.69 39.2033 236.49 39.11C236.297 39.0167 236.077 38.97 235.83 38.97C235.57 38.97 235.37 39.0167 235.23 39.11C235.097 39.1967 235.03 39.32 235.03 39.48C235.03 39.64 235.09 39.7633 235.21 39.85C235.33 39.9367 235.487 40.01 235.68 40.07C235.88 40.13 236.087 40.1933 236.3 40.26C236.514 40.32 236.717 40.4033 236.91 40.51C237.104 40.6167 237.26 40.76 237.38 40.94C237.507 41.12 237.57 41.3567 237.57 41.65C237.57 42.0967 237.41 42.45 237.09 42.71C236.777 42.97 236.354 43.1 235.82 43.1ZM239.308 43V36.26H240.208V43H239.308ZM238.138 39.07V38.25H241.378V39.07H238.138ZM245.13 40.3V39.48H247.02C247.28 39.48 247.51 39.4267 247.71 39.32C247.916 39.2133 248.076 39.0633 248.19 38.87C248.31 38.6767 248.37 38.4467 248.37 38.18C248.37 37.9133 248.31 37.6833 248.19 37.49C248.076 37.2967 247.916 37.1467 247.71 37.04C247.51 36.9333 247.28 36.88 247.02 36.88H245.13V36.06H247.08C247.506 36.06 247.886 36.1467 248.22 36.32C248.56 36.4933 248.826 36.74 249.02 37.06C249.22 37.3733 249.32 37.7467 249.32 38.18C249.32 38.6067 249.22 38.98 249.02 39.3C248.826 39.6133 248.56 39.86 248.22 40.04C247.886 40.2133 247.506 40.3 247.08 40.3H245.13ZM244.5 43V36.06H245.44V43H244.5ZM250.404 43V38.25H251.304V43H250.404ZM251.304 40.29L250.964 40.14C250.964 39.5333 251.104 39.05 251.384 38.69C251.664 38.33 252.067 38.15 252.594 38.15C252.834 38.15 253.051 38.1933 253.244 38.28C253.437 38.36 253.617 38.4967 253.784 38.69L253.194 39.3C253.094 39.1933 252.984 39.1167 252.864 39.07C252.744 39.0233 252.604 39 252.444 39C252.111 39 251.837 39.1067 251.624 39.32C251.411 39.5333 251.304 39.8567 251.304 40.29ZM256.462 43.1C255.988 43.1 255.562 42.9933 255.182 42.78C254.802 42.56 254.502 42.2633 254.282 41.89C254.062 41.5167 253.952 41.0933 253.952 40.62C253.952 40.1533 254.058 39.7333 254.272 39.36C254.492 38.9867 254.785 38.6933 255.152 38.48C255.525 38.26 255.942 38.15 256.402 38.15C256.842 38.15 257.228 38.25 257.562 38.45C257.902 38.65 258.165 38.9267 258.352 39.28C258.545 39.6333 258.642 40.0333 258.642 40.48C258.642 40.5467 258.638 40.62 258.632 40.7C258.625 40.7733 258.612 40.86 258.592 40.96H254.582V40.21H258.112L257.782 40.5C257.782 40.18 257.725 39.91 257.612 39.69C257.498 39.4633 257.338 39.29 257.132 39.17C256.925 39.0433 256.675 38.98 256.382 38.98C256.075 38.98 255.805 39.0467 255.572 39.18C255.338 39.3133 255.158 39.5 255.032 39.74C254.905 39.98 254.842 40.2633 254.842 40.59C254.842 40.9233 254.908 41.2167 255.042 41.47C255.175 41.7167 255.365 41.91 255.612 42.05C255.858 42.1833 256.142 42.25 256.462 42.25C256.728 42.25 256.972 42.2033 257.192 42.11C257.418 42.0167 257.612 41.8767 257.772 41.69L258.352 42.28C258.125 42.5467 257.845 42.75 257.512 42.89C257.185 43.03 256.835 43.1 256.462 43.1ZM262.123 43.1C261.763 43.1 261.436 43.0267 261.143 42.88C260.856 42.7267 260.626 42.5167 260.453 42.25C260.28 41.9833 260.183 41.68 260.163 41.34V39.91C260.183 39.5633 260.28 39.26 260.453 39C260.633 38.7333 260.866 38.5267 261.153 38.38C261.446 38.2267 261.77 38.15 262.123 38.15C262.556 38.15 262.946 38.26 263.293 38.48C263.646 38.7 263.923 38.9967 264.123 39.37C264.323 39.7433 264.423 40.1633 264.423 40.63C264.423 41.0967 264.323 41.5167 264.123 41.89C263.923 42.2633 263.646 42.56 263.293 42.78C262.946 42.9933 262.556 43.1 262.123 43.1ZM259.623 44.99V38.25H260.523V39.5L260.353 40.65L260.523 41.81V44.99H259.623ZM261.973 42.25C262.273 42.25 262.536 42.18 262.763 42.04C262.99 41.9 263.17 41.71 263.303 41.47C263.436 41.2233 263.503 40.94 263.503 40.62C263.503 40.3067 263.436 40.0267 263.303 39.78C263.17 39.5333 262.99 39.3433 262.763 39.21C262.536 39.07 262.276 39 261.983 39C261.683 39 261.42 39.07 261.193 39.21C260.966 39.3433 260.79 39.5333 260.663 39.78C260.536 40.0267 260.473 40.31 260.473 40.63C260.473 40.9433 260.533 41.2233 260.653 41.47C260.78 41.71 260.956 41.9 261.183 42.04C261.416 42.18 261.68 42.25 261.973 42.25Z" fill="black"/>
<rect x="75" y="61" width="256" height="26" rx="13" fill="#0C3F4A"/>
<path d="M177.738 76V69.754H178.332L180.978 74.101H180.573L183.219 69.754H183.813V76H182.967V71.239L183.165 71.293L181.077 74.722H180.483L178.395 71.293L178.584 71.239V76H177.738ZM186.962 76.09C186.572 76.09 186.218 75.994 185.9 75.802C185.582 75.604 185.33 75.337 185.144 75.001C184.964 74.665 184.874 74.287 184.874 73.867C184.874 73.447 184.964 73.069 185.144 72.733C185.33 72.397 185.579 72.13 185.891 71.932C186.209 71.734 186.566 71.635 186.962 71.635C187.286 71.635 187.574 71.704 187.826 71.842C188.084 71.974 188.291 72.16 188.447 72.4C188.603 72.634 188.69 72.907 188.708 73.219V74.506C188.69 74.812 188.603 75.085 188.447 75.325C188.297 75.565 188.093 75.754 187.835 75.892C187.583 76.024 187.292 76.09 186.962 76.09ZM187.097 75.325C187.499 75.325 187.823 75.19 188.069 74.92C188.315 74.644 188.438 74.293 188.438 73.867C188.438 73.573 188.381 73.318 188.267 73.102C188.159 72.88 188.003 72.709 187.799 72.589C187.595 72.463 187.358 72.4 187.088 72.4C186.818 72.4 186.578 72.463 186.368 72.589C186.164 72.715 186.002 72.889 185.882 73.111C185.768 73.327 185.711 73.576 185.711 73.858C185.711 74.146 185.768 74.401 185.882 74.623C186.002 74.839 186.167 75.01 186.377 75.136C186.587 75.262 186.827 75.325 187.097 75.325ZM188.384 76V74.848L188.537 73.804L188.384 72.769V71.725H189.203V76H188.384ZM191.022 76V69.934H191.832V76H191.022ZM189.969 72.463V71.725H192.885V72.463H189.969ZM196.702 76V73.507C196.702 73.183 196.6 72.916 196.396 72.706C196.192 72.496 195.928 72.391 195.604 72.391C195.388 72.391 195.196 72.439 195.028 72.535C194.86 72.631 194.728 72.763 194.632 72.931C194.536 73.099 194.488 73.291 194.488 73.507L194.155 73.318C194.155 72.994 194.227 72.706 194.371 72.454C194.515 72.202 194.716 72.004 194.974 71.86C195.232 71.71 195.523 71.635 195.847 71.635C196.171 71.635 196.456 71.707 196.702 71.851C196.954 71.995 197.152 72.196 197.296 72.454C197.44 72.712 197.512 73.009 197.512 73.345V76H196.702ZM193.678 76V69.574H194.488V76H193.678ZM203.46 76.09C203.01 76.09 202.593 76.009 202.209 75.847C201.825 75.679 201.489 75.448 201.201 75.154C200.919 74.86 200.7 74.518 200.544 74.128C200.388 73.738 200.31 73.321 200.31 72.877C200.31 72.427 200.388 72.007 200.544 71.617C200.7 71.227 200.919 70.888 201.201 70.6C201.489 70.306 201.822 70.078 202.2 69.916C202.584 69.748 203.001 69.664 203.451 69.664C203.943 69.664 204.375 69.748 204.747 69.916C205.119 70.084 205.449 70.312 205.737 70.6L205.152 71.185C204.954 70.963 204.711 70.789 204.423 70.663C204.141 70.537 203.817 70.474 203.451 70.474C203.121 70.474 202.818 70.534 202.542 70.654C202.266 70.768 202.026 70.933 201.822 71.149C201.618 71.365 201.459 71.62 201.345 71.914C201.237 72.208 201.183 72.529 201.183 72.877C201.183 73.225 201.237 73.546 201.345 73.84C201.459 74.134 201.618 74.389 201.822 74.605C202.026 74.821 202.266 74.989 202.542 75.109C202.818 75.223 203.121 75.28 203.451 75.28C203.841 75.28 204.18 75.217 204.468 75.091C204.756 74.959 204.999 74.782 205.197 74.56L205.782 75.136C205.494 75.436 205.155 75.67 204.765 75.838C204.381 76.006 203.946 76.09 203.46 76.09ZM206.677 76V69.574H207.487V76H206.677ZM210.49 76.09C210.1 76.09 209.746 75.994 209.428 75.802C209.11 75.604 208.858 75.337 208.672 75.001C208.492 74.665 208.402 74.287 208.402 73.867C208.402 73.447 208.492 73.069 208.672 72.733C208.858 72.397 209.107 72.13 209.419 71.932C209.737 71.734 210.094 71.635 210.49 71.635C210.814 71.635 211.102 71.704 211.354 71.842C211.612 71.974 211.819 72.16 211.975 72.4C212.131 72.634 212.218 72.907 212.236 73.219V74.506C212.218 74.812 212.131 75.085 211.975 75.325C211.825 75.565 211.621 75.754 211.363 75.892C211.111 76.024 210.82 76.09 210.49 76.09ZM210.625 75.325C211.027 75.325 211.351 75.19 211.597 74.92C211.843 74.644 211.966 74.293 211.966 73.867C211.966 73.573 211.909 73.318 211.795 73.102C211.687 72.88 211.531 72.709 211.327 72.589C211.123 72.463 210.886 72.4 210.616 72.4C210.346 72.4 210.106 72.463 209.896 72.589C209.692 72.715 209.53 72.889 209.41 73.111C209.296 73.327 209.239 73.576 209.239 73.858C209.239 74.146 209.296 74.401 209.41 74.623C209.53 74.839 209.695 75.01 209.905 75.136C210.115 75.262 210.355 75.325 210.625 75.325ZM211.912 76V74.848L212.065 73.804L211.912 72.769V71.725H212.731V76H211.912ZM215.269 76.09C215.029 76.09 214.801 76.06 214.585 76C214.375 75.934 214.18 75.844 214 75.73C213.82 75.61 213.664 75.469 213.532 75.307L214.054 74.785C214.21 74.977 214.39 75.121 214.594 75.217C214.798 75.307 215.026 75.352 215.278 75.352C215.53 75.352 215.725 75.31 215.863 75.226C216.001 75.136 216.07 75.013 216.07 74.857C216.07 74.701 216.013 74.581 215.899 74.497C215.791 74.407 215.65 74.335 215.476 74.281C215.302 74.221 215.116 74.164 214.918 74.11C214.726 74.05 214.543 73.975 214.369 73.885C214.195 73.795 214.051 73.672 213.937 73.516C213.829 73.36 213.775 73.153 213.775 72.895C213.775 72.637 213.838 72.415 213.964 72.229C214.09 72.037 214.264 71.89 214.486 71.788C214.714 71.686 214.987 71.635 215.305 71.635C215.641 71.635 215.938 71.695 216.196 71.815C216.46 71.929 216.676 72.103 216.844 72.337L216.322 72.859C216.202 72.703 216.052 72.583 215.872 72.499C215.698 72.415 215.5 72.373 215.278 72.373C215.044 72.373 214.864 72.415 214.738 72.499C214.618 72.577 214.558 72.688 214.558 72.832C214.558 72.976 214.612 73.087 214.72 73.165C214.828 73.243 214.969 73.309 215.143 73.363C215.323 73.417 215.509 73.474 215.701 73.534C215.893 73.588 216.076 73.663 216.25 73.759C216.424 73.855 216.565 73.984 216.673 74.146C216.787 74.308 216.844 74.521 216.844 74.785C216.844 75.187 216.7 75.505 216.412 75.739C216.13 75.973 215.749 76.09 215.269 76.09ZM219.11 76.09C218.87 76.09 218.642 76.06 218.426 76C218.216 75.934 218.021 75.844 217.841 75.73C217.661 75.61 217.505 75.469 217.373 75.307L217.895 74.785C218.051 74.977 218.231 75.121 218.435 75.217C218.639 75.307 218.867 75.352 219.119 75.352C219.371 75.352 219.566 75.31 219.704 75.226C219.842 75.136 219.911 75.013 219.911 74.857C219.911 74.701 219.854 74.581 219.74 74.497C219.632 74.407 219.491 74.335 219.317 74.281C219.143 74.221 218.957 74.164 218.759 74.11C218.567 74.05 218.384 73.975 218.21 73.885C218.036 73.795 217.892 73.672 217.778 73.516C217.67 73.36 217.616 73.153 217.616 72.895C217.616 72.637 217.679 72.415 217.805 72.229C217.931 72.037 218.105 71.89 218.327 71.788C218.555 71.686 218.828 71.635 219.146 71.635C219.482 71.635 219.779 71.695 220.037 71.815C220.301 71.929 220.517 72.103 220.685 72.337L220.163 72.859C220.043 72.703 219.893 72.583 219.713 72.499C219.539 72.415 219.341 72.373 219.119 72.373C218.885 72.373 218.705 72.415 218.579 72.499C218.459 72.577 218.399 72.688 218.399 72.832C218.399 72.976 218.453 73.087 218.561 73.165C218.669 73.243 218.81 73.309 218.984 73.363C219.164 73.417 219.35 73.474 219.542 73.534C219.734 73.588 219.917 73.663 220.091 73.759C220.265 73.855 220.406 73.984 220.514 74.146C220.628 74.308 220.685 74.521 220.685 74.785C220.685 75.187 220.541 75.505 220.253 75.739C219.971 75.973 219.59 76.09 219.11 76.09ZM223.572 76.09C223.146 76.09 222.762 75.994 222.42 75.802C222.078 75.604 221.808 75.337 221.61 75.001C221.412 74.665 221.313 74.284 221.313 73.858C221.313 73.438 221.409 73.06 221.601 72.724C221.799 72.388 222.063 72.124 222.393 71.932C222.729 71.734 223.104 71.635 223.518 71.635C223.914 71.635 224.262 71.725 224.562 71.905C224.868 72.085 225.105 72.334 225.273 72.652C225.447 72.97 225.534 73.33 225.534 73.732C225.534 73.792 225.531 73.858 225.525 73.93C225.519 73.996 225.507 74.074 225.489 74.164H221.88V73.489H225.057L224.76 73.75C224.76 73.462 224.709 73.219 224.607 73.021C224.505 72.817 224.361 72.661 224.175 72.553C223.989 72.439 223.764 72.382 223.5 72.382C223.224 72.382 222.981 72.442 222.771 72.562C222.561 72.682 222.399 72.85 222.285 73.066C222.171 73.282 222.114 73.537 222.114 73.831C222.114 74.131 222.174 74.395 222.294 74.623C222.414 74.845 222.585 75.019 222.807 75.145C223.029 75.265 223.284 75.325 223.572 75.325C223.812 75.325 224.031 75.283 224.229 75.199C224.433 75.115 224.607 74.989 224.751 74.821L225.273 75.352C225.069 75.592 224.817 75.775 224.517 75.901C224.223 76.027 223.908 76.09 223.572 76.09ZM227.776 76.09C227.536 76.09 227.308 76.06 227.092 76C226.882 75.934 226.687 75.844 226.507 75.73C226.327 75.61 226.171 75.469 226.039 75.307L226.561 74.785C226.717 74.977 226.897 75.121 227.101 75.217C227.305 75.307 227.533 75.352 227.785 75.352C228.037 75.352 228.232 75.31 228.37 75.226C228.508 75.136 228.577 75.013 228.577 74.857C228.577 74.701 228.52 74.581 228.406 74.497C228.298 74.407 228.157 74.335 227.983 74.281C227.809 74.221 227.623 74.164 227.425 74.11C227.233 74.05 227.05 73.975 226.876 73.885C226.702 73.795 226.558 73.672 226.444 73.516C226.336 73.36 226.282 73.153 226.282 72.895C226.282 72.637 226.345 72.415 226.471 72.229C226.597 72.037 226.771 71.89 226.993 71.788C227.221 71.686 227.494 71.635 227.812 71.635C228.148 71.635 228.445 71.695 228.703 71.815C228.967 71.929 229.183 72.103 229.351 72.337L228.829 72.859C228.709 72.703 228.559 72.583 228.379 72.499C228.205 72.415 228.007 72.373 227.785 72.373C227.551 72.373 227.371 72.415 227.245 72.499C227.125 72.577 227.065 72.688 227.065 72.832C227.065 72.976 227.119 73.087 227.227 73.165C227.335 73.243 227.476 73.309 227.65 73.363C227.83 73.417 228.016 73.474 228.208 73.534C228.4 73.588 228.583 73.663 228.757 73.759C228.931 73.855 229.072 73.984 229.18 74.146C229.294 74.308 229.351 74.521 229.351 74.785C229.351 75.187 229.207 75.505 228.919 75.739C228.637 75.973 228.256 76.09 227.776 76.09Z" fill="white"/>
</svg>
