<svg width="1248" height="295" viewBox="0 0 1248 295" fill="none" xmlns="http://www.w3.org/2000/svg">
<path d="M303.624 32V9.792H305.736L315.144 25.248H313.704L323.112 9.792H325.224V32H322.216V15.072L322.92 15.264L315.496 27.456H313.384L305.96 15.264L306.632 15.072V32H303.624ZM336.9 32.32C335.406 32.32 334.062 31.968 332.868 31.264C331.673 30.56 330.724 29.6107 330.02 28.416C329.316 27.2 328.964 25.8453 328.964 24.352C328.964 22.88 329.316 21.5573 330.02 20.384C330.724 19.1893 331.673 18.24 332.868 17.536C334.062 16.832 335.406 16.48 336.9 16.48C338.372 16.48 339.705 16.832 340.9 17.536C342.116 18.2187 343.076 19.1573 343.78 20.352C344.484 21.5467 344.836 22.88 344.836 24.352C344.836 25.8453 344.484 27.2 343.78 28.416C343.076 29.6107 342.116 30.56 340.9 31.264C339.705 31.968 338.372 32.32 336.9 32.32ZM336.9 29.536C337.86 29.536 338.713 29.312 339.46 28.864C340.206 28.416 340.793 27.808 341.22 27.04C341.646 26.2507 341.86 25.3547 341.86 24.352C341.86 23.3707 341.636 22.496 341.188 21.728C340.761 20.96 340.174 20.3627 339.428 19.936C338.702 19.488 337.86 19.264 336.9 19.264C335.94 19.264 335.086 19.488 334.34 19.936C333.593 20.3627 333.006 20.96 332.58 21.728C332.153 22.496 331.94 23.3707 331.94 24.352C331.94 25.3547 332.153 26.2507 332.58 27.04C333.006 27.808 333.593 28.416 334.34 28.864C335.086 29.312 335.94 29.536 336.9 29.536ZM358.833 32V23.136C358.833 21.984 358.47 21.0347 357.745 20.288C357.019 19.5413 356.081 19.168 354.929 19.168C354.161 19.168 353.478 19.3387 352.881 19.68C352.283 20.0213 351.814 20.4907 351.473 21.088C351.131 21.6853 350.961 22.368 350.961 23.136L349.777 22.464C349.777 21.312 350.033 20.288 350.545 19.392C351.057 18.496 351.771 17.792 352.689 17.28C353.606 16.7467 354.641 16.48 355.793 16.48C356.945 16.48 357.958 16.768 358.833 17.344C359.729 17.92 360.433 18.6773 360.945 19.616C361.457 20.5333 361.713 21.5147 361.713 22.56V32H358.833ZM348.081 32V16.8H350.961V32H348.081Z" fill="black"/>
<path d="M517.512 33V11.432H520.52V33H517.512ZM509.96 13.544V10.792H528.04V13.544H509.96ZM534.099 33.32C532.862 33.32 531.742 33.0427 530.739 32.488C529.758 31.912 528.99 31.1227 528.435 30.12C527.88 29.1173 527.603 27.9547 527.603 26.632V17.8H530.483V26.504C530.483 27.336 530.622 28.0613 530.899 28.68C531.198 29.2773 531.624 29.736 532.179 30.056C532.734 30.376 533.384 30.536 534.131 30.536C535.262 30.536 536.147 30.184 536.787 29.48C537.427 28.7547 537.747 27.7627 537.747 26.504V17.8H540.627V26.632C540.627 27.9547 540.35 29.1173 539.795 30.12C539.24 31.1227 538.472 31.912 537.491 32.488C536.531 33.0427 535.4 33.32 534.099 33.32ZM551.527 33.32C550.012 33.32 548.647 32.9787 547.431 32.296C546.215 31.592 545.255 30.6427 544.551 29.448C543.847 28.2533 543.495 26.8987 543.495 25.384C543.495 23.8907 543.836 22.5467 544.519 21.352C545.223 20.1573 546.162 19.2187 547.335 18.536C548.53 17.832 549.863 17.48 551.335 17.48C552.743 17.48 553.98 17.8 555.047 18.44C556.135 19.08 556.978 19.9653 557.575 21.096C558.194 22.2267 558.503 23.5067 558.503 24.936C558.503 25.1493 558.492 25.384 558.471 25.64C558.45 25.8747 558.407 26.152 558.343 26.472H545.511V24.072H556.807L555.751 25C555.751 23.976 555.57 23.112 555.207 22.408C554.844 21.6827 554.332 21.128 553.671 20.744C553.01 20.3387 552.21 20.136 551.271 20.136C550.29 20.136 549.426 20.3493 548.679 20.776C547.932 21.2027 547.356 21.8 546.951 22.568C546.546 23.336 546.343 24.2427 546.343 25.288C546.343 26.3547 546.556 27.2933 546.983 28.104C547.41 28.8933 548.018 29.512 548.807 29.96C549.596 30.3867 550.503 30.6 551.527 30.6C552.38 30.6 553.159 30.4507 553.863 30.152C554.588 29.8533 555.207 29.4053 555.719 28.808L557.575 30.696C556.85 31.5493 555.954 32.2 554.887 32.648C553.842 33.096 552.722 33.32 551.527 33.32Z" fill="black"/>
<path d="M714.288 32L707.024 9.792H710.032L715.792 27.904H714.928L720.592 9.792H722.768L728.432 27.904H727.6L733.36 9.792H736.336L729.104 32H726.96L721.264 13.92H722.096L716.432 32H714.288ZM744.215 32.32C742.7 32.32 741.335 31.9787 740.119 31.296C738.903 30.592 737.943 29.6427 737.239 28.448C736.535 27.2533 736.183 25.8987 736.183 24.384C736.183 22.8907 736.524 21.5467 737.207 20.352C737.911 19.1573 738.849 18.2187 740.023 17.536C741.217 16.832 742.551 16.48 744.023 16.48C745.431 16.48 746.668 16.8 747.735 17.44C748.823 18.08 749.665 18.9653 750.263 20.096C750.881 21.2267 751.191 22.5067 751.191 23.936C751.191 24.1493 751.18 24.384 751.159 24.64C751.137 24.8747 751.095 25.152 751.031 25.472H738.199V23.072H749.495L748.439 24C748.439 22.976 748.257 22.112 747.895 21.408C747.532 20.6827 747.02 20.128 746.359 19.744C745.697 19.3387 744.897 19.136 743.959 19.136C742.977 19.136 742.113 19.3493 741.367 19.776C740.62 20.2027 740.044 20.8 739.639 21.568C739.233 22.336 739.031 23.2427 739.031 24.288C739.031 25.3547 739.244 26.2933 739.671 27.104C740.097 27.8933 740.705 28.512 741.495 28.96C742.284 29.3867 743.191 29.6 744.215 29.6C745.068 29.6 745.847 29.4507 746.551 29.152C747.276 28.8533 747.895 28.4053 748.407 27.808L750.263 29.696C749.537 30.5493 748.641 31.2 747.575 31.648C746.529 32.096 745.409 32.32 744.215 32.32ZM760.763 32.32C759.355 32.32 758.096 31.9787 756.987 31.296C755.877 30.592 754.992 29.6427 754.331 28.448C753.691 27.2533 753.371 25.9093 753.371 24.416C753.371 22.9227 753.691 21.5787 754.331 20.384C754.992 19.1893 755.877 18.24 756.987 17.536C758.096 16.832 759.355 16.48 760.763 16.48C761.893 16.48 762.917 16.7253 763.835 17.216C764.752 17.6853 765.488 18.3467 766.043 19.2C766.619 20.032 766.939 21.0027 767.003 22.112V26.688C766.939 27.776 766.629 28.7467 766.075 29.6C765.52 30.4533 764.784 31.1253 763.867 31.616C762.949 32.0853 761.915 32.32 760.763 32.32ZM761.243 29.6C762.203 29.6 763.035 29.376 763.739 28.928C764.464 28.48 765.029 27.872 765.435 27.104C765.84 26.3147 766.043 25.4187 766.043 24.416C766.043 23.3707 765.829 22.464 765.403 21.696C764.997 20.928 764.432 20.32 763.707 19.872C763.003 19.424 762.171 19.2 761.211 19.2C760.251 19.2 759.408 19.424 758.683 19.872C757.957 20.32 757.381 20.9387 756.955 21.728C756.549 22.496 756.347 23.3813 756.347 24.384C756.347 25.408 756.549 26.3147 756.955 27.104C757.381 27.872 757.957 28.48 758.683 28.928C759.429 29.376 760.283 29.6 761.243 29.6ZM768.763 32H765.851V27.904L766.395 24.192L765.851 20.512V9.152H768.763V32Z" fill="black"/>
<path d="M927.512 32V10.432H930.52V32H927.512ZM919.96 12.544V9.792H938.04V12.544H919.96ZM951.864 32V23.136C951.864 21.984 951.501 21.0347 950.776 20.288C950.051 19.5413 949.112 19.168 947.96 19.168C947.192 19.168 946.509 19.3387 945.912 19.68C945.315 20.0213 944.845 20.4907 944.504 21.088C944.163 21.6853 943.992 22.368 943.992 23.136L942.808 22.464C942.808 21.312 943.064 20.288 943.576 19.392C944.088 18.496 944.803 17.792 945.72 17.28C946.637 16.7467 947.672 16.48 948.824 16.48C949.976 16.48 950.989 16.736 951.864 17.248C952.76 17.76 953.464 18.4747 953.976 19.392C954.488 20.3093 954.744 21.3653 954.744 22.56V32H951.864ZM941.112 32V9.152H943.992V32H941.112ZM964.755 32.32C963.518 32.32 962.398 32.0427 961.395 31.488C960.414 30.912 959.646 30.1227 959.091 29.12C958.537 28.1173 958.259 26.9547 958.259 25.632V16.8H961.139V25.504C961.139 26.336 961.278 27.0613 961.555 27.68C961.854 28.2773 962.281 28.736 962.835 29.056C963.39 29.376 964.041 29.536 964.787 29.536C965.918 29.536 966.803 29.184 967.443 28.48C968.083 27.7547 968.403 26.7627 968.403 25.504V16.8H971.283V25.632C971.283 26.9547 971.006 28.1173 970.451 29.12C969.897 30.1227 969.129 30.912 968.147 31.488C967.187 32.0427 966.057 32.32 964.755 32.32Z" fill="black"/>
<path d="M1129.62 32V9.792H1132.63V32H1129.62ZM1131.67 22.24V19.488H1143.26V22.24H1131.67ZM1131.67 12.544V9.792H1143.8V12.544H1131.67ZM1147.24 32V16.8H1150.12V32H1147.24ZM1150.12 23.328L1149.03 22.848C1149.03 20.9067 1149.48 19.36 1150.37 18.208C1151.27 17.056 1152.56 16.48 1154.25 16.48C1155.01 16.48 1155.71 16.6187 1156.33 16.896C1156.94 17.152 1157.52 17.5893 1158.05 18.208L1156.17 20.16C1155.85 19.8187 1155.49 19.5733 1155.11 19.424C1154.73 19.2747 1154.28 19.2 1153.77 19.2C1152.7 19.2 1151.82 19.5413 1151.14 20.224C1150.46 20.9067 1150.12 21.9413 1150.12 23.328ZM1160.11 32V16.8H1162.99V32H1160.11ZM1161.55 13.76C1161.02 13.76 1160.58 13.5893 1160.24 13.248C1159.9 12.8853 1159.73 12.4373 1159.73 11.904C1159.73 11.392 1159.9 10.9653 1160.24 10.624C1160.58 10.2613 1161.02 10.08 1161.55 10.08C1162.09 10.08 1162.52 10.2613 1162.86 10.624C1163.21 10.9653 1163.38 11.392 1163.38 11.904C1163.38 12.4373 1163.21 12.8853 1162.86 13.248C1162.52 13.5893 1162.09 13.76 1161.55 13.76Z" fill="black"/>
<path d="M8.904 129.32C7.45333 129.32 6.13067 129.053 4.936 128.52C3.76267 127.965 2.77067 127.165 1.96 126.12L4.008 124.072C4.49867 124.819 5.17067 125.416 6.024 125.864C6.87733 126.291 7.82667 126.504 8.872 126.504C9.85333 126.504 10.696 126.323 11.4 125.96C12.1253 125.576 12.6907 125.043 13.096 124.36C13.5227 123.677 13.736 122.888 13.736 121.992C13.736 121.075 13.5227 120.285 13.096 119.624C12.6907 118.941 12.1147 118.419 11.368 118.056C10.6213 117.693 9.736 117.512 8.712 117.512C8.328 117.512 7.944 117.544 7.56 117.608C7.176 117.651 6.80267 117.725 6.44 117.832L7.72 116.104C8.12533 115.912 8.56267 115.763 9.032 115.656C9.50133 115.549 9.97067 115.496 10.44 115.496C11.6347 115.496 12.7013 115.773 13.64 116.328C14.6 116.883 15.3573 117.661 15.912 118.664C16.488 119.667 16.776 120.829 16.776 122.152C16.776 123.56 16.4347 124.808 15.752 125.896C15.0907 126.963 14.1733 127.805 13 128.424C11.8267 129.021 10.4613 129.32 8.904 129.32ZM6.44 117.832V116.008L12.936 108.616L16.52 108.584L9.832 116.168L6.44 117.832ZM3.016 109.48V106.792H16.52V108.584L13.896 109.48H3.016ZM22.5388 129.32C21.9414 129.32 21.4401 129.117 21.0348 128.712C20.6508 128.285 20.4588 127.795 20.4588 127.24C20.4588 126.621 20.6508 126.12 21.0348 125.736C21.4401 125.331 21.9414 125.128 22.5388 125.128C23.1361 125.128 23.6268 125.331 24.0108 125.736C24.4161 126.12 24.6188 126.621 24.6188 127.24C24.6188 127.795 24.4161 128.285 24.0108 128.712C23.6268 129.117 23.1361 129.32 22.5388 129.32ZM22.5388 119.336C21.9414 119.336 21.4401 119.133 21.0348 118.728C20.6508 118.323 20.4588 117.832 20.4588 117.256C20.4588 116.637 20.6508 116.136 21.0348 115.752C21.4401 115.347 21.9414 115.144 22.5388 115.144C23.1361 115.144 23.6268 115.347 24.0108 115.752C24.4161 116.136 24.6188 116.637 24.6188 117.256C24.6188 117.832 24.4161 118.323 24.0108 118.728C23.6268 119.133 23.1361 119.336 22.5388 119.336ZM34.8103 129.32C33.3596 129.32 32.0369 129.053 30.8423 128.52C29.6689 127.965 28.6769 127.165 27.8663 126.12L29.9143 124.072C30.4049 124.819 31.0769 125.416 31.9303 125.864C32.7836 126.291 33.7329 126.504 34.7783 126.504C35.7596 126.504 36.6023 126.323 37.3063 125.96C38.0316 125.576 38.5969 125.043 39.0023 124.36C39.4289 123.677 39.6423 122.888 39.6423 121.992C39.6423 121.075 39.4289 120.285 39.0023 119.624C38.5969 118.941 38.0209 118.419 37.2743 118.056C36.5276 117.693 35.6423 117.512 34.6183 117.512C34.2343 117.512 33.8503 117.544 33.4663 117.608C33.0823 117.651 32.7089 117.725 32.3463 117.832L33.6263 116.104C34.0316 115.912 34.4689 115.763 34.9383 115.656C35.4076 115.549 35.8769 115.496 36.3463 115.496C37.5409 115.496 38.6076 115.773 39.5463 116.328C40.5063 116.883 41.2636 117.661 41.8183 118.664C42.3943 119.667 42.6823 120.829 42.6823 122.152C42.6823 123.56 42.3409 124.808 41.6583 125.896C40.9969 126.963 40.0796 127.805 38.9063 128.424C37.7329 129.021 36.3676 129.32 34.8103 129.32ZM32.3463 117.832V116.008L38.8423 108.616L42.4263 108.584L35.7383 116.168L32.3463 117.832ZM28.9223 109.48V106.792H42.4263V108.584L39.8023 109.48H28.9223ZM54.685 129.32C53.021 129.32 51.4957 128.851 50.109 127.912C48.7437 126.973 47.6557 125.651 46.845 123.944C46.0343 122.216 45.629 120.189 45.629 117.864C45.629 115.539 46.0237 113.523 46.813 111.816C47.6237 110.109 48.7117 108.797 50.077 107.88C51.4423 106.941 52.9463 106.472 54.589 106.472C56.2743 106.472 57.7997 106.941 59.165 107.88C60.5303 108.797 61.6077 110.109 62.397 111.816C63.2077 113.523 63.613 115.549 63.613 117.896C63.613 120.221 63.2077 122.248 62.397 123.976C61.6077 125.683 60.5303 127.005 59.165 127.944C57.821 128.861 56.3277 129.32 54.685 129.32ZM54.621 126.472C55.7943 126.472 56.8183 126.152 57.693 125.512C58.589 124.851 59.293 123.88 59.805 122.6C60.317 121.32 60.573 119.741 60.573 117.864C60.573 115.987 60.317 114.419 59.805 113.16C59.293 111.88 58.589 110.92 57.693 110.28C56.797 109.619 55.7623 109.288 54.589 109.288C53.437 109.288 52.413 109.619 51.517 110.28C50.621 110.92 49.917 111.88 49.405 113.16C48.9143 114.419 48.669 115.987 48.669 117.864C48.669 119.741 48.9143 121.32 49.405 122.6C49.917 123.88 50.621 124.851 51.517 125.512C52.413 126.152 53.4477 126.472 54.621 126.472ZM73.8932 122.216V119.496H84.4213V122.216H73.8932ZM102.212 129.32C100.74 129.32 99.4168 128.979 98.2435 128.296C97.0915 127.613 96.1742 126.696 95.4915 125.544C94.8088 124.392 94.4675 123.112 94.4675 121.704C94.4675 119.741 95.1502 117.789 96.5155 115.848L103.044 106.792H106.532L99.8435 115.912L98.7555 116.488C99.0115 116.04 99.3208 115.667 99.6835 115.368C100.046 115.048 100.494 114.803 101.028 114.632C101.561 114.461 102.19 114.376 102.916 114.376C104.217 114.376 105.39 114.685 106.436 115.304C107.502 115.923 108.356 116.776 108.996 117.864C109.657 118.931 109.988 120.179 109.988 121.608C109.988 123.016 109.636 124.307 108.932 125.48C108.249 126.653 107.31 127.592 106.116 128.296C104.942 128.979 103.641 129.32 102.212 129.32ZM102.212 126.504C103.108 126.504 103.908 126.291 104.612 125.864C105.337 125.416 105.902 124.829 106.308 124.104C106.734 123.357 106.948 122.525 106.948 121.608C106.948 120.691 106.734 119.869 106.308 119.144C105.902 118.397 105.337 117.811 104.612 117.384C103.908 116.957 103.108 116.744 102.212 116.744C101.316 116.744 100.505 116.957 99.7795 117.384C99.0755 117.811 98.5102 118.397 98.0835 119.144C97.6782 119.869 97.4755 120.691 97.4755 121.608C97.4755 122.525 97.6782 123.357 98.0835 124.104C98.5102 124.851 99.0755 125.437 99.7795 125.864C100.505 126.291 101.316 126.504 102.212 126.504ZM115.57 129.32C114.973 129.32 114.471 129.117 114.066 128.712C113.682 128.285 113.49 127.795 113.49 127.24C113.49 126.621 113.682 126.12 114.066 125.736C114.471 125.331 114.973 125.128 115.57 125.128C116.167 125.128 116.658 125.331 117.042 125.736C117.447 126.12 117.65 126.621 117.65 127.24C117.65 127.795 117.447 128.285 117.042 128.712C116.658 129.117 116.167 129.32 115.57 129.32ZM115.57 119.336C114.973 119.336 114.471 119.133 114.066 118.728C113.682 118.323 113.49 117.832 113.49 117.256C113.49 116.637 113.682 116.136 114.066 115.752C114.471 115.347 114.973 115.144 115.57 115.144C116.167 115.144 116.658 115.347 117.042 115.752C117.447 116.136 117.65 116.637 117.65 117.256C117.65 117.832 117.447 118.323 117.042 118.728C116.658 119.133 116.167 119.336 115.57 119.336ZM130.498 129.32C128.834 129.32 127.308 128.851 125.922 127.912C124.556 126.973 123.468 125.651 122.658 123.944C121.847 122.216 121.442 120.189 121.442 117.864C121.442 115.539 121.836 113.523 122.626 111.816C123.436 110.109 124.524 108.797 125.89 107.88C127.255 106.941 128.759 106.472 130.402 106.472C132.087 106.472 133.612 106.941 134.978 107.88C136.343 108.797 137.42 110.109 138.21 111.816C139.02 113.523 139.426 115.549 139.426 117.896C139.426 120.221 139.02 122.248 138.21 123.976C137.42 125.683 136.343 127.005 134.978 127.944C133.634 128.861 132.14 129.32 130.498 129.32ZM130.434 126.472C131.607 126.472 132.631 126.152 133.506 125.512C134.402 124.851 135.106 123.88 135.618 122.6C136.13 121.32 136.385 119.741 136.385 117.864C136.385 115.987 136.13 114.419 135.618 113.16C135.106 111.88 134.402 110.92 133.506 110.28C132.61 109.619 131.575 109.288 130.402 109.288C129.25 109.288 128.226 109.619 127.33 110.28C126.434 110.92 125.73 111.88 125.218 113.16C124.727 114.419 124.482 115.987 124.482 117.864C124.482 119.741 124.727 121.32 125.218 122.6C125.73 123.88 126.434 124.851 127.33 125.512C128.226 126.152 129.26 126.472 130.434 126.472ZM151.498 129.32C149.834 129.32 148.308 128.851 146.922 127.912C145.556 126.973 144.468 125.651 143.658 123.944C142.847 122.216 142.442 120.189 142.442 117.864C142.442 115.539 142.836 113.523 143.626 111.816C144.436 110.109 145.524 108.797 146.89 107.88C148.255 106.941 149.759 106.472 151.402 106.472C153.087 106.472 154.612 106.941 155.978 107.88C157.343 108.797 158.42 110.109 159.21 111.816C160.02 113.523 160.426 115.549 160.426 117.896C160.426 120.221 160.02 122.248 159.21 123.976C158.42 125.683 157.343 127.005 155.978 127.944C154.634 128.861 153.14 129.32 151.498 129.32ZM151.434 126.472C152.607 126.472 153.631 126.152 154.506 125.512C155.402 124.851 156.106 123.88 156.618 122.6C157.13 121.32 157.385 119.741 157.385 117.864C157.385 115.987 157.13 114.419 156.618 113.16C156.106 111.88 155.402 110.92 154.506 110.28C153.61 109.619 152.575 109.288 151.402 109.288C150.25 109.288 149.226 109.619 148.33 110.28C147.434 110.92 146.73 111.88 146.218 113.16C145.727 114.419 145.482 115.987 145.482 117.864C145.482 119.741 145.727 121.32 146.218 122.6C146.73 123.88 147.434 124.851 148.33 125.512C149.226 126.152 150.26 126.472 151.434 126.472ZM178.706 129.32C177.554 129.32 176.508 129.085 175.57 128.616C174.652 128.125 173.916 127.453 173.362 126.6C172.807 125.747 172.498 124.776 172.434 123.688V119.112C172.498 118.003 172.807 117.032 173.362 116.2C173.938 115.347 174.684 114.685 175.602 114.216C176.54 113.725 177.575 113.48 178.706 113.48C180.092 113.48 181.34 113.832 182.45 114.536C183.58 115.24 184.466 116.189 185.106 117.384C185.746 118.579 186.066 119.923 186.066 121.416C186.066 122.909 185.746 124.253 185.106 125.448C184.466 126.643 183.58 127.592 182.45 128.296C181.34 128.979 180.092 129.32 178.706 129.32ZM170.706 135.368V113.8H173.586V117.8L173.042 121.48L173.586 125.192V135.368H170.706ZM178.226 126.6C179.186 126.6 180.028 126.376 180.754 125.928C181.479 125.48 182.055 124.872 182.482 124.104C182.908 123.315 183.122 122.408 183.122 121.384C183.122 120.381 182.908 119.485 182.482 118.696C182.055 117.907 181.479 117.299 180.754 116.872C180.028 116.424 179.196 116.2 178.258 116.2C177.298 116.2 176.455 116.424 175.73 116.872C175.004 117.299 174.439 117.907 174.034 118.696C173.628 119.485 173.426 120.392 173.426 121.416C173.426 122.419 173.618 123.315 174.002 124.104C174.407 124.872 174.972 125.48 175.698 125.928C176.444 126.376 177.287 126.6 178.226 126.6ZM189.331 129V113.8H192.211V129H189.331ZM199.603 129V119.816C199.603 118.685 199.251 117.8 198.547 117.16C197.864 116.499 197 116.168 195.955 116.168C195.251 116.168 194.621 116.317 194.067 116.616C193.512 116.915 193.064 117.331 192.723 117.864C192.381 118.397 192.211 119.037 192.211 119.784L191.027 119.208C191.027 118.056 191.272 117.053 191.763 116.2C192.275 115.347 192.968 114.685 193.843 114.216C194.717 113.725 195.699 113.48 196.787 113.48C197.853 113.48 198.813 113.715 199.667 114.184C200.541 114.653 201.224 115.315 201.715 116.168C202.227 117.021 202.483 118.035 202.483 119.208V129H199.603ZM209.875 129V119.816C209.875 118.685 209.523 117.8 208.819 117.16C208.136 116.499 207.283 116.168 206.259 116.168C205.555 116.168 204.915 116.317 204.339 116.616C203.784 116.915 203.336 117.331 202.995 117.864C202.653 118.397 202.483 119.037 202.483 119.784L200.851 119.208C200.915 118.035 201.224 117.032 201.779 116.2C202.355 115.347 203.091 114.685 203.987 114.216C204.883 113.725 205.864 113.48 206.931 113.48C208.04 113.48 209.032 113.715 209.907 114.184C210.781 114.653 211.475 115.315 211.987 116.168C212.52 117.021 212.787 118.045 212.787 119.24V129H209.875Z" fill="black"/>
<path d="M9.024 230.32C7.552 230.32 6.22933 229.979 5.056 229.296C3.904 228.613 2.98667 227.696 2.304 226.544C1.62133 225.392 1.28 224.112 1.28 222.704C1.28 220.741 1.96267 218.789 3.328 216.848L9.856 207.792H13.344L6.656 216.912L5.568 217.488C5.824 217.04 6.13333 216.667 6.496 216.368C6.85867 216.048 7.30667 215.803 7.84 215.632C8.37333 215.461 9.00267 215.376 9.728 215.376C11.0293 215.376 12.2027 215.685 13.248 216.304C14.3147 216.923 15.168 217.776 15.808 218.864C16.4693 219.931 16.8 221.179 16.8 222.608C16.8 224.016 16.448 225.307 15.744 226.48C15.0613 227.653 14.1227 228.592 12.928 229.296C11.7547 229.979 10.4533 230.32 9.024 230.32ZM9.024 227.504C9.92 227.504 10.72 227.291 11.424 226.864C12.1493 226.416 12.7147 225.829 13.12 225.104C13.5467 224.357 13.76 223.525 13.76 222.608C13.76 221.691 13.5467 220.869 13.12 220.144C12.7147 219.397 12.1493 218.811 11.424 218.384C10.72 217.957 9.92 217.744 9.024 217.744C8.128 217.744 7.31733 217.957 6.592 218.384C5.888 218.811 5.32267 219.397 4.896 220.144C4.49067 220.869 4.288 221.691 4.288 222.608C4.288 223.525 4.49067 224.357 4.896 225.104C5.32267 225.851 5.888 226.437 6.592 226.864C7.31733 227.291 8.128 227.504 9.024 227.504ZM22.3825 230.32C21.7852 230.32 21.2838 230.117 20.8785 229.712C20.4945 229.285 20.3025 228.795 20.3025 228.24C20.3025 227.621 20.4945 227.12 20.8785 226.736C21.2838 226.331 21.7852 226.128 22.3825 226.128C22.9798 226.128 23.4705 226.331 23.8545 226.736C24.2598 227.12 24.4625 227.621 24.4625 228.24C24.4625 228.795 24.2598 229.285 23.8545 229.712C23.4705 230.117 22.9798 230.32 22.3825 230.32ZM22.3825 220.336C21.7852 220.336 21.2838 220.133 20.8785 219.728C20.4945 219.323 20.3025 218.832 20.3025 218.256C20.3025 217.637 20.4945 217.136 20.8785 216.752C21.2838 216.347 21.7852 216.144 22.3825 216.144C22.9798 216.144 23.4705 216.347 23.8545 216.752C24.2598 217.136 24.4625 217.637 24.4625 218.256C24.4625 218.832 24.2598 219.323 23.8545 219.728C23.4705 220.133 22.9798 220.336 22.3825 220.336ZM37.31 230.32C35.646 230.32 34.1207 229.851 32.734 228.912C31.3687 227.973 30.2807 226.651 29.47 224.944C28.6593 223.216 28.254 221.189 28.254 218.864C28.254 216.539 28.6487 214.523 29.438 212.816C30.2487 211.109 31.3367 209.797 32.702 208.88C34.0673 207.941 35.5713 207.472 37.214 207.472C38.8993 207.472 40.4247 207.941 41.79 208.88C43.1553 209.797 44.2327 211.109 45.022 212.816C45.8327 214.523 46.238 216.549 46.238 218.896C46.238 221.221 45.8327 223.248 45.022 224.976C44.2327 226.683 43.1553 228.005 41.79 228.944C40.446 229.861 38.9527 230.32 37.31 230.32ZM37.246 227.472C38.4193 227.472 39.4433 227.152 40.318 226.512C41.214 225.851 41.918 224.88 42.43 223.6C42.942 222.32 43.198 220.741 43.198 218.864C43.198 216.987 42.942 215.419 42.43 214.16C41.918 212.88 41.214 211.92 40.318 211.28C39.422 210.619 38.3873 210.288 37.214 210.288C36.062 210.288 35.038 210.619 34.142 211.28C33.246 211.92 32.542 212.88 32.03 214.16C31.5393 215.419 31.294 216.987 31.294 218.864C31.294 220.741 31.5393 222.32 32.03 223.6C32.542 224.88 33.246 225.851 34.142 226.512C35.038 227.152 36.0727 227.472 37.246 227.472ZM58.31 230.32C56.646 230.32 55.1207 229.851 53.734 228.912C52.3687 227.973 51.2807 226.651 50.47 224.944C49.6593 223.216 49.254 221.189 49.254 218.864C49.254 216.539 49.6487 214.523 50.438 212.816C51.2487 211.109 52.3367 209.797 53.702 208.88C55.0673 207.941 56.5713 207.472 58.214 207.472C59.8993 207.472 61.4247 207.941 62.79 208.88C64.1553 209.797 65.2327 211.109 66.022 212.816C66.8327 214.523 67.238 216.549 67.238 218.896C67.238 221.221 66.8327 223.248 66.022 224.976C65.2327 226.683 64.1553 228.005 62.79 228.944C61.446 229.861 59.9527 230.32 58.31 230.32ZM58.246 227.472C59.4193 227.472 60.4433 227.152 61.318 226.512C62.214 225.851 62.918 224.88 63.43 223.6C63.942 222.32 64.198 220.741 64.198 218.864C64.198 216.987 63.942 215.419 63.43 214.16C62.918 212.88 62.214 211.92 61.318 211.28C60.422 210.619 59.3873 210.288 58.214 210.288C57.062 210.288 56.038 210.619 55.142 211.28C54.246 211.92 53.542 212.88 53.03 214.16C52.5393 215.419 52.294 216.987 52.294 218.864C52.294 220.741 52.5393 222.32 53.03 223.6C53.542 224.88 54.246 225.851 55.142 226.512C56.038 227.152 57.0727 227.472 58.246 227.472ZM77.5182 223.216V220.496H88.0463V223.216H77.5182ZM101.293 230L109.613 209.552L112.589 209.648L104.461 230H101.293ZM97.8045 210.48V207.792H112.589V209.648L111.277 210.48H97.8045ZM117.945 230.32C117.348 230.32 116.846 230.117 116.441 229.712C116.057 229.285 115.865 228.795 115.865 228.24C115.865 227.621 116.057 227.12 116.441 226.736C116.846 226.331 117.348 226.128 117.945 226.128C118.542 226.128 119.033 226.331 119.417 226.736C119.822 227.12 120.025 227.621 120.025 228.24C120.025 228.795 119.822 229.285 119.417 229.712C119.033 230.117 118.542 230.32 117.945 230.32ZM117.945 220.336C117.348 220.336 116.846 220.133 116.441 219.728C116.057 219.323 115.865 218.832 115.865 218.256C115.865 217.637 116.057 217.136 116.441 216.752C116.846 216.347 117.348 216.144 117.945 216.144C118.542 216.144 119.033 216.347 119.417 216.752C119.822 217.136 120.025 217.637 120.025 218.256C120.025 218.832 119.822 219.323 119.417 219.728C119.033 220.133 118.542 220.336 117.945 220.336ZM130.217 230.32C128.766 230.32 127.443 230.053 126.249 229.52C125.075 228.965 124.083 228.165 123.273 227.12L125.321 225.072C125.811 225.819 126.483 226.416 127.337 226.864C128.19 227.291 129.139 227.504 130.185 227.504C131.166 227.504 132.009 227.323 132.713 226.96C133.438 226.576 134.003 226.043 134.409 225.36C134.835 224.677 135.049 223.888 135.049 222.992C135.049 222.075 134.835 221.285 134.409 220.624C134.003 219.941 133.427 219.419 132.681 219.056C131.934 218.693 131.049 218.512 130.025 218.512C129.641 218.512 129.257 218.544 128.873 218.608C128.489 218.651 128.115 218.725 127.753 218.832L129.033 217.104C129.438 216.912 129.875 216.763 130.345 216.656C130.814 216.549 131.283 216.496 131.753 216.496C132.947 216.496 134.014 216.773 134.953 217.328C135.913 217.883 136.67 218.661 137.225 219.664C137.801 220.667 138.089 221.829 138.089 223.152C138.089 224.56 137.747 225.808 137.065 226.896C136.403 227.963 135.486 228.805 134.313 229.424C133.139 230.021 131.774 230.32 130.217 230.32ZM127.753 218.832V217.008L134.249 209.616L137.833 209.584L131.145 217.168L127.753 218.832ZM124.329 210.48V207.792H137.833V209.584L135.209 210.48H124.329ZM150.091 230.32C148.427 230.32 146.902 229.851 145.515 228.912C144.15 227.973 143.062 226.651 142.251 224.944C141.441 223.216 141.035 221.189 141.035 218.864C141.035 216.539 141.43 214.523 142.219 212.816C143.03 211.109 144.118 209.797 145.483 208.88C146.849 207.941 148.353 207.472 149.995 207.472C151.681 207.472 153.206 207.941 154.571 208.88C155.937 209.797 157.014 211.109 157.803 212.816C158.614 214.523 159.019 216.549 159.019 218.896C159.019 221.221 158.614 223.248 157.803 224.976C157.014 226.683 155.937 228.005 154.571 228.944C153.227 229.861 151.734 230.32 150.091 230.32ZM150.027 227.472C151.201 227.472 152.225 227.152 153.099 226.512C153.995 225.851 154.699 224.88 155.211 223.6C155.723 222.32 155.979 220.741 155.979 218.864C155.979 216.987 155.723 215.419 155.211 214.16C154.699 212.88 153.995 211.92 153.099 211.28C152.203 210.619 151.169 210.288 149.995 210.288C148.843 210.288 147.819 210.619 146.923 211.28C146.027 211.92 145.323 212.88 144.811 214.16C144.321 215.419 144.075 216.987 144.075 218.864C144.075 220.741 144.321 222.32 144.811 223.6C145.323 224.88 146.027 225.851 146.923 226.512C147.819 227.152 148.854 227.472 150.027 227.472ZM177.3 230.32C176.148 230.32 175.102 230.085 174.164 229.616C173.246 229.125 172.51 228.453 171.956 227.6C171.401 226.747 171.092 225.776 171.028 224.688V220.112C171.092 219.003 171.401 218.032 171.956 217.2C172.532 216.347 173.278 215.685 174.196 215.216C175.134 214.725 176.169 214.48 177.3 214.48C178.686 214.48 179.934 214.832 181.044 215.536C182.174 216.24 183.06 217.189 183.7 218.384C184.34 219.579 184.66 220.923 184.66 222.416C184.66 223.909 184.34 225.253 183.7 226.448C183.06 227.643 182.174 228.592 181.044 229.296C179.934 229.979 178.686 230.32 177.3 230.32ZM169.299 236.368V214.8H172.18V218.8L171.636 222.48L172.18 226.192V236.368H169.299ZM176.82 227.6C177.78 227.6 178.622 227.376 179.348 226.928C180.073 226.48 180.649 225.872 181.076 225.104C181.502 224.315 181.716 223.408 181.716 222.384C181.716 221.381 181.502 220.485 181.076 219.696C180.649 218.907 180.073 218.299 179.348 217.872C178.622 217.424 177.79 217.2 176.852 217.2C175.892 217.2 175.049 217.424 174.324 217.872C173.598 218.299 173.033 218.907 172.628 219.696C172.222 220.485 172.02 221.392 172.02 222.416C172.02 223.419 172.212 224.315 172.596 225.104C173.001 225.872 173.566 226.48 174.292 226.928C175.038 227.376 175.881 227.6 176.82 227.6ZM187.924 230V214.8H190.805V230H187.924ZM198.197 230V220.816C198.197 219.685 197.845 218.8 197.141 218.16C196.458 217.499 195.594 217.168 194.549 217.168C193.845 217.168 193.215 217.317 192.661 217.616C192.106 217.915 191.658 218.331 191.317 218.864C190.975 219.397 190.805 220.037 190.805 220.784L189.621 220.208C189.621 219.056 189.866 218.053 190.357 217.2C190.869 216.347 191.562 215.685 192.437 215.216C193.311 214.725 194.293 214.48 195.381 214.48C196.447 214.48 197.407 214.715 198.261 215.184C199.135 215.653 199.818 216.315 200.309 217.168C200.821 218.021 201.077 219.035 201.077 220.208V230H198.197ZM208.469 230V220.816C208.469 219.685 208.117 218.8 207.413 218.16C206.73 217.499 205.877 217.168 204.853 217.168C204.149 217.168 203.509 217.317 202.933 217.616C202.378 217.915 201.93 218.331 201.589 218.864C201.247 219.397 201.077 220.037 201.077 220.784L199.445 220.208C199.509 219.035 199.818 218.032 200.373 217.2C200.949 216.347 201.685 215.685 202.581 215.216C203.477 214.725 204.458 214.48 205.525 214.48C206.634 214.48 207.626 214.715 208.501 215.184C209.375 215.653 210.069 216.315 210.581 217.168C211.114 218.021 211.381 219.045 211.381 220.24V230H208.469Z" fill="black"/>
<rect x="438" y="41" width="197" height="253" rx="19" stroke="black" stroke-width="2"/>
<rect x="234" y="41" width="197" height="253" rx="19" stroke="black" stroke-width="2"/>
<rect x="642" y="41" width="197" height="253" rx="19" stroke="black" stroke-width="2"/>
<rect x="846" y="41" width="197" height="253" rx="19" stroke="black" stroke-width="2"/>
<rect x="1050" y="41" width="197" height="253" rx="19" stroke="black" stroke-width="2"/>
<rect x="244" y="84" width="994" height="72" rx="20" fill="#86BCC8"/>
<rect x="244" y="182" width="994" height="72" rx="20" fill="#0C3F4A"/>
<path d="M592.968 126V109.344H595.224V126H592.968ZM603.72 126V109.344H605.976V126H603.72ZM594.504 118.416V116.352H604.272V118.416H594.504ZM614.737 126.24C613.617 126.24 612.609 125.976 611.713 125.448C610.817 124.92 610.105 124.208 609.577 123.312C609.049 122.4 608.785 121.384 608.785 120.264C608.785 119.16 609.049 118.168 609.577 117.288C610.105 116.392 610.817 115.68 611.713 115.152C612.609 114.624 613.617 114.36 614.737 114.36C615.841 114.36 616.841 114.624 617.737 115.152C618.649 115.664 619.369 116.368 619.897 117.264C620.425 118.16 620.689 119.16 620.689 120.264C620.689 121.384 620.425 122.4 619.897 123.312C619.369 124.208 618.649 124.92 617.737 125.448C616.841 125.976 615.841 126.24 614.737 126.24ZM614.737 124.152C615.457 124.152 616.097 123.984 616.657 123.648C617.217 123.312 617.657 122.856 617.977 122.28C618.297 121.688 618.457 121.016 618.457 120.264C618.457 119.528 618.289 118.872 617.953 118.296C617.633 117.72 617.193 117.272 616.633 116.952C616.089 116.616 615.457 116.448 614.737 116.448C614.017 116.448 613.377 116.616 612.817 116.952C612.257 117.272 611.817 117.72 611.497 118.296C611.177 118.872 611.017 119.528 611.017 120.264C611.017 121.016 611.177 121.688 611.497 122.28C611.817 122.856 612.257 123.312 612.817 123.648C613.377 123.984 614.017 124.152 614.737 124.152ZM623.123 126V114.6H625.283V126H623.123ZM630.827 126V119.112C630.827 118.264 630.563 117.6 630.035 117.12C629.523 116.624 628.875 116.376 628.091 116.376C627.563 116.376 627.091 116.488 626.675 116.712C626.259 116.936 625.923 117.248 625.667 117.648C625.411 118.048 625.283 118.528 625.283 119.088L624.395 118.656C624.395 117.792 624.579 117.04 624.947 116.4C625.331 115.76 625.851 115.264 626.507 114.912C627.163 114.544 627.899 114.36 628.715 114.36C629.515 114.36 630.235 114.536 630.875 114.888C631.531 115.24 632.043 115.736 632.411 116.376C632.795 117.016 632.987 117.776 632.987 118.656V126H630.827ZM638.531 126V119.112C638.531 118.264 638.267 117.6 637.739 117.12C637.227 116.624 636.587 116.376 635.819 116.376C635.291 116.376 634.811 116.488 634.379 116.712C633.963 116.936 633.627 117.248 633.371 117.648C633.115 118.048 632.987 118.528 632.987 119.088L631.763 118.656C631.811 117.776 632.043 117.024 632.459 116.4C632.891 115.76 633.443 115.264 634.115 114.912C634.787 114.544 635.523 114.36 636.323 114.36C637.155 114.36 637.899 114.536 638.555 114.888C639.211 115.24 639.731 115.736 640.115 116.376C640.515 117.016 640.715 117.784 640.715 118.68V126H638.531ZM648.934 126.24C647.798 126.24 646.774 125.984 645.862 125.472C644.95 124.944 644.23 124.232 643.702 123.336C643.174 122.44 642.91 121.424 642.91 120.288C642.91 119.168 643.166 118.16 643.678 117.264C644.206 116.368 644.91 115.664 645.79 115.152C646.686 114.624 647.686 114.36 648.79 114.36C649.846 114.36 650.774 114.6 651.574 115.08C652.39 115.56 653.022 116.224 653.47 117.072C653.934 117.92 654.166 118.88 654.166 119.952C654.166 120.112 654.158 120.288 654.142 120.48C654.126 120.656 654.094 120.864 654.046 121.104H644.422V119.304H652.894L652.102 120C652.102 119.232 651.966 118.584 651.694 118.056C651.422 117.512 651.038 117.096 650.542 116.808C650.046 116.504 649.446 116.352 648.742 116.352C648.006 116.352 647.358 116.512 646.798 116.832C646.238 117.152 645.806 117.6 645.502 118.176C645.198 118.752 645.046 119.432 645.046 120.216C645.046 121.016 645.206 121.72 645.526 122.328C645.846 122.92 646.302 123.384 646.894 123.72C647.486 124.04 648.166 124.2 648.934 124.2C649.574 124.2 650.158 124.088 650.686 123.864C651.23 123.64 651.694 123.304 652.078 122.856L653.47 124.272C652.926 124.912 652.254 125.4 651.454 125.736C650.67 126.072 649.83 126.24 648.934 126.24ZM659.645 126L655.133 114.6H657.389L660.653 123.48H659.933L663.173 114.6H664.421L667.661 123.48H666.941L670.205 114.6H672.461L667.973 126H666.701L663.413 117.384H664.205L660.893 126H659.645ZM679.261 126.24C678.141 126.24 677.133 125.976 676.237 125.448C675.341 124.92 674.629 124.208 674.101 123.312C673.573 122.4 673.309 121.384 673.309 120.264C673.309 119.16 673.573 118.168 674.101 117.288C674.629 116.392 675.341 115.68 676.237 115.152C677.133 114.624 678.141 114.36 679.261 114.36C680.365 114.36 681.365 114.624 682.261 115.152C683.173 115.664 683.893 116.368 684.421 117.264C684.949 118.16 685.213 119.16 685.213 120.264C685.213 121.384 684.949 122.4 684.421 123.312C683.893 124.208 683.173 124.92 682.261 125.448C681.365 125.976 680.365 126.24 679.261 126.24ZM679.261 124.152C679.981 124.152 680.621 123.984 681.181 123.648C681.741 123.312 682.181 122.856 682.501 122.28C682.821 121.688 682.981 121.016 682.981 120.264C682.981 119.528 682.813 118.872 682.477 118.296C682.157 117.72 681.717 117.272 681.157 116.952C680.613 116.616 679.981 116.448 679.261 116.448C678.541 116.448 677.901 116.616 677.341 116.952C676.781 117.272 676.341 117.72 676.021 118.296C675.701 118.872 675.541 119.528 675.541 120.264C675.541 121.016 675.701 121.688 676.021 122.28C676.341 122.856 676.781 123.312 677.341 123.648C677.901 123.984 678.541 124.152 679.261 124.152ZM687.646 126V114.6H689.807V126H687.646ZM689.807 119.496L688.991 119.136C688.991 117.68 689.327 116.52 689.999 115.656C690.671 114.792 691.639 114.36 692.903 114.36C693.479 114.36 693.999 114.464 694.463 114.672C694.927 114.864 695.359 115.192 695.759 115.656L694.343 117.12C694.103 116.864 693.839 116.68 693.551 116.568C693.263 116.456 692.927 116.4 692.543 116.4C691.743 116.4 691.087 116.656 690.575 117.168C690.063 117.68 689.807 118.456 689.807 119.496ZM704.575 126L699.247 120.168L704.527 114.6H707.143L701.263 120.744L701.359 119.496L707.359 126H704.575ZM697.279 126V108.864H699.439V126H697.279ZM714.609 126V109.344H716.865V126H714.609ZM725.361 126V109.344H727.617V126H725.361ZM716.145 118.416V116.352H725.913V118.416H716.145ZM736.45 126.24C735.314 126.24 734.29 125.984 733.378 125.472C732.466 124.944 731.746 124.232 731.218 123.336C730.69 122.44 730.426 121.424 730.426 120.288C730.426 119.168 730.682 118.16 731.194 117.264C731.722 116.368 732.426 115.664 733.306 115.152C734.202 114.624 735.202 114.36 736.306 114.36C737.362 114.36 738.29 114.6 739.09 115.08C739.906 115.56 740.538 116.224 740.986 117.072C741.45 117.92 741.682 118.88 741.682 119.952C741.682 120.112 741.674 120.288 741.658 120.48C741.642 120.656 741.61 120.864 741.562 121.104H731.938V119.304H740.41L739.618 120C739.618 119.232 739.482 118.584 739.21 118.056C738.938 117.512 738.554 117.096 738.058 116.808C737.562 116.504 736.962 116.352 736.258 116.352C735.522 116.352 734.874 116.512 734.314 116.832C733.754 117.152 733.322 117.6 733.018 118.176C732.714 118.752 732.562 119.432 732.562 120.216C732.562 121.016 732.722 121.72 733.042 122.328C733.362 122.92 733.818 123.384 734.41 123.72C735.002 124.04 735.682 124.2 736.45 124.2C737.09 124.2 737.674 124.088 738.202 123.864C738.746 123.64 739.21 123.304 739.594 122.856L740.986 124.272C740.442 124.912 739.77 125.4 738.97 125.736C738.186 126.072 737.346 126.24 736.45 126.24ZM744.037 126V108.864H746.197V126H744.037ZM755.357 126.24C754.493 126.24 753.709 126.064 753.005 125.712C752.317 125.344 751.765 124.84 751.349 124.2C750.933 123.56 750.701 122.832 750.653 122.016V118.584C750.701 117.752 750.933 117.024 751.349 116.4C751.781 115.76 752.341 115.264 753.029 114.912C753.733 114.544 754.509 114.36 755.357 114.36C756.397 114.36 757.333 114.624 758.165 115.152C759.013 115.68 759.677 116.392 760.157 117.288C760.637 118.184 760.877 119.192 760.877 120.312C760.877 121.432 760.637 122.44 760.157 123.336C759.677 124.232 759.013 124.944 758.165 125.472C757.333 125.984 756.397 126.24 755.357 126.24ZM749.357 130.776V114.6H751.517V117.6L751.109 120.36L751.517 123.144V130.776H749.357ZM754.997 124.2C755.717 124.2 756.349 124.032 756.893 123.696C757.437 123.36 757.869 122.904 758.189 122.328C758.509 121.736 758.669 121.056 758.669 120.288C758.669 119.536 758.509 118.864 758.189 118.272C757.869 117.68 757.437 117.224 756.893 116.904C756.349 116.568 755.725 116.4 755.021 116.4C754.301 116.4 753.669 116.568 753.125 116.904C752.581 117.224 752.157 117.68 751.853 118.272C751.549 118.864 751.397 119.544 751.397 120.312C751.397 121.064 751.541 121.736 751.829 122.328C752.133 122.904 752.557 123.36 753.101 123.696C753.661 124.032 754.293 124.2 754.997 124.2ZM779.622 126L771.654 117.456C771.03 116.784 770.566 116.144 770.262 115.536C769.958 114.928 769.806 114.256 769.806 113.52C769.806 112.672 770.006 111.92 770.406 111.264C770.806 110.592 771.358 110.064 772.062 109.68C772.766 109.28 773.574 109.08 774.486 109.08C775.158 109.08 775.766 109.192 776.31 109.416C776.87 109.624 777.358 109.904 777.774 110.256C778.206 110.608 778.566 111.008 778.854 111.456L777.294 112.872C776.926 112.36 776.518 111.952 776.07 111.648C775.638 111.328 775.11 111.168 774.486 111.168C773.766 111.168 773.166 111.384 772.686 111.816C772.206 112.248 771.966 112.808 771.966 113.496C771.966 114.072 772.086 114.56 772.326 114.96C772.566 115.36 772.926 115.824 773.406 116.352L782.262 126H779.622ZM773.646 126.24C772.542 126.24 771.574 126.024 770.742 125.592C769.91 125.16 769.262 124.568 768.798 123.816C768.35 123.048 768.126 122.176 768.126 121.2C768.126 120.192 768.398 119.28 768.942 118.464C769.486 117.648 770.278 117 771.318 116.52L772.35 117.864C771.71 118.184 771.206 118.624 770.838 119.184C770.47 119.728 770.286 120.384 770.286 121.152C770.286 121.776 770.43 122.312 770.718 122.76C771.006 123.208 771.406 123.56 771.918 123.816C772.446 124.056 773.046 124.176 773.718 124.176C774.566 124.176 775.286 124 775.878 123.648C776.47 123.296 776.918 122.848 777.222 122.304L778.638 123.96C778.318 124.392 777.894 124.784 777.366 125.136C776.854 125.472 776.278 125.744 775.638 125.952C775.014 126.144 774.35 126.24 773.646 126.24ZM792.642 126V109.824H794.898V126H792.642ZM786.978 111.408V109.344H800.538V111.408H786.978ZM804.958 126.24C803.822 126.24 802.798 125.984 801.886 125.472C800.974 124.944 800.254 124.232 799.726 123.336C799.198 122.44 798.934 121.424 798.934 120.288C798.934 119.168 799.19 118.16 799.702 117.264C800.23 116.368 800.934 115.664 801.814 115.152C802.71 114.624 803.71 114.36 804.814 114.36C805.87 114.36 806.798 114.6 807.598 115.08C808.414 115.56 809.046 116.224 809.494 117.072C809.958 117.92 810.19 118.88 810.19 119.952C810.19 120.112 810.182 120.288 810.166 120.48C810.15 120.656 810.118 120.864 810.07 121.104H800.446V119.304H808.918L808.126 120C808.126 119.232 807.99 118.584 807.718 118.056C807.446 117.512 807.062 117.096 806.566 116.808C806.07 116.504 805.47 116.352 804.766 116.352C804.03 116.352 803.382 116.512 802.822 116.832C802.262 117.152 801.83 117.6 801.526 118.176C801.222 118.752 801.07 119.432 801.07 120.216C801.07 121.016 801.23 121.72 801.55 122.328C801.87 122.92 802.326 123.384 802.918 123.72C803.51 124.04 804.19 124.2 804.958 124.2C805.598 124.2 806.182 124.088 806.71 123.864C807.254 123.64 807.718 123.304 808.102 122.856L809.494 124.272C808.95 124.912 808.278 125.4 807.478 125.736C806.694 126.072 805.854 126.24 804.958 126.24ZM816.169 126.24C815.529 126.24 814.921 126.16 814.345 126C813.785 125.824 813.265 125.584 812.785 125.28C812.305 124.96 811.889 124.584 811.537 124.152L812.929 122.76C813.345 123.272 813.825 123.656 814.369 123.912C814.913 124.152 815.521 124.272 816.193 124.272C816.865 124.272 817.385 124.16 817.753 123.936C818.121 123.696 818.305 123.368 818.305 122.952C818.305 122.536 818.153 122.216 817.849 121.992C817.561 121.752 817.185 121.56 816.721 121.416C816.257 121.256 815.761 121.104 815.233 120.96C814.721 120.8 814.233 120.6 813.769 120.36C813.305 120.12 812.921 119.792 812.617 119.376C812.329 118.96 812.185 118.408 812.185 117.72C812.185 117.032 812.353 116.44 812.689 115.944C813.025 115.432 813.489 115.04 814.081 114.768C814.689 114.496 815.417 114.36 816.265 114.36C817.161 114.36 817.953 114.52 818.641 114.84C819.345 115.144 819.921 115.608 820.369 116.232L818.977 117.624C818.657 117.208 818.257 116.888 817.777 116.664C817.313 116.44 816.785 116.328 816.193 116.328C815.569 116.328 815.089 116.44 814.753 116.664C814.433 116.872 814.273 117.168 814.273 117.552C814.273 117.936 814.417 118.232 814.705 118.44C814.993 118.648 815.369 118.824 815.833 118.968C816.313 119.112 816.809 119.264 817.321 119.424C817.833 119.568 818.321 119.768 818.785 120.024C819.249 120.28 819.625 120.624 819.913 121.056C820.217 121.488 820.369 122.056 820.369 122.76C820.369 123.832 819.985 124.68 819.217 125.304C818.465 125.928 817.449 126.24 816.169 126.24ZM824.539 126V109.824H826.699V126H824.539ZM821.731 116.568V114.6H829.507V116.568H821.731ZM838.511 119.52V117.552H843.047C843.671 117.552 844.223 117.424 844.703 117.168C845.199 116.912 845.583 116.552 845.855 116.088C846.143 115.624 846.287 115.072 846.287 114.432C846.287 113.792 846.143 113.24 845.855 112.776C845.583 112.312 845.199 111.952 844.703 111.696C844.223 111.44 843.671 111.312 843.047 111.312H838.511V109.344H843.191C844.215 109.344 845.127 109.552 845.927 109.968C846.743 110.384 847.383 110.976 847.847 111.744C848.327 112.496 848.567 113.392 848.567 114.432C848.567 115.456 848.327 116.352 847.847 117.12C847.383 117.872 846.743 118.464 845.927 118.896C845.127 119.312 844.215 119.52 843.191 119.52H838.511ZM836.999 126V109.344H839.255V126H836.999ZM851.17 126V114.6H853.33V126H851.17ZM853.33 119.496L852.514 119.136C852.514 117.68 852.85 116.52 853.522 115.656C854.194 114.792 855.162 114.36 856.426 114.36C857.002 114.36 857.522 114.464 857.986 114.672C858.45 114.864 858.882 115.192 859.282 115.656L857.866 117.12C857.626 116.864 857.362 116.68 857.074 116.568C856.786 116.456 856.45 116.4 856.066 116.4C855.266 116.4 854.61 116.656 854.098 117.168C853.586 117.68 853.33 118.456 853.33 119.496ZM865.708 126.24C864.572 126.24 863.548 125.984 862.636 125.472C861.724 124.944 861.004 124.232 860.476 123.336C859.948 122.44 859.684 121.424 859.684 120.288C859.684 119.168 859.94 118.16 860.452 117.264C860.98 116.368 861.684 115.664 862.564 115.152C863.46 114.624 864.46 114.36 865.564 114.36C866.62 114.36 867.548 114.6 868.348 115.08C869.164 115.56 869.796 116.224 870.244 117.072C870.708 117.92 870.94 118.88 870.94 119.952C870.94 120.112 870.932 120.288 870.916 120.48C870.9 120.656 870.868 120.864 870.82 121.104H861.196V119.304H869.668L868.876 120C868.876 119.232 868.74 118.584 868.468 118.056C868.196 117.512 867.812 117.096 867.316 116.808C866.82 116.504 866.22 116.352 865.516 116.352C864.78 116.352 864.132 116.512 863.572 116.832C863.012 117.152 862.58 117.6 862.276 118.176C861.972 118.752 861.82 119.432 861.82 120.216C861.82 121.016 861.98 121.72 862.3 122.328C862.62 122.92 863.076 123.384 863.668 123.72C864.26 124.04 864.94 124.2 865.708 124.2C866.348 124.2 866.932 124.088 867.46 123.864C868.004 123.64 868.468 123.304 868.852 122.856L870.244 124.272C869.7 124.912 869.028 125.4 868.228 125.736C867.444 126.072 866.604 126.24 865.708 126.24ZM879.295 126.24C878.431 126.24 877.647 126.064 876.943 125.712C876.255 125.344 875.703 124.84 875.287 124.2C874.871 123.56 874.639 122.832 874.591 122.016V118.584C874.639 117.752 874.871 117.024 875.287 116.4C875.719 115.76 876.279 115.264 876.967 114.912C877.671 114.544 878.447 114.36 879.295 114.36C880.335 114.36 881.271 114.624 882.103 115.152C882.951 115.68 883.615 116.392 884.095 117.288C884.575 118.184 884.815 119.192 884.815 120.312C884.815 121.432 884.575 122.44 884.095 123.336C883.615 124.232 882.951 124.944 882.103 125.472C881.271 125.984 880.335 126.24 879.295 126.24ZM873.295 130.776V114.6H875.455V117.6L875.047 120.36L875.455 123.144V130.776H873.295ZM878.935 124.2C879.655 124.2 880.287 124.032 880.831 123.696C881.375 123.36 881.807 122.904 882.127 122.328C882.447 121.736 882.607 121.056 882.607 120.288C882.607 119.536 882.447 118.864 882.127 118.272C881.807 117.68 881.375 117.224 880.831 116.904C880.287 116.568 879.663 116.4 878.959 116.4C878.239 116.4 877.607 116.568 877.063 116.904C876.519 117.224 876.095 117.68 875.791 118.272C875.487 118.864 875.335 119.544 875.335 120.312C875.335 121.064 875.479 121.736 875.767 122.328C876.071 122.904 876.495 123.36 877.039 123.696C877.599 124.032 878.231 124.2 878.935 124.2Z" fill="black"/>
<path d="M669.968 227V210.344H671.552L678.608 221.936H677.528L684.584 210.344H686.168V227H683.912V214.304L684.44 214.448L678.872 223.592H677.288L671.72 214.448L672.224 214.304V227H669.968ZM694.565 227.24C693.525 227.24 692.581 226.984 691.733 226.472C690.885 225.944 690.213 225.232 689.717 224.336C689.237 223.44 688.997 222.432 688.997 221.312C688.997 220.192 689.237 219.184 689.717 218.288C690.213 217.392 690.877 216.68 691.709 216.152C692.557 215.624 693.509 215.36 694.565 215.36C695.429 215.36 696.197 215.544 696.869 215.912C697.557 216.264 698.109 216.76 698.525 217.4C698.941 218.024 699.173 218.752 699.221 219.584V223.016C699.173 223.832 698.941 224.56 698.525 225.2C698.125 225.84 697.581 226.344 696.893 226.712C696.221 227.064 695.445 227.24 694.565 227.24ZM694.925 225.2C695.997 225.2 696.861 224.84 697.517 224.12C698.173 223.384 698.501 222.448 698.501 221.312C698.501 220.528 698.349 219.848 698.045 219.272C697.757 218.68 697.341 218.224 696.797 217.904C696.253 217.568 695.621 217.4 694.901 217.4C694.181 217.4 693.541 217.568 692.981 217.904C692.437 218.24 692.005 218.704 691.685 219.296C691.381 219.872 691.229 220.536 691.229 221.288C691.229 222.056 691.381 222.736 691.685 223.328C692.005 223.904 692.445 224.36 693.005 224.696C693.565 225.032 694.205 225.2 694.925 225.2ZM698.357 227V223.928L698.765 221.144L698.357 218.384V215.6H700.541V227H698.357ZM705.391 227V210.824H707.551V227H705.391ZM702.583 217.568V215.6H710.359V217.568H702.583ZM720.539 227V220.352C720.539 219.488 720.267 218.776 719.723 218.216C719.179 217.656 718.475 217.376 717.611 217.376C717.035 217.376 716.523 217.504 716.075 217.76C715.627 218.016 715.275 218.368 715.019 218.816C714.763 219.264 714.635 219.776 714.635 220.352L713.747 219.848C713.747 218.984 713.939 218.216 714.323 217.544C714.707 216.872 715.243 216.344 715.931 215.96C716.619 215.56 717.395 215.36 718.259 215.36C719.123 215.36 719.883 215.552 720.539 215.936C721.211 216.32 721.739 216.856 722.123 217.544C722.507 218.232 722.699 219.024 722.699 219.92V227H720.539ZM712.475 227V209.864H714.635V227H712.475ZM738.559 227.24C737.359 227.24 736.247 227.024 735.223 226.592C734.199 226.144 733.303 225.528 732.535 224.744C731.783 223.96 731.199 223.048 730.783 222.008C730.367 220.968 730.159 219.856 730.159 218.672C730.159 217.472 730.367 216.352 730.783 215.312C731.199 214.272 731.783 213.368 732.535 212.6C733.303 211.816 734.191 211.208 735.199 210.776C736.223 210.328 737.335 210.104 738.535 210.104C739.847 210.104 740.999 210.328 741.991 210.776C742.983 211.224 743.863 211.832 744.631 212.6L743.071 214.16C742.543 213.568 741.895 213.104 741.127 212.768C740.375 212.432 739.511 212.264 738.535 212.264C737.655 212.264 736.847 212.424 736.111 212.744C735.375 213.048 734.735 213.488 734.191 214.064C733.647 214.64 733.223 215.32 732.919 216.104C732.631 216.888 732.487 217.744 732.487 218.672C732.487 219.6 732.631 220.456 732.919 221.24C733.223 222.024 733.647 222.704 734.191 223.28C734.735 223.856 735.375 224.304 736.111 224.624C736.847 224.928 737.655 225.08 738.535 225.08C739.575 225.08 740.479 224.912 741.247 224.576C742.015 224.224 742.663 223.752 743.191 223.16L744.751 224.696C743.983 225.496 743.079 226.12 742.039 226.568C741.015 227.016 739.855 227.24 738.559 227.24ZM747.139 227V209.864H749.299V227H747.139ZM757.307 227.24C756.267 227.24 755.323 226.984 754.475 226.472C753.627 225.944 752.955 225.232 752.459 224.336C751.979 223.44 751.739 222.432 751.739 221.312C751.739 220.192 751.979 219.184 752.459 218.288C752.955 217.392 753.619 216.68 754.451 216.152C755.299 215.624 756.251 215.36 757.307 215.36C758.171 215.36 758.939 215.544 759.611 215.912C760.299 216.264 760.851 216.76 761.267 217.4C761.683 218.024 761.915 218.752 761.963 219.584V223.016C761.915 223.832 761.683 224.56 761.267 225.2C760.867 225.84 760.323 226.344 759.635 226.712C758.963 227.064 758.187 227.24 757.307 227.24ZM757.667 225.2C758.739 225.2 759.603 224.84 760.259 224.12C760.915 223.384 761.243 222.448 761.243 221.312C761.243 220.528 761.091 219.848 760.787 219.272C760.499 218.68 760.083 218.224 759.539 217.904C758.995 217.568 758.363 217.4 757.643 217.4C756.923 217.4 756.283 217.568 755.723 217.904C755.179 218.24 754.747 218.704 754.427 219.296C754.123 219.872 753.971 220.536 753.971 221.288C753.971 222.056 754.123 222.736 754.427 223.328C754.747 223.904 755.187 224.36 755.747 224.696C756.307 225.032 756.947 225.2 757.667 225.2ZM761.099 227V223.928L761.507 221.144L761.099 218.384V215.6H763.283V227H761.099ZM770.052 227.24C769.412 227.24 768.804 227.16 768.228 227C767.668 226.824 767.148 226.584 766.668 226.28C766.188 225.96 765.772 225.584 765.42 225.152L766.812 223.76C767.228 224.272 767.708 224.656 768.252 224.912C768.796 225.152 769.404 225.272 770.076 225.272C770.748 225.272 771.268 225.16 771.636 224.936C772.004 224.696 772.188 224.368 772.188 223.952C772.188 223.536 772.036 223.216 771.732 222.992C771.444 222.752 771.068 222.56 770.604 222.416C770.14 222.256 769.644 222.104 769.116 221.96C768.604 221.8 768.116 221.6 767.652 221.36C767.188 221.12 766.804 220.792 766.5 220.376C766.212 219.96 766.068 219.408 766.068 218.72C766.068 218.032 766.236 217.44 766.572 216.944C766.908 216.432 767.372 216.04 767.964 215.768C768.572 215.496 769.3 215.36 770.148 215.36C771.044 215.36 771.836 215.52 772.524 215.84C773.228 216.144 773.804 216.608 774.252 217.232L772.86 218.624C772.54 218.208 772.14 217.888 771.66 217.664C771.196 217.44 770.668 217.328 770.076 217.328C769.452 217.328 768.972 217.44 768.636 217.664C768.316 217.872 768.156 218.168 768.156 218.552C768.156 218.936 768.3 219.232 768.588 219.44C768.876 219.648 769.252 219.824 769.716 219.968C770.196 220.112 770.692 220.264 771.204 220.424C771.716 220.568 772.204 220.768 772.668 221.024C773.132 221.28 773.508 221.624 773.796 222.056C774.1 222.488 774.252 223.056 774.252 223.76C774.252 224.832 773.868 225.68 773.1 226.304C772.348 226.928 771.332 227.24 770.052 227.24ZM780.294 227.24C779.654 227.24 779.046 227.16 778.47 227C777.91 226.824 777.39 226.584 776.91 226.28C776.43 225.96 776.014 225.584 775.662 225.152L777.054 223.76C777.47 224.272 777.95 224.656 778.494 224.912C779.038 225.152 779.646 225.272 780.318 225.272C780.99 225.272 781.51 225.16 781.878 224.936C782.246 224.696 782.43 224.368 782.43 223.952C782.43 223.536 782.278 223.216 781.974 222.992C781.686 222.752 781.31 222.56 780.846 222.416C780.382 222.256 779.886 222.104 779.358 221.96C778.846 221.8 778.358 221.6 777.894 221.36C777.43 221.12 777.046 220.792 776.742 220.376C776.454 219.96 776.31 219.408 776.31 218.72C776.31 218.032 776.478 217.44 776.814 216.944C777.15 216.432 777.614 216.04 778.206 215.768C778.814 215.496 779.542 215.36 780.39 215.36C781.286 215.36 782.078 215.52 782.766 215.84C783.47 216.144 784.046 216.608 784.494 217.232L783.102 218.624C782.782 218.208 782.382 217.888 781.902 217.664C781.438 217.44 780.91 217.328 780.318 217.328C779.694 217.328 779.214 217.44 778.878 217.664C778.558 217.872 778.398 218.168 778.398 218.552C778.398 218.936 778.542 219.232 778.83 219.44C779.118 219.648 779.494 219.824 779.958 219.968C780.438 220.112 780.934 220.264 781.446 220.424C781.958 220.568 782.446 220.768 782.91 221.024C783.374 221.28 783.75 221.624 784.038 222.056C784.342 222.488 784.494 223.056 784.494 223.76C784.494 224.832 784.11 225.68 783.342 226.304C782.59 226.928 781.574 227.24 780.294 227.24ZM792.192 227.24C791.056 227.24 790.032 226.984 789.12 226.472C788.208 225.944 787.488 225.232 786.96 224.336C786.432 223.44 786.168 222.424 786.168 221.288C786.168 220.168 786.424 219.16 786.936 218.264C787.464 217.368 788.168 216.664 789.048 216.152C789.944 215.624 790.944 215.36 792.048 215.36C793.104 215.36 794.032 215.6 794.832 216.08C795.648 216.56 796.28 217.224 796.728 218.072C797.192 218.92 797.424 219.88 797.424 220.952C797.424 221.112 797.416 221.288 797.4 221.48C797.384 221.656 797.352 221.864 797.304 222.104H787.68V220.304H796.152L795.36 221C795.36 220.232 795.224 219.584 794.952 219.056C794.68 218.512 794.296 218.096 793.8 217.808C793.304 217.504 792.704 217.352 792 217.352C791.264 217.352 790.616 217.512 790.056 217.832C789.496 218.152 789.064 218.6 788.76 219.176C788.456 219.752 788.304 220.432 788.304 221.216C788.304 222.016 788.464 222.72 788.784 223.328C789.104 223.92 789.56 224.384 790.152 224.72C790.744 225.04 791.424 225.2 792.192 225.2C792.832 225.2 793.416 225.088 793.944 224.864C794.488 224.64 794.952 224.304 795.336 223.856L796.728 225.272C796.184 225.912 795.512 226.4 794.712 226.736C793.928 227.072 793.088 227.24 792.192 227.24ZM803.403 227.24C802.763 227.24 802.155 227.16 801.579 227C801.019 226.824 800.499 226.584 800.019 226.28C799.539 225.96 799.123 225.584 798.771 225.152L800.163 223.76C800.579 224.272 801.059 224.656 801.603 224.912C802.147 225.152 802.755 225.272 803.427 225.272C804.099 225.272 804.619 225.16 804.987 224.936C805.355 224.696 805.539 224.368 805.539 223.952C805.539 223.536 805.387 223.216 805.083 222.992C804.795 222.752 804.419 222.56 803.955 222.416C803.491 222.256 802.995 222.104 802.467 221.96C801.955 221.8 801.467 221.6 801.003 221.36C800.539 221.12 800.155 220.792 799.851 220.376C799.563 219.96 799.419 219.408 799.419 218.72C799.419 218.032 799.587 217.44 799.923 216.944C800.259 216.432 800.723 216.04 801.315 215.768C801.923 215.496 802.651 215.36 803.499 215.36C804.395 215.36 805.187 215.52 805.875 215.84C806.579 216.144 807.155 216.608 807.603 217.232L806.211 218.624C805.891 218.208 805.491 217.888 805.011 217.664C804.547 217.44 804.019 217.328 803.427 217.328C802.803 217.328 802.323 217.44 801.987 217.664C801.667 217.872 801.507 218.168 801.507 218.552C801.507 218.936 801.651 219.232 801.939 219.44C802.227 219.648 802.603 219.824 803.067 219.968C803.547 220.112 804.043 220.264 804.555 220.424C805.067 220.568 805.555 220.768 806.019 221.024C806.483 221.28 806.859 221.624 807.147 222.056C807.451 222.488 807.603 223.056 807.603 223.76C807.603 224.832 807.219 225.68 806.451 226.304C805.699 226.928 804.683 227.24 803.403 227.24Z" fill="white"/>
</svg>
