<svg width="324" height="60" viewBox="0 0 324 60" fill="none" xmlns="http://www.w3.org/2000/svg">
<rect width="324" height="60" rx="10" fill="#85CB84"/>
<g clip-path="url(#clip0_438_3111)">
<path d="M23.2083 30.7292V33.6563C23.2083 34.4167 23.625 35.125 24.2917 35.4896L29.5 38.3333C30.125 38.6771 30.875 38.6771 31.5 38.3333L36.7083 35.4896C37.375 35.125 37.7917 34.4167 37.7917 33.6563V30.7292L31.5 34.1667C30.875 34.5104 30.125 34.5104 29.5 34.1667L23.2083 30.7292ZM29.5 20.6667L20.7187 25.4583C20 25.8542 20 26.8958 20.7187 27.2917L29.5 32.0833C30.125 32.4271 30.875 32.4271 31.5 32.0833L39.875 27.5104V33.6667C39.875 34.2396 40.3437 34.7083 40.9167 34.7083C41.4896 34.7083 41.9583 34.2396 41.9583 33.6667V26.9896C41.9583 26.6042 41.75 26.2604 41.4167 26.0729L31.5 20.6667C31.1922 20.5025 30.8488 20.4167 30.5 20.4167C30.1512 20.4167 29.8078 20.5025 29.5 20.6667Z" fill="#1F3D1E"/>
</g>
<path d="M56.312 35L60.056 25.9H61.096L64.814 35H63.202L60.29 27.629H60.836L57.898 35H56.312ZM58.158 33.245V31.945H62.981V33.245H58.158ZM66.2584 35V27.941C66.2584 27.4643 66.3624 27.044 66.5704 26.68C66.7871 26.316 67.0818 26.03 67.4544 25.822C67.8358 25.614 68.2734 25.51 68.7674 25.51C69.1488 25.51 69.4738 25.575 69.7424 25.705C70.0111 25.835 70.2624 26.0213 70.4964 26.264L69.5734 27.187C69.4694 27.083 69.3568 27.0007 69.2354 26.94C69.1141 26.8793 68.9581 26.849 68.7674 26.849C68.4208 26.849 68.1521 26.9443 67.9614 27.135C67.7794 27.317 67.6884 27.5813 67.6884 27.928V35H66.2584ZM64.7634 30.06V28.76H69.5734V30.06H64.7634ZM71.2244 35V26.16H72.6544V35H71.2244ZM69.7294 30.06V28.76H74.1494V30.06H69.7294ZM77.9098 35.13C77.2858 35.13 76.7224 34.9913 76.2198 34.714C75.7258 34.428 75.3314 34.038 75.0368 33.544C74.7508 33.05 74.6078 32.4953 74.6078 31.88C74.6078 31.2647 74.7508 30.7143 75.0368 30.229C75.3228 29.735 75.7084 29.345 76.1938 29.059C76.6878 28.773 77.2338 28.63 77.8318 28.63C78.4124 28.63 78.9238 28.7643 79.3658 29.033C79.8164 29.3017 80.1674 29.67 80.4188 30.138C80.6788 30.606 80.8088 31.139 80.8088 31.737C80.8088 31.841 80.8001 31.9493 80.7828 32.062C80.7741 32.166 80.7568 32.283 80.7308 32.413H75.6088V31.243H79.9898L79.4568 31.711C79.4394 31.3297 79.3658 31.009 79.2358 30.749C79.1058 30.489 78.9194 30.2897 78.6768 30.151C78.4428 30.0123 78.1524 29.943 77.8058 29.943C77.4418 29.943 77.1254 30.021 76.8568 30.177C76.5881 30.333 76.3801 30.554 76.2328 30.84C76.0854 31.1173 76.0118 31.451 76.0118 31.841C76.0118 32.231 76.0898 32.5733 76.2458 32.868C76.4018 33.1627 76.6228 33.3923 76.9088 33.557C77.1948 33.713 77.5241 33.791 77.8968 33.791C78.2174 33.791 78.5121 33.7347 78.7808 33.622C79.0581 33.5093 79.2921 33.3447 79.4828 33.128L80.3928 34.051C80.0894 34.4063 79.7211 34.675 79.2878 34.857C78.8544 35.039 78.3951 35.13 77.9098 35.13ZM81.9551 35V28.76H83.3851V35H81.9551ZM83.3851 31.529L82.8911 31.282C82.8911 30.4933 83.0644 29.8563 83.4111 29.371C83.7664 28.877 84.2994 28.63 85.0101 28.63C85.3221 28.63 85.6038 28.6863 85.8551 28.799C86.1064 28.9117 86.3404 29.0937 86.5571 29.345L85.6211 30.307C85.5084 30.1857 85.3828 30.099 85.2441 30.047C85.1054 29.995 84.9451 29.969 84.7631 29.969C84.3644 29.969 84.0351 30.0947 83.7751 30.346C83.5151 30.5973 83.3851 30.9917 83.3851 31.529ZM86.8809 32.361V31.009H91.2879V32.361H86.8809ZM95.2603 35.13C94.541 35.13 93.93 35 93.4273 34.74C92.9246 34.48 92.474 34.0987 92.0753 33.596L93.0893 32.582C93.3406 32.946 93.6396 33.232 93.9863 33.44C94.333 33.6393 94.775 33.739 95.3123 33.739C95.815 33.739 96.2136 33.635 96.5083 33.427C96.8116 33.219 96.9633 32.933 96.9633 32.569C96.9633 32.2657 96.8853 32.0187 96.7293 31.828C96.5733 31.6373 96.3653 31.4813 96.1053 31.36C95.854 31.23 95.5723 31.1173 95.2603 31.022C94.957 30.918 94.6493 30.8053 94.3373 30.684C94.034 30.554 93.7523 30.3937 93.4923 30.203C93.241 30.0123 93.0373 29.7653 92.8813 29.462C92.7253 29.1587 92.6473 28.773 92.6473 28.305C92.6473 27.7677 92.7773 27.3127 93.0373 26.94C93.306 26.5587 93.6656 26.2683 94.1163 26.069C94.567 25.8697 95.0696 25.77 95.6243 25.77C96.2223 25.77 96.7553 25.887 97.2233 26.121C97.7 26.355 98.0856 26.654 98.3803 27.018L97.3663 28.032C97.1063 27.7373 96.8333 27.5207 96.5473 27.382C96.27 27.2347 95.9493 27.161 95.5853 27.161C95.1346 27.161 94.7793 27.252 94.5193 27.434C94.268 27.616 94.1423 27.8717 94.1423 28.201C94.1423 28.4783 94.2203 28.7037 94.3763 28.877C94.5323 29.0417 94.736 29.1847 94.9873 29.306C95.2473 29.4187 95.529 29.527 95.8323 29.631C96.1443 29.735 96.452 29.852 96.7553 29.982C97.0673 30.112 97.349 30.281 97.6003 30.489C97.8603 30.6883 98.0683 30.9483 98.2243 31.269C98.3803 31.5897 98.4583 31.9927 98.4583 32.478C98.4583 33.2927 98.168 33.9383 97.5873 34.415C97.0153 34.8917 96.2396 35.13 95.2603 35.13ZM102.551 35.13C101.935 35.13 101.376 34.987 100.874 34.701C100.38 34.415 99.9898 34.025 99.7038 33.531C99.4178 33.037 99.2748 32.4867 99.2748 31.88C99.2748 31.2647 99.4178 30.7143 99.7038 30.229C99.9898 29.735 100.38 29.345 100.874 29.059C101.376 28.773 101.935 28.63 102.551 28.63C103.036 28.63 103.487 28.7253 103.903 28.916C104.327 29.098 104.687 29.3623 104.982 29.709L104.046 30.658C103.864 30.4413 103.643 30.281 103.383 30.177C103.131 30.0643 102.854 30.008 102.551 30.008C102.195 30.008 101.879 30.0903 101.602 30.255C101.333 30.411 101.121 30.6277 100.965 30.905C100.817 31.1823 100.744 31.5073 100.744 31.88C100.744 32.244 100.817 32.569 100.965 32.855C101.121 33.1323 101.333 33.3533 101.602 33.518C101.879 33.674 102.195 33.752 102.551 33.752C102.854 33.752 103.131 33.7 103.383 33.596C103.643 33.4833 103.864 33.3187 104.046 33.102L104.982 34.051C104.687 34.3977 104.327 34.6663 103.903 34.857C103.487 35.039 103.036 35.13 102.551 35.13ZM110.29 35V31.399C110.29 30.983 110.155 30.6407 109.887 30.372C109.627 30.1033 109.289 29.969 108.873 29.969C108.595 29.969 108.348 30.0297 108.132 30.151C107.915 30.2723 107.746 30.4413 107.625 30.658C107.503 30.8747 107.443 31.1217 107.443 31.399L106.884 31.087C106.884 30.6103 106.988 30.19 107.196 29.826C107.404 29.4533 107.69 29.163 108.054 28.955C108.426 28.7383 108.842 28.63 109.302 28.63C109.77 28.63 110.186 28.734 110.55 28.942C110.914 29.15 111.2 29.4403 111.408 29.813C111.616 30.177 111.72 30.6017 111.72 31.087V35H110.29ZM106.013 35V25.64H107.443V35H106.013ZM116.033 35.13C115.426 35.13 114.876 34.987 114.382 34.701C113.888 34.4063 113.494 34.012 113.199 33.518C112.913 33.024 112.77 32.4737 112.77 31.867C112.77 31.2603 112.913 30.7143 113.199 30.229C113.494 29.7437 113.888 29.358 114.382 29.072C114.876 28.7773 115.426 28.63 116.033 28.63C116.648 28.63 117.203 28.773 117.697 29.059C118.191 29.345 118.581 29.735 118.867 30.229C119.162 30.7143 119.309 31.2603 119.309 31.867C119.309 32.4737 119.162 33.024 118.867 33.518C118.581 34.012 118.191 34.4063 117.697 34.701C117.203 34.987 116.648 35.13 116.033 35.13ZM116.033 33.752C116.388 33.752 116.7 33.674 116.969 33.518C117.246 33.3533 117.459 33.128 117.606 32.842C117.762 32.556 117.84 32.231 117.84 31.867C117.84 31.503 117.762 31.1823 117.606 30.905C117.45 30.6277 117.238 30.411 116.969 30.255C116.7 30.0903 116.388 30.008 116.033 30.008C115.686 30.008 115.374 30.0903 115.097 30.255C114.828 30.411 114.616 30.6277 114.46 30.905C114.313 31.1823 114.239 31.503 114.239 31.867C114.239 32.231 114.313 32.556 114.46 32.842C114.616 33.128 114.828 33.3533 115.097 33.518C115.374 33.674 115.686 33.752 116.033 33.752ZM123.358 35.13C122.751 35.13 122.201 34.987 121.707 34.701C121.213 34.4063 120.819 34.012 120.524 33.518C120.238 33.024 120.095 32.4737 120.095 31.867C120.095 31.2603 120.238 30.7143 120.524 30.229C120.819 29.7437 121.213 29.358 121.707 29.072C122.201 28.7773 122.751 28.63 123.358 28.63C123.973 28.63 124.528 28.773 125.022 29.059C125.516 29.345 125.906 29.735 126.192 30.229C126.487 30.7143 126.634 31.2603 126.634 31.867C126.634 32.4737 126.487 33.024 126.192 33.518C125.906 34.012 125.516 34.4063 125.022 34.701C124.528 34.987 123.973 35.13 123.358 35.13ZM123.358 33.752C123.713 33.752 124.025 33.674 124.294 33.518C124.571 33.3533 124.784 33.128 124.931 32.842C125.087 32.556 125.165 32.231 125.165 31.867C125.165 31.503 125.087 31.1823 124.931 30.905C124.775 30.6277 124.563 30.411 124.294 30.255C124.025 30.0903 123.713 30.008 123.358 30.008C123.011 30.008 122.699 30.0903 122.422 30.255C122.153 30.411 121.941 30.6277 121.785 30.905C121.638 31.1823 121.564 31.503 121.564 31.867C121.564 32.231 121.638 32.556 121.785 32.842C121.941 33.128 122.153 33.3533 122.422 33.518C122.699 33.674 123.011 33.752 123.358 33.752ZM127.823 35V25.64H129.253V35H127.823ZM134.669 31.568V30.268H136.944C137.256 30.268 137.529 30.2073 137.763 30.086C138.006 29.956 138.197 29.7783 138.335 29.553C138.474 29.319 138.543 29.046 138.543 28.734C138.543 28.422 138.474 28.1533 138.335 27.928C138.197 27.694 138.006 27.5163 137.763 27.395C137.529 27.265 137.256 27.2 136.944 27.2H134.669V25.9H137.022C137.594 25.9 138.106 26.017 138.556 26.251C139.016 26.485 139.375 26.8143 139.635 27.239C139.904 27.6637 140.038 28.162 140.038 28.734C140.038 29.306 139.904 29.8043 139.635 30.229C139.375 30.6537 139.016 30.983 138.556 31.217C138.106 31.451 137.594 31.568 137.022 31.568H134.669ZM133.642 35V25.9H135.137V35H133.642ZM141.293 35V28.76H142.723V35H141.293ZM142.723 31.529L142.229 31.282C142.229 30.4933 142.402 29.8563 142.749 29.371C143.104 28.877 143.637 28.63 144.348 28.63C144.66 28.63 144.942 28.6863 145.193 28.799C145.444 28.9117 145.678 29.0937 145.895 29.345L144.959 30.307C144.846 30.1857 144.721 30.099 144.582 30.047C144.443 29.995 144.283 29.969 144.101 29.969C143.702 29.969 143.373 30.0947 143.113 30.346C142.853 30.5973 142.723 30.9917 142.723 31.529ZM149.257 35.13C148.65 35.13 148.1 34.987 147.606 34.701C147.112 34.4063 146.717 34.012 146.423 33.518C146.137 33.024 145.994 32.4737 145.994 31.867C145.994 31.2603 146.137 30.7143 146.423 30.229C146.717 29.7437 147.112 29.358 147.606 29.072C148.1 28.7773 148.65 28.63 149.257 28.63C149.872 28.63 150.427 28.773 150.921 29.059C151.415 29.345 151.805 29.735 152.091 30.229C152.385 30.7143 152.533 31.2603 152.533 31.867C152.533 32.4737 152.385 33.024 152.091 33.518C151.805 34.012 151.415 34.4063 150.921 34.701C150.427 34.987 149.872 35.13 149.257 35.13ZM149.257 33.752C149.612 33.752 149.924 33.674 150.193 33.518C150.47 33.3533 150.682 33.128 150.83 32.842C150.986 32.556 151.064 32.231 151.064 31.867C151.064 31.503 150.986 31.1823 150.83 30.905C150.674 30.6277 150.461 30.411 150.193 30.255C149.924 30.0903 149.612 30.008 149.257 30.008C148.91 30.008 148.598 30.0903 148.321 30.255C148.052 30.411 147.84 30.6277 147.684 30.905C147.536 31.1823 147.463 31.503 147.463 31.867C147.463 32.231 147.536 32.556 147.684 32.842C147.84 33.128 148.052 33.3533 148.321 33.518C148.598 33.674 148.91 33.752 149.257 33.752ZM156.322 37.73C155.663 37.73 155.087 37.6087 154.593 37.366C154.099 37.132 153.7 36.7983 153.397 36.365L154.333 35.429C154.584 35.741 154.87 35.975 155.191 36.131C155.511 36.287 155.897 36.365 156.348 36.365C156.911 36.365 157.357 36.2177 157.687 35.923C158.016 35.637 158.181 35.2427 158.181 34.74V33.206L158.428 31.828L158.181 30.437V28.76H159.611V34.74C159.611 35.338 159.472 35.858 159.195 36.3C158.917 36.7507 158.532 37.1017 158.038 37.353C157.544 37.6043 156.972 37.73 156.322 37.73ZM156.257 34.87C155.702 34.87 155.199 34.7357 154.749 34.467C154.307 34.1897 153.956 33.8127 153.696 33.336C153.444 32.8593 153.319 32.3263 153.319 31.737C153.319 31.1477 153.444 30.619 153.696 30.151C153.956 29.683 154.307 29.3147 154.749 29.046C155.199 28.7687 155.702 28.63 156.257 28.63C156.751 28.63 157.184 28.7297 157.557 28.929C157.929 29.1283 158.22 29.4057 158.428 29.761C158.636 30.1077 158.74 30.515 158.74 30.983V32.517C158.74 32.9763 158.631 33.3837 158.415 33.739C158.207 34.0943 157.916 34.3717 157.544 34.571C157.171 34.7703 156.742 34.87 156.257 34.87ZM156.543 33.518C156.889 33.518 157.193 33.4443 157.453 33.297C157.713 33.1497 157.912 32.946 158.051 32.686C158.198 32.4173 158.272 32.1053 158.272 31.75C158.272 31.3947 158.198 31.087 158.051 30.827C157.912 30.5583 157.713 30.3503 157.453 30.203C157.193 30.0557 156.889 29.982 156.543 29.982C156.196 29.982 155.888 30.0557 155.62 30.203C155.36 30.3503 155.156 30.5583 155.009 30.827C154.861 31.087 154.788 31.3947 154.788 31.75C154.788 32.0967 154.861 32.4043 155.009 32.673C155.156 32.9417 155.36 33.1497 155.62 33.297C155.888 33.4443 156.196 33.518 156.543 33.518ZM161.199 35V28.76H162.629V35H161.199ZM162.629 31.529L162.135 31.282C162.135 30.4933 162.309 29.8563 162.655 29.371C163.011 28.877 163.544 28.63 164.254 28.63C164.566 28.63 164.848 28.6863 165.099 28.799C165.351 28.9117 165.585 29.0937 165.801 29.345L164.865 30.307C164.753 30.1857 164.627 30.099 164.488 30.047C164.35 29.995 164.189 29.969 164.007 29.969C163.609 29.969 163.279 30.0947 163.019 30.346C162.759 30.5973 162.629 30.9917 162.629 31.529ZM168.916 35.13C168.352 35.13 167.841 34.987 167.382 34.701C166.931 34.415 166.571 34.0293 166.303 33.544C166.043 33.05 165.913 32.4997 165.913 31.893C165.913 31.2777 166.043 30.7273 166.303 30.242C166.571 29.748 166.931 29.358 167.382 29.072C167.841 28.7773 168.352 28.63 168.916 28.63C169.392 28.63 169.813 28.734 170.177 28.942C170.549 29.1413 170.844 29.4187 171.061 29.774C171.277 30.1293 171.386 30.5323 171.386 30.983V32.777C171.386 33.2277 171.277 33.6307 171.061 33.986C170.853 34.3413 170.562 34.623 170.19 34.831C169.817 35.0303 169.392 35.13 168.916 35.13ZM169.15 33.778C169.678 33.778 170.103 33.6003 170.424 33.245C170.753 32.8897 170.918 32.4347 170.918 31.88C170.918 31.5073 170.844 31.178 170.697 30.892C170.549 30.606 170.341 30.385 170.073 30.229C169.813 30.0643 169.505 29.982 169.15 29.982C168.803 29.982 168.495 30.0643 168.227 30.229C167.967 30.385 167.759 30.606 167.603 30.892C167.455 31.178 167.382 31.5073 167.382 31.88C167.382 32.2527 167.455 32.582 167.603 32.868C167.759 33.154 167.967 33.3793 168.227 33.544C168.495 33.7 168.803 33.778 169.15 33.778ZM170.827 35V33.323L171.074 31.802L170.827 30.294V28.76H172.257V35H170.827ZM173.844 35V28.76H175.274V35H173.844ZM177.991 35V31.282C177.991 30.866 177.861 30.5453 177.601 30.32C177.341 30.086 177.02 29.969 176.639 29.969C176.379 29.969 176.145 30.021 175.937 30.125C175.737 30.229 175.577 30.3807 175.456 30.58C175.334 30.7707 175.274 31.0047 175.274 31.282L174.715 30.97C174.715 30.4933 174.819 30.0817 175.027 29.735C175.235 29.3883 175.516 29.1197 175.872 28.929C176.227 28.7297 176.626 28.63 177.068 28.63C177.51 28.63 177.908 28.7253 178.264 28.916C178.619 29.1067 178.901 29.3753 179.109 29.722C179.317 30.0687 179.421 30.4847 179.421 30.97V35H177.991ZM182.138 35V31.282C182.138 30.866 182.008 30.5453 181.748 30.32C181.488 30.086 181.167 29.969 180.786 29.969C180.534 29.969 180.305 30.021 180.097 30.125C179.889 30.229 179.724 30.3807 179.603 30.58C179.481 30.7707 179.421 31.0047 179.421 31.282L178.615 30.97C178.658 30.4933 178.797 30.0817 179.031 29.735C179.265 29.3883 179.564 29.1197 179.928 28.929C180.3 28.7297 180.708 28.63 181.15 28.63C181.6 28.63 182.008 28.7253 182.372 28.916C182.736 29.1067 183.026 29.3753 183.243 29.722C183.459 30.0687 183.568 30.4847 183.568 30.97V35H182.138ZM187.082 35.13C186.735 35.13 186.402 35.0867 186.081 35C185.76 34.9047 185.466 34.7747 185.197 34.61C184.928 34.4367 184.694 34.2287 184.495 33.986L185.405 33.076C185.622 33.3273 185.869 33.518 186.146 33.648C186.432 33.7693 186.753 33.83 187.108 33.83C187.429 33.83 187.671 33.7823 187.836 33.687C188.001 33.5917 188.083 33.453 188.083 33.271C188.083 33.0803 188.005 32.933 187.849 32.829C187.693 32.725 187.489 32.6383 187.238 32.569C186.995 32.491 186.735 32.413 186.458 32.335C186.189 32.257 185.929 32.153 185.678 32.023C185.435 31.8843 185.236 31.698 185.08 31.464C184.924 31.23 184.846 30.9267 184.846 30.554C184.846 30.1553 184.937 29.813 185.119 29.527C185.31 29.241 185.574 29.02 185.912 28.864C186.259 28.708 186.67 28.63 187.147 28.63C187.65 28.63 188.092 28.721 188.473 28.903C188.863 29.0763 189.188 29.3407 189.448 29.696L188.538 30.606C188.356 30.3807 188.148 30.2117 187.914 30.099C187.68 29.9863 187.411 29.93 187.108 29.93C186.822 29.93 186.601 29.9733 186.445 30.06C186.289 30.1467 186.211 30.2723 186.211 30.437C186.211 30.6103 186.289 30.7447 186.445 30.84C186.601 30.9353 186.8 31.0177 187.043 31.087C187.294 31.1563 187.554 31.2343 187.823 31.321C188.1 31.399 188.36 31.5117 188.603 31.659C188.854 31.7977 189.058 31.9883 189.214 32.231C189.37 32.465 189.448 32.7727 189.448 33.154C189.448 33.7607 189.236 34.2417 188.811 34.597C188.386 34.9523 187.81 35.13 187.082 35.13Z" fill="#1F3D1E"/>
<path fill-rule="evenodd" clip-rule="evenodd" d="M297.772 30.474L294 34.2453L293.058 33.3027L296.358 30.0027L293.058 26.7027L294 25.76L297.772 29.5313C297.897 29.6563 297.967 29.8259 297.967 30.0027C297.967 30.1794 297.897 30.349 297.772 30.474Z" fill="black"/>
<defs>
<clipPath id="clip0_438_3111">
<rect width="25" height="25" fill="white" transform="translate(18 17)"/>
</clipPath>
</defs>
</svg>
