<svg width="324" height="60" viewBox="0 0 324 60" fill="none" xmlns="http://www.w3.org/2000/svg">
<rect width="324" height="60" rx="10" fill="#9DCBD6"/>
<path d="M40.8333 35.7083C41.3859 35.7083 41.9158 35.4888 42.3065 35.0981C42.6972 34.7074 42.9167 34.1775 42.9167 33.625V22.1667C42.9167 21.6141 42.6972 21.0842 42.3065 20.6935C41.9158 20.3028 41.3859 20.0833 40.8333 20.0833H29.8542C30.2188 20.7187 30.4167 21.4375 30.4167 22.1667H40.8333V33.625H31.4583V35.7083M35.625 25.2917V27.375H29.375V40.9167H27.2917V34.6667H25.2083V40.9167H23.125V32.5833H21.5625V27.375C21.5625 26.8225 21.782 26.2926 22.1727 25.9019C22.5634 25.5112 23.0933 25.2917 23.6458 25.2917H35.625ZM28.3333 22.1667C28.3333 22.7192 28.1138 23.2491 27.7231 23.6398C27.3324 24.0305 26.8025 24.25 26.25 24.25C25.6975 24.25 25.1676 24.0305 24.7769 23.6398C24.3862 23.2491 24.1667 22.7192 24.1667 22.1667C24.1667 21.6141 24.3862 21.0842 24.7769 20.6935C25.1676 20.3028 25.6975 20.0833 26.25 20.0833C26.8025 20.0833 27.3324 20.3028 27.7231 20.6935C28.1138 21.0842 28.3333 21.6141 28.3333 22.1667Z" fill="#114B59"/>
<path d="M58.015 31.568V30.268H60.29C60.602 30.268 60.875 30.2073 61.109 30.086C61.3517 29.956 61.5423 29.7783 61.681 29.553C61.8197 29.319 61.889 29.046 61.889 28.734C61.889 28.422 61.8197 28.1533 61.681 27.928C61.5423 27.694 61.3517 27.5163 61.109 27.395C60.875 27.265 60.602 27.2 60.29 27.2H58.015V25.9H60.368C60.94 25.9 61.4513 26.017 61.902 26.251C62.3613 26.485 62.721 26.8143 62.981 27.239C63.2497 27.6637 63.384 28.162 63.384 28.734C63.384 29.306 63.2497 29.8043 62.981 30.229C62.721 30.6537 62.3613 30.983 61.902 31.217C61.4513 31.451 60.94 31.568 60.368 31.568H58.015ZM56.988 35V25.9H58.483V35H56.988ZM64.6387 35V28.76H66.0687V35H64.6387ZM66.0687 31.529L65.5747 31.282C65.5747 30.4933 65.748 29.8563 66.0947 29.371C66.45 28.877 66.983 28.63 67.6937 28.63C68.0057 28.63 68.2874 28.6863 68.5387 28.799C68.79 28.9117 69.024 29.0937 69.2407 29.345L68.3047 30.307C68.192 30.1857 68.0664 30.099 67.9277 30.047C67.789 29.995 67.6287 29.969 67.4467 29.969C67.048 29.969 66.7187 30.0947 66.4587 30.346C66.1987 30.5973 66.0687 30.9917 66.0687 31.529ZM69.9456 35V28.76H71.3756V35H69.9456ZM70.6606 27.616C70.418 27.616 70.2143 27.5337 70.0496 27.369C69.8936 27.2043 69.8156 27.0007 69.8156 26.758C69.8156 26.5153 69.8936 26.3117 70.0496 26.147C70.2143 25.9823 70.418 25.9 70.6606 25.9C70.912 25.9 71.1156 25.9823 71.2716 26.147C71.4276 26.3117 71.5056 26.5153 71.5056 26.758C71.5056 27.0007 71.4276 27.2043 71.2716 27.369C71.1156 27.5337 70.912 27.616 70.6606 27.616ZM75.0855 35L72.2385 28.76H73.8245L75.9955 33.843H75.0595L77.2435 28.76H78.7645L75.9175 35H75.0855ZM82.0037 35.13C81.4403 35.13 80.929 34.987 80.4697 34.701C80.019 34.415 79.6593 34.0293 79.3907 33.544C79.1307 33.05 79.0007 32.4997 79.0007 31.893C79.0007 31.2777 79.1307 30.7273 79.3907 30.242C79.6593 29.748 80.019 29.358 80.4697 29.072C80.929 28.7773 81.4403 28.63 82.0037 28.63C82.4803 28.63 82.9007 28.734 83.2647 28.942C83.6373 29.1413 83.932 29.4187 84.1487 29.774C84.3653 30.1293 84.4737 30.5323 84.4737 30.983V32.777C84.4737 33.2277 84.3653 33.6307 84.1487 33.986C83.9407 34.3413 83.6503 34.623 83.2777 34.831C82.905 35.0303 82.4803 35.13 82.0037 35.13ZM82.2377 33.778C82.7663 33.778 83.191 33.6003 83.5117 33.245C83.841 32.8897 84.0057 32.4347 84.0057 31.88C84.0057 31.5073 83.932 31.178 83.7847 30.892C83.6373 30.606 83.4293 30.385 83.1607 30.229C82.9007 30.0643 82.593 29.982 82.2377 29.982C81.891 29.982 81.5833 30.0643 81.3147 30.229C81.0547 30.385 80.8467 30.606 80.6907 30.892C80.5433 31.178 80.4697 31.5073 80.4697 31.88C80.4697 32.2527 80.5433 32.582 80.6907 32.868C80.8467 33.154 81.0547 33.3793 81.3147 33.544C81.5833 33.7 81.891 33.778 82.2377 33.778ZM83.9147 35V33.323L84.1617 31.802L83.9147 30.294V28.76H85.3447V35H83.9147ZM87.8807 35V26.16H89.3107V35H87.8807ZM86.3857 30.06V28.76H90.8057V30.06H86.3857ZM94.566 35.13C93.942 35.13 93.3787 34.9913 92.876 34.714C92.382 34.428 91.9877 34.038 91.693 33.544C91.407 33.05 91.264 32.4953 91.264 31.88C91.264 31.2647 91.407 30.7143 91.693 30.229C91.979 29.735 92.3647 29.345 92.85 29.059C93.344 28.773 93.89 28.63 94.488 28.63C95.0687 28.63 95.58 28.7643 96.022 29.033C96.4727 29.3017 96.8237 29.67 97.075 30.138C97.335 30.606 97.465 31.139 97.465 31.737C97.465 31.841 97.4564 31.9493 97.439 32.062C97.4304 32.166 97.413 32.283 97.387 32.413H92.265V31.243H96.646L96.113 31.711C96.0957 31.3297 96.022 31.009 95.892 30.749C95.762 30.489 95.5757 30.2897 95.333 30.151C95.099 30.0123 94.8087 29.943 94.462 29.943C94.098 29.943 93.7817 30.021 93.513 30.177C93.2444 30.333 93.0364 30.554 92.889 30.84C92.7417 31.1173 92.668 31.451 92.668 31.841C92.668 32.231 92.746 32.5733 92.902 32.868C93.058 33.1627 93.279 33.3923 93.565 33.557C93.851 33.713 94.1804 33.791 94.553 33.791C94.8737 33.791 95.1684 33.7347 95.437 33.622C95.7144 33.5093 95.9484 33.3447 96.139 33.128L97.049 34.051C96.7457 34.4063 96.3774 34.675 95.944 34.857C95.5107 35.039 95.0514 35.13 94.566 35.13ZM103.494 35V26.16H104.989V35H103.494ZM100.53 27.265V25.9H107.953V27.265H100.53ZM110.351 35.13C109.822 35.13 109.35 35.013 108.934 34.779C108.527 34.545 108.206 34.2243 107.972 33.817C107.747 33.401 107.634 32.9243 107.634 32.387V28.76H109.064V32.322C109.064 32.6253 109.112 32.8853 109.207 33.102C109.311 33.31 109.458 33.4703 109.649 33.583C109.848 33.6957 110.082 33.752 110.351 33.752C110.767 33.752 111.083 33.6307 111.3 33.388C111.525 33.1367 111.638 32.7813 111.638 32.322V28.76H113.068V32.387C113.068 32.933 112.951 33.414 112.717 33.83C112.492 34.2373 112.175 34.558 111.768 34.792C111.361 35.0173 110.888 35.13 110.351 35.13ZM115.455 35V26.16H116.885V35H115.455ZM113.96 30.06V28.76H118.38V30.06H113.96ZM122.101 35.13C121.495 35.13 120.944 34.987 120.45 34.701C119.956 34.4063 119.562 34.012 119.267 33.518C118.981 33.024 118.838 32.4737 118.838 31.867C118.838 31.2603 118.981 30.7143 119.267 30.229C119.562 29.7437 119.956 29.358 120.45 29.072C120.944 28.7773 121.495 28.63 122.101 28.63C122.717 28.63 123.271 28.773 123.765 29.059C124.259 29.345 124.649 29.735 124.935 30.229C125.23 30.7143 125.377 31.2603 125.377 31.867C125.377 32.4737 125.23 33.024 124.935 33.518C124.649 34.012 124.259 34.4063 123.765 34.701C123.271 34.987 122.717 35.13 122.101 35.13ZM122.101 33.752C122.457 33.752 122.769 33.674 123.037 33.518C123.315 33.3533 123.527 33.128 123.674 32.842C123.83 32.556 123.908 32.231 123.908 31.867C123.908 31.503 123.83 31.1823 123.674 30.905C123.518 30.6277 123.306 30.411 123.037 30.255C122.769 30.0903 122.457 30.008 122.101 30.008C121.755 30.008 121.443 30.0903 121.165 30.255C120.897 30.411 120.684 30.6277 120.528 30.905C120.381 31.1823 120.307 31.503 120.307 31.867C120.307 32.231 120.381 32.556 120.528 32.842C120.684 33.128 120.897 33.3533 121.165 33.518C121.443 33.674 121.755 33.752 122.101 33.752ZM126.566 35V28.76H127.996V35H126.566ZM127.996 31.529L127.502 31.282C127.502 30.4933 127.676 29.8563 128.022 29.371C128.378 28.877 128.911 28.63 129.621 28.63C129.933 28.63 130.215 28.6863 130.466 28.799C130.718 28.9117 130.952 29.0937 131.168 29.345L130.232 30.307C130.12 30.1857 129.994 30.099 129.855 30.047C129.717 29.995 129.556 29.969 129.374 29.969C128.976 29.969 128.646 30.0947 128.386 30.346C128.126 30.5973 127.996 30.9917 127.996 31.529ZM131.873 35V28.76H133.303V35H131.873ZM132.588 27.616C132.346 27.616 132.142 27.5337 131.977 27.369C131.821 27.2043 131.743 27.0007 131.743 26.758C131.743 26.5153 131.821 26.3117 131.977 26.147C132.142 25.9823 132.346 25.9 132.588 25.9C132.84 25.9 133.043 25.9823 133.199 26.147C133.355 26.3117 133.433 26.5153 133.433 26.758C133.433 27.0007 133.355 27.2043 133.199 27.369C133.043 27.5337 132.84 27.616 132.588 27.616ZM139.184 35V31.399C139.184 30.983 139.05 30.6407 138.781 30.372C138.521 30.1033 138.183 29.969 137.767 29.969C137.49 29.969 137.243 30.0297 137.026 30.151C136.81 30.2723 136.641 30.4413 136.519 30.658C136.398 30.8747 136.337 31.1217 136.337 31.399L135.778 31.087C135.778 30.6103 135.882 30.19 136.09 29.826C136.298 29.4533 136.584 29.163 136.948 28.955C137.321 28.7383 137.737 28.63 138.196 28.63C138.664 28.63 139.08 28.7513 139.444 28.994C139.808 29.228 140.094 29.5357 140.302 29.917C140.51 30.2897 140.614 30.6797 140.614 31.087V35H139.184ZM134.907 35V28.76H136.337V35H134.907ZM144.667 37.73C144.009 37.73 143.432 37.6087 142.938 37.366C142.444 37.132 142.046 36.7983 141.742 36.365L142.678 35.429C142.93 35.741 143.216 35.975 143.536 36.131C143.857 36.287 144.243 36.365 144.693 36.365C145.257 36.365 145.703 36.2177 146.032 35.923C146.362 35.637 146.526 35.2427 146.526 34.74V33.206L146.773 31.828L146.526 30.437V28.76H147.956V34.74C147.956 35.338 147.818 35.858 147.54 36.3C147.263 36.7507 146.877 37.1017 146.383 37.353C145.889 37.6043 145.317 37.73 144.667 37.73ZM144.602 34.87C144.048 34.87 143.545 34.7357 143.094 34.467C142.652 34.1897 142.301 33.8127 142.041 33.336C141.79 32.8593 141.664 32.3263 141.664 31.737C141.664 31.1477 141.79 30.619 142.041 30.151C142.301 29.683 142.652 29.3147 143.094 29.046C143.545 28.7687 144.048 28.63 144.602 28.63C145.096 28.63 145.53 28.7297 145.902 28.929C146.275 29.1283 146.565 29.4057 146.773 29.761C146.981 30.1077 147.085 30.515 147.085 30.983V32.517C147.085 32.9763 146.977 33.3837 146.76 33.739C146.552 34.0943 146.262 34.3717 145.889 34.571C145.517 34.7703 145.088 34.87 144.602 34.87ZM144.888 33.518C145.235 33.518 145.538 33.4443 145.798 33.297C146.058 33.1497 146.258 32.946 146.396 32.686C146.544 32.4173 146.617 32.1053 146.617 31.75C146.617 31.3947 146.544 31.087 146.396 30.827C146.258 30.5583 146.058 30.3503 145.798 30.203C145.538 30.0557 145.235 29.982 144.888 29.982C144.542 29.982 144.234 30.0557 143.965 30.203C143.705 30.3503 143.502 30.5583 143.354 30.827C143.207 31.087 143.133 31.3947 143.133 31.75C143.133 32.0967 143.207 32.4043 143.354 32.673C143.502 32.9417 143.705 33.1497 143.965 33.297C144.234 33.4443 144.542 33.518 144.888 33.518Z" fill="#114B59"/>
<path fill-rule="evenodd" clip-rule="evenodd" d="M297.772 30.474L294 34.2453L293.058 33.3027L296.358 30.0027L293.058 26.7027L294 25.76L297.772 29.5313C297.897 29.6564 297.967 29.8259 297.967 30.0027C297.967 30.1794 297.897 30.349 297.772 30.474Z" fill="black"/>
</svg>
