<svg width="48" height="46" viewBox="0 0 48 46" fill="none" xmlns="http://www.w3.org/2000/svg">
<ellipse cx="23.5568" cy="22.5232" rx="23.5568" ry="22.5232" fill="url(#paint0_radial_497_6474)"/>
<path d="M35.0743 29.2335C35.0743 29.5214 35.0167 29.8093 34.9015 30.0742C34.7901 30.3397 34.6299 30.5819 34.4293 30.7883C34.2209 30.9852 33.979 31.1453 33.7153 31.2605C33.4448 31.3706 33.155 31.4254 32.863 31.4217C31.5595 31.3997 30.2577 31.5233 28.9817 31.7903C27.4697 31.9686 26.013 32.4672 24.7089 33.2529V16.081C25.9654 15.4821 27.3117 15.0928 28.6938 14.9292C30.1004 14.65 31.5329 14.5226 32.9666 14.5492C33.5378 14.5809 34.0744 14.8327 34.4639 15.2517C34.8439 15.6571 35.0547 16.1927 35.0512 16.7489L35.0743 29.2335ZM22.4055 16.081V33.2529C21.1228 32.4748 19.6903 31.9764 18.2017 31.7903C16.9018 31.5274 15.5775 31.4038 14.2514 31.4217C13.9594 31.4254 13.6696 31.3706 13.3991 31.2605C13.136 31.1447 12.8945 30.985 12.685 30.7883C12.4797 30.5857 12.3188 30.3425 12.2128 30.0742C12.0972 29.8091 12.0384 29.5227 12.0401 29.2335V16.6798C12.0419 16.1246 12.2547 15.5909 12.6353 15.1867C13.016 14.7825 13.536 14.5382 14.0901 14.5031C15.5547 14.4661 17.0189 14.5936 18.4551 14.8832C19.8299 15.0575 21.1654 15.4624 22.4055 16.081Z" fill="black"/>
<defs>
<radialGradient id="paint0_radial_497_6474" cx="0" cy="0" r="1" gradientUnits="userSpaceOnUse" gradientTransform="translate(23.5568 22.5232) rotate(90) scale(22.5232 23.5568)">
<stop stop-color="#6BB96A"/>
<stop offset="1" stop-color="#AFD9AE"/>
</radialGradient>
</defs>
</svg>
